<?xml version="1.0" encoding="utf-8"?>
<!-- Generator: Adobe Illustrator 24.2.3, SVG Export Plug-In . SVG Version: 6.00 Build 0)  -->
<svg version="1.1" id="图层_1" xmlns="http://www.w3.org/2000/svg" xmlns:xlink="http://www.w3.org/1999/xlink" x="0px" y="0px"
	 viewBox="0 0 270 350" style="enable-background:new 0 0 270 350;" xml:space="preserve">
<style type="text/css">
	.st0{fill:#DF0514;}
	.st1{fill:#004B9F;}
</style>
<g>
	<path class="st0" d="M196.3,255.2c-2.4-1.1-5.1-1-7.7-0.7c-15.1,1.3-30.3,3.1-45,6.8c0.2-3.6,0.4-7.2,0.4-10.9c0-0.6,0-1.1,0-1.7
		c4.6-1.3,9.2-2.2,14-2.9c0.3,2.4,1.2,4.6,2.9,6.3c8.4-11.4,16.8-22.9,25.1-34.3c-2.9-8.1-10.8-13.7-19.2-15.6
		c-6.5-1.4-13.2-1-19.7,0.3c3.9-5.9,7.5-11.9,10.7-18.2c12.4-1.5,25.1-1.2,37.3,1.2c-3.5-5.3-7.6-10.9-13.6-12.8
		c-3.9-1.2-8.1-0.6-12.2,0c-2.1,0.3-4.2,0.6-6.3,1c1.1-2.4,2.2-4.9,3.2-7.3c0.9-2.1,1.7-4.5,0.7-6.6c-0.8-1.7-2.7-2.7-4.4-3.5
		c-7-3.1-14.6-5.1-22.2-5.9c3.1,6.3,11,10.1,11.7,17.1c0.3,2.9-0.8,5.7-1.9,8.4c-0.1,0.2-0.2,0.5-0.3,0.7c-1.1,0.3-2.3,0.7-3.4,1.1
		c-6.2,2.2-12.1,5.4-18,8.4c-0.1-1.4-0.3-2.7-0.6-4.1c-2.2-9.2-9.5-17-18.5-19.9c4.7,2.9,5.9,9.3,5.4,14.9
		c-0.5,5.1-1.9,10.1-1.5,15.2c-5.8,1.5-11.7,2-17.4,0.4c-1.3-0.4-2.6-0.8-3.9-0.5c-2.3,0.5-3.5,3.4-2.9,5.7c0.5,2.3,2.3,4.2,4,5.8
		c1.7,1.6,3.6,3.3,4.5,5.5c5.3-4.2,11.1-7.8,17-11c1.4,3.6,3.6,6.9,5.7,10.1c4.4-4.3,7.2-10.2,8-16.4c5.5-2.1,11-3.8,16.7-5.1
		c-3.7,7.1-8,13.8-12.8,20.2c-7.2,2.6-14.1,5.8-20.7,9.7c5.5,2.5,11.7,0,17.4-2.1c0.5,1,1.6,1.7,2.4,2.6c1.3,1.4,1.9,3.1,2.2,5
		c-6.8,1.2-13.4,4.1-18.7,8.5c5.8,2.4,12.2,2.9,18.6,2.8c-0.1,1.4-0.1,2.7-0.2,4.1c-6.5,1.3-12.5,4.8-16.8,10
		c-0.7-5.7-1.8-11.3-3.3-16.8c-1-3.8-2.4-7.7-5.2-10.4s-7.7-3.7-10.7-1.2c4.2,13.3,10.7,25.8,19,37c0.5,0.6,1,1.3,1.6,1.7
		c-4.3,2.5-9.1,4.1-13.7,6.2c-6.1,2.8-12.3,7.5-13.3,14.2c-0.1,0.7-0.1,1.5-0.1,2.2c-1.7,0.7-3.3,1.3-5,2c-2.1,0.8-4.4,1.9-5,4.1
		c-0.7,2.7,2.1,5.2,4.9,5.4c2.5,0.1,4.9-1,7.1-2.2c0.1,0.4,0.3,0.8,0.4,1.2c3.1,8.1,6.5,16.1,10,24c2.6-9.7,1.6-20.2-2.5-29.4
		c9.6-4.7,19.5-8.6,29.8-11.6c-0.4,4.4-0.8,8.9-1.3,13.3c-0.2,0.1-0.5,0.2-0.7,0.3c-2.9,1.4-5.8,3.1-8.9,4c-3.1,0.9-6.7,1-9.4-0.7
		c1.2,5,4.7,9.3,9.3,11.6c12-9.7,27.5-14.8,42.9-14.1c-1.1,2.8,2.6,5.7,5.4,4.6c2.8-1.1,3.9-4.6,3.3-7.5c-0.7-2.9-2.8-5.2-4.9-7.3
		c-3.6-3.5-7.6-6.6-12.2-8.3c1.9,3.8,2.7,8.2,2.2,12.5c-5-0.3-10.1,0.1-15,1.1c0.8-4.2,1.4-8.4,1.9-12.7c15.6-3.5,31.7-5,47.7-4.3
		c-2.6,13.2-6.3,26.2-11.1,38.8c-7.1-0.2-14.3-0.5-21.4-0.7c6.8,5.9,12.9,12.5,18.2,19.7c16-14.4,27.6-33.7,32.7-54.6
		C202.8,267.3,202.2,258,196.3,255.2z M167.9,211.1c1.1,4.8-0.6,9.7-2.8,14.1c-2.3,4.3-5.1,8.4-6.5,13.1c-0.6,1.8-0.8,3.7-0.8,5.7
		c-3.7-3.2-8.2-5.4-12.9-6.5c0.1-0.4,0.2-0.9,0.4-1.3c1.4-4.5,4.9-8.8,9.6-9.7c-5.5-3.9-10.5-8.6-14.7-13.9c0.4-0.5,0.7-1,1.1-1.5
		C150,209.4,159.1,209.4,167.9,211.1z M106.2,274.1c-3.2,1.3-6.5,2.5-9.7,3.8c-0.8-1.7-1.1-3.5-0.3-5c0.8-1.5,2.4-2.3,4-3
		c5.5-2.6,11.1-5.1,16.6-7.7c1.6-0.7,3.2-1.5,4.3-2.8c0.5-0.6,0.9-1.4,1.1-2.2c0,0,0.1,0,0.1-0.1c3.1-1.6,6.3-3.1,9.6-4.4
		c-0.3,4.1-0.6,8.1-0.9,12.2C122.6,267.7,114.4,270.9,106.2,274.1z"/>
	<path class="st1" d="M86.2,114.3c0,2.1,0,4.2,0,6.3c0,1.8,0.8,3.2,2.1,4.1c1.1,2.4,4.7,2.7,6.6,0.9c0.5-0.4,0.9-1,1.4-1.4
		c13.7-6.4,30.2-5,44.9-4.5c11.1,0.3,22.2,1.1,33.3,2.2c4.2,2.5,8.2,5.4,13.3,5.7c7.3,0.3,12.9-2.2,16.2-8.9
		c3.1-6.3,1.1-13.5-0.8-20c1.7-17.3,3.5-34.7,4.8-52.1c0.6-8.7-14-8.8-13.6,0c0.1,2-79.1,0.6-100.3,0.2c-0.2-0.1-0.3-0.3-0.5-0.4
		c-2.1-3.4-4-7.8-9.5-6.3c-6,1.6-7.3,7.7-7,13.1C78,73.3,82.4,94.1,86.2,114.3z M123,59c1.2,9-1.4,17.3-8,23.8
		c-5.3,5.2-12.3,6.8-19.3,8.6c-0.1-11,0.2-21.9,0.3-32.8C105,58.7,114,58.9,123,59z M193.5,58.9c-0.6,7.5-1.1,15.1-1.5,22.6
		c-7.6,6.8-16.7,12.8-25.8,4.3c-7-6.6-5.9-17.7-5.9-26.8c0.2,0,0.3,0,0.5,0C171.6,58.9,182.6,59,193.5,58.9z M145.5,59.1
		c-1.2,15,2.7,31.8,17.1,39.1c11.4,5.8,21.4-0.2,28.8-8.6c-0.4,7.3-0.9,14.5-1.5,21.8c-17.5-2.6-35.2-4.2-52.9-4.3
		c-13.8-0.1-27.9,0.1-40.7,5.1c-0.3-5.2-0.4-10.4-0.5-15.6c8.8,3,19.9-0.7,26.4-6.7c8.7-8,13.1-19.4,12-31
		C138,59.1,141.8,59.1,145.5,59.1z"/>
</g>
</svg>
