<?xml version="1.0" encoding="utf-8"?>
<!-- Generator: Adobe Illustrator 24.2.3, SVG Export Plug-In . SVG Version: 6.00 Build 0)  -->
<svg version="1.1" id="图层_1" xmlns="http://www.w3.org/2000/svg" xmlns:xlink="http://www.w3.org/1999/xlink" x="0px" y="0px"
	 viewBox="0 0 270 350" style="enable-background:new 0 0 270 350;" xml:space="preserve">
<style type="text/css">
	.st0{fill:#DF0514;}
	.st1{fill:#004B9F;}
</style>
<g>
	<path class="st0" d="M186,255.2c-2.4-1.1-5.1-1-7.7-0.7c-15.1,1.3-30.3,3.1-45,6.8c0.2-3.6,0.4-7.2,0.4-10.9c0-0.6,0-1.1,0-1.7
		c4.6-1.3,9.2-2.2,14-2.9c0.3,2.4,1.2,4.6,2.9,6.3c8.4-11.4,16.8-22.9,25.1-34.3c-2.9-8.1-10.8-13.7-19.2-15.6
		c-6.5-1.4-13.2-1-19.7,0.3c3.9-5.9,7.5-11.9,10.7-18.2c12.4-1.5,25.1-1.2,37.3,1.2c-3.5-5.3-7.6-10.9-13.6-12.8
		c-3.9-1.2-8.1-0.6-12.2,0c-2.1,0.3-4.2,0.6-6.3,1c1.1-2.4,2.2-4.9,3.2-7.3c0.9-2.1,1.7-4.5,0.7-6.6c-0.8-1.7-2.7-2.7-4.4-3.5
		c-7-3.1-14.6-5.1-22.2-5.9c3.1,6.3,11,10.1,11.7,17.1c0.3,2.9-0.8,5.7-1.9,8.4c-0.1,0.2-0.2,0.5-0.3,0.7c-1.1,0.3-2.3,0.7-3.4,1.1
		c-6.2,2.2-12.1,5.4-18,8.4c-0.1-1.4-0.3-2.7-0.6-4.1c-2.2-9.2-9.5-17-18.5-19.9c4.7,2.9,5.9,9.3,5.4,14.9
		c-0.5,5.1-1.9,10.1-1.5,15.2c-5.8,1.5-11.7,2-17.4,0.4c-1.3-0.4-2.6-0.8-3.9-0.5c-2.3,0.5-3.5,3.4-2.9,5.7c0.5,2.3,2.3,4.2,4,5.8
		c1.7,1.6,3.6,3.3,4.5,5.5c5.3-4.2,11.1-7.8,17-11c1.4,3.6,3.6,6.9,5.7,10.1c4.4-4.3,7.2-10.2,8-16.4c5.5-2.1,11-3.8,16.7-5.1
		c-3.7,7.1-8,13.8-12.8,20.2c-7.2,2.6-14.1,5.8-20.7,9.7c5.5,2.5,11.7,0,17.4-2.1c0.5,1,1.6,1.7,2.4,2.6c1.3,1.4,1.9,3.1,2.2,5
		c-6.8,1.2-13.4,4.1-18.7,8.5c5.8,2.4,12.2,2.9,18.6,2.8c-0.1,1.4-0.1,2.7-0.2,4.1c-6.5,1.3-12.5,4.8-16.8,10
		c-0.7-5.7-1.8-11.3-3.3-16.8c-1-3.8-2.4-7.7-5.2-10.4c-2.9-2.7-7.7-3.7-10.7-1.2c4.2,13.3,10.7,25.8,19,37c0.5,0.6,1,1.3,1.6,1.7
		c-4.3,2.5-9.1,4.1-13.7,6.2c-6.1,2.8-12.3,7.5-13.3,14.2c-0.1,0.7-0.1,1.5-0.1,2.2c-1.7,0.7-3.3,1.3-5,2c-2.1,0.8-4.4,1.9-5,4.1
		c-0.7,2.7,2.1,5.2,4.9,5.4c2.5,0.1,4.9-1,7.1-2.2c0.1,0.4,0.3,0.8,0.4,1.2c3.1,8.1,6.5,16.1,10,24c2.6-9.7,1.6-20.2-2.5-29.4
		c9.6-4.7,19.5-8.6,29.8-11.6c-0.4,4.4-0.8,8.9-1.3,13.3c-0.2,0.1-0.5,0.2-0.7,0.3c-2.9,1.4-5.8,3.1-8.9,4c-3.1,0.9-6.7,1-9.4-0.7
		c1.2,5,4.7,9.3,9.3,11.6c12-9.7,27.5-14.8,42.9-14.1c-1.1,2.8,2.6,5.7,5.4,4.6c2.8-1.1,3.9-4.6,3.3-7.5c-0.7-2.9-2.8-5.2-4.9-7.3
		c-3.6-3.5-7.6-6.6-12.2-8.3c1.9,3.8,2.7,8.2,2.2,12.5c-5-0.3-10.1,0.1-15,1.1c0.8-4.2,1.4-8.4,1.9-12.7c15.6-3.5,31.7-5,47.7-4.3
		c-2.6,13.2-6.3,26.2-11.1,38.8c-7.1-0.2-14.3-0.5-21.4-0.7c6.8,5.9,12.9,12.5,18.2,19.7c16-14.4,27.6-33.7,32.7-54.6
		C192.5,267.3,191.9,258,186,255.2z M157.6,211.1c1.1,4.8-0.6,9.7-2.8,14.1c-2.3,4.3-5.1,8.4-6.5,13.1c-0.6,1.8-0.8,3.7-0.8,5.7
		c-3.7-3.2-8.2-5.4-12.9-6.5c0.1-0.4,0.2-0.9,0.4-1.3c1.4-4.5,4.9-8.8,9.6-9.7c-5.5-3.9-10.5-8.6-14.7-13.9c0.4-0.5,0.7-1,1.1-1.5
		C139.7,209.4,148.8,209.4,157.6,211.1z M95.9,274.1c-3.2,1.3-6.5,2.5-9.7,3.8c-0.8-1.7-1.1-3.5-0.3-5c0.8-1.5,2.4-2.3,4-3
		c5.5-2.6,11.1-5.1,16.6-7.7c1.6-0.7,3.2-1.5,4.3-2.8c0.5-0.6,0.9-1.4,1.1-2.2c0,0,0.1,0,0.1-0.1c3.1-1.6,6.3-3.1,9.6-4.4
		c-0.3,4.1-0.6,8.1-0.9,12.2C112.3,267.7,104.1,270.9,95.9,274.1z"/>
	<path class="st1" d="M210.2,110.6c-14.3-2.1-29.1-2.5-44-2.4c0.5-7.8,1.1-15.7,1.6-23.5c0.4-5.3,0.7-11.5-5.6-13.3
		c-7.5-2.1-16.8-1.4-25.3-0.8c1.7-5.3,3-10.6,4-16.3c0.1-0.4,0.1-0.9,0.1-1.3c13.1-0.3,26.2-0.5,39.1-0.4c1.5,3.6,7.4,1.9,6.2-2.1
		c0-0.1,0-0.1-0.1-0.2c0-0.2-0.1-0.5-0.2-0.7c-0.1-0.1-0.1-0.2-0.2-0.4c-0.5-1.1-1-2.1-1.7-2.9c-0.7-1-1.4-2-2.2-3
		c-1.5-2-3.9-1.9-5.3-0.6c-6.2-1-14.1,0.6-20.1,1.4c-16-0.6-31.7-0.4-47.6,0.4c-5.4-0.2-9.8-1.8-14.7-5.3c-1.5-1.1-3.5-0.7-5,0
		c-4.8,2.3-8.4,5-12.1,8.8c-2.7,2.8-1,8.6,3.4,8.2c13.8-1.2,27.8-2.1,41.9-2.7c0,0.4-0.1,0.7-0.1,1.1c0.1,5.6-0.3,11.1-1.1,16.5
		c-5.9,0.2-11.9,0.6-17.8,1.2c0.2-0.8-0.6-1.8-1.5-2c-7-0.9-13.9,4.2-14.9,11.2c-0.7,5,4.8,6.7,7.3,3.9c0.2,0,0.3,0,0.5,0
		c7.7-0.1,15.5-0.7,23.2-1.4c-2.9,8.6-7.3,16.7-13.4,24.1c-9.8-0.2-19.6-0.3-29.3,0.6c-1.3,0.1-2.7,0.3-4.1,0.6
		c-0.3-0.7-1-1.1-1.9-0.8c-7.5,2.2-15.8,7.8-16.1,16.5c-0.1,4.5,6.6,6.5,8.6,2.3c0.3-0.7,0.6-1.3,0.9-2c30.4-2.6,62.1-3.9,92.4,0.5
		c16.7,2.4,53.7,18.4,58.2-10C213.7,114,212.9,111,210.2,110.6z M157.6,81.6c-0.3,2.4-0.5,4.9-0.8,7.3c-0.7,6.5-1.4,12.9-2.1,19.4
		c-11.3,0.2-22.6,0.5-33.7,0.5c4.4-6.9,7.9-14.4,10.4-22.1c0.5-1.2,0.9-2.4,1.3-3.6c4.5-0.4,9-0.7,13.4-0.9
		C150,81.9,153.8,81.7,157.6,81.6z"/>
</g>
</svg>
