<?xml version="1.0" encoding="utf-8"?>
<!-- Generator: Adobe Illustrator 24.2.3, SVG Export Plug-In . SVG Version: 6.00 Build 0)  -->
<svg version="1.1" id="图层_1" xmlns="http://www.w3.org/2000/svg" xmlns:xlink="http://www.w3.org/1999/xlink" x="0px" y="0px"
	 viewBox="0 0 270 350" style="enable-background:new 0 0 270 350;" xml:space="preserve">
<style type="text/css">
	.st0{fill:#009C3B;}
	.st1{fill:#004B9F;}
	.st2{fill:#DF0514;}
</style>
<g>
	<g>
		<g>
			<path class="st0" d="M83.7,130.1c-18.4-4.5-29.6-23.2-25.1-41.5c4.5-18.4,23.2-29.6,41.5-25.1c18.4,4.5,29.6,23.2,25.1,41.5
				C120.7,123.4,102.1,134.6,83.7,130.1z M98.8,69.1c-15.2-3.8-30.7,5.6-34.4,20.8c-3.8,15.2,5.6,30.7,20.8,34.4
				c15.2,3.8,30.7-5.6,34.4-20.8C123.3,88.4,114,72.9,98.8,69.1z"/>
		</g>
		<g>
			<path class="st0" d="M86,121c-13.3-3.3-21.5-16.8-18.2-30.2s16.8-21.5,30.2-18.2s21.5,16.8,18.2,30.2S99.3,124.3,86,121z
				 M96.5,78.2C86.3,75.7,76,82,73.4,92.2s3.7,20.6,13.9,23.1c10.2,2.5,20.6-3.7,23.1-13.9C113,91.1,106.8,80.8,96.5,78.2z"/>
		</g>
		<g>
			<circle class="st0" cx="92" cy="96.8" r="11.4"/>
		</g>
	</g>
	<g>
		<g>
			<path class="st1" d="M172.8,130.1c-18.4-4.5-29.6-23.2-25.1-41.5c4.5-18.4,23.2-29.6,41.5-25.1c18.4,4.5,29.6,23.2,25.1,41.5
				C209.8,123.4,191.2,134.6,172.8,130.1z M187.9,69.1c-15.2-3.8-30.7,5.6-34.4,20.8c-3.8,15.2,5.6,30.7,20.8,34.4
				c15.2,3.8,30.7-5.6,34.4-20.8C212.5,88.4,203.1,72.9,187.9,69.1z"/>
		</g>
		<g>
			<path class="st1" d="M175.1,121c-13.3-3.3-21.5-16.8-18.2-30.2s16.8-21.5,30.2-18.2s21.5,16.8,18.2,30.2S188.4,124.3,175.1,121z
				 M185.7,78.2c-10.2-2.5-20.6,3.7-23.1,13.9c-2.5,10.2,3.7,20.6,13.9,23.1c10.2,2.5,20.6-3.7,23.1-13.9S195.9,80.8,185.7,78.2z"/>
		</g>
		<g>
			<circle class="st1" cx="181.1" cy="96.8" r="11.4"/>
		</g>
	</g>
	<g>
		<g>
			<path class="st2" d="M128.3,205.6c-18.4-4.5-29.6-23.2-25.1-41.5c4.5-18.4,23.2-29.6,41.5-25.1c18.4,4.5,29.6,23.2,25.1,41.5
				C165.3,198.9,146.6,210.2,128.3,205.6z M143.3,144.7c-15.2-3.8-30.7,5.6-34.4,20.8c-3.8,15.2,5.6,30.7,20.8,34.4
				c15.2,3.8,30.7-5.6,34.4-20.8S158.6,148.5,143.3,144.7z"/>
		</g>
		<g>
			<path class="st2" d="M130.5,196.6c-13.3-3.3-21.5-16.8-18.2-30.2s16.8-21.5,30.2-18.2s21.5,16.8,18.2,30.2
				S143.9,199.8,130.5,196.6z M141.1,153.8c-10.2-2.5-20.6,3.7-23.1,13.9c-2.5,10.2,3.7,20.6,13.9,23.1c10.2,2.5,20.6-3.7,23.1-13.9
				C157.6,166.7,151.3,156.3,141.1,153.8z"/>
		</g>
		<g>
			<circle class="st2" cx="136.5" cy="172.3" r="11.4"/>
		</g>
	</g>
	<g>
		<g>
			<path class="st1" d="M83.7,279.2c-18.4-4.5-29.6-23.2-25.1-41.5c4.5-18.4,23.2-29.6,41.5-25.1c18.4,4.5,29.6,23.2,25.1,41.5
				C120.7,272.5,102.1,283.8,83.7,279.2z M98.8,218.3c-15.2-3.8-30.7,5.6-34.4,20.8c-3.8,15.2,5.6,30.7,20.8,34.4
				c15.2,3.8,30.7-5.6,34.4-20.8C123.3,237.5,114,222.1,98.8,218.3z"/>
		</g>
		<g>
			<path class="st1" d="M86,270.1c-13.3-3.3-21.5-16.8-18.2-30.2s16.8-21.5,30.2-18.2s21.5,16.8,18.2,30.2
				C112.9,265.3,99.3,273.4,86,270.1z M96.5,227.4c-10.2-2.5-20.6,3.7-23.1,13.9s3.7,20.6,13.9,23.1c10.2,2.5,20.6-3.7,23.1-13.9
				C113,240.3,106.8,229.9,96.5,227.4z"/>
		</g>
		<g>
			<circle class="st1" cx="92" cy="245.9" r="11.4"/>
		</g>
	</g>
	<g>
		<g>
			<path class="st0" d="M172.8,279.2c-18.4-4.5-29.6-23.2-25.1-41.5c4.5-18.4,23.2-29.6,41.5-25.1c18.4,4.5,29.6,23.2,25.1,41.5
				C209.8,272.5,191.2,283.8,172.8,279.2z M187.9,218.3c-15.2-3.8-30.7,5.6-34.4,20.8c-3.8,15.2,5.6,30.7,20.8,34.4
				c15.2,3.8,30.7-5.6,34.4-20.8C212.5,237.5,203.1,222.1,187.9,218.3z"/>
		</g>
		<g>
			<path class="st0" d="M175.1,270.1c-13.3-3.3-21.5-16.8-18.2-30.2s16.8-21.5,30.2-18.2s21.5,16.8,18.2,30.2
				C202,265.3,188.4,273.4,175.1,270.1z M185.7,227.4c-10.2-2.5-20.6,3.7-23.1,13.9c-2.5,10.2,3.7,20.6,13.9,23.1
				c10.2,2.5,20.6-3.7,23.1-13.9C202.1,240.3,195.9,229.9,185.7,227.4z"/>
		</g>
		<g>
			<circle class="st0" cx="181.1" cy="245.9" r="11.4"/>
		</g>
	</g>
</g>
</svg>
