<?xml version="1.0" encoding="utf-8"?>
<!-- Generator: Adobe Illustrator 24.2.3, SVG Export Plug-In . SVG Version: 6.00 Build 0)  -->
<svg version="1.1" id="图层_1" xmlns="http://www.w3.org/2000/svg" xmlns:xlink="http://www.w3.org/1999/xlink" x="0px" y="0px"
	 viewBox="0 0 270 350" style="enable-background:new 0 0 270 350;" xml:space="preserve">
<style type="text/css">
	.st0{fill:#004B9F;}
</style>
<g>
	<g>
		<g>
			<path class="st0" d="M137.2,150.2c-22.8,0-41.4-18.6-41.4-41.4c0-22.8,18.6-41.4,41.4-41.4s41.4,18.6,41.4,41.4
				C178.5,131.6,160,150.2,137.2,150.2z M137.2,74.4c-18.9,0-34.3,15.4-34.3,34.3s15.4,34.3,34.3,34.3s34.3-15.4,34.3-34.3
				S156.1,74.4,137.2,74.4z"/>
		</g>
		<g>
			<path class="st0" d="M137.2,138.9c-16.6,0-30.1-13.5-30.1-30.1s13.5-30.1,30.1-30.1s30.1,13.5,30.1,30.1S153.7,138.9,137.2,138.9
				z M137.2,85.7c-12.7,0-23,10.3-23,23s10.3,23,23,23s23-10.3,23-23S149.8,85.7,137.2,85.7z"/>
		</g>
		<g>
			<circle class="st0" cx="137.2" cy="108.8" r="13.8"/>
		</g>
	</g>
	<g>
		<g>
			<path class="st0" d="M137.2,287.3c-22.8,0-41.4-18.6-41.4-41.4c0-22.8,18.6-41.4,41.4-41.4s41.4,18.6,41.4,41.4
				C178.5,268.8,160,287.3,137.2,287.3z M137.2,211.6c-18.9,0-34.3,15.4-34.3,34.3s15.4,34.3,34.3,34.3s34.3-15.4,34.3-34.3
				S156.1,211.6,137.2,211.6z"/>
		</g>
		<g>
			<path class="st0" d="M137.2,276c-16.6,0-30.1-13.5-30.1-30.1s13.5-30.1,30.1-30.1s30.1,13.5,30.1,30.1S153.7,276,137.2,276z
				 M137.2,222.9c-12.7,0-23,10.3-23,23c0,12.7,10.3,23,23,23s23-10.3,23-23C160.2,233.2,149.8,222.9,137.2,222.9z"/>
		</g>
		<g>
			<circle class="st0" cx="137.2" cy="245.9" r="13.8"/>
		</g>
	</g>
</g>
</svg>
