<?xml version="1.0" encoding="utf-8"?>
<!-- Generator: Adobe Illustrator 24.2.3, SVG Export Plug-In . SVG Version: 6.00 Build 0)  -->
<svg version="1.1" id="图层_1" xmlns="http://www.w3.org/2000/svg" xmlns:xlink="http://www.w3.org/1999/xlink" x="0px" y="0px"
	 viewBox="0 0 270 350" style="enable-background:new 0 0 270 350;" xml:space="preserve">
<style type="text/css">
	.st0{fill:#004B9F;}
	.st1{fill:#009C3B;}
	.st2{fill:#DF0514;}
</style>
<g>
	<g>
		<path class="st0" d="M136.6,80.6c-53.8,0-97.6,43.8-97.6,97.6s43.8,97.6,97.6,97.6s97.6-43.8,97.6-97.6S190.5,80.6,136.6,80.6z
			 M136.6,267.2c-49,0-88.9-39.9-88.9-88.9c0-49,39.9-88.9,88.9-88.9s88.9,39.9,88.9,88.9C225.6,227.3,185.7,267.2,136.6,267.2z"/>
		<path class="st1" d="M208.5,169.6c6.3-5.1,9.4-12,7.3-18.2c-2-6-8.5-9.8-16.9-10c3.8-7.2,3.8-14.8-0.7-19.6
			c-2.6-2.8-6.2-4.3-10.6-4.3c-2.9,0-5.9,0.7-8.9,1.9c0.5-8.1-2.5-15-8.5-17.7c-1.6-0.7-3.3-1.1-5.1-1.1c-4.7,0-9.6,2.5-13.7,6.7
			c-2.8-7.6-8.4-12.8-14.9-12.8c-7.8,0-14.2,7.2-16.2,17.4c-4.6-5.8-10.7-9.4-16.5-9.4c-2.1,0-4.1,0.5-5.9,1.4
			c-5.8,3-8.4,10.1-7.3,18.2c-2.6-0.9-5.3-1.4-7.8-1.4c-4.8,0-8.9,1.8-11.5,5c-4.1,5.1-3.6,12.6,0.6,19.6
			c-8.3,0.7-14.5,4.9-16.2,11.1c-1.2,4.7,0.3,9.8,4.3,14.1c1.2,1.3,2.6,2.5,4.2,3.6c-1.7,0.9-3.2,1.9-4.5,3.1
			c-4.4,3.9-6.6,8.8-5.8,13.6c1,6.4,6.8,11.2,14.9,12.8c-4.9,6.5-6.3,13.9-2.7,19.4c2.6,4,7.4,6.4,13.2,6.4c1.8,0,3.7-0.2,5.5-0.6
			c-1.9,7.9-0.1,15.3,5.3,18.9c2.1,1.4,4.6,2.1,7.3,2.1c4,0,8.3-1.6,12.2-4.5c1.4,8,6,14,12.5,15.2c0.7,0.1,1.4,0.2,2.2,0.2
			c5.8,0,11.2-3.9,14.8-10.2c3.8,5.7,9.1,9.2,14.5,9.2c1,0,2-0.1,3-0.4c6.4-1.6,10.6-7.9,11.5-16c3.7,2.4,7.7,3.7,11.4,3.7
			c3.1,0,5.9-0.9,8.2-2.6c3.8-2.9,5.7-8,5.2-13.8c-0.2-1.8-0.5-3.6-1.1-5.4c1.4,0.2,2.7,0.3,4,0.3c6.6,0,11.8-2.6,14.3-7.3
			c3.1-5.7,1.4-13.1-4-19.2c7.9-2.1,13.4-7.3,14-13.7C220.5,179.1,215.9,173.1,208.5,169.6z M207.6,154.2c1.2,3.5-3.4,9.5-11.3,12.4
			c-4.3-0.3-8.3,0.3-11.8,1.4c-3.2-0.6-5.6-2-6.2-3.9c-0.6-1.7,0.1-3.9,1.9-6.1c0.2-0.3,0.4-0.5,0.7-0.7c3.5-1.3,7-3.3,10.2-6.1
			c2.4-0.8,4.9-1.2,7.2-1.2C203,150.1,206.7,151.7,207.6,154.2z M171.9,178.3c0,19.5-15.8,35.3-35.3,35.3s-35.3-15.8-35.3-35.3
			c0-19.5,15.8-35.3,35.3-35.3S171.9,158.8,171.9,178.3z M191.9,127.7c2.5,2.8,0.7,10-5.4,15.9c-3.9,1.5-7.4,3.5-10.2,6
			c-1.1,0.3-2.1,0.4-3.1,0.4c-1.3,0-3-0.3-4.1-1.5c-1.3-1.5-1.4-4.2-0.4-7.4c2.7-2.5,5-5.8,6.8-9.6c3.9-3.3,8.5-5.4,12.2-5.4
			C189,126.2,190.8,126.5,191.9,127.7z M165.2,109.4c0.6,0,1.1,0.1,1.6,0.3c3.4,1.5,4.7,8.9,1.5,16.7c-3,3-5.4,6.2-6.9,9.5
			c-2,1.5-3.9,2.4-5.5,2.4c-0.6,0-1.1-0.1-1.6-0.3c-1.8-0.8-3-3.3-3.3-6.6c1.4-3.4,2.3-7.3,2.4-11.5
			C156.7,113.1,161.8,109.4,165.2,109.4z M136.6,103.3c3.7,0,7.9,6.2,8.1,14.7c-1.6,3.9-2.4,7.9-2.5,11.6c-1.6,2.9-3.7,4.7-5.7,4.7
			c-3.8,0-8.2-6.6-8.2-15.5S132.8,103.3,136.6,103.3z M102,111.8c0.6-0.3,1.2-0.4,1.9-0.4c3.5,0,8.9,3.6,12.5,10.4
			c2,3.9,3,8.2,2.7,11.8c-0.2,2.8-1.3,4.9-2.8,5.7c-0.6,0.3-1.2,0.4-1.9,0.4c-1.5,0-3.4-0.7-5.3-2c-1.8-3.3-4.4-6.4-7.5-9.1
			C97.9,121,98.7,113.5,102,111.8z M78.2,131.4c1.2-1.4,3.2-1.7,4.7-1.7c3.6,0,8,1.7,11.8,4.6c2.1,3.7,4.7,6.9,7.5,9.2
			c0.1,0.3,0.3,0.6,0.4,0.9c0.9,2.7,0.8,5-0.3,6.4c-1.2,1.4-3.2,1.7-4.7,1.7c-0.8,0-1.6-0.1-2.4-0.2c-3-2.3-6.6-4.1-10.5-5.3
			C78.1,141.4,75.8,134.3,78.2,131.4z M64.2,158.9c0.8-2.8,5-4.8,10.4-4.8c1.9,0,3.9,0.3,5.9,0.8c3.3,2.5,6.9,4.3,10.5,5.4
			c0.2,0.2,0.5,0.5,0.7,0.7c1.9,2.1,2.8,4.3,2.3,6c-0.5,2-2.8,3.5-6,4.3c-2.3-0.6-4.8-0.9-7.5-0.9c-1.4,0-2.9,0.1-4.3,0.3
			c-4-1.2-7.5-3.2-9.8-5.7C64.6,162.8,63.8,160.6,64.2,158.9z M62.5,189.7c-0.3-1.7,0.8-3.8,2.9-5.7c2.5-2.2,6.3-3.8,10.3-4.6
			c2.6,0.6,5.3,1,7.8,1c1.4,0,2.7-0.1,4-0.3c3.1,1.1,5.2,2.8,5.5,4.9c0.3,1.7-0.8,3.8-2.9,5.7c-0.2,0.2-0.5,0.4-0.8,0.6
			c-3.7,0.6-7.5,2.1-11.1,4.2c-1.1,0.1-2.2,0.2-3.3,0.2C68.5,195.7,63.1,193,62.5,189.7z M73.4,218.5c-2-3.2,1-10,8-14.8
			c4.1-0.8,7.9-2.2,11.1-4.2c0.4,0,0.7,0,1,0c2.8,0,5,0.8,5.9,2.3c1.1,1.7,0.7,4.4-0.9,7.3c-3.1,2-6,4.9-8.4,8.3
			c-3.6,2.1-7.5,3.4-10.9,3.4C76.5,220.9,74.3,220,73.4,218.5z M97.5,241.3c-1,0-1.8-0.2-2.5-0.7c-3.1-2.1-3.1-9.6,1.4-16.7
			c3.5-2.4,6.4-5.2,8.5-8.2c1.8-1,3.5-1.4,4.8-1.4c1,0,1.8,0.2,2.5,0.7c1.6,1.1,2.4,3.7,2.1,7c-2,3.1-3.5,6.8-4.4,11
			C105.8,238.6,100.6,241.3,97.5,241.3z M124.2,252.1c-0.2,0-0.4,0-0.6-0.1c-3.7-0.6-6.7-7.5-5.5-15.9c2.3-3.6,3.7-7.4,4.4-11
			c1.8-2.3,3.9-3.7,5.7-3.7c0.2,0,0.4,0,0.6,0.1c1.7,0.3,3.4,2,4.4,4.6c0.1,0.3,0.2,0.7,0.3,1c-0.6,3.7-0.4,7.7,0.4,11.8
			C132.5,246.9,127.8,252.1,124.2,252.1z M154.4,251.1c-3.6,0.9-9.1-4-11.4-12.3c0.6-4.1,0.5-8.1-0.3-11.8c0.1-0.3,0.1-0.7,0.3-1.1
			c0.9-2.7,2.4-4.5,4.1-4.9c0.3-0.1,0.6-0.1,0.9-0.1c1.7,0,3.8,1.2,5.7,3.3c1,3.6,2.7,7.3,5.2,10.7
			C160.6,243.1,158,250.2,154.4,251.1z M182.2,237.7c-0.7,0.6-1.7,0.8-2.9,0.8c-3.2,0-8.3-2.4-12.5-7.6c-1.1-4-2.9-7.7-5.1-10.6
			c-0.1-0.4-0.1-0.7-0.1-1c-0.3-2.8,0.4-5.1,1.8-6.1c0.7-0.6,1.7-0.9,2.9-0.9c1.3,0,2.8,0.4,4.5,1.1c2.3,2.9,5.3,5.5,9,7.7
			c2.4,3.4,4,7.1,4.3,10.5C184.3,234.4,183.6,236.7,182.2,237.7z M202.3,214.3c-0.9,1.7-3.4,2.7-6.7,2.7c-3.2,0-6.8-1-10.2-2.7
			c-2.6-3.2-5.7-5.8-8.9-7.7c-1.8-2.8-2.3-5.5-1.4-7.2c0.9-1.7,3.4-2.7,6.7-2.7c0,0,0.1,0,0.1,0c3.2,1.7,7.1,2.9,11.4,3.4
			C200.6,204.4,204.1,211.1,202.3,214.3z M197.5,191.7c-0.5,0-1.1,0-1.6-0.1c-3.7-1.9-7.5-3.1-11.3-3.5c-2.8-1.8-4.4-4.1-4.2-6.1
			c0.2-1.9,2.1-3.9,5.2-5.3c0.6,0,1.3,0.1,1.9,0.1c3.2,0,6.5-0.5,9.7-1.5c8.4,1,14.3,5.7,13.9,9.4
			C211,188.1,205.6,191.7,197.5,191.7z"/>
		<path class="st2" d="M141.8,148.9v24.2H166C163.8,160.8,154.1,151.1,141.8,148.9z"/>
		<path class="st2" d="M131.4,173.1v-24.2c-12.3,2.2-22,11.9-24.2,24.2H131.4z"/>
		<path class="st2" d="M131.4,207.7v-24.2h-24.2C109.4,195.8,119.1,205.5,131.4,207.7z"/>
		<path class="st2" d="M166,183.5h-24.2v24.2C154.1,205.5,163.8,195.8,166,183.5z"/>
	</g>
</g>
</svg>
