<?xml version="1.0" encoding="utf-8"?>
<!-- Generator: Adobe Illustrator 24.2.3, SVG Export Plug-In . SVG Version: 6.00 Build 0)  -->
<svg version="1.1" id="图层_1" xmlns="http://www.w3.org/2000/svg" xmlns:xlink="http://www.w3.org/1999/xlink" x="0px" y="0px"
	 viewBox="0 0 270 350" style="enable-background:new 0 0 270 350;" xml:space="preserve">
<style type="text/css">
	.st0{fill:#004B9F;}
</style>
<g>
	<g>
		<g>
			<path class="st0" d="M98.4,239.9c-18.4-4.5-29.6-23.2-25.1-41.5c4.5-18.4,23.2-29.6,41.5-25.1s29.6,23.2,25.1,41.5
				C135.4,233.2,116.8,244.5,98.4,239.9z M113.5,179c-15.2-3.8-30.7,5.6-34.4,20.8c-3.8,15.2,5.6,30.7,20.8,34.4
				c15.2,3.8,30.7-5.6,34.4-20.8C138,198.2,128.7,182.8,113.5,179z"/>
		</g>
		<g>
			<path class="st0" d="M100.7,230.9c-13.3-3.3-21.5-16.8-18.2-30.2c3.3-13.3,16.8-21.5,30.2-18.2c13.3,3.3,21.5,16.8,18.2,30.2
				C127.6,226,114,234.2,100.7,230.9z M111.2,188.1c-10.2-2.5-20.6,3.7-23.1,13.9c-2.5,10.2,3.7,20.6,13.9,23.1
				c10.2,2.5,20.6-3.7,23.1-13.9C127.7,201,121.4,190.6,111.2,188.1z"/>
		</g>
		<g>
			<circle class="st0" cx="106.6" cy="206.6" r="11.4"/>
		</g>
	</g>
	<g>
		<g>
			<path class="st0" d="M167,239.9c-18.4-4.5-29.6-23.2-25.1-41.5c4.5-18.4,23.2-29.6,41.5-25.1s29.6,23.2,25.1,41.5
				C204,233.2,185.4,244.5,167,239.9z M182.1,179c-15.2-3.8-30.7,5.6-34.4,20.8c-3.8,15.2,5.6,30.7,20.8,34.4
				c15.2,3.8,30.7-5.6,34.4-20.8C206.6,198.2,197.3,182.8,182.1,179z"/>
		</g>
		<g>
			<path class="st0" d="M169.3,230.9c-13.3-3.3-21.5-16.8-18.2-30.2s16.8-21.5,30.2-18.2c13.3,3.3,21.5,16.8,18.2,30.2
				S182.6,234.2,169.3,230.9z M179.8,188.1c-10.2-2.5-20.6,3.7-23.1,13.9s3.7,20.6,13.9,23.1c10.2,2.5,20.6-3.7,23.1-13.9
				C196.3,201,190,190.6,179.8,188.1z"/>
		</g>
		<g>
			<circle class="st0" cx="175.3" cy="206.6" r="11.4"/>
		</g>
	</g>
	<g>
		<g>
			<path class="st0" d="M98.4,308.6C80.1,304,68.8,285.4,73.3,267c4.5-18.4,23.2-29.6,41.5-25.1c18.4,4.5,29.6,23.2,25.1,41.5
				C135.4,301.9,116.8,313.1,98.4,308.6z M113.5,247.6c-15.2-3.8-30.7,5.6-34.4,20.8c-3.8,15.2,5.6,30.7,20.8,34.4
				c15.2,3.8,30.7-5.6,34.4-20.8C138,266.9,128.7,251.4,113.5,247.6z"/>
		</g>
		<g>
			<path class="st0" d="M100.7,299.5c-13.3-3.3-21.5-16.8-18.2-30.2c3.3-13.3,16.8-21.5,30.2-18.2s21.5,16.8,18.2,30.2
				C127.6,294.6,114,302.8,100.7,299.5z M111.2,256.7c-10.2-2.5-20.6,3.7-23.1,13.9c-2.5,10.2,3.7,20.6,13.9,23.1
				c10.2,2.5,20.6-3.7,23.1-13.9S121.4,259.3,111.2,256.7z"/>
		</g>
		<g>
			<circle class="st0" cx="106.6" cy="275.3" r="11.4"/>
		</g>
	</g>
	<g>
		<g>
			<path class="st0" d="M167,308.6c-18.4-4.5-29.6-23.2-25.1-41.5c4.5-18.4,23.2-29.6,41.5-25.1c18.4,4.5,29.6,23.2,25.1,41.5
				C204,301.9,185.4,313.1,167,308.6z M182.1,247.6c-15.2-3.8-30.7,5.6-34.4,20.8c-3.8,15.2,5.6,30.7,20.8,34.4
				c15.2,3.8,30.7-5.6,34.4-20.8C206.6,266.9,197.3,251.4,182.1,247.6z"/>
		</g>
		<g>
			<path class="st0" d="M169.3,299.5c-13.3-3.3-21.5-16.8-18.2-30.2s16.8-21.5,30.2-18.2s21.5,16.8,18.2,30.2
				S182.6,302.8,169.3,299.5z M179.8,256.7c-10.2-2.5-20.6,3.7-23.1,13.9c-2.5,10.2,3.7,20.6,13.9,23.1c10.2,2.5,20.6-3.7,23.1-13.9
				S190,259.3,179.8,256.7z"/>
		</g>
		<g>
			<circle class="st0" cx="175.3" cy="275.3" r="11.4"/>
		</g>
	</g>
	<g>
		<g>
			<path class="st0" d="M98.4,102.7c-18.4-4.5-29.6-23.2-25.1-41.5c4.5-18.4,23.2-29.6,41.5-25.1s29.6,23.2,25.1,41.5
				C135.4,96,116.8,107.3,98.4,102.7z M113.5,41.8C98.2,38,82.8,47.4,79,62.6C75.3,77.8,84.6,93.3,99.8,97s30.7-5.6,34.4-20.8
				S128.7,45.6,113.5,41.8z"/>
		</g>
		<g>
			<path class="st0" d="M100.7,93.6c-13.3-3.3-21.5-16.8-18.2-30.2c3.3-13.3,16.8-21.5,30.2-18.2c13.3,3.3,21.5,16.8,18.2,30.2
				C127.6,88.8,114,96.9,100.7,93.6z M111.2,50.9c-10.2-2.5-20.6,3.7-23.1,13.9c-2.5,10.2,3.7,20.6,13.9,23.1
				c10.2,2.5,20.6-3.7,23.1-13.9S121.4,53.4,111.2,50.9z"/>
		</g>
		<g>
			<circle class="st0" cx="106.6" cy="69.4" r="11.4"/>
		</g>
	</g>
	<g>
		<g>
			<path class="st0" d="M167,102.7c-18.4-4.5-29.6-23.2-25.1-41.5c4.5-18.4,23.2-29.6,41.5-25.1s29.6,23.2,25.1,41.5
				C204,96,185.4,107.3,167,102.7z M182.1,41.8c-15.2-3.8-30.7,5.6-34.4,20.8c-3.8,15.2,5.6,30.7,20.8,34.4
				c15.2,3.8,30.7-5.6,34.4-20.8C206.6,61,197.3,45.6,182.1,41.8z"/>
		</g>
		<g>
			<path class="st0" d="M169.3,93.6c-13.3-3.3-21.5-16.8-18.2-30.2s16.8-21.5,30.2-18.2c13.3,3.3,21.5,16.8,18.2,30.2
				S182.6,96.9,169.3,93.6z M179.8,50.9c-10.2-2.5-20.6,3.7-23.1,13.9c-2.5,10.2,3.7,20.6,13.9,23.1c10.2,2.5,20.6-3.7,23.1-13.9
				S190,53.4,179.8,50.9z"/>
		</g>
		<g>
			<circle class="st0" cx="175.3" cy="69.4" r="11.4"/>
		</g>
	</g>
	<g>
		<g>
			<path class="st0" d="M98.4,171.3c-18.4-4.5-29.6-23.2-25.1-41.5c4.5-18.4,23.2-29.6,41.5-25.1c18.4,4.5,29.6,23.2,25.1,41.5
				C135.4,164.6,116.8,175.9,98.4,171.3z M113.5,110.4c-15.2-3.8-30.7,5.6-34.4,20.8c-3.8,15.2,5.6,30.7,20.8,34.4
				s30.7-5.6,34.4-20.8C138,129.6,128.7,114.2,113.5,110.4z"/>
		</g>
		<g>
			<path class="st0" d="M100.7,162.2c-13.3-3.3-21.5-16.8-18.2-30.2c3.3-13.3,16.8-21.5,30.2-18.2s21.5,16.8,18.2,30.2
				C127.6,157.4,114,165.5,100.7,162.2z M111.2,119.5c-10.2-2.5-20.6,3.7-23.1,13.9c-2.5,10.2,3.7,20.6,13.9,23.1
				c10.2,2.5,20.6-3.7,23.1-13.9C127.7,132.4,121.4,122,111.2,119.5z"/>
		</g>
		<g>
			<circle class="st0" cx="106.6" cy="138" r="11.4"/>
		</g>
	</g>
	<g>
		<g>
			<path class="st0" d="M167,171.3c-18.4-4.5-29.6-23.2-25.1-41.5c4.5-18.4,23.2-29.6,41.5-25.1c18.4,4.5,29.6,23.2,25.1,41.5
				C204,164.6,185.4,175.9,167,171.3z M182.1,110.4c-15.2-3.8-30.7,5.6-34.4,20.8c-3.8,15.2,5.6,30.7,20.8,34.4
				c15.2,3.8,30.7-5.6,34.4-20.8C206.6,129.6,197.3,114.2,182.1,110.4z"/>
		</g>
		<g>
			<path class="st0" d="M169.3,162.2c-13.3-3.3-21.5-16.8-18.2-30.2s16.8-21.5,30.2-18.2s21.5,16.8,18.2,30.2
				S182.6,165.5,169.3,162.2z M179.8,119.5c-10.2-2.5-20.6,3.7-23.1,13.9s3.7,20.6,13.9,23.1c10.2,2.5,20.6-3.7,23.1-13.9
				C196.3,132.4,190,122,179.8,119.5z"/>
		</g>
		<g>
			<circle class="st0" cx="175.3" cy="138" r="11.4"/>
		</g>
	</g>
</g>
</svg>
