<?xml version="1.0" encoding="utf-8"?>
<!-- Generator: Adobe Illustrator 24.2.3, SVG Export Plug-In . SVG Version: 6.00 Build 0)  -->
<svg version="1.1" id="图层_1" xmlns="http://www.w3.org/2000/svg" xmlns:xlink="http://www.w3.org/1999/xlink" x="0px" y="0px"
	 viewBox="0 0 283.5 368.7" style="enable-background:new 0 0 283.5 368.7;" xml:space="preserve">
<style type="text/css">
	.st0{fill:#004BA0;}
	.st1{fill:#E00414;}
	.st2{fill:#009D3B;}
</style>
<g>
	<g>
		<g>
			<path class="st0" d="M82.7,136.5c-19.6-4.8-31.5-24.7-26.7-44.2c4.8-19.6,24.7-31.5,44.2-26.7s31.5,24.7,26.7,44.2
				C122.1,129.3,102.3,141.3,82.7,136.5z M98.8,71.6c-16.2-4-32.7,5.9-36.7,22.1s5.9,32.7,22.1,36.7s32.7-5.9,36.7-22.2
				S115,75.6,98.8,71.6z"/>
		</g>
		<g>
			<path class="st0" d="M85.1,126.8c-14.2-3.5-22.9-17.9-19.4-32.2c3.5-14.2,17.9-22.9,32.2-19.4c14.2,3.5,22.9,17.9,19.4,32.2
				C113.8,121.6,99.3,130.3,85.1,126.8z M96.4,81.2c-10.9-2.7-21.9,4-24.6,14.9s4,21.9,14.9,24.6s21.9-4,24.6-14.9
				C113.9,95,107.2,83.9,96.4,81.2z"/>
		</g>
		<g>
			<circle class="st0" cx="91.5" cy="101" r="12.2"/>
		</g>
	</g>
	<g>
		<g>
			<path class="st1" d="M131.3,217c-19.6-4.8-31.5-24.7-26.7-44.2c4.8-19.6,24.7-31.5,44.2-26.7c19.6,4.8,31.5,24.7,26.7,44.2
				S150.9,221.8,131.3,217z M147.4,152.1c-16.2-4-32.7,5.9-36.7,22.1s5.9,32.7,22.1,36.7s32.7-5.9,36.7-22.2
				C173.5,172.5,163.6,156.1,147.4,152.1z"/>
		</g>
		<g>
			<path class="st1" d="M133.7,207.3c-14.2-3.5-22.9-17.9-19.4-32.2c3.5-14.2,17.9-22.9,32.2-19.4c14.2,3.5,22.9,17.9,19.4,32.2
				C162.4,202.1,147.9,210.8,133.7,207.3z M145,161.8c-10.9-2.7-21.9,4-24.6,14.9s4,21.9,14.9,24.6s21.9-4,24.6-14.9
				C162.5,175.5,155.9,164.5,145,161.8z"/>
		</g>
		<g>
			<circle class="st1" cx="140.1" cy="181.5" r="12.2"/>
		</g>
	</g>
	<g>
		<g>
			<path class="st2" d="M179.9,297.5c-19.6-4.8-31.5-24.7-26.7-44.2c4.8-19.6,24.7-31.5,44.2-26.7s31.5,24.7,26.7,44.2
				C219.3,290.3,199.5,302.3,179.9,297.5z M196,232.6c-16.2-4-32.7,5.9-36.7,22.1s5.9,32.7,22.1,36.7s32.7-5.9,36.7-22.2
				C222.1,253.1,212.2,236.6,196,232.6z"/>
		</g>
		<g>
			<path class="st2" d="M182.3,287.8c-14.2-3.5-22.9-17.9-19.4-32.2s17.9-22.9,32.2-19.4c14.2,3.5,22.9,17.9,19.4,32.2
				C211,282.6,196.5,291.3,182.3,287.8z M193.6,242.3c-10.9-2.7-21.9,4-24.6,14.9c-2.7,10.9,4,21.9,14.9,24.6s21.9-4,24.6-14.9
				S204.5,245,193.6,242.3z"/>
		</g>
		<g>
			<circle class="st2" cx="188.7" cy="262" r="12.2"/>
		</g>
	</g>
</g>
</svg>
