<?xml version="1.0" encoding="utf-8"?>
<!-- Generator: Adobe Illustrator 24.2.3, SVG Export Plug-In . SVG Version: 6.00 Build 0)  -->
<svg version="1.1" id="图层_1" xmlns="http://www.w3.org/2000/svg" xmlns:xlink="http://www.w3.org/1999/xlink" x="0px" y="0px"
	 viewBox="0 0 270 350" style="enable-background:new 0 0 270 350;" xml:space="preserve">
<style type="text/css">
	.st0{fill:#009C3B;}
	.st1{fill:#DF0514;}
</style>
<g>
	<g>
		<g>
			<path class="st0" d="M94.4,118.6c-18.4-4.5-29.6-23.2-25.1-41.5c4.5-18.4,23.2-29.6,41.5-25.1s29.6,23.2,25.1,41.5
				C131.4,111.9,112.8,123.2,94.4,118.6z M109.5,57.7C94.2,53.9,78.8,63.3,75,78.5c-3.8,15.2,5.6,30.7,20.8,34.4
				c15.2,3.8,30.7-5.6,34.4-20.8S124.7,61.5,109.5,57.7z"/>
		</g>
		<g>
			<path class="st0" d="M96.7,109.5c-13.3-3.3-21.5-16.8-18.2-30.2s16.8-21.5,30.2-18.2c13.3,3.3,21.5,16.8,18.2,30.2
				C123.6,104.6,110,112.8,96.7,109.5z M107.2,66.8C97,64.3,86.6,70.5,84.1,80.7c-2.5,10.2,3.7,20.6,13.9,23.1
				c10.2,2.5,20.6-3.7,23.1-13.9S117.4,69.3,107.2,66.8z"/>
		</g>
		<g>
			<circle class="st0" cx="102.6" cy="85.3" r="11.4"/>
		</g>
	</g>
	<g>
		<g>
			<path class="st0" d="M163,118.6c-18.4-4.5-29.6-23.2-25.1-41.5c4.5-18.4,23.2-29.6,41.5-25.1s29.6,23.2,25.1,41.5
				C200,111.9,181.4,123.2,163,118.6z M178.1,57.7c-15.2-3.8-30.7,5.6-34.4,20.8c-3.8,15.2,5.6,30.7,20.8,34.4
				c15.2,3.8,30.7-5.6,34.4-20.8S193.3,61.5,178.1,57.7z"/>
		</g>
		<g>
			<path class="st0" d="M165.3,109.5c-13.3-3.3-21.5-16.8-18.2-30.2s16.8-21.5,30.2-18.2c13.3,3.3,21.5,16.8,18.2,30.2
				S178.6,112.8,165.3,109.5z M175.8,66.8c-10.2-2.5-20.6,3.7-23.1,13.9c-2.5,10.2,3.7,20.6,13.9,23.1c10.2,2.5,20.6-3.7,23.1-13.9
				S186,69.3,175.8,66.8z"/>
		</g>
		<g>
			<circle class="st0" cx="171.3" cy="85.3" r="11.4"/>
		</g>
	</g>
	<g>
		<g>
			<path class="st1" d="M94.4,239.9c-18.4-4.5-29.6-23.2-25.1-41.5c4.5-18.4,23.2-29.6,41.5-25.1s29.6,23.2,25.1,41.5
				C131.4,233.2,112.8,244.5,94.4,239.9z M109.5,179c-15.2-3.8-30.7,5.6-34.4,20.8c-3.8,15.2,5.6,30.7,20.8,34.4
				c15.2,3.8,30.7-5.6,34.4-20.8C134,198.2,124.7,182.8,109.5,179z"/>
		</g>
		<g>
			<path class="st1" d="M96.7,230.9c-13.3-3.3-21.5-16.8-18.2-30.2s16.8-21.5,30.2-18.2c13.3,3.3,21.5,16.8,18.2,30.2
				C123.6,226,110,234.2,96.7,230.9z M107.2,188.1c-10.2-2.5-20.6,3.7-23.1,13.9c-2.5,10.2,3.7,20.6,13.9,23.1
				c10.2,2.5,20.6-3.7,23.1-13.9C123.7,201,117.4,190.6,107.2,188.1z"/>
		</g>
		<g>
			<circle class="st1" cx="102.6" cy="206.6" r="11.4"/>
		</g>
	</g>
	<g>
		<g>
			<path class="st1" d="M163,239.9c-18.4-4.5-29.6-23.2-25.1-41.5c4.5-18.4,23.2-29.6,41.5-25.1s29.6,23.2,25.1,41.5
				C200,233.2,181.4,244.5,163,239.9z M178.1,179c-15.2-3.8-30.7,5.6-34.4,20.8c-3.8,15.2,5.6,30.7,20.8,34.4
				c15.2,3.8,30.7-5.6,34.4-20.8C202.6,198.2,193.3,182.8,178.1,179z"/>
		</g>
		<g>
			<path class="st1" d="M165.3,230.9c-13.3-3.3-21.5-16.8-18.2-30.2s16.8-21.5,30.2-18.2c13.3,3.3,21.5,16.8,18.2,30.2
				S178.6,234.2,165.3,230.9z M175.8,188.1c-10.2-2.5-20.6,3.7-23.1,13.9c-2.5,10.2,3.7,20.6,13.9,23.1c10.2,2.5,20.6-3.7,23.1-13.9
				C192.3,201,186,190.6,175.8,188.1z"/>
		</g>
		<g>
			<circle class="st1" cx="171.3" cy="206.6" r="11.4"/>
		</g>
	</g>
	<g>
		<g>
			<path class="st1" d="M94.4,308.6C76.1,304,64.8,285.4,69.3,267c4.5-18.4,23.2-29.6,41.5-25.1c18.4,4.5,29.6,23.2,25.1,41.5
				C131.4,301.9,112.8,313.1,94.4,308.6z M109.5,247.6c-15.2-3.8-30.7,5.6-34.4,20.8c-3.8,15.2,5.6,30.7,20.8,34.4
				c15.2,3.8,30.7-5.6,34.4-20.8C134,266.9,124.7,251.4,109.5,247.6z"/>
		</g>
		<g>
			<path class="st1" d="M96.7,299.5c-13.3-3.3-21.5-16.8-18.2-30.2s16.8-21.5,30.2-18.2s21.5,16.8,18.2,30.2
				C123.6,294.6,110,302.8,96.7,299.5z M107.2,256.7c-10.2-2.5-20.6,3.7-23.1,13.9c-2.5,10.2,3.7,20.6,13.9,23.1
				c10.2,2.5,20.6-3.7,23.1-13.9S117.4,259.3,107.2,256.7z"/>
		</g>
		<g>
			<circle class="st1" cx="102.6" cy="275.3" r="11.4"/>
		</g>
	</g>
	<g>
		<g>
			<path class="st1" d="M163,308.6c-18.4-4.5-29.6-23.2-25.1-41.5c4.5-18.4,23.2-29.6,41.5-25.1c18.4,4.5,29.6,23.2,25.1,41.5
				C200,301.9,181.4,313.1,163,308.6z M178.1,247.6c-15.2-3.8-30.7,5.6-34.4,20.8c-3.8,15.2,5.6,30.7,20.8,34.4
				c15.2,3.8,30.7-5.6,34.4-20.8C202.6,266.9,193.3,251.4,178.1,247.6z"/>
		</g>
		<g>
			<path class="st1" d="M165.3,299.5c-13.3-3.3-21.5-16.8-18.2-30.2s16.8-21.5,30.2-18.2s21.5,16.8,18.2,30.2
				S178.6,302.8,165.3,299.5z M175.8,256.7c-10.2-2.5-20.6,3.7-23.1,13.9c-2.5,10.2,3.7,20.6,13.9,23.1c10.2,2.5,20.6-3.7,23.1-13.9
				S186,259.3,175.8,256.7z"/>
		</g>
		<g>
			<circle class="st1" cx="171.3" cy="275.3" r="11.4"/>
		</g>
	</g>
</g>
</svg>
