<?xml version="1.0" encoding="utf-8"?>
<!-- Generator: Adobe Illustrator 16.0.0, SVG Export Plug-In . SVG Version: 6.00 Build 0)  -->
<!DOCTYPE svg PUBLIC "-//W3C//DTD SVG 1.1//EN" "http://www.w3.org/Graphics/SVG/1.1/DTD/svg11.dtd">
<svg version="1.1" id="图层_1" xmlns="http://www.w3.org/2000/svg" xmlns:xlink="http://www.w3.org/1999/xlink" x="0px" y="0px"
	 width="266.59px" height="372.646px" viewBox="0 0 266.59 372.646" enable-background="new 0 0 266.59 372.646"
	 xml:space="preserve">
<path fill="#5CB64A" stroke="#050000" stroke-width="0.5" stroke-miterlimit="10" d="M239.779,0.25H26.813
	C12.143,0.25,0.25,12.142,0.25,26.812v292.94c0,14.67,11.893,26.563,26.563,26.563h212.966c14.671,0,26.562-11.894,26.562-26.563
	V26.812C266.34,12.142,254.45,0.25,239.779,0.25z"/>
<path fill="#FFFFFF" stroke="#000000" stroke-width="0.5" stroke-miterlimit="10" d="M239.779,16.25H26.813
	c-14.67,0-26.563,11.893-26.563,26.563v292.94c0,14.67,11.893,26.563,26.563,26.563h212.966c14.673,0,26.562-11.893,26.562-26.563
	V42.812C266.34,28.142,254.452,16.25,239.779,16.25z"/>
<g>
	<g>
		<path fill="#FFFFFF" stroke="#231815" stroke-width="0.5" stroke-miterlimit="10" d="M239.755,26.256H26.588
			C11.904,26.256,0,38.161,0,52.844v293.215c0,14.685,11.904,26.589,26.588,26.589h213.167c14.685,0,26.589-11.904,26.589-26.589
			V52.844C266.343,38.161,254.439,26.256,239.755,26.256z"/>
	</g>
	<g>
		<g>
			<path fill="#004B9F" d="M135.329,174.585c-22.841,0-41.423-18.582-41.423-41.424c0-22.839,18.582-41.422,41.423-41.422
				c22.839,0,41.422,18.582,41.422,41.422C176.75,156.002,158.168,174.585,135.329,174.585z M135.329,98.805
				c-18.944,0-34.357,15.41-34.357,34.355c0,18.945,15.412,34.357,34.357,34.357c18.944,0,34.355-15.412,34.355-34.357
				C169.685,114.216,154.272,98.805,135.329,98.805z"/>
		</g>
		<g>
			<path fill="#004B9F" d="M135.329,163.272c-16.604,0-30.111-13.507-30.111-30.111c0-16.603,13.507-30.111,30.111-30.111
				s30.11,13.509,30.11,30.111C165.439,149.765,151.933,163.272,135.329,163.272z M135.329,110.116
				c-12.708,0-23.045,10.337-23.045,23.044c0,12.708,10.337,23.045,23.045,23.045c12.707,0,23.045-10.337,23.045-23.045
				C158.374,120.453,148.036,110.116,135.329,110.116z"/>
		</g>
		<g>
			<circle fill="#004B9F" cx="135.328" cy="133.162" r="13.812"/>
		</g>
	</g>
	<g>
		<g>
			<path fill="#004B9F" d="M135.329,311.881c-22.841,0-41.423-18.581-41.423-41.424c0-22.838,18.582-41.422,41.423-41.422
				c22.839,0,41.422,18.583,41.422,41.422C176.75,293.299,158.168,311.881,135.329,311.881z M135.329,236.102
				c-18.944,0-34.357,15.41-34.357,34.354c0,18.946,15.412,34.357,34.357,34.357c18.944,0,34.355-15.411,34.355-34.357
				C169.685,251.512,154.272,236.102,135.329,236.102z"/>
		</g>
		<g>
			<path fill="#004B9F" d="M135.329,300.569c-16.604,0-30.111-13.508-30.111-30.112c0-16.603,13.507-30.11,30.111-30.11
				s30.11,13.508,30.11,30.11C165.439,287.061,151.933,300.569,135.329,300.569z M135.329,247.412
				c-12.708,0-23.045,10.338-23.045,23.045c0,12.708,10.337,23.045,23.045,23.045c12.707,0,23.045-10.337,23.045-23.045
				C158.374,257.75,148.036,247.412,135.329,247.412z"/>
		</g>
		<g>
			<circle fill="#004B9F" cx="135.328" cy="270.458" r="13.813"/>
		</g>
	</g>
</g>
</svg>
