<?xml version="1.0" encoding="utf-8"?>
<!-- Generator: Adobe Illustrator 16.0.0, SVG Export Plug-In . SVG Version: 6.00 Build 0)  -->
<!DOCTYPE svg PUBLIC "-//W3C//DTD SVG 1.1//EN" "http://www.w3.org/Graphics/SVG/1.1/DTD/svg11.dtd">
<svg version="1.1" id="图层_1" xmlns="http://www.w3.org/2000/svg" xmlns:xlink="http://www.w3.org/1999/xlink" x="0px" y="0px"
	 width="266.59px" height="372.646px" viewBox="0 0 266.59 372.646" enable-background="new 0 0 266.59 372.646"
	 xml:space="preserve">
<path fill="#5CB64A" stroke="#050000" stroke-width="0.5" stroke-miterlimit="10" d="M239.78,0.25H26.813
	C12.143,0.25,0.25,12.142,0.25,26.812v292.941c0,14.67,11.893,26.563,26.563,26.563H239.78c14.67,0,26.561-11.893,26.561-26.563
	V26.812C266.34,12.142,254.45,0.25,239.78,0.25z"/>
<path fill="#FFFFFF" stroke="#000000" stroke-width="0.5" stroke-miterlimit="10" d="M239.78,16.25H26.813
	c-14.67,0-26.563,11.892-26.563,26.562v292.941c0,14.67,11.893,26.562,26.563,26.562H239.78c14.672,0,26.561-11.892,26.561-26.562
	V42.812C266.34,28.142,254.452,16.25,239.78,16.25z"/>
<g>
	<g>
		<path fill="#FFFFFF" stroke="#231815" stroke-width="0.5" stroke-miterlimit="10" d="M239.708,26.322H26.582
			C11.901,26.322,0,38.223,0,52.904v293.161c0,14.681,11.901,26.582,26.582,26.582h213.126c14.682,0,26.584-11.901,26.584-26.582
			V52.904C266.292,38.223,254.39,26.322,239.708,26.322z"/>
	</g>
	<g>
		<path fill="#004B9F" d="M134.768,104.787c-54.037,0-97.996,43.959-97.996,97.994c0,54.035,43.959,97.997,97.996,97.997
			c54.034,0,97.993-43.962,97.993-97.997C232.761,148.746,188.802,104.787,134.768,104.787z M134.768,292.046
			c-49.222,0-89.265-40.043-89.265-89.266c0-49.22,40.043-89.263,89.265-89.263c49.22,0,89.263,40.043,89.263,89.263
			C224.031,252.003,183.988,292.046,134.768,292.046z"/>
		<path fill="#009C3B" d="M206.956,194.082c6.357-5.126,9.414-12.056,7.302-18.278c-2.052-6.044-8.517-9.831-16.936-10.03
			c3.77-7.261,3.783-14.85-0.662-19.704c-2.575-2.81-6.241-4.293-10.6-4.293c-2.903,0-5.942,0.68-8.939,1.914
			c0.52-8.155-2.526-15.095-8.544-17.743c-1.604-0.708-3.33-1.064-5.129-1.064c-4.75,0-9.643,2.518-13.714,6.75
			c-2.811-7.673-8.393-12.798-14.966-12.798c-7.834,0-14.253,7.276-16.256,17.469c-4.667-5.857-10.73-9.418-16.543-9.418
			c-2.128,0-4.129,0.48-5.946,1.424c-5.838,3.037-8.422,10.169-7.366,18.282c-2.632-0.891-5.271-1.388-7.782-1.388
			c-4.857,0-8.964,1.782-11.563,5.018c-4.117,5.127-3.614,12.691,0.612,19.687c-8.329,0.744-14.575,4.939-16.236,11.129
			c-1.253,4.668,0.331,9.833,4.34,14.172c1.207,1.307,2.617,2.504,4.167,3.592c-1.659,0.912-3.192,1.948-4.534,3.114
			c-4.461,3.877-6.596,8.841-5.862,13.616c0.981,6.377,6.816,11.2,14.919,12.838c-4.962,6.492-6.287,13.953-2.756,19.498
			c2.582,4.053,7.423,6.379,13.286,6.379c1.804,0,3.666-0.229,5.542-0.642c-1.93,7.943-0.138,15.309,5.33,18.964
			c2.104,1.407,4.643,2.149,7.34,2.149c4.061,0,8.304-1.646,12.201-4.497c1.43,8.052,6.038,14.079,12.519,15.224
			c0.711,0.126,1.439,0.189,2.163,0.189c5.785,0,11.201-3.964,14.815-10.225c3.833,5.685,9.153,9.266,14.586,9.266
			c1.002,0,1.999-0.121,2.969-0.357c6.395-1.565,10.601-7.887,11.499-16.024c3.741,2.375,7.719,3.742,11.457,3.742
			c3.094,0,5.928-0.92,8.194-2.655c3.835-2.942,5.726-8.005,5.184-13.888c-0.161-1.77-0.551-3.578-1.119-5.384
			c1.372,0.212,2.729,0.33,4.048,0.33c6.604,0,11.848-2.653,14.384-7.28c3.162-5.76,1.358-13.113-4.011-19.265
			c7.949-2.143,13.475-7.293,14.043-13.792C218.963,203.558,214.35,197.551,206.956,194.082z M205.99,178.609
			c1.204,3.55-3.383,9.507-11.344,12.469c-4.319-0.26-8.345,0.254-11.849,1.387c-3.206-0.561-5.573-1.975-6.217-3.872
			c-0.572-1.681,0.13-3.915,1.923-6.126c0.207-0.256,0.438-0.504,0.669-0.753c3.523-1.257,7.014-3.327,10.197-6.076
			c2.442-0.754,4.94-1.168,7.274-1.168C201.394,174.468,205.148,176.133,205.99,178.609z M170.191,202.781
			c0,19.533-15.891,35.426-35.423,35.426c-19.534,0-35.425-15.893-35.425-35.426c0-19.531,15.891-35.422,35.425-35.422
			C154.3,167.358,170.191,183.249,170.191,202.781z M190.222,151.969c2.535,2.769,0.702,10.081-5.412,16.003
			c-3.904,1.458-7.424,3.526-10.242,6.034c-1.07,0.268-2.107,0.409-3.083,0.409c-1.288,0-3.056-0.253-4.162-1.46
			c-1.347-1.471-1.448-4.235-0.352-7.383c2.687-2.553,5.056-5.84,6.865-9.65c3.871-3.343,8.491-5.412,12.224-5.412
			C187.346,150.509,189.115,150.762,190.222,151.969z M163.448,133.615c0.59,0,1.118,0.105,1.612,0.322
			c3.433,1.512,4.726,8.921,1.528,16.792c-3.059,2.969-5.387,6.256-6.924,9.584c-1.976,1.539-3.938,2.376-5.502,2.376
			c-0.592,0-1.117-0.107-1.612-0.322c-1.823-0.804-3.04-3.28-3.306-6.601c1.42-3.378,2.275-7.313,2.4-11.571
			C154.889,137.338,160.075,133.615,163.448,133.615z M134.768,127.569c3.748,0,7.917,6.26,8.161,14.753
			c-1.61,3.963-2.416,7.921-2.479,11.598c-1.58,2.931-3.69,4.708-5.683,4.708c-3.863,0-8.187-6.642-8.187-15.531
			C126.582,134.209,130.905,127.569,134.768,127.569z M100.052,136.059c0.568-0.297,1.195-0.439,1.917-0.439
			c3.519,0,8.947,3.586,12.512,10.437c2.047,3.935,3.051,8.236,2.755,11.8c-0.237,2.84-1.275,4.938-2.849,5.756
			c-0.567,0.296-1.193,0.438-1.916,0.438c-1.51,0-3.374-0.699-5.29-1.995c-1.798-3.312-4.395-6.449-7.562-9.147
			C95.92,145.264,96.729,137.789,100.052,136.059z M76.121,155.69c1.163-1.447,3.227-1.752,4.754-1.752
			c3.643,0,8.018,1.726,11.847,4.622c2.079,3.731,4.677,6.886,7.551,9.266c0.125,0.3,0.252,0.6,0.354,0.896
			c0.926,2.693,0.82,5.031-0.29,6.415c-1.164,1.449-3.227,1.752-4.755,1.752c-0.78,0-1.599-0.098-2.435-0.25
			c-2.973-2.308-6.607-4.137-10.588-5.336C76.074,165.796,73.77,158.618,76.121,155.69z M62.12,183.302
			c0.757-2.819,5.067-4.789,10.484-4.789c1.939,0,3.934,0.282,5.936,0.762c3.321,2.5,6.94,4.342,10.54,5.372
			c0.249,0.235,0.498,0.468,0.721,0.71c1.933,2.092,2.779,4.274,2.319,5.986c-0.53,1.978-2.829,3.519-6.011,4.274
			c-2.319-0.583-4.84-0.904-7.513-0.904c-1.429,0-2.88,0.114-4.328,0.296c-3.984-1.192-7.539-3.246-9.827-5.722
			C62.507,187.196,61.661,185.014,62.12,183.302z M60.427,214.21c-0.269-1.755,0.81-3.83,2.959-5.7
			c2.541-2.205,6.292-3.858,10.377-4.608c2.637,0.626,5.281,0.963,7.874,0.963c1.373,0,2.693-0.1,3.966-0.272
			c3.065,1.089,5.209,2.854,5.522,4.899c0.269,1.753-0.809,3.829-2.959,5.697c-0.244,0.213-0.512,0.413-0.778,0.615
			c-3.725,0.634-7.543,2.085-11.13,4.225c-1.108,0.139-2.215,0.227-3.302,0.227C66.451,220.255,60.95,217.6,60.427,214.21z
			 M71.327,243.183c-2.013-3.162,1.026-10.038,8.054-14.807c4.115-0.755,7.953-2.183,11.178-4.166
			c0.352-0.023,0.704-0.048,1.045-0.048c2.816,0,4.975,0.853,5.92,2.337c1.068,1.676,0.708,4.4-0.904,7.301
			c-3.094,2.045-5.98,4.883-8.43,8.321c-3.602,2.156-7.549,3.397-10.941,3.397C74.43,245.519,72.272,244.666,71.327,243.183z
			 M95.461,265.991c-0.978,0-1.815-0.227-2.489-0.679c-3.118-2.084-3.103-9.607,1.414-16.804c3.531-2.395,6.397-5.229,8.49-8.244
			c1.817-0.962,3.52-1.452,4.865-1.452c0.978,0,1.816,0.228,2.491,0.68c1.646,1.101,2.416,3.725,2.116,7.012
			c-2.002,3.103-3.523,6.867-4.389,11.051C103.866,263.323,98.669,265.991,95.461,265.991z M122.343,276.907
			c-0.216,0-0.43-0.019-0.644-0.058c-3.694-0.652-6.712-7.543-5.475-15.949c2.276-3.627,3.759-7.391,4.457-11.004
			c1.854-2.343,3.959-3.689,5.767-3.689c0.216,0,0.432,0.019,0.646,0.057c1.746,0.308,3.368,1.998,4.445,4.635
			c0.131,0.321,0.208,0.696,0.32,1.036c-0.582,3.709-0.429,7.761,0.438,11.813C130.667,271.649,125.924,276.907,122.343,276.907z
			 M152.638,275.842c-3.613,0.867-9.13-3.986-11.434-12.387c0.602-4.1,0.489-8.152-0.333-11.816
			c0.092-0.346,0.142-0.726,0.252-1.053c0.905-2.702,2.409-4.492,4.135-4.914c0.289-0.07,0.589-0.106,0.893-0.106
			c1.732,0,3.812,1.191,5.732,3.31c0.958,3.65,2.736,7.323,5.176,10.703C158.838,267.882,156.278,274.951,152.638,275.842z
			 M180.549,262.456c-0.74,0.566-1.709,0.852-2.881,0.852c-3.252,0-8.33-2.38-12.58-7.613c-1.123-4.062-2.898-7.695-5.104-10.664
			c-0.057-0.354-0.114-0.708-0.146-1.053c-0.26-2.837,0.398-5.085,1.806-6.163c0.737-0.566,1.707-0.854,2.879-0.854
			c1.266,0,2.81,0.355,4.474,1.1c2.289,2.891,5.345,5.551,9.044,7.72c2.434,3.369,4.004,7.162,4.313,10.515
			C182.615,259.131,181.955,261.377,180.549,262.456z M200.705,238.963c-0.942,1.721-3.46,2.749-6.729,2.749
			c-3.207,0-6.793-0.989-10.189-2.738c-2.635-3.222-5.697-5.861-8.916-7.704c-1.808-2.796-2.352-5.501-1.392-7.249
			c0.945-1.719,3.46-2.746,6.729-2.746c0.028,0,0.06,0.006,0.09,0.006c3.262,1.727,7.136,2.931,11.4,3.429
			C199.024,229.012,202.508,235.677,200.705,238.963z M195.89,216.245c-0.53,0-1.074-0.038-1.616-0.071
			c-3.673-1.872-7.577-3.063-11.318-3.465c-2.787-1.83-4.375-4.091-4.203-6.076c0.169-1.929,2.09-3.927,5.232-5.278
			c0.643,0.044,1.274,0.109,1.941,0.109c3.171,0,6.522-0.547,9.769-1.542c8.444,0.98,14.326,5.685,13.998,9.42
			C209.403,212.661,204.042,216.245,195.89,216.245z"/>
		<path fill="#DF0414" d="M139.973,173.296v24.28h24.278C162.083,185.205,152.343,175.467,139.973,173.296z"/>
		<path fill="#DF0414" d="M129.562,197.576v-24.28c-12.371,2.171-22.108,11.909-24.28,24.28H129.562z"/>
		<path fill="#DF0414" d="M129.562,232.267v-24.28h-24.28C107.454,220.358,117.191,230.096,129.562,232.267z"/>
		<path fill="#DF0414" d="M164.251,207.987h-24.278v24.28C152.343,230.096,162.083,220.358,164.251,207.987z"/>
	</g>
</g>
</svg>
