<?xml version="1.0" encoding="utf-8"?>
<!-- Generator: Adobe Illustrator 16.0.0, SVG Export Plug-In . SVG Version: 6.00 Build 0)  -->
<!DOCTYPE svg PUBLIC "-//W3C//DTD SVG 1.1//EN" "http://www.w3.org/Graphics/SVG/1.1/DTD/svg11.dtd">
<svg version="1.1" id="图层_1" xmlns="http://www.w3.org/2000/svg" xmlns:xlink="http://www.w3.org/1999/xlink" x="0px" y="0px"
	 width="266.59px" height="372.646px" viewBox="0 0 266.59 372.646" enable-background="new 0 0 266.59 372.646"
	 xml:space="preserve">
<path fill="#5CB64A" stroke="#050000" stroke-width="0.5" stroke-miterlimit="10" d="M239.78,0.25H26.813
	C12.143,0.25,0.25,12.142,0.25,26.812v292.941c0,14.67,11.893,26.563,26.563,26.563H239.78c14.67,0,26.561-11.893,26.561-26.563
	V26.812C266.34,12.142,254.45,0.25,239.78,0.25z"/>
<path fill="#FFFFFF" stroke="#000000" stroke-width="0.5" stroke-miterlimit="10" d="M239.78,16.25H26.813
	c-14.67,0-26.563,11.892-26.563,26.562v292.941c0,14.67,11.893,26.562,26.563,26.562H239.78c14.672,0,26.561-11.892,26.561-26.562
	V42.812C266.34,28.142,254.452,16.25,239.78,16.25z"/>
<g>
	<g>
		<path fill="#FFFFFF" stroke="#231815" stroke-width="0.5" stroke-miterlimit="10" d="M239.529,26.582H26.562
			C11.892,26.582,0,38.475,0,53.144v292.941c0,14.67,11.892,26.562,26.562,26.562h212.967c14.67,0,26.563-11.892,26.563-26.562
			V53.144C266.091,38.475,254.199,26.582,239.529,26.582z"/>
	</g>
	<g>
		<g>
			<path fill="#009C3B" d="M92.46,143.234c-18.361-4.538-29.607-23.169-25.068-41.53c4.538-18.36,23.168-29.606,41.529-25.068
				c18.361,4.539,29.607,23.169,25.069,41.529C129.451,136.527,110.821,147.772,92.46,143.234z M107.517,82.316
				c-15.229-3.764-30.681,5.563-34.445,20.791c-3.764,15.229,5.563,30.682,20.792,34.446c15.229,3.764,30.681-5.563,34.445-20.793
				C132.074,101.531,122.746,86.08,107.517,82.316z"/>
		</g>
		<g>
			<path fill="#009C3B" d="M94.708,134.14c-13.347-3.299-21.522-16.842-18.223-30.189c3.299-13.347,16.842-21.521,30.189-18.223
				s21.522,16.842,18.223,30.189C121.598,129.264,108.055,137.439,94.708,134.14z M105.27,91.408
				c-10.215-2.525-20.58,3.73-23.104,13.946s3.732,20.58,13.947,23.104c10.215,2.525,20.58-3.731,23.104-13.946
				C121.741,104.297,115.484,93.933,105.27,91.408z"/>
		</g>
		<g>
			<circle fill="#009C3B" cx="100.691" cy="109.934" r="11.437"/>
		</g>
	</g>
	<g>
		<g>
			<path fill="#009C3B" d="M161.07,143.234c-18.361-4.538-29.606-23.169-25.067-41.53c4.538-18.36,23.168-29.606,41.529-25.068
				c18.361,4.539,29.606,23.169,25.068,41.529C198.062,136.527,179.431,147.772,161.07,143.234z M176.127,82.316
				c-15.229-3.764-30.681,5.563-34.444,20.791c-3.765,15.229,5.563,30.682,20.791,34.446c15.229,3.764,30.682-5.563,34.445-20.793
				C200.684,101.531,191.357,86.08,176.127,82.316z"/>
		</g>
		<g>
			<path fill="#009C3B" d="M163.318,134.14c-13.347-3.299-21.521-16.842-18.223-30.189c3.299-13.347,16.842-21.521,30.189-18.223
				c13.347,3.299,21.521,16.842,18.223,30.189C190.208,129.264,176.666,137.439,163.318,134.14z M173.88,91.408
				c-10.215-2.525-20.58,3.73-23.105,13.946c-2.524,10.216,3.732,20.58,13.947,23.104c10.215,2.525,20.58-3.731,23.104-13.946
				C190.351,104.297,184.095,93.933,173.88,91.408z"/>
		</g>
		<g>
			<circle fill="#009C3B" cx="169.301" cy="109.934" r="11.437"/>
		</g>
	</g>
	<g>
		<g>
			<path fill="#DF0414" d="M92.46,264.564c-18.361-4.538-29.607-23.168-25.068-41.53c4.538-18.36,23.168-29.606,41.529-25.068
				c18.361,4.539,29.607,23.169,25.069,41.529C129.451,257.857,110.821,269.102,92.46,264.564z M107.517,203.646
				c-15.229-3.764-30.681,5.563-34.445,20.792c-3.764,15.229,5.563,30.681,20.792,34.445c15.229,3.765,30.681-5.563,34.445-20.793
				C132.074,222.862,122.746,207.41,107.517,203.646z"/>
		</g>
		<g>
			<path fill="#DF0414" d="M94.708,255.47c-13.347-3.299-21.522-16.842-18.223-30.189c3.299-13.347,16.842-21.521,30.189-18.223
				s21.522,16.842,18.223,30.189C121.598,250.594,108.055,258.769,94.708,255.47z M105.27,212.739
				c-10.215-2.525-20.58,3.73-23.104,13.946s3.732,20.58,13.947,23.104c10.215,2.525,20.58-3.73,23.104-13.946
				S115.484,215.263,105.27,212.739z"/>
		</g>
		<g>
			<circle fill="#DF0414" cx="100.691" cy="231.264" r="11.437"/>
		</g>
	</g>
	<g>
		<g>
			<path fill="#DF0414" d="M161.07,264.564c-18.361-4.538-29.606-23.168-25.067-41.53c4.538-18.36,23.168-29.606,41.529-25.068
				c18.361,4.539,29.606,23.169,25.068,41.529C198.062,257.857,179.431,269.102,161.07,264.564z M176.127,203.646
				c-15.229-3.764-30.681,5.563-34.444,20.792c-3.765,15.229,5.563,30.681,20.791,34.445c15.229,3.765,30.682-5.563,34.445-20.793
				C200.684,222.862,191.357,207.41,176.127,203.646z"/>
		</g>
		<g>
			<path fill="#DF0414" d="M163.318,255.47c-13.347-3.299-21.521-16.842-18.223-30.189c3.299-13.347,16.842-21.521,30.189-18.223
				c13.347,3.299,21.521,16.842,18.223,30.189C190.208,250.594,176.666,258.769,163.318,255.47z M173.88,212.739
				c-10.215-2.525-20.58,3.73-23.105,13.946c-2.524,10.216,3.732,20.58,13.947,23.104c10.215,2.525,20.58-3.73,23.104-13.946
				S184.095,215.263,173.88,212.739z"/>
		</g>
		<g>
			<circle fill="#DF0414" cx="169.301" cy="231.264" r="11.437"/>
		</g>
	</g>
	<g>
		<g>
			<path fill="#DF0414" d="M92.46,333.174c-18.361-4.538-29.607-23.168-25.068-41.53c4.538-18.36,23.168-29.606,41.529-25.068
				c18.361,4.539,29.607,23.169,25.069,41.529C129.451,326.467,110.821,337.712,92.46,333.174z M107.517,272.256
				c-15.229-3.764-30.681,5.563-34.445,20.792c-3.764,15.229,5.563,30.682,20.792,34.445c15.229,3.765,30.681-5.563,34.445-20.793
				C132.074,291.472,122.746,276.021,107.517,272.256z"/>
		</g>
		<g>
			<path fill="#DF0414" d="M94.708,324.08c-13.347-3.299-21.522-16.842-18.223-30.189c3.299-13.347,16.842-21.521,30.189-18.223
				s21.522,16.842,18.223,30.189C121.598,319.204,108.055,327.379,94.708,324.08z M105.27,281.349
				c-10.215-2.525-20.58,3.73-23.104,13.946s3.732,20.58,13.947,23.104c10.215,2.525,20.58-3.73,23.104-13.946
				S115.484,283.873,105.27,281.349z"/>
		</g>
		<g>
			<circle fill="#DF0414" cx="100.691" cy="299.875" r="11.437"/>
		</g>
	</g>
	<g>
		<g>
			<path fill="#DF0414" d="M161.07,333.174c-18.361-4.538-29.606-23.168-25.067-41.53c4.538-18.36,23.168-29.606,41.529-25.068
				c18.361,4.539,29.606,23.169,25.068,41.529C198.062,326.467,179.431,337.712,161.07,333.174z M176.127,272.256
				c-15.229-3.764-30.681,5.563-34.444,20.792c-3.765,15.229,5.563,30.682,20.791,34.445c15.229,3.765,30.682-5.563,34.445-20.793
				C200.684,291.472,191.357,276.021,176.127,272.256z"/>
		</g>
		<g>
			<path fill="#DF0414" d="M163.318,324.08c-13.347-3.299-21.521-16.842-18.223-30.189c3.299-13.347,16.842-21.521,30.189-18.223
				c13.347,3.299,21.521,16.842,18.223,30.189C190.208,319.204,176.666,327.379,163.318,324.08z M173.88,281.349
				c-10.215-2.525-20.58,3.73-23.105,13.946c-2.524,10.216,3.732,20.58,13.947,23.104c10.215,2.525,20.58-3.73,23.104-13.946
				S184.095,283.873,173.88,281.349z"/>
		</g>
		<g>
			<circle fill="#DF0414" cx="169.301" cy="299.875" r="11.437"/>
		</g>
	</g>
</g>
</svg>
