<?xml version="1.0" encoding="utf-8"?>
<!-- Generator: Adobe Illustrator 16.0.0, SVG Export Plug-In . SVG Version: 6.00 Build 0)  -->
<!DOCTYPE svg PUBLIC "-//W3C//DTD SVG 1.1//EN" "http://www.w3.org/Graphics/SVG/1.1/DTD/svg11.dtd">
<svg version="1.1" id="图层_1" xmlns="http://www.w3.org/2000/svg" xmlns:xlink="http://www.w3.org/1999/xlink" x="0px" y="0px"
	 width="266.59px" height="372.646px" viewBox="0 0 266.59 372.646" enable-background="new 0 0 266.59 372.646"
	 xml:space="preserve">
<path fill="#5CB64A" stroke="#050000" stroke-width="0.5" stroke-miterlimit="10" d="M239.78,0.25H26.813
	C12.143,0.25,0.25,12.142,0.25,26.812v292.941c0,14.67,11.893,26.563,26.563,26.563H239.78c14.67,0,26.561-11.893,26.561-26.563
	V26.812C266.34,12.142,254.45,0.25,239.78,0.25z"/>
<path fill="#FFFFFF" stroke="#000000" stroke-width="0.5" stroke-miterlimit="10" d="M239.78,16.25H26.813
	c-14.67,0-26.563,11.892-26.563,26.562v292.941c0,14.67,11.893,26.562,26.563,26.562H239.78c14.672,0,26.561-11.892,26.561-26.562
	V42.812C266.34,28.142,254.452,16.25,239.78,16.25z"/>
<g>
	<g>
		<path fill="#FFFFFF" stroke="#231815" stroke-width="0.5" stroke-miterlimit="10" d="M239.531,26.582H26.563
			C11.893,26.582,0,38.475,0,53.144v292.941c0,14.67,11.893,26.562,26.563,26.562h212.968c14.67,0,26.561-11.892,26.561-26.562
			V53.144C266.091,38.475,254.201,26.582,239.531,26.582z"/>
	</g>
	<g>
		<g>
			<path fill="#004B9F" d="M96.459,264.564c-18.361-4.538-29.606-23.168-25.068-41.53c4.538-18.36,23.169-29.606,41.53-25.068
				c18.36,4.539,29.606,23.169,25.068,41.529C133.45,257.857,114.82,269.102,96.459,264.564z M111.517,203.646
				c-15.229-3.764-30.681,5.563-34.445,20.792c-3.764,15.229,5.563,30.681,20.792,34.445s30.681-5.563,34.445-20.793
				C136.073,222.862,126.745,207.41,111.517,203.646z"/>
		</g>
		<g>
			<path fill="#004B9F" d="M98.707,255.47c-13.348-3.299-21.522-16.842-18.224-30.189c3.3-13.347,16.843-21.521,30.189-18.223
				c13.348,3.299,21.522,16.842,18.224,30.189C125.598,250.594,112.054,258.769,98.707,255.47z M109.269,212.739
				c-10.215-2.525-20.579,3.73-23.104,13.946c-2.524,10.216,3.732,20.58,13.947,23.104c10.215,2.525,20.579-3.73,23.104-13.946
				C125.74,225.627,119.484,215.263,109.269,212.739z"/>
		</g>
		<g>
			<circle fill="#004B9F" cx="104.69" cy="231.264" r="11.437"/>
		</g>
	</g>
	<g>
		<g>
			<path fill="#004B9F" d="M165.07,264.564c-18.361-4.538-29.606-23.168-25.069-41.53c4.538-18.36,23.169-29.606,41.53-25.068
				c18.361,4.539,29.607,23.169,25.068,41.529C202.06,257.857,183.431,269.102,165.07,264.564z M180.126,203.646
				c-15.229-3.764-30.68,5.563-34.445,20.792c-3.764,15.229,5.564,30.681,20.793,34.445s30.682-5.563,34.445-20.793
				C204.683,222.862,195.355,207.41,180.126,203.646z"/>
		</g>
		<g>
			<path fill="#004B9F" d="M167.318,255.47c-13.348-3.299-21.523-16.842-18.225-30.189c3.301-13.347,16.844-21.521,30.189-18.223
				c13.348,3.299,21.523,16.842,18.225,30.189C194.208,250.594,180.664,258.769,167.318,255.47z M177.88,212.739
				c-10.217-2.525-20.58,3.73-23.105,13.946s3.732,20.58,13.947,23.104c10.215,2.525,20.578-3.73,23.104-13.946
				S188.095,215.263,177.88,212.739z"/>
		</g>
		<g>
			<circle fill="#004B9F" cx="173.3" cy="231.264" r="11.438"/>
		</g>
	</g>
	<g>
		<g>
			<path fill="#004B9F" d="M96.459,333.174c-18.361-4.538-29.606-23.168-25.068-41.53c4.538-18.36,23.169-29.606,41.53-25.068
				c18.36,4.539,29.606,23.169,25.068,41.529C133.45,326.467,114.82,337.712,96.459,333.174z M111.517,272.256
				c-15.229-3.764-30.681,5.563-34.445,20.792c-3.764,15.229,5.563,30.682,20.792,34.445c15.229,3.765,30.681-5.563,34.445-20.793
				C136.073,291.472,126.745,276.021,111.517,272.256z"/>
		</g>
		<g>
			<path fill="#004B9F" d="M98.707,324.08c-13.348-3.299-21.522-16.842-18.224-30.189c3.3-13.347,16.843-21.521,30.189-18.223
				c13.348,3.299,21.522,16.842,18.224,30.189C125.598,319.204,112.054,327.379,98.707,324.08z M109.269,281.349
				c-10.215-2.525-20.579,3.73-23.104,13.946c-2.524,10.216,3.732,20.58,13.947,23.104c10.215,2.525,20.579-3.73,23.104-13.946
				C125.74,294.238,119.484,283.873,109.269,281.349z"/>
		</g>
		<g>
			<circle fill="#004B9F" cx="104.69" cy="299.875" r="11.437"/>
		</g>
	</g>
	<g>
		<g>
			<path fill="#004B9F" d="M165.07,333.174c-18.361-4.538-29.606-23.168-25.069-41.53c4.538-18.36,23.169-29.606,41.53-25.068
				c18.361,4.539,29.607,23.169,25.068,41.529C202.06,326.467,183.431,337.712,165.07,333.174z M180.126,272.256
				c-15.229-3.764-30.68,5.563-34.445,20.792c-3.764,15.229,5.564,30.682,20.793,34.445c15.229,3.765,30.682-5.563,34.445-20.793
				C204.683,291.472,195.355,276.021,180.126,272.256z"/>
		</g>
		<g>
			<path fill="#004B9F" d="M167.318,324.08c-13.348-3.299-21.523-16.842-18.225-30.189c3.301-13.347,16.844-21.521,30.189-18.223
				c13.348,3.299,21.523,16.842,18.225,30.189C194.208,319.204,180.664,327.379,167.318,324.08z M177.88,281.349
				c-10.217-2.525-20.58,3.73-23.105,13.946s3.732,20.58,13.947,23.104c10.215,2.525,20.578-3.73,23.104-13.946
				S188.095,283.873,177.88,281.349z"/>
		</g>
		<g>
			<circle fill="#004B9F" cx="173.3" cy="299.875" r="11.438"/>
		</g>
	</g>
	<g>
		<g>
			<path fill="#004B9F" d="M96.459,127.343c-18.361-4.539-29.606-23.169-25.068-41.53s23.169-29.606,41.53-25.068
				c18.36,4.538,29.606,23.169,25.068,41.529C133.45,120.635,114.82,131.881,96.459,127.343z M111.517,66.425
				c-15.229-3.764-30.681,5.563-34.445,20.791c-3.764,15.229,5.563,30.682,20.792,34.446c15.229,3.764,30.681-5.563,34.445-20.793
				C136.073,85.64,126.745,70.19,111.517,66.425z"/>
		</g>
		<g>
			<path fill="#004B9F" d="M98.707,118.249c-13.348-3.299-21.522-16.843-18.224-30.189c3.3-13.347,16.843-21.522,30.189-18.223
				c13.348,3.299,21.522,16.842,18.224,30.188C125.598,113.373,112.054,121.548,98.707,118.249z M109.269,75.518
				c-10.215-2.525-20.579,3.73-23.104,13.946c-2.524,10.216,3.732,20.58,13.947,23.104s20.579-3.731,23.104-13.946
				C125.74,88.406,119.484,78.042,109.269,75.518z"/>
		</g>
		<g>
			<circle fill="#004B9F" cx="104.69" cy="94.043" r="11.437"/>
		</g>
	</g>
	<g>
		<g>
			<path fill="#004B9F" d="M165.07,127.343c-18.361-4.539-29.606-23.169-25.069-41.53c4.538-18.361,23.169-29.606,41.53-25.068
				s29.607,23.169,25.068,41.529C202.06,120.635,183.431,131.881,165.07,127.343z M180.126,66.425
				c-15.229-3.764-30.68,5.563-34.445,20.791c-3.764,15.229,5.564,30.682,20.793,34.446c15.229,3.764,30.682-5.563,34.445-20.793
				S195.355,70.19,180.126,66.425z"/>
		</g>
		<g>
			<path fill="#004B9F" d="M167.318,118.249c-13.348-3.299-21.523-16.843-18.225-30.189c3.301-13.347,16.844-21.522,30.189-18.223
				c13.348,3.299,21.523,16.842,18.225,30.188C194.208,113.373,180.664,121.548,167.318,118.249z M177.88,75.518
				c-10.217-2.525-20.58,3.73-23.105,13.946s3.732,20.58,13.947,23.104s20.578-3.731,23.104-13.946
				C194.351,88.406,188.095,78.042,177.88,75.518z"/>
		</g>
		<g>
			<circle fill="#004B9F" cx="173.3" cy="94.043" r="11.438"/>
		</g>
	</g>
	<g>
		<g>
			<path fill="#004B9F" d="M96.459,195.953c-18.361-4.538-29.606-23.169-25.068-41.53c4.538-18.36,23.169-29.606,41.53-25.068
				c18.36,4.539,29.606,23.169,25.068,41.529C133.45,189.246,114.82,200.491,96.459,195.953z M111.517,135.035
				c-15.229-3.764-30.681,5.563-34.445,20.791c-3.764,15.229,5.563,30.682,20.792,34.446c15.229,3.764,30.681-5.563,34.445-20.793
				C136.073,154.251,126.745,138.8,111.517,135.035z"/>
		</g>
		<g>
			<path fill="#004B9F" d="M98.707,186.86c-13.348-3.299-21.522-16.842-18.224-30.189c3.3-13.347,16.843-21.522,30.189-18.223
				c13.348,3.299,21.522,16.842,18.224,30.188C125.598,181.984,112.054,190.158,98.707,186.86z M109.269,144.128
				c-10.215-2.525-20.579,3.73-23.104,13.946c-2.524,10.216,3.732,20.58,13.947,23.104c10.215,2.525,20.579-3.731,23.104-13.946
				C125.74,157.017,119.484,146.653,109.269,144.128z"/>
		</g>
		<g>
			<circle fill="#004B9F" cx="104.69" cy="162.654" r="11.437"/>
		</g>
	</g>
	<g>
		<g>
			<path fill="#004B9F" d="M165.07,195.953c-18.361-4.538-29.606-23.169-25.069-41.53c4.538-18.36,23.169-29.606,41.53-25.068
				c18.361,4.539,29.607,23.169,25.068,41.529C202.06,189.246,183.431,200.491,165.07,195.953z M180.126,135.035
				c-15.229-3.764-30.68,5.563-34.445,20.791c-3.764,15.229,5.564,30.682,20.793,34.446c15.229,3.764,30.682-5.563,34.445-20.793
				C204.683,154.251,195.355,138.8,180.126,135.035z"/>
		</g>
		<g>
			<path fill="#004B9F" d="M167.318,186.86c-13.348-3.299-21.523-16.842-18.225-30.189c3.301-13.347,16.844-21.522,30.189-18.223
				c13.348,3.299,21.523,16.842,18.225,30.188C194.208,181.984,180.664,190.158,167.318,186.86z M177.88,144.128
				c-10.217-2.525-20.58,3.73-23.105,13.946s3.732,20.58,13.947,23.104c10.215,2.525,20.578-3.731,23.104-13.946
				C194.351,157.017,188.095,146.653,177.88,144.128z"/>
		</g>
		<g>
			<circle fill="#004B9F" cx="173.3" cy="162.654" r="11.438"/>
		</g>
	</g>
</g>
</svg>
