<?xml version="1.0" encoding="utf-8"?>
<!-- Generator: Adobe Illustrator 16.0.0, SVG Export Plug-In . SVG Version: 6.00 Build 0)  -->
<!DOCTYPE svg PUBLIC "-//W3C//DTD SVG 1.1//EN" "http://www.w3.org/Graphics/SVG/1.1/DTD/svg11.dtd">
<svg version="1.1" id="图层_1" xmlns="http://www.w3.org/2000/svg" xmlns:xlink="http://www.w3.org/1999/xlink" x="0px" y="0px"
	 width="266.59px" height="372.646px" viewBox="0 0 266.59 372.646" enable-background="new 0 0 266.59 372.646"
	 xml:space="preserve">
<path fill="#5CB64A" stroke="#050000" stroke-width="0.5" stroke-miterlimit="10" d="M239.78,0.25H26.813
	C12.143,0.25,0.25,12.142,0.25,26.812v292.941c0,14.67,11.893,26.563,26.563,26.563H239.78c14.67,0,26.561-11.893,26.561-26.563
	V26.812C266.34,12.142,254.45,0.25,239.78,0.25z"/>
<path fill="#FFFFFF" stroke="#000000" stroke-width="0.5" stroke-miterlimit="10" d="M239.78,16.25H26.813
	c-14.67,0-26.563,11.892-26.563,26.562v292.941c0,14.67,11.893,26.562,26.563,26.562H239.78c14.672,0,26.561-11.892,26.561-26.562
	V42.812C266.34,28.142,254.452,16.25,239.78,16.25z"/>
<g>
	<g>
		<path fill="#FFFFFF" stroke="#231815" stroke-width="0.5" stroke-miterlimit="10" d="M239.531,26.582H26.563
			C11.893,26.582,0,38.474,0,53.144v292.94c0,14.67,11.893,26.563,26.563,26.563h212.968c14.67,0,26.561-11.893,26.561-26.563
			V53.144C266.091,38.474,254.201,26.582,239.531,26.582z"/>
	</g>
	<g>
		<g>
			<path fill="#009C3B" d="M81.772,154.674c-18.361-4.539-29.606-23.168-25.068-41.531c4.538-18.36,23.168-29.606,41.529-25.068
				c18.361,4.539,29.607,23.168,25.069,41.529C118.764,147.966,100.134,159.212,81.772,154.674z M96.83,93.756
				c-15.229-3.764-30.681,5.563-34.445,20.792c-3.764,15.229,5.563,30.682,20.792,34.446c15.229,3.764,30.681-5.564,34.445-20.793
				S112.059,97.52,96.83,93.756z"/>
		</g>
		<g>
			<path fill="#009C3B" d="M84.021,145.58c-13.347-3.299-21.522-16.842-18.224-30.189c3.3-13.347,16.843-21.522,30.189-18.223
				c13.348,3.299,21.522,16.842,18.224,30.189S97.367,148.879,84.021,145.58z M94.582,102.848
				c-10.215-2.525-20.579,3.731-23.104,13.947c-2.524,10.215,3.732,20.58,13.947,23.104s20.579-3.731,23.104-13.947
				C111.054,115.737,104.798,105.373,94.582,102.848z"/>
		</g>
		<g>
			<circle fill="#009C3B" cx="90.003" cy="121.374" r="11.437"/>
		</g>
	</g>
	<g>
		<g>
			<path fill="#004B9F" d="M170.886,154.674c-18.361-4.539-29.607-23.168-25.068-41.531c4.539-18.36,23.168-29.606,41.529-25.068
				c18.361,4.539,29.607,23.168,25.068,41.529C207.878,147.966,189.248,159.212,170.886,154.674z M185.943,93.756
				c-15.229-3.764-30.68,5.563-34.443,20.792c-3.766,15.229,5.563,30.682,20.791,34.446s30.682-5.564,34.445-20.793
				S201.173,97.52,185.943,93.756z"/>
		</g>
		<g>
			<path fill="#004B9F" d="M173.134,145.58c-13.348-3.299-21.521-16.842-18.223-30.189s16.842-21.522,30.189-18.223
				c13.346,3.299,21.521,16.842,18.223,30.189S186.482,148.879,173.134,145.58z M183.697,102.848
				c-10.215-2.525-20.58,3.731-23.105,13.947c-2.525,10.215,3.732,20.58,13.947,23.104s20.58-3.731,23.104-13.947
				C200.167,115.737,193.912,105.373,183.697,102.848z"/>
		</g>
		<g>
			<circle fill="#004B9F" cx="179.118" cy="121.374" r="11.437"/>
		</g>
	</g>
	<g>
		<g>
			<path fill="#DF0414" d="M126.33,230.258c-18.361-4.538-29.607-23.168-25.068-41.53c4.538-18.36,23.168-29.606,41.529-25.068
				c18.361,4.539,29.607,23.168,25.068,41.529C163.322,223.551,144.691,234.797,126.33,230.258z M141.386,169.341
				c-15.229-3.764-30.68,5.563-34.445,20.792c-3.764,15.229,5.563,30.682,20.792,34.446c15.229,3.764,30.682-5.564,34.446-20.794
				C165.943,188.556,156.617,173.105,141.386,169.341z"/>
		</g>
		<g>
			<path fill="#DF0414" d="M128.577,221.164c-13.347-3.299-21.521-16.842-18.223-30.188c3.299-13.348,16.842-21.522,30.189-18.224
				c13.347,3.299,21.522,16.843,18.224,30.189C155.468,216.289,141.925,224.463,128.577,221.164z M139.139,178.433
				c-10.214-2.525-20.58,3.731-23.104,13.947c-2.525,10.215,3.731,20.579,13.946,23.104c10.214,2.524,20.581-3.731,23.104-13.947
				C155.611,191.322,149.355,180.958,139.139,178.433z"/>
		</g>
		<g>
			<circle fill="#DF0414" cx="134.56" cy="196.959" r="11.437"/>
		</g>
	</g>
	<g>
		<g>
			<path fill="#004B9F" d="M81.772,303.854c-18.361-4.539-29.606-23.168-25.068-41.531c4.538-18.359,23.168-29.605,41.529-25.067
				s29.607,23.169,25.069,41.529C118.764,297.147,100.134,308.392,81.772,303.854z M96.83,242.936
				c-15.229-3.764-30.681,5.563-34.445,20.791c-3.764,15.229,5.563,30.682,20.792,34.446c15.229,3.765,30.681-5.563,34.445-20.793
				S112.059,246.699,96.83,242.936z"/>
		</g>
		<g>
			<path fill="#004B9F" d="M84.021,294.76c-13.347-3.299-21.522-16.842-18.224-30.189c3.3-13.348,16.843-21.521,30.189-18.223
				c13.348,3.299,21.522,16.842,18.224,30.189C110.911,289.884,97.367,298.059,84.021,294.76z M94.582,252.028
				c-10.215-2.524-20.579,3.731-23.104,13.947c-2.524,10.215,3.732,20.58,13.947,23.104s20.579-3.731,23.104-13.946
				C111.054,264.917,104.798,254.553,94.582,252.028z"/>
		</g>
		<g>
			<circle fill="#004B9F" cx="90.003" cy="270.554" r="11.437"/>
		</g>
	</g>
	<g>
		<g>
			<path fill="#009C3B" d="M170.886,303.854c-18.361-4.539-29.607-23.168-25.068-41.531c4.539-18.359,23.168-29.605,41.529-25.067
				s29.607,23.169,25.068,41.529C207.878,297.147,189.248,308.392,170.886,303.854z M185.943,242.936
				c-15.229-3.764-30.68,5.563-34.443,20.791c-3.766,15.229,5.563,30.682,20.791,34.446s30.682-5.563,34.445-20.793
				S201.173,246.699,185.943,242.936z"/>
		</g>
		<g>
			<path fill="#009C3B" d="M173.134,294.76c-13.348-3.299-21.521-16.842-18.223-30.189s16.842-21.521,30.189-18.223
				c13.346,3.299,21.521,16.842,18.223,30.189C200.025,289.884,186.482,298.059,173.134,294.76z M183.697,252.028
				c-10.215-2.524-20.58,3.731-23.105,13.947c-2.525,10.215,3.732,20.58,13.947,23.104s20.58-3.731,23.104-13.946
				C200.167,264.917,193.912,254.553,183.697,252.028z"/>
		</g>
		<g>
			<circle fill="#009C3B" cx="179.118" cy="270.554" r="11.437"/>
		</g>
	</g>
</g>
</svg>
