<?xml version="1.0" encoding="utf-8"?>
<!-- Generator: Adobe Illustrator 16.0.0, SVG Export Plug-In . SVG Version: 6.00 Build 0)  -->
<!DOCTYPE svg PUBLIC "-//W3C//DTD SVG 1.1//EN" "http://www.w3.org/Graphics/SVG/1.1/DTD/svg11.dtd">
<svg version="1.1" id="图层_1" xmlns="http://www.w3.org/2000/svg" xmlns:xlink="http://www.w3.org/1999/xlink" x="0px" y="0px"
	 width="266.59px" height="372.646px" viewBox="0 0 266.59 372.646" enable-background="new 0 0 266.59 372.646"
	 xml:space="preserve">
<path fill="#5CB64A" stroke="#050000" stroke-width="0.5" stroke-miterlimit="10" d="M239.78,0.25H26.813
	C12.143,0.25,0.25,12.142,0.25,26.812v292.941c0,14.67,11.893,26.563,26.563,26.563H239.78c14.67,0,26.561-11.893,26.561-26.563
	V26.812C266.34,12.142,254.45,0.25,239.78,0.25z"/>
<path fill="#FFFFFF" stroke="#000000" stroke-width="0.5" stroke-miterlimit="10" d="M239.78,16.25H26.813
	c-14.67,0-26.563,11.892-26.563,26.562v292.941c0,14.67,11.893,26.562,26.563,26.562H239.78c14.672,0,26.561-11.892,26.561-26.562
	V42.812C266.34,28.142,254.452,16.25,239.78,16.25z"/>
<g>
	<g>
		<path fill="#FFFFFF" stroke="#231815" stroke-width="0.5" stroke-miterlimit="10" d="M239.531,26.582H26.563
			C11.893,26.582,0,38.474,0,53.144v292.94c0,14.67,11.893,26.563,26.563,26.563h212.968c14.668,0,26.561-11.893,26.561-26.563
			V53.144C266.091,38.474,254.199,26.582,239.531,26.582z"/>
	</g>
	<g>
		<g>
			<path fill="#009C3B" d="M77.966,154.674c-18.361-4.539-29.605-23.168-25.068-41.531c4.539-18.36,23.168-29.606,41.529-25.068
				c18.361,4.539,29.607,23.168,25.07,41.529C114.958,147.966,96.328,159.212,77.966,154.674z M93.023,93.756
				c-15.229-3.764-30.68,5.563-34.443,20.792c-3.766,15.229,5.563,30.682,20.791,34.446s30.682-5.564,34.445-20.793
				S108.253,97.52,93.023,93.756z"/>
		</g>
		<g>
			<path fill="#009C3B" d="M80.214,145.58c-13.348-3.299-21.521-16.842-18.223-30.189s16.842-21.522,30.189-18.223
				c13.346,3.299,21.521,16.842,18.223,30.189S93.562,148.879,80.214,145.58z M90.777,102.848
				c-10.215-2.525-20.58,3.731-23.105,13.947c-2.525,10.215,3.732,20.58,13.947,23.104s20.58-3.731,23.105-13.947
				C107.248,115.737,100.992,105.373,90.777,102.848z"/>
		</g>
		<g>
			<circle fill="#009C3B" cx="86.198" cy="121.374" r="11.437"/>
		</g>
	</g>
	<g>
		<g>
			<path fill="#004B9F" d="M167.08,154.674c-18.359-4.539-29.605-23.168-25.066-41.531c4.537-18.36,23.168-29.606,41.529-25.068
				c18.361,4.539,29.605,23.168,25.068,41.529C204.072,147.966,185.441,159.212,167.08,154.674z M182.138,93.756
				c-15.23-3.764-30.682,5.563-34.445,20.792s5.563,30.682,20.791,34.446c15.23,3.764,30.682-5.564,34.445-20.793
				C206.695,112.971,197.367,97.52,182.138,93.756z"/>
		</g>
		<g>
			<path fill="#004B9F" d="M169.328,145.58c-13.346-3.299-21.521-16.842-18.223-30.189s16.842-21.522,30.189-18.223
				c13.348,3.299,21.521,16.842,18.223,30.189S182.675,148.879,169.328,145.58z M179.89,102.848
				c-10.215-2.525-20.58,3.731-23.104,13.947c-2.525,10.215,3.73,20.58,13.945,23.104s20.58-3.731,23.105-13.947
				C196.363,115.737,190.105,105.373,179.89,102.848z"/>
		</g>
		<g>
			<circle fill="#004B9F" cx="175.311" cy="121.374" r="11.437"/>
		</g>
	</g>
	<g>
		<g>
			<path fill="#004B9F" d="M77.966,298.869c-18.361-4.539-29.605-23.169-25.068-41.531c4.539-18.36,23.168-29.605,41.529-25.068
				c18.361,4.539,29.607,23.169,25.07,41.529C114.958,292.161,96.328,303.406,77.966,298.869z M93.023,237.951
				c-15.229-3.765-30.68,5.563-34.443,20.791c-3.766,15.229,5.563,30.682,20.791,34.445c15.229,3.765,30.682-5.563,34.445-20.793
				C117.58,257.166,108.253,241.715,93.023,237.951z"/>
		</g>
		<g>
			<path fill="#004B9F" d="M80.214,289.776c-13.348-3.299-21.521-16.843-18.223-30.189c3.299-13.348,16.842-21.522,30.189-18.224
				c13.346,3.3,21.521,16.843,18.223,30.189S93.562,293.074,80.214,289.776z M90.777,247.043
				c-10.215-2.525-20.58,3.73-23.105,13.947c-2.525,10.215,3.732,20.579,13.947,23.104c10.215,2.525,20.58-3.73,23.105-13.945
				C107.248,259.932,100.992,249.569,90.777,247.043z"/>
		</g>
		<g>
			<circle fill="#004B9F" cx="86.198" cy="265.569" r="11.437"/>
		</g>
	</g>
	<g>
		<g>
			<path fill="#009C3B" d="M167.08,298.869c-18.359-4.539-29.605-23.169-25.066-41.531c4.537-18.36,23.168-29.605,41.529-25.068
				c18.361,4.539,29.605,23.169,25.068,41.529C204.072,292.161,185.441,303.406,167.08,298.869z M182.138,237.951
				c-15.23-3.765-30.682,5.563-34.445,20.791s5.563,30.682,20.791,34.445c15.23,3.765,30.682-5.563,34.445-20.793
				C206.695,257.166,197.367,241.715,182.138,237.951z"/>
		</g>
		<g>
			<path fill="#009C3B" d="M169.328,289.776c-13.346-3.299-21.521-16.843-18.223-30.189c3.299-13.348,16.842-21.522,30.189-18.224
				c13.348,3.3,21.521,16.843,18.223,30.189S182.675,293.074,169.328,289.776z M179.89,247.043
				c-10.215-2.525-20.58,3.73-23.104,13.947c-2.525,10.215,3.73,20.579,13.945,23.104c10.215,2.525,20.58-3.73,23.105-13.945
				C196.363,259.932,190.105,249.569,179.89,247.043z"/>
		</g>
		<g>
			<circle fill="#009C3B" cx="175.311" cy="265.569" r="11.437"/>
		</g>
	</g>
</g>
</svg>
