<?xml version="1.0" encoding="utf-8"?>
<!-- Generator: Adobe Illustrator 16.0.0, SVG Export Plug-In . SVG Version: 6.00 Build 0)  -->
<!DOCTYPE svg PUBLIC "-//W3C//DTD SVG 1.1//EN" "http://www.w3.org/Graphics/SVG/1.1/DTD/svg11.dtd">
<svg version="1.1" id="图层_1" xmlns="http://www.w3.org/2000/svg" xmlns:xlink="http://www.w3.org/1999/xlink" x="0px" y="0px"
	 width="266.59px" height="372.646px" viewBox="0 0 266.59 372.646" enable-background="new 0 0 266.59 372.646"
	 xml:space="preserve">
<path fill="#5CB64A" stroke="#050000" stroke-width="0.5" stroke-miterlimit="10" d="M239.78,0.25H26.813
	C12.143,0.25,0.25,12.142,0.25,26.812v292.941c0,14.67,11.893,26.563,26.563,26.563H239.78c14.67,0,26.561-11.893,26.561-26.563
	V26.812C266.34,12.142,254.45,0.25,239.78,0.25z"/>
<path fill="#FFFFFF" stroke="#000000" stroke-width="0.5" stroke-miterlimit="10" d="M239.78,16.25H26.813
	c-14.67,0-26.563,11.892-26.563,26.562v292.941c0,14.67,11.893,26.562,26.563,26.562H239.78c14.672,0,26.561-11.892,26.561-26.562
	V42.812C266.34,28.142,254.452,16.25,239.78,16.25z"/>
<g>
	<g>
		<path fill="#FFFFFF" stroke="#231815" stroke-width="0.5" stroke-miterlimit="10" d="M239.531,26.582H26.563
			C11.893,26.582,0,38.475,0,53.144v292.941c0,14.67,11.893,26.562,26.563,26.562h212.968c14.67,0,26.561-11.892,26.561-26.562
			V53.144C266.091,38.475,254.201,26.582,239.531,26.582z"/>
	</g>
	<g>
		<g>
			<path fill="#004B9F" d="M64.783,140.007c-16.523-4.084-26.643-20.849-22.559-37.373c4.083-16.521,20.849-26.642,37.371-22.558
				c16.523,4.084,26.643,20.849,22.559,37.371C98.07,133.971,81.306,144.091,64.783,140.007z M78.332,85.189
				c-13.704-3.388-27.608,5.005-30.996,18.709c-3.387,13.704,5.006,27.61,18.71,30.997c13.705,3.388,27.609-5.007,30.997-18.711
				S92.037,88.575,78.332,85.189z"/>
		</g>
		<g>
			<path fill="#004B9F" d="M66.806,131.823c-12.011-2.969-19.367-15.155-16.398-27.167c2.969-12.011,15.155-19.367,27.166-16.398
				s19.367,15.156,16.398,27.167S78.816,134.792,66.806,131.823z M76.31,93.37c-9.191-2.272-18.519,3.357-20.791,12.55
				c-2.272,9.193,3.358,18.52,12.551,20.792c9.191,2.271,18.519-3.357,20.791-12.551C91.133,104.969,85.502,95.642,76.31,93.37z"/>
		</g>
		<g>
			<circle fill="#004B9F" cx="72.189" cy="110.041" r="10.292"/>
		</g>
	</g>
	<g>
		<g>
			<path fill="#004B9F" d="M126.523,140.007c-16.522-4.084-26.643-20.849-22.558-37.373c4.083-16.521,20.848-26.642,37.372-22.558
				c16.523,4.084,26.643,20.849,22.559,37.371C159.812,133.971,143.046,144.091,126.523,140.007z M140.073,85.189
				c-13.704-3.388-27.608,5.005-30.996,18.709s5.006,27.61,18.71,30.997c13.705,3.388,27.609-5.007,30.998-18.711
				C162.171,102.48,153.777,88.575,140.073,85.189z"/>
		</g>
		<g>
			<path fill="#004B9F" d="M128.547,131.823c-12.011-2.969-19.368-15.155-16.398-27.167c2.968-12.011,15.155-19.367,27.167-16.398
				c12.011,2.969,19.366,15.156,16.397,27.167S140.557,134.792,128.547,131.823z M138.051,93.37
				c-9.192-2.272-18.519,3.357-20.792,12.55c-2.272,9.193,3.358,18.52,12.55,20.792c9.193,2.271,18.52-3.357,20.792-12.551
				C152.875,104.969,147.244,95.642,138.051,93.37z"/>
		</g>
		<g>
			<circle fill="#004B9F" cx="133.93" cy="110.041" r="10.292"/>
		</g>
	</g>
	<g>
		<g>
			<path fill="#004B9F" d="M188.265,140.007c-16.523-4.084-26.643-20.849-22.559-37.373c4.084-16.521,20.85-26.642,37.371-22.558
				c16.523,4.084,26.643,20.849,22.559,37.371C221.552,133.971,204.789,144.091,188.265,140.007z M201.814,85.189
				c-13.703-3.388-27.607,5.005-30.996,18.709c-3.387,13.704,5.006,27.61,18.711,30.997c13.703,3.388,27.609-5.007,30.996-18.711
				S215.519,88.575,201.814,85.189z"/>
		</g>
		<g>
			<path fill="#004B9F" d="M190.289,131.823c-12.012-2.969-19.369-15.155-16.4-27.167c2.969-12.011,15.156-19.367,27.168-16.398
				c12.01,2.969,19.367,15.156,16.398,27.167S202.298,134.792,190.289,131.823z M199.792,93.37
				c-9.193-2.272-18.52,3.357-20.791,12.55c-2.273,9.193,3.357,18.52,12.549,20.792c9.193,2.271,18.52-3.357,20.793-12.551
				C214.615,104.969,208.984,95.642,199.792,93.37z"/>
		</g>
		<g>
			<circle fill="#004B9F" cx="195.672" cy="110.041" r="10.292"/>
		</g>
	</g>
	<g>
		<g>
			<path fill="#DF0414" d="M64.783,228.853c-16.523-4.084-26.643-20.849-22.559-37.372c4.083-16.522,20.849-26.642,37.371-22.558
				c16.523,4.084,26.643,20.849,22.559,37.371C98.07,222.818,81.306,232.937,64.783,228.853z M78.332,174.034
				c-13.704-3.388-27.608,5.006-30.996,18.71c-3.387,13.704,5.006,27.609,18.71,30.997c13.705,3.387,27.609-5.007,30.997-18.711
				C100.431,191.325,92.037,177.422,78.332,174.034z"/>
		</g>
		<g>
			<path fill="#DF0414" d="M66.806,220.67c-12.011-2.969-19.367-15.156-16.398-27.167s15.155-19.367,27.166-16.398
				s19.367,15.155,16.398,27.167C91.003,216.282,78.816,223.639,66.806,220.67z M76.31,182.216
				c-9.191-2.271-18.519,3.357-20.791,12.551c-2.272,9.192,3.358,18.52,12.551,20.791c9.191,2.272,18.519-3.357,20.791-12.55
				C91.133,193.815,85.502,184.489,76.31,182.216z"/>
		</g>
		<g>
			<circle fill="#DF0414" cx="72.189" cy="198.887" r="10.292"/>
		</g>
	</g>
	<g>
		<g>
			<path fill="#DF0414" d="M126.523,228.853c-16.522-4.084-26.643-20.849-22.558-37.372c4.083-16.522,20.848-26.642,37.372-22.558
				c16.523,4.084,26.643,20.849,22.559,37.371C159.812,222.818,143.046,232.937,126.523,228.853z M140.073,174.034
				c-13.704-3.388-27.608,5.006-30.996,18.71s5.006,27.609,18.71,30.997c13.705,3.387,27.609-5.007,30.998-18.711
				C162.171,191.325,153.777,177.422,140.073,174.034z"/>
		</g>
		<g>
			<path fill="#DF0414" d="M128.547,220.67c-12.011-2.969-19.368-15.156-16.398-27.167c2.968-12.011,15.155-19.367,27.167-16.398
				c12.011,2.969,19.366,15.155,16.397,27.167C152.744,216.282,140.557,223.639,128.547,220.67z M138.051,182.216
				c-9.192-2.271-18.519,3.357-20.792,12.551c-2.272,9.192,3.358,18.52,12.55,20.791c9.193,2.272,18.52-3.357,20.792-12.55
				C152.875,193.815,147.244,184.489,138.051,182.216z"/>
		</g>
		<g>
			<circle fill="#DF0414" cx="133.93" cy="198.887" r="10.292"/>
		</g>
	</g>
	<g>
		<g>
			<path fill="#DF0414" d="M188.265,228.853c-16.523-4.084-26.643-20.849-22.559-37.372c4.084-16.522,20.85-26.642,37.371-22.558
				c16.523,4.084,26.643,20.849,22.559,37.371C221.552,222.818,204.789,232.937,188.265,228.853z M201.814,174.034
				c-13.703-3.388-27.607,5.006-30.996,18.71c-3.387,13.704,5.006,27.609,18.711,30.997c13.703,3.387,27.609-5.007,30.996-18.711
				C223.912,191.325,215.519,177.422,201.814,174.034z"/>
		</g>
		<g>
			<path fill="#DF0414" d="M190.289,220.67c-12.012-2.969-19.369-15.156-16.4-27.167s15.156-19.367,27.168-16.398
				c12.01,2.969,19.367,15.155,16.398,27.167C214.486,216.282,202.298,223.639,190.289,220.67z M199.792,182.216
				c-9.193-2.271-18.52,3.357-20.791,12.551c-2.273,9.192,3.357,18.52,12.549,20.791c9.193,2.272,18.52-3.357,20.793-12.55
				C214.615,193.815,208.984,184.489,199.792,182.216z"/>
		</g>
		<g>
			<circle fill="#DF0414" cx="195.672" cy="198.887" r="10.292"/>
		</g>
	</g>
	<g>
		<g>
			<path fill="#009C3B" d="M64.783,317.699c-16.523-4.084-26.643-20.849-22.559-37.372c4.083-16.522,20.849-26.643,37.371-22.559
				c16.523,4.084,26.643,20.849,22.559,37.371C98.07,311.663,81.306,321.783,64.783,317.699z M78.332,262.881
				c-13.704-3.388-27.608,5.005-30.996,18.709c-3.387,13.705,5.006,27.61,18.71,30.997c13.705,3.388,27.609-5.007,30.997-18.711
				S92.037,266.268,78.332,262.881z"/>
		</g>
		<g>
			<path fill="#009C3B" d="M66.806,309.516c-12.011-2.969-19.367-15.155-16.398-27.167c2.969-12.011,15.155-19.367,27.166-16.398
				s19.367,15.156,16.398,27.167S78.816,312.485,66.806,309.516z M76.31,271.063c-9.191-2.272-18.519,3.357-20.791,12.55
				c-2.272,9.193,3.358,18.52,12.551,20.792c9.191,2.271,18.519-3.357,20.791-12.551C91.133,282.661,85.502,273.334,76.31,271.063z"
				/>
		</g>
		<g>
			<circle fill="#009C3B" cx="72.189" cy="287.734" r="10.292"/>
		</g>
	</g>
	<g>
		<g>
			<path fill="#009C3B" d="M126.523,317.699c-16.522-4.084-26.643-20.849-22.558-37.372c4.083-16.522,20.848-26.643,37.372-22.559
				c16.523,4.084,26.643,20.849,22.559,37.371C159.812,311.663,143.046,321.783,126.523,317.699z M140.073,262.881
				c-13.704-3.388-27.608,5.005-30.996,18.709c-3.388,13.705,5.006,27.61,18.71,30.997c13.705,3.388,27.609-5.007,30.998-18.711
				C162.171,280.172,153.777,266.268,140.073,262.881z"/>
		</g>
		<g>
			<path fill="#009C3B" d="M128.547,309.516c-12.011-2.969-19.368-15.155-16.398-27.167c2.968-12.011,15.155-19.367,27.167-16.398
				c12.011,2.969,19.366,15.156,16.397,27.167S140.557,312.485,128.547,309.516z M138.051,271.063
				c-9.192-2.272-18.519,3.357-20.792,12.55c-2.272,9.193,3.358,18.52,12.55,20.792c9.193,2.271,18.52-3.357,20.792-12.551
				C152.875,282.661,147.244,273.334,138.051,271.063z"/>
		</g>
		<g>
			<circle fill="#009C3B" cx="133.93" cy="287.734" r="10.292"/>
		</g>
	</g>
	<g>
		<g>
			<path fill="#009C3B" d="M188.265,317.699c-16.523-4.084-26.643-20.849-22.559-37.372c4.084-16.522,20.85-26.643,37.371-22.559
				c16.523,4.084,26.643,20.849,22.559,37.371C221.552,311.663,204.789,321.783,188.265,317.699z M201.814,262.881
				c-13.703-3.388-27.607,5.005-30.996,18.709c-3.387,13.705,5.006,27.61,18.711,30.997c13.703,3.388,27.609-5.007,30.996-18.711
				S215.519,266.268,201.814,262.881z"/>
		</g>
		<g>
			<path fill="#009C3B" d="M190.289,309.516c-12.012-2.969-19.369-15.155-16.4-27.167c2.969-12.011,15.156-19.367,27.168-16.398
				c12.01,2.969,19.367,15.156,16.398,27.167S202.298,312.485,190.289,309.516z M199.792,271.063
				c-9.193-2.272-18.52,3.357-20.791,12.55c-2.273,9.193,3.357,18.52,12.549,20.792c9.193,2.271,18.52-3.357,20.793-12.551
				C214.615,282.661,208.984,273.334,199.792,271.063z"/>
		</g>
		<g>
			<circle fill="#009C3B" cx="195.672" cy="287.734" r="10.292"/>
		</g>
	</g>
</g>
</svg>
