<?xml version="1.0" encoding="utf-8"?>
<!-- Generator: Adobe Illustrator 16.0.0, SVG Export Plug-In . SVG Version: 6.00 Build 0)  -->
<!DOCTYPE svg PUBLIC "-//W3C//DTD SVG 1.1//EN" "http://www.w3.org/Graphics/SVG/1.1/DTD/svg11.dtd">
<svg version="1.1" id="图层_1" xmlns="http://www.w3.org/2000/svg" xmlns:xlink="http://www.w3.org/1999/xlink" x="0px" y="0px"
	 width="266.59px" height="372.646px" viewBox="0 0 266.59 372.646" enable-background="new 0 0 266.59 372.646"
	 xml:space="preserve">
<path fill="#5CB64A" stroke="#050000" stroke-width="0.5" stroke-miterlimit="10" d="M239.78,0.25H26.813
	C12.143,0.25,0.25,12.142,0.25,26.812v292.941c0,14.67,11.893,26.563,26.563,26.563H239.78c14.67,0,26.561-11.893,26.561-26.563
	V26.812C266.34,12.142,254.45,0.25,239.78,0.25z"/>
<path fill="#FFFFFF" stroke="#000000" stroke-width="0.5" stroke-miterlimit="10" d="M239.78,16.25H26.813
	c-14.67,0-26.563,11.892-26.563,26.562v292.941c0,14.67,11.893,26.562,26.563,26.562H239.78c14.672,0,26.561-11.892,26.561-26.562
	V42.812C266.34,28.142,254.452,16.25,239.78,16.25z"/>
<g>
	<g>
		<path fill="#FFFFFF" stroke="#231815" stroke-width="0.5" stroke-miterlimit="10" d="M239.53,26.582H26.562
			C11.892,26.582,0,38.475,0,53.144v292.941c0,14.67,11.892,26.562,26.562,26.562H239.53c14.669,0,26.562-11.892,26.562-26.562
			V53.144C266.091,38.475,254.199,26.582,239.53,26.582z"/>
	</g>
	<g>
		<g>
			<path fill="#DF0414" d="M94.387,264.564c-18.361-4.538-29.607-23.168-25.068-41.53c4.538-18.36,23.168-29.606,41.529-25.068
				c18.361,4.539,29.607,23.169,25.068,41.529C131.378,257.857,112.749,269.102,94.387,264.564z M109.444,203.646
				c-15.229-3.764-30.681,5.563-34.445,20.792c-3.764,15.229,5.563,30.681,20.792,34.445c15.229,3.765,30.681-5.563,34.445-20.793
				C134,222.862,124.673,207.41,109.444,203.646z"/>
		</g>
		<g>
			<path fill="#DF0414" d="M96.635,255.47c-13.347-3.299-21.522-16.842-18.223-30.189c3.299-13.347,16.842-21.521,30.189-18.223
				s21.522,16.842,18.223,30.189C123.525,250.594,109.982,258.769,96.635,255.47z M107.197,212.739
				c-10.215-2.525-20.58,3.73-23.104,13.946s3.731,20.58,13.947,23.104c10.215,2.525,20.58-3.73,23.104-13.946
				S117.412,215.263,107.197,212.739z"/>
		</g>
		<g>
			<circle fill="#DF0414" cx="102.618" cy="231.264" r="11.437"/>
		</g>
	</g>
	<g>
		<g>
			<path fill="#009C3B" d="M65.964,139.031c-17.813-4.402-28.722-22.476-24.319-40.289c4.403-17.812,22.476-28.721,40.288-24.318
				c17.813,4.402,28.722,22.476,24.32,40.288C101.85,132.525,83.776,143.435,65.964,139.031z M80.571,79.935
				c-14.774-3.651-29.764,5.396-33.416,20.17c-3.651,14.774,5.397,29.765,20.171,33.416c14.773,3.651,29.764-5.397,33.416-20.171
				C104.393,98.575,95.345,83.586,80.571,79.935z"/>
		</g>
		<g>
			<path fill="#009C3B" d="M68.144,130.21c-12.948-3.201-20.878-16.339-17.678-29.287s16.339-20.879,29.287-17.679
				c12.948,3.2,20.878,16.339,17.678,29.287S81.092,133.41,68.144,130.21z M78.391,88.755c-9.91-2.449-19.964,3.62-22.414,13.53
				c-2.449,9.91,3.62,19.965,13.53,22.414s19.964-3.62,22.414-13.53S88.3,91.204,78.391,88.755z"/>
		</g>
		<g>
			<circle fill="#009C3B" cx="73.948" cy="106.728" r="11.095"/>
		</g>
	</g>
	<g>
		<g>
			<path fill="#009C3B" d="M126.061,166.538c-17.812-4.403-28.722-22.476-24.319-40.289c4.402-17.812,22.476-28.722,40.289-24.318
				c17.813,4.402,28.722,22.476,24.318,40.287C161.947,160.031,143.874,170.941,126.061,166.538z M140.668,107.442
				c-14.774-3.652-29.764,5.396-33.416,20.17c-3.651,14.773,5.396,29.765,20.17,33.416c14.773,3.651,29.764-5.397,33.416-20.172
				C164.491,126.082,155.443,111.093,140.668,107.442z"/>
		</g>
		<g>
			<path fill="#009C3B" d="M128.242,157.716c-12.948-3.2-20.879-16.339-17.678-29.286c3.2-12.948,16.338-20.879,29.287-17.679
				s20.879,16.339,17.679,29.287C154.328,152.986,141.19,160.917,128.242,157.716z M138.489,116.262
				c-9.91-2.449-19.965,3.619-22.415,13.529c-2.45,9.91,3.62,19.965,13.53,22.414c9.91,2.449,19.964-3.619,22.414-13.529
				C154.467,128.766,148.398,118.711,138.489,116.262z"/>
		</g>
		<g>
			<circle fill="#009C3B" cx="134.046" cy="134.234" r="11.095"/>
		</g>
	</g>
	<g>
		<g>
			<path fill="#009C3B" d="M186.159,194.045c-17.813-4.403-28.722-22.477-24.319-40.289s22.477-28.722,40.289-24.319
				c17.813,4.403,28.722,22.477,24.318,40.288C222.044,187.538,203.971,198.448,186.159,194.045z M200.765,134.948
				c-14.773-3.651-29.764,5.396-33.414,20.17c-3.652,14.774,5.396,29.765,20.17,33.417c14.773,3.651,29.764-5.397,33.416-20.172
				C224.588,153.589,215.54,138.6,200.765,134.948z"/>
		</g>
		<g>
			<path fill="#009C3B" d="M188.339,185.223c-12.948-3.2-20.879-16.339-17.679-29.287s16.339-20.879,29.287-17.679
				c12.948,3.201,20.879,16.339,17.679,29.287C214.425,180.492,201.288,188.423,188.339,185.223z M198.585,143.769
				c-9.909-2.45-19.965,3.619-22.414,13.529s3.621,19.965,13.529,22.414c9.91,2.449,19.965-3.619,22.414-13.529
				C214.565,156.272,208.496,146.218,198.585,143.769z"/>
		</g>
		<g>
			<circle fill="#009C3B" cx="194.144" cy="161.74" r="11.095"/>
		</g>
	</g>
	<g>
		<g>
			<path fill="#DF0414" d="M162.998,264.564c-18.361-4.538-29.607-23.168-25.068-41.53c4.538-18.36,23.168-29.606,41.529-25.068
				c18.361,4.539,29.607,23.169,25.068,41.529C199.989,257.857,181.359,269.102,162.998,264.564z M178.054,203.646
				c-15.229-3.764-30.68,5.563-34.444,20.792c-3.764,15.229,5.563,30.681,20.792,34.445c15.229,3.765,30.681-5.563,34.445-20.793
				C202.611,222.862,193.284,207.41,178.054,203.646z"/>
		</g>
		<g>
			<path fill="#DF0414" d="M165.246,255.47c-13.348-3.299-21.522-16.842-18.224-30.189c3.3-13.347,16.843-21.521,30.189-18.223
				s21.522,16.842,18.224,30.189C192.136,250.594,178.592,258.769,165.246,255.47z M175.807,212.739
				c-10.215-2.525-20.579,3.73-23.104,13.946s3.732,20.58,13.947,23.104c10.215,2.525,20.579-3.73,23.104-13.946
				C192.279,225.627,186.023,215.263,175.807,212.739z"/>
		</g>
		<g>
			<circle fill="#DF0414" cx="171.229" cy="231.264" r="11.437"/>
		</g>
	</g>
	<g>
		<g>
			<path fill="#DF0414" d="M94.387,333.174c-18.361-4.538-29.607-23.168-25.068-41.53c4.538-18.36,23.168-29.606,41.529-25.068
				c18.361,4.539,29.607,23.169,25.068,41.529C131.378,326.467,112.749,337.712,94.387,333.174z M109.444,272.256
				c-15.229-3.764-30.681,5.563-34.445,20.792c-3.764,15.229,5.563,30.682,20.792,34.445c15.229,3.765,30.681-5.563,34.445-20.793
				C134,291.472,124.673,276.021,109.444,272.256z"/>
		</g>
		<g>
			<path fill="#DF0414" d="M96.635,324.08c-13.347-3.299-21.522-16.842-18.223-30.189c3.299-13.347,16.842-21.521,30.189-18.223
				s21.522,16.842,18.223,30.189C123.525,319.204,109.982,327.379,96.635,324.08z M107.197,281.349
				c-10.215-2.525-20.58,3.73-23.104,13.946s3.731,20.58,13.947,23.104c10.215,2.525,20.58-3.73,23.104-13.946
				S117.412,283.873,107.197,281.349z"/>
		</g>
		<g>
			<circle fill="#DF0414" cx="102.618" cy="299.875" r="11.437"/>
		</g>
	</g>
	<g>
		<g>
			<path fill="#DF0414" d="M162.998,333.174c-18.361-4.538-29.607-23.168-25.068-41.53c4.538-18.36,23.168-29.606,41.529-25.068
				c18.361,4.539,29.607,23.169,25.068,41.529C199.989,326.467,181.359,337.712,162.998,333.174z M178.054,272.256
				c-15.229-3.764-30.68,5.563-34.444,20.792c-3.764,15.229,5.563,30.682,20.792,34.445c15.229,3.765,30.681-5.563,34.445-20.793
				C202.611,291.472,193.284,276.021,178.054,272.256z"/>
		</g>
		<g>
			<path fill="#DF0414" d="M165.246,324.08c-13.348-3.299-21.522-16.842-18.224-30.189c3.3-13.347,16.843-21.521,30.189-18.223
				s21.522,16.842,18.224,30.189C192.136,319.204,178.592,327.379,165.246,324.08z M175.807,281.349
				c-10.215-2.525-20.579,3.73-23.104,13.946s3.732,20.58,13.947,23.104c10.215,2.525,20.579-3.73,23.104-13.946
				C192.279,294.238,186.023,283.873,175.807,281.349z"/>
		</g>
		<g>
			<circle fill="#DF0414" cx="171.229" cy="299.875" r="11.437"/>
		</g>
	</g>
</g>
</svg>
