<?xml version="1.0" encoding="utf-8"?>
<!-- Generator: Adobe Illustrator 16.0.0, SVG Export Plug-In . SVG Version: 6.00 Build 0)  -->
<!DOCTYPE svg PUBLIC "-//W3C//DTD SVG 1.1//EN" "http://www.w3.org/Graphics/SVG/1.1/DTD/svg11.dtd">
<svg version="1.1" id="图层_1" xmlns="http://www.w3.org/2000/svg" xmlns:xlink="http://www.w3.org/1999/xlink" x="0px" y="0px"
	 width="266.59px" height="372.646px" viewBox="0 0 266.59 372.646" enable-background="new 0 0 266.59 372.646"
	 xml:space="preserve">
<path fill="#5CB64A" stroke="#050000" stroke-width="0.5" stroke-miterlimit="10" d="M239.78,0.25H26.813
	C12.143,0.25,0.25,12.142,0.25,26.812v292.941c0,14.67,11.893,26.563,26.563,26.563H239.78c14.67,0,26.561-11.893,26.561-26.563
	V26.812C266.34,12.142,254.45,0.25,239.78,0.25z"/>
<path fill="#FFFFFF" stroke="#000000" stroke-width="0.5" stroke-miterlimit="10" d="M239.78,16.25H26.813
	c-14.67,0-26.563,11.892-26.563,26.562v292.941c0,14.67,11.893,26.562,26.563,26.562H239.78c14.672,0,26.561-11.892,26.561-26.562
	V42.812C266.34,28.142,254.452,16.25,239.78,16.25z"/>
<g>
	<g>
		<path fill="#FFFFFF" stroke="#231815" stroke-width="0.5" stroke-miterlimit="10" d="M239.335,26.863H26.541
			C11.882,26.863,0,38.745,0,53.403v292.703c0,14.658,11.882,26.541,26.541,26.541h212.795c14.658,0,26.54-11.883,26.54-26.541
			V53.403C265.875,38.745,253.994,26.863,239.335,26.863z"/>
	</g>
	<path fill="#DF0414" d="M194.194,279.86c-2.363-1.133-5.119-0.951-7.729-0.731c-15.122,1.274-30.259,3.075-44.962,6.8
		c0.224-3.61,0.354-7.226,0.357-10.843c0-0.562-0.002-1.126-0.004-1.689c4.581-1.256,9.242-2.212,13.948-2.865
		c0.331,2.371,1.242,4.599,2.917,6.313c8.374-11.419,16.749-22.837,25.124-34.257c-2.871-8.11-10.829-13.67-19.227-15.538
		c-6.469-1.439-13.169-0.977-19.706,0.326c3.865-5.875,7.445-11.937,10.704-18.17c12.408-1.519,25.036-1.188,37.319,1.182
		c-3.542-5.286-7.552-10.933-13.639-12.782c-3.927-1.191-8.142-0.601-12.199,0.001c-2.105,0.312-4.213,0.629-6.317,0.972
		c1.097-2.418,2.161-4.849,3.163-7.306c0.858-2.105,1.682-4.521,0.716-6.579c-0.813-1.741-2.678-2.702-4.441-3.469
		c-7.04-3.065-14.545-5.061-22.178-5.895c3.049,6.297,10.941,10.114,11.644,17.076c0.29,2.878-0.779,5.703-1.907,8.367
		c-0.1,0.235-0.211,0.467-0.313,0.702c-1.13,0.334-2.254,0.688-3.367,1.083c-6.238,2.219-12.054,5.433-17.979,8.4
		c-0.106-1.364-0.286-2.722-0.605-4.057c-2.198-9.201-9.469-17.017-18.487-19.873c4.734,2.905,5.927,9.309,5.43,14.84
		c-0.456,5.072-1.901,10.132-1.515,15.174c-5.756,1.502-11.712,1.961-17.386,0.354c-1.264-0.358-2.58-0.819-3.862-0.532
		c-2.326,0.522-3.467,3.402-2.919,5.721c0.547,2.32,2.282,4.151,4.009,5.793c1.728,1.642,3.576,3.293,4.478,5.498
		c5.341-4.166,11.05-7.836,17.018-11.021c1.374,3.589,3.562,6.913,5.726,10.131c4.42-4.335,7.172-10.229,7.958-16.362
		c5.446-2.096,11.032-3.824,16.719-5.139c-3.706,7.057-7.995,13.804-12.815,20.153c-7.165,2.558-14.092,5.782-20.643,9.651
		c5.463,2.541,11.697,0.039,17.431-2.078c0.533,1.012,1.558,1.723,2.362,2.57c1.291,1.36,1.915,3.097,2.198,4.958
		c-6.824,1.17-13.359,4.051-18.712,8.445c5.826,2.438,12.167,2.93,18.536,2.843c-0.072,1.36-0.147,2.72-0.224,4.08
		c-6.49,1.326-12.535,4.841-16.762,9.948c-0.675-5.671-1.77-11.292-3.271-16.803c-1.031-3.783-2.359-7.686-5.212-10.374
		c-2.855-2.688-7.67-3.678-10.694-1.182c4.241,13.268,10.695,25.822,19.016,36.992c0.466,0.626,0.972,1.27,1.612,1.69
		c-4.255,2.53-9.133,4.132-13.665,6.238c-6.125,2.849-12.267,7.485-13.332,14.155c-0.119,0.739-0.149,1.479-0.145,2.218
		c-1.656,0.65-3.313,1.301-4.968,1.952c-2.071,0.813-4.405,1.914-4.956,4.068c-0.691,2.697,2.132,5.245,4.911,5.402
		c2.525,0.145,4.891-1.028,7.134-2.248c0.147,0.393,0.297,0.784,0.447,1.172c3.141,8.087,6.474,16.1,9.994,24.028
		c2.583-9.671,1.631-20.21-2.481-29.326c9.563-4.699,19.529-8.565,29.754-11.568c-0.392,4.438-0.823,8.872-1.266,13.305
		c-0.242,0.111-0.493,0.205-0.734,0.321c-2.931,1.394-5.762,3.052-8.877,3.963c-3.114,0.911-6.654,0.986-9.431-0.692
		c1.231,4.961,4.721,9.316,9.296,11.601c11.967-9.643,27.512-14.737,42.868-14.051c-1.083,2.775,2.597,5.667,5.375,4.598
		c2.78-1.07,3.947-4.609,3.254-7.508c-0.693-2.896-2.771-5.243-4.91-7.316c-3.567-3.455-7.589-6.564-12.238-8.309
		c1.933,3.814,2.7,8.209,2.177,12.453c-5.007-0.331-10.051,0.052-14.965,1.073c0.797-4.188,1.431-8.408,1.922-12.643
		c15.631-3.455,31.694-4.949,47.689-4.313c-2.608,13.207-6.317,26.197-11.076,38.791c-7.124-0.243-14.246-0.485-21.37-0.729
		c6.753,5.901,12.873,12.527,18.221,19.727c16-14.385,27.54-33.66,32.665-54.557C200.692,291.97,200.048,282.667,194.194,279.86z
		 M165.82,235.865c1.14,4.758-0.555,9.738-2.805,14.08c-2.253,4.344-5.101,8.432-6.542,13.105c-0.556,1.804-0.848,3.746-0.812,5.654
		c-3.673-3.187-8.15-5.406-12.896-6.472c0.111-0.442,0.221-0.884,0.358-1.319c1.435-4.542,4.876-8.791,9.556-9.682
		c-5.54-3.896-10.514-8.595-14.72-13.904c0.377-0.505,0.733-1.026,1.105-1.536C147.89,234.17,157.012,234.152,165.82,235.865z
		 M104.189,298.768c-3.228,1.269-6.457,2.538-9.686,3.806c-0.751-1.699-1.116-3.457-0.275-5.044c0.79-1.49,2.423-2.293,3.954-3
		c5.532-2.558,11.063-5.114,16.594-7.67c1.563-0.722,3.176-1.481,4.294-2.79c0.531-0.62,0.912-1.404,1.071-2.209
		c0.034-0.018,0.071-0.034,0.105-0.052c3.124-1.616,6.33-3.068,9.594-4.378c-0.285,4.061-0.592,8.119-0.919,12.176
		C120.575,292.352,112.371,295.553,104.189,298.768z"/>
	<path fill="#004B9F" d="M84.209,139.07c0.013,2.083,0.027,4.167-0.005,6.248c-0.029,1.796,0.833,3.208,2.072,4.124
		c1.143,2.355,4.72,2.681,6.561,0.91c0.495-0.448,0.928-0.956,1.399-1.428c13.704-6.368,30.17-4.951,44.899-4.526
		c11.125,0.321,22.203,1.058,33.254,2.169c4.167,2.534,8.238,5.437,13.296,5.65c7.283,0.306,12.925-2.196,16.222-8.894
		c3.089-6.27,1.067-13.454-0.784-19.98c1.661-17.333,3.537-34.649,4.754-52.016c0.609-8.69-13.939-8.779-13.548,0
		c0.091,2.014-79.031,0.612-100.251,0.218c-0.155-0.144-0.313-0.282-0.481-0.409c-2.112-3.354-4.042-7.758-9.479-6.263
		c-5.973,1.643-7.247,7.661-7.011,13.053C75.992,98.15,80.385,118.934,84.209,139.07z M120.998,83.816
		c1.205,9.027-1.399,17.309-8.025,23.794c-5.327,5.212-12.337,6.824-19.241,8.617c-0.057-10.943,0.155-21.901,0.258-32.811
		C102.991,83.569,111.995,83.713,120.998,83.816z M191.355,83.716c-0.563,7.536-1.074,15.077-1.537,22.621
		c-7.606,6.785-16.702,12.824-25.79,4.323c-7.038-6.584-5.896-17.676-5.89-26.76c0.168-0.002,0.333-0.001,0.499-0.002
		C169.542,83.785,180.451,83.87,191.355,83.716z M143.447,83.954c-1.23,14.963,2.743,31.783,17.041,39.08
		c11.354,5.795,21.423-0.181,28.82-8.557c-0.446,7.257-0.931,14.51-1.466,21.759c-17.524-2.563-35.167-4.156-52.898-4.25
		c-13.741-0.074-27.892,0.06-40.654,5.112c-0.281-5.173-0.428-10.36-0.505-15.554c8.787,2.964,19.866-0.683,26.416-6.705
		c8.712-8.008,13.084-19.345,11.99-30.933C135.943,83.931,139.695,83.953,143.447,83.954z"/>
</g>
</svg>
