<?xml version="1.0" encoding="utf-8"?>
<!-- Generator: Adobe Illustrator 16.0.0, SVG Export Plug-In . SVG Version: 6.00 Build 0)  -->
<!DOCTYPE svg PUBLIC "-//W3C//DTD SVG 1.1//EN" "http://www.w3.org/Graphics/SVG/1.1/DTD/svg11.dtd">
<svg version="1.1" id="图层_1" xmlns="http://www.w3.org/2000/svg" xmlns:xlink="http://www.w3.org/1999/xlink" x="0px" y="0px"
	 width="266.59px" height="372.646px" viewBox="0 0 266.59 372.646" enable-background="new 0 0 266.59 372.646"
	 xml:space="preserve">
<path fill="#5CB64A" stroke="#050000" stroke-width="0.5" stroke-miterlimit="10" d="M239.78,0.25H26.813
	C12.143,0.25,0.25,12.142,0.25,26.812v292.941c0,14.67,11.893,26.563,26.563,26.563H239.78c14.67,0,26.561-11.893,26.561-26.563
	V26.812C266.34,12.142,254.45,0.25,239.78,0.25z"/>
<path fill="#FFFFFF" stroke="#000000" stroke-width="0.5" stroke-miterlimit="10" d="M239.78,16.25H26.813
	c-14.67,0-26.563,11.892-26.563,26.562v292.941c0,14.67,11.893,26.562,26.563,26.562H239.78c14.672,0,26.561-11.892,26.561-26.562
	V42.812C266.34,28.142,254.452,16.25,239.78,16.25z"/>
<g>
	<g>
		<path fill="#FFFFFF" stroke="#231815" stroke-width="0.5" stroke-miterlimit="10" d="M239.976,25.938H26.612
			C11.914,25.938,0,37.853,0,52.55v293.486c0,14.697,11.914,26.611,26.612,26.611h213.364c14.696,0,26.611-11.914,26.611-26.611
			V52.55C266.587,37.853,254.672,25.938,239.976,25.938z"/>
	</g>
	<path fill="#004B9F" d="M199.314,121.425c-39.3-0.772-78.441,1.59-117.332,6.824c-0.492-0.053-2.506-1.04-2.658-1.981
		c-0.59-3.658-4.038-4.839-7.285-3.653c-2.702,0.986-5.239,2.59-7.623,4.362c-6.264,2.739-10.433,8.699-5.609,16.097
		c2.807,4.305,8.648,2.784,12.522,1.4c12-4.287,23.434-7.736,36.193-9.055c11.157-1.154,22.443-0.314,33.443,1.682
		c9.917,1.799,19.353,6.137,29.408,7.181c13.93,1.445,28.543-2.963,32.966-17.568C204.144,124.062,201.966,121.477,199.314,121.425z
		"/>
	<path fill="#004B9F" d="M178.009,63.667c-28.235-0.555-56.357,1.142-84.3,4.902c-0.353-0.038-1.8-0.747-1.91-1.423
		c-0.423-2.628-2.9-3.477-5.233-2.625c-1.941,0.709-3.764,1.861-5.477,3.135c-4.5,1.967-7.496,6.25-4.03,11.564
		c2.017,3.093,6.213,2,8.997,1.006c8.622-3.08,16.837-5.559,26.004-6.506c8.016-0.829,16.125-0.226,24.028,1.208
		c7.125,1.292,13.904,4.41,21.129,5.159c10.008,1.039,20.507-2.129,23.686-12.623C181.48,65.561,179.916,63.704,178.009,63.667z"/>
	<path fill="#DF0414" d="M185.441,279.612c-2.37-1.136-5.133-0.954-7.751-0.733c-15.163,1.278-30.34,3.083-45.082,6.818
		c0.227-3.621,0.355-7.246,0.359-10.872c0-0.563-0.001-1.129-0.003-1.694c4.595-1.259,9.269-2.218,13.984-2.873
		c0.334,2.378,1.245,4.611,2.925,6.33c8.396-11.45,16.794-22.898,25.191-34.35c-2.879-8.131-10.855-13.705-19.276-15.578
		c-6.485-1.444-13.206-0.979-19.76,0.327c3.875-5.892,7.467-11.969,10.732-18.219c12.442-1.522,25.104-1.191,37.419,1.185
		c-3.551-5.301-7.57-10.963-13.676-12.816c-3.935-1.195-8.163-0.602-12.23,0.001c-2.109,0.313-4.225,0.631-6.333,0.974
		c1.097-2.424,2.165-4.86,3.171-7.324c0.861-2.111,1.686-4.533,0.719-6.597c-0.818-1.746-2.688-2.709-4.456-3.479
		c-7.058-3.074-14.583-5.074-22.236-5.91c3.057,6.313,10.971,10.141,11.676,17.122c0.29,2.885-0.781,5.719-1.913,8.389
		c-0.101,0.236-0.212,0.469-0.313,0.705c-1.134,0.335-2.262,0.689-3.378,1.086c-6.254,2.224-12.085,5.446-18.026,8.422
		c-0.106-1.368-0.287-2.729-0.606-4.066c-2.204-9.227-9.495-17.063-18.537-19.927c4.747,2.913,5.943,9.333,5.444,14.879
		c-0.457,5.086-1.906,10.159-1.518,15.215c-5.772,1.506-11.744,1.966-17.433,0.354c-1.269-0.359-2.587-0.822-3.874-0.533
		c-2.331,0.523-3.476,3.411-2.927,5.735c0.549,2.327,2.288,4.162,4.021,5.809c1.733,1.646,3.585,3.302,4.489,5.513
		c5.355-4.177,11.079-7.856,17.064-11.051c1.376,3.599,3.571,6.932,5.74,10.158c4.432-4.347,7.191-10.257,7.98-16.406
		c5.46-2.102,11.061-3.835,16.764-5.152c-3.716,7.076-8.017,13.841-12.849,20.207c-7.184,2.564-14.13,5.798-20.698,9.677
		c5.478,2.548,11.728,0.04,17.477-2.083c0.535,1.015,1.562,1.727,2.369,2.577c1.294,1.363,1.92,3.104,2.204,4.972
		c-6.842,1.172-13.396,4.061-18.763,8.467c5.841,2.445,12.2,2.938,18.586,2.851c-0.073,1.364-0.148,2.728-0.226,4.091
		c-6.506,1.33-12.569,4.854-16.807,9.975c-0.676-5.686-1.773-11.322-3.279-16.848c-1.034-3.793-2.365-7.705-5.226-10.4
		c-2.862-2.695-7.691-3.688-10.723-1.186c4.252,13.303,10.724,25.892,19.066,37.091c0.467,0.628,0.975,1.272,1.617,1.695
		c-4.267,2.537-9.158,4.143-13.701,6.255c-6.141,2.855-12.299,7.505-13.368,14.193c-0.119,0.741-0.149,1.483-0.146,2.224
		c-1.66,0.652-3.321,1.305-4.981,1.957c-2.075,0.816-4.416,1.919-4.969,4.08c-0.692,2.703,2.139,5.258,4.926,5.416
		c2.531,0.146,4.903-1.031,7.152-2.254c0.148,0.394,0.298,0.786,0.449,1.175c3.149,8.108,6.491,16.143,10.021,24.093
		c2.59-9.696,1.637-20.265-2.488-29.404c9.589-4.713,19.582-8.589,29.833-11.6c-0.393,4.449-0.824,8.896-1.268,13.341
		c-0.244,0.111-0.495,0.205-0.736,0.321c-2.938,1.397-5.778,3.061-8.901,3.974c-3.123,0.913-6.671,0.989-9.456-0.694
		c1.235,4.975,4.733,9.342,9.32,11.632c12-9.669,27.587-14.777,42.982-14.089c-1.083,2.783,2.604,5.683,5.392,4.61
		c2.788-1.072,3.957-4.621,3.263-7.527c-0.695-2.903-2.778-5.258-4.925-7.336c-3.577-3.465-7.609-6.582-12.271-8.332
		c1.938,3.825,2.709,8.231,2.185,12.487c-5.021-0.332-10.08,0.052-15.006,1.076c0.799-4.2,1.435-8.431,1.928-12.677
		c15.671-3.464,31.777-4.962,47.816-4.323c-2.616,13.241-6.336,26.267-11.106,38.895c-7.142-0.244-14.284-0.487-21.425-0.731
		c6.771,5.917,12.906,12.561,18.269,19.778c16.04-14.422,27.612-33.75,32.751-54.702
		C191.956,291.754,191.31,282.427,185.441,279.612z M156.993,235.499c1.141,4.771-0.557,9.765-2.815,14.118
		c-2.256,4.355-5.114,8.454-6.557,13.141c-0.557,1.809-0.85,3.756-0.814,5.669c-3.683-3.194-8.172-5.42-12.93-6.488
		c0.11-0.443,0.221-0.887,0.359-1.323c1.438-4.554,4.89-8.814,9.581-9.708c-5.555-3.905-10.543-8.617-14.76-13.94
		c0.377-0.507,0.735-1.029,1.108-1.54C139.014,233.8,148.161,233.781,156.993,235.499z M95.195,298.571
		c-3.237,1.272-6.474,2.544-9.711,3.815c-0.753-1.704-1.118-3.466-0.276-5.058c0.791-1.493,2.43-2.299,3.964-3.008
		c5.546-2.563,11.093-5.128,16.64-7.69c1.566-0.724,3.184-1.485,4.305-2.797c0.533-0.623,0.914-1.408,1.073-2.215
		c0.035-0.019,0.072-0.034,0.106-0.053c3.132-1.62,6.347-3.076,9.62-4.39c-0.286,4.071-0.594,8.141-0.921,12.209
		C111.625,292.137,103.399,295.346,95.195,298.571z"/>
</g>
</svg>
