<?xml version="1.0" encoding="utf-8"?>
<!-- Generator: Adobe Illustrator 16.0.0, SVG Export Plug-In . SVG Version: 6.00 Build 0)  -->
<!DOCTYPE svg PUBLIC "-//W3C//DTD SVG 1.1//EN" "http://www.w3.org/Graphics/SVG/1.1/DTD/svg11.dtd">
<svg version="1.1" id="图层_1" xmlns="http://www.w3.org/2000/svg" xmlns:xlink="http://www.w3.org/1999/xlink" x="0px" y="0px"
	 width="266.59px" height="372.646px" viewBox="0 0 266.59 372.646" enable-background="new 0 0 266.59 372.646"
	 xml:space="preserve">
<path fill="#5CB64A" stroke="#050000" stroke-width="0.5" stroke-miterlimit="10" d="M239.78,0.25H26.813
	C12.143,0.25,0.25,12.142,0.25,26.812v292.941c0,14.67,11.893,26.563,26.563,26.563H239.78c14.67,0,26.561-11.893,26.561-26.563
	V26.812C266.34,12.142,254.45,0.25,239.78,0.25z"/>
<path fill="#FFFFFF" stroke="#000000" stroke-width="0.5" stroke-miterlimit="10" d="M239.78,16.25H26.813
	c-14.67,0-26.563,11.892-26.563,26.562v292.941c0,14.67,11.893,26.562,26.563,26.562H239.78c14.672,0,26.561-11.892,26.561-26.562
	V42.812C266.34,28.142,254.452,16.25,239.78,16.25z"/>
<g>
	<g>
		<path fill="#FFFFFF" stroke="#231815" stroke-width="0.5" stroke-miterlimit="10" d="M240.016,25.881h-213.4
			C11.916,25.881,0,37.797,0,52.497v293.535c0,14.699,11.916,26.615,26.616,26.615h213.4c14.698,0,26.616-11.916,26.616-26.615
			V52.497C266.632,37.797,254.714,25.881,240.016,25.881z"/>
	</g>
	<path fill="#DF0414" d="M184.424,279.596c-2.369-1.136-5.132-0.954-7.752-0.733c-15.165,1.278-30.345,3.083-45.09,6.819
		c0.227-3.62,0.355-7.247,0.359-10.873c0.001-0.563-0.001-1.13-0.003-1.695c4.596-1.259,9.27-2.217,13.987-2.874
		c0.334,2.38,1.245,4.612,2.924,6.331c8.399-11.45,16.798-22.901,25.196-34.354c-2.879-8.134-10.857-13.708-19.279-15.582
		c-6.487-1.444-13.208-0.979-19.763,0.327c3.876-5.893,7.468-11.971,10.734-18.221c12.444-1.522,25.108-1.192,37.424,1.184
		c-3.55-5.302-7.571-10.964-13.677-12.818c-3.936-1.195-8.165-0.603-12.233,0.001c-2.109,0.313-4.226,0.631-6.334,0.975
		c1.098-2.424,2.165-4.862,3.172-7.327c0.861-2.11,1.686-4.532,0.719-6.596c-0.818-1.747-2.688-2.71-4.456-3.48
		c-7.06-3.075-14.586-5.074-22.241-5.912c3.058,6.315,10.974,10.143,11.678,17.125c0.291,2.886-0.781,5.721-1.913,8.391
		c-0.101,0.236-0.212,0.468-0.313,0.704c-1.134,0.335-2.262,0.689-3.378,1.086c-6.256,2.225-12.087,5.448-18.03,8.425
		c-0.106-1.369-0.286-2.729-0.606-4.068c-2.204-9.228-9.496-17.065-18.54-19.928c4.748,2.913,5.944,9.333,5.445,14.881
		c-0.457,5.086-1.906,10.16-1.518,15.216c-5.773,1.507-11.747,1.967-17.436,0.355c-1.269-0.36-2.587-0.822-3.874-0.534
		c-2.332,0.524-3.477,3.412-2.928,5.738c0.549,2.325,2.289,4.162,4.021,5.808c1.733,1.646,3.586,3.303,4.49,5.515
		c5.356-4.179,11.081-7.857,17.067-11.054c1.376,3.601,3.572,6.934,5.742,10.16c4.432-4.348,7.192-10.259,7.981-16.409
		c5.461-2.102,11.063-3.835,16.766-5.153c-3.716,7.077-8.018,13.843-12.851,20.21c-7.185,2.565-14.132,5.801-20.702,9.68
		c5.479,2.548,11.73,0.039,17.48-2.084c0.535,1.015,1.562,1.727,2.37,2.578c1.293,1.363,1.92,3.104,2.204,4.972
		c-6.843,1.173-13.398,4.062-18.766,8.469c5.842,2.445,12.202,2.938,18.589,2.851c-0.073,1.365-0.147,2.729-0.225,4.092
		c-6.508,1.33-12.57,4.854-16.81,9.977c-0.677-5.687-1.774-11.324-3.28-16.851c-1.034-3.794-2.365-7.707-5.227-10.401
		c-2.862-2.696-7.692-3.688-10.724-1.186c4.252,13.304,10.726,25.895,19.069,37.097c0.468,0.627,0.975,1.273,1.617,1.696
		c-4.268,2.536-9.159,4.143-13.703,6.256c-6.142,2.854-12.301,7.505-13.37,14.194c-0.118,0.741-0.149,1.483-0.146,2.225
		c-1.66,0.653-3.321,1.305-4.982,1.957c-2.076,0.816-4.417,1.919-4.97,4.08c-0.692,2.704,2.14,5.26,4.927,5.419
		c2.532,0.144,4.904-1.033,7.153-2.256c0.149,0.394,0.297,0.786,0.449,1.175c3.15,8.11,6.492,16.146,10.022,24.099
		c2.591-9.7,1.637-20.27-2.488-29.411c9.59-4.712,19.584-8.59,29.838-11.601c-0.394,4.45-0.824,8.896-1.269,13.342
		c-0.244,0.113-0.495,0.207-0.737,0.322c-2.938,1.397-5.778,3.061-8.902,3.974c-3.123,0.914-6.673,0.99-9.458-0.693
		c1.236,4.976,4.734,9.344,9.322,11.634c12.002-9.671,27.591-14.78,42.99-14.092c-1.084,2.783,2.604,5.685,5.392,4.61
		c2.788-1.072,3.958-4.622,3.264-7.527c-0.695-2.904-2.779-5.259-4.926-7.337c-3.577-3.466-7.611-6.584-12.273-8.333
		c1.938,3.824,2.709,8.231,2.185,12.488c-5.021-0.332-10.082,0.052-15.008,1.077c0.799-4.202,1.435-8.432,1.928-12.68
		c15.674-3.465,31.782-4.963,47.824-4.325c-2.616,13.245-6.337,26.273-11.108,38.902c-7.142-0.243-14.286-0.488-21.429-0.731
		c6.772,5.919,12.908,12.563,18.272,19.781c16.043-14.425,27.617-33.756,32.756-54.71
		C190.94,291.74,190.294,282.413,184.424,279.596z M155.971,235.478c1.141,4.771-0.557,9.766-2.815,14.12
		c-2.257,4.355-5.115,8.454-6.558,13.143c-0.558,1.809-0.851,3.756-0.815,5.669c-3.684-3.193-8.173-5.421-12.931-6.489
		c0.11-0.442,0.221-0.886,0.359-1.323c1.439-4.555,4.89-8.816,9.583-9.708c-5.556-3.907-10.545-8.619-14.763-13.943
		c0.378-0.508,0.736-1.029,1.109-1.541C137.99,233.777,147.137,233.759,155.971,235.478z M94.164,298.558
		c-3.238,1.272-6.475,2.545-9.713,3.817c-0.754-1.705-1.119-3.468-0.276-5.06c0.792-1.493,2.431-2.298,3.965-3.008
		c5.547-2.563,11.095-5.128,16.642-7.691c1.566-0.725,3.185-1.485,4.306-2.797c0.533-0.624,0.915-1.41,1.073-2.217
		c0.035-0.019,0.072-0.034,0.106-0.052c3.133-1.621,6.348-3.077,9.621-4.391c-0.286,4.072-0.593,8.142-0.921,12.21
		C110.596,292.124,102.369,295.333,94.164,298.558z"/>
	<path fill="#004B9F" d="M208.704,134.723c-14.351-2.063-29.185-2.509-44.068-2.452c0.527-7.851,1.077-15.699,1.624-23.549
		c0.367-5.263,0.732-11.555-5.63-13.305c-7.52-2.069-16.813-1.371-25.319-0.785c1.666-5.264,3.03-10.666,3.982-16.314
		c0.074-0.445,0.102-0.866,0.091-1.265c13.131-0.347,26.238-0.473,39.207-0.4c1.55,3.591,7.426,1.911,6.244-2.088
		c-0.017-0.058-0.047-0.1-0.063-0.158c-0.026-0.238-0.087-0.479-0.229-0.717c-0.066-0.122-0.146-0.233-0.212-0.353
		c-0.463-1.097-1.013-2.085-1.724-2.874c-0.679-1.026-1.401-2.022-2.171-2.988c-1.488-2.048-3.917-1.889-5.299-0.623
		c-6.258-1.015-14.137,0.572-20.14,1.421c-15.991-0.585-31.798-0.415-47.742,0.404c-5.445-0.218-9.802-1.789-14.706-5.312
		c-1.49-1.069-3.5-0.729-5.018,0c-4.787,2.303-8.463,5.013-12.155,8.829c-2.71,2.802-0.973,8.608,3.406,8.222
		c13.849-1.22,27.89-2.098,41.971-2.71c-0.043,0.352-0.091,0.702-0.083,1.09c0.103,5.635-0.275,11.151-1.13,16.521
		c-5.952,0.225-11.907,0.578-17.82,1.248c0.17-0.823-0.601-1.836-1.496-1.957c-7.01-0.938-13.949,4.216-14.901,11.246
		c-0.678,5.003,4.773,6.715,7.279,3.927c0.168,0.011,0.325,0.043,0.5,0.041c7.755-0.149,15.509-0.75,23.263-1.433
		c-2.889,8.636-7.299,16.748-13.378,24.176c-9.813-0.22-19.662-0.346-29.356,0.62c-1.334,0.133-2.707,0.331-4.069,0.605
		c-0.308-0.657-0.979-1.104-1.922-0.828c-7.534,2.192-15.855,7.852-16.146,16.533c-0.15,4.473,6.619,6.545,8.654,2.344
		c0.323-0.667,0.615-1.343,0.893-2.022c30.469-2.649,62.269-3.922,92.546,0.511c16.768,2.455,53.858,18.457,58.286-10.024
		C212.212,138.116,211.345,135.103,208.704,134.723z M155.999,105.653c-0.255,2.432-0.509,4.863-0.764,7.295
		c-0.681,6.482-1.36,12.965-2.056,19.447c-11.355,0.187-22.671,0.497-33.758,0.453c4.431-6.953,7.935-14.409,10.396-22.193
		c0.456-1.179,0.883-2.369,1.276-3.571c4.486-0.377,8.974-0.709,13.461-0.924C148.368,105.979,152.183,105.816,155.999,105.653z"/>
</g>
</svg>
