<?xml version="1.0" encoding="utf-8"?>
<!-- Generator: Adobe Illustrator 16.0.0, SVG Export Plug-In . SVG Version: 6.00 Build 0)  -->
<!DOCTYPE svg PUBLIC "-//W3C//DTD SVG 1.1//EN" "http://www.w3.org/Graphics/SVG/1.1/DTD/svg11.dtd">
<svg version="1.1" id="图层_1" xmlns="http://www.w3.org/2000/svg" xmlns:xlink="http://www.w3.org/1999/xlink" x="0px" y="0px"
	 width="266.59px" height="372.646px" viewBox="0 0 266.59 372.646" enable-background="new 0 0 266.59 372.646"
	 xml:space="preserve">
<path fill="#5CB64A" stroke="#050000" stroke-width="0.5" stroke-miterlimit="10" d="M239.78,0.25H26.813
	C12.143,0.25,0.25,12.142,0.25,26.812v292.941c0,14.67,11.893,26.563,26.563,26.563H239.78c14.67,0,26.561-11.893,26.561-26.563
	V26.812C266.34,12.142,254.45,0.25,239.78,0.25z"/>
<path fill="#FFFFFF" stroke="#000000" stroke-width="0.5" stroke-miterlimit="10" d="M239.78,16.25H26.813
	c-14.67,0-26.563,11.892-26.563,26.562v292.941c0,14.67,11.893,26.562,26.563,26.562H239.78c14.672,0,26.561-11.892,26.561-26.562
	V42.812C266.34,28.142,254.452,16.25,239.78,16.25z"/>
<g>
	<g>
		<path fill="#FFFFFF" stroke="#231815" stroke-width="0.5" stroke-miterlimit="10" d="M239.756,26.257H26.587
			C11.903,26.257,0,38.16,0,52.844v293.217c0,14.683,11.903,26.586,26.587,26.586h213.169c14.682,0,26.587-11.903,26.587-26.586
			V52.844C266.343,38.16,254.438,26.257,239.756,26.257z"/>
	</g>
	<path fill="#DF0414" d="M188.664,279.698c-2.368-1.136-5.128-0.954-7.743-0.733c-15.149,1.276-30.312,3.08-45.042,6.812
		c0.228-3.615,0.355-7.238,0.359-10.861c0.001-0.563-0.002-1.128-0.004-1.693c4.59-1.257,9.259-2.214,13.973-2.87
		c0.332,2.377,1.244,4.606,2.922,6.324c8.39-11.438,16.778-22.877,25.168-34.316c-2.876-8.125-10.848-13.693-19.26-15.565
		c-6.48-1.442-13.192-0.979-19.741,0.326c3.872-5.886,7.459-11.957,10.723-18.2c12.433-1.521,25.08-1.191,37.386,1.183
		c-3.548-5.296-7.565-10.953-13.663-12.805c-3.934-1.194-8.155-0.602-12.221,0.001c-2.108,0.313-4.22,0.63-6.328,0.974
		c1.099-2.422,2.165-4.857,3.168-7.319c0.86-2.108,1.685-4.527,0.718-6.589c-0.815-1.744-2.683-2.707-4.449-3.476
		c-7.053-3.071-14.571-5.069-22.217-5.905c3.054,6.308,10.961,10.132,11.664,17.105c0.291,2.883-0.78,5.715-1.911,8.382
		c-0.1,0.236-0.211,0.468-0.313,0.704c-1.132,0.334-2.259,0.688-3.373,1.085c-6.249,2.222-12.075,5.441-18.011,8.415
		c-0.106-1.367-0.286-2.727-0.606-4.064c-2.202-9.218-9.486-17.046-18.52-19.906c4.743,2.91,5.938,9.323,5.44,14.865
		c-0.457,5.08-1.905,10.148-1.517,15.199c-5.768,1.505-11.734,1.965-17.418,0.355c-1.267-0.36-2.584-0.822-3.869-0.533
		c-2.329,0.522-3.473,3.408-2.925,5.731c0.549,2.323,2.286,4.158,4.017,5.802c1.732,1.645,3.582,3.299,4.485,5.509
		c5.35-4.175,11.069-7.85,17.048-11.042c1.375,3.597,3.568,6.926,5.736,10.148c4.427-4.342,7.184-10.247,7.972-16.391
		c5.456-2.1,11.051-3.832,16.749-5.148c-3.712,7.07-8.009,13.828-12.836,20.188c-7.179,2.563-14.118,5.794-20.68,9.669
		c5.473,2.546,11.717,0.04,17.461-2.082c0.534,1.014,1.561,1.726,2.366,2.575c1.292,1.362,1.918,3.103,2.202,4.967
		c-6.834,1.171-13.382,4.058-18.745,8.46c5.836,2.442,12.188,2.935,18.569,2.848c-0.073,1.363-0.147,2.725-0.225,4.087
		c-6.501,1.329-12.557,4.85-16.792,9.966c-0.677-5.681-1.773-11.312-3.277-16.832c-1.033-3.79-2.363-7.698-5.222-10.391
		c-2.859-2.693-7.684-3.684-10.713-1.184c4.248,13.289,10.714,25.866,19.049,37.056c0.467,0.627,0.974,1.272,1.615,1.694
		c-4.263,2.533-9.149,4.139-13.688,6.249c-6.136,2.853-12.288,7.498-13.355,14.179c-0.119,0.741-0.15,1.482-0.146,2.223
		c-1.659,0.652-3.318,1.304-4.977,1.955c-2.073,0.815-4.413,1.917-4.964,4.076c-0.691,2.701,2.137,5.253,4.92,5.412
		c2.53,0.145,4.9-1.031,7.147-2.253c0.147,0.393,0.297,0.785,0.448,1.174c3.146,8.102,6.485,16.129,10.011,24.072
		c2.588-9.689,1.636-20.248-2.485-29.379c9.58-4.707,19.564-8.581,29.806-11.588c-0.393,4.445-0.823,8.887-1.268,13.327
		c-0.243,0.112-0.494,0.207-0.735,0.321c-2.936,1.396-5.772,3.058-8.892,3.97c-3.12,0.913-6.666,0.989-9.447-0.693
		c1.233,4.972,4.729,9.334,9.312,11.622c11.988-9.661,27.561-14.765,42.944-14.077c-1.086,2.781,2.601,5.679,5.386,4.606
		c2.783-1.071,3.952-4.617,3.258-7.52c-0.695-2.902-2.776-5.254-4.919-7.329c-3.573-3.462-7.603-6.577-12.26-8.324
		c1.937,3.82,2.706,8.223,2.182,12.475c-5.017-0.332-10.07,0.052-14.992,1.076c0.799-4.197,1.434-8.423,1.926-12.666
		c15.658-3.461,31.749-4.958,47.772-4.32c-2.612,13.23-6.328,26.245-11.095,38.859c-7.137-0.242-14.271-0.486-21.407-0.729
		c6.764,5.912,12.895,12.548,18.252,19.76c16.027-14.409,27.588-33.72,32.723-54.651
		C195.173,291.828,194.529,282.511,188.664,279.698z M160.24,235.626c1.142,4.766-0.556,9.755-2.811,14.105
		c-2.256,4.35-5.109,8.444-6.551,13.128c-0.558,1.807-0.851,3.752-0.814,5.663c-3.68-3.19-8.165-5.415-12.917-6.483
		c0.109-0.441,0.22-0.884,0.358-1.32c1.437-4.551,4.884-8.808,9.571-9.698c-5.55-3.903-10.533-8.609-14.746-13.928
		c0.378-0.508,0.735-1.028,1.107-1.539C142.278,233.927,151.417,233.909,160.24,235.626z M98.5,298.638
		c-3.233,1.271-6.468,2.543-9.703,3.813c-0.752-1.703-1.118-3.464-0.276-5.054c0.791-1.492,2.429-2.296,3.961-3.005
		c5.542-2.561,11.083-5.122,16.624-7.683c1.565-0.725,3.181-1.484,4.302-2.795c0.532-0.623,0.914-1.408,1.072-2.214
		c0.034-0.019,0.072-0.034,0.105-0.052c3.129-1.619,6.341-3.074,9.611-4.386c-0.285,4.067-0.592,8.133-0.92,12.197
		C114.915,292.211,106.697,295.417,98.5,298.638z"/>
	<path fill="#004B9F" d="M114.955,88.325c-0.766,1.023-1.501,2.064-2.226,3.112c-5.597,3.741-10.076,9.115-15.479,13.186
		c-6.473,4.878-13.851,8.566-21.395,11.447c-5.451,2.083-11.896,1.919-15.802,6.657c-3.329,4.039-2.547,10.59,1.128,14.264
		c10.646,10.646,26.341-3.412,34.765-10.296c6.24-5.101,9.439-11.519,14.615-17.349c4.741-5.341,8.834-11.405,11.253-18.129
		C123.372,86.884,117.299,85.191,114.955,88.325z"/>
	<path fill="#004B9F" d="M197.055,120.874c-11.17-5.054-21.755-11.929-31.399-19.836c-6.313-7.279-12.355-14.788-18.838-21.926
		c-3.625-3.991-9.503,1.088-7.179,5.54c0.681,1.303,1.429,2.579,2.158,3.861c-0.15,1.177,0.143,2.444,1.101,3.583
		c1.162,1.381,2.345,2.717,3.536,4.03c7.861,11.946,17.542,22.959,27.391,33.03c8.51,8.699,21.419,21.682,34.685,13.911
		c4.217-2.47,6.566-7.409,5.247-12.208C211.989,124.431,201.924,123.077,197.055,120.874z"/>
</g>
</svg>
