<?xml version="1.0" encoding="utf-8"?>
<!-- Generator: Adobe Illustrator 16.0.0, SVG Export Plug-In . SVG Version: 6.00 Build 0)  -->
<!DOCTYPE svg PUBLIC "-//W3C//DTD SVG 1.1//EN" "http://www.w3.org/Graphics/SVG/1.1/DTD/svg11.dtd">
<svg version="1.1" id="图层_1" xmlns="http://www.w3.org/2000/svg" xmlns:xlink="http://www.w3.org/1999/xlink" x="0px" y="0px"
	 width="266.59px" height="372.646px" viewBox="0 0 266.59 372.646" enable-background="new 0 0 266.59 372.646"
	 xml:space="preserve">
<path fill="#5CB64A" stroke="#050000" stroke-width="0.5" stroke-miterlimit="10" d="M239.78,0.25H26.813
	C12.143,0.25,0.25,12.142,0.25,26.812v292.941c0,14.67,11.893,26.563,26.563,26.563H239.78c14.67,0,26.561-11.893,26.561-26.563
	V26.812C266.34,12.142,254.45,0.25,239.78,0.25z"/>
<path fill="#FFFFFF" stroke="#000000" stroke-width="0.5" stroke-miterlimit="10" d="M239.78,16.25H26.813
	c-14.67,0-26.563,11.892-26.563,26.562v292.941c0,14.67,11.893,26.562,26.563,26.562H239.78c14.672,0,26.561-11.892,26.561-26.562
	V42.812C266.34,28.142,254.452,16.25,239.78,16.25z"/>
<g>
	<g>
		<path fill="#FFFFFF" stroke="#231815" stroke-width="0.5" stroke-miterlimit="10" d="M239.756,26.255H26.587
			C11.903,26.255,0,38.158,0,52.842v293.219c0,14.683,11.903,26.586,26.587,26.586h213.169c14.684,0,26.587-11.903,26.587-26.586
			V52.842C266.343,38.158,254.44,26.255,239.756,26.255z"/>
	</g>
	<path fill="#DF0414" d="M191.975,279.697c-2.368-1.135-5.128-0.953-7.745-0.733c-15.147,1.277-30.311,3.081-45.04,6.813
		c0.227-3.616,0.355-7.239,0.358-10.861c0.001-0.563-0.001-1.128-0.003-1.693c4.59-1.258,9.259-2.215,13.973-2.87
		c0.332,2.376,1.243,4.606,2.919,6.323c8.39-11.438,16.781-22.877,25.171-34.316c-2.878-8.125-10.848-13.692-19.26-15.565
		c-6.48-1.442-13.194-0.979-19.741,0.327c3.872-5.886,7.459-11.958,10.724-18.201c12.429-1.521,25.079-1.19,37.385,1.183
		c-3.548-5.296-7.566-10.952-13.665-12.805c-3.932-1.194-8.156-0.602-12.219,0.001c-2.109,0.313-4.223,0.63-6.329,0.974
		c1.099-2.422,2.166-4.857,3.169-7.319c0.86-2.108,1.685-4.527,0.718-6.589c-0.817-1.745-2.684-2.707-4.449-3.477
		c-7.052-3.071-14.571-5.069-22.218-5.905c3.055,6.308,10.962,10.132,11.666,17.106c0.29,2.883-0.781,5.714-1.912,8.381
		c-0.101,0.236-0.211,0.468-0.313,0.704c-1.133,0.335-2.26,0.688-3.376,1.085c-6.248,2.223-12.073,5.442-18.01,8.416
		c-0.106-1.368-0.286-2.728-0.605-4.064c-2.202-9.219-9.486-17.047-18.52-19.907c4.743,2.91,5.938,9.323,5.44,14.865
		c-0.457,5.08-1.904,10.149-1.517,15.199c-5.767,1.505-11.733,1.965-17.417,0.355c-1.267-0.359-2.584-0.821-3.87-0.533
		c-2.329,0.523-3.472,3.408-2.924,5.731s2.286,4.158,4.017,5.802c1.731,1.645,3.582,3.299,4.485,5.509
		c5.351-4.174,11.07-7.849,17.049-11.042c1.375,3.597,3.568,6.926,5.735,10.149c4.428-4.343,7.185-10.248,7.973-16.392
		c5.455-2.1,11.051-3.831,16.748-5.147c-3.713,7.069-8.009,13.828-12.837,20.188c-7.178,2.563-14.117,5.794-20.68,9.668
		c5.473,2.546,11.718,0.04,17.461-2.081c0.534,1.014,1.56,1.725,2.367,2.575c1.292,1.361,1.918,3.102,2.202,4.967
		c-6.836,1.171-13.383,4.057-18.746,8.46c5.836,2.442,12.189,2.935,18.569,2.847c-0.072,1.363-0.147,2.726-0.225,4.087
		c-6.5,1.329-12.557,4.85-16.792,9.967c-0.676-5.681-1.772-11.313-3.277-16.833c-1.033-3.789-2.362-7.698-5.221-10.391
		c-2.859-2.692-7.684-3.684-10.713-1.184c4.248,13.289,10.714,25.867,19.048,37.057c0.467,0.626,0.974,1.271,1.616,1.694
		c-4.263,2.533-9.149,4.138-13.688,6.249c-6.136,2.852-12.288,7.497-13.355,14.179c-0.118,0.741-0.149,1.482-0.146,2.223
		c-1.659,0.652-3.317,1.304-4.977,1.955c-2.074,0.814-4.412,1.917-4.964,4.075c-0.691,2.701,2.137,5.254,4.921,5.413
		c2.529,0.144,4.899-1.032,7.146-2.253c0.148,0.393,0.297,0.785,0.448,1.174c3.146,8.101,6.485,16.128,10.012,24.072
		c2.587-9.689,1.635-20.248-2.485-29.38c9.58-4.706,19.563-8.58,29.806-11.588c-0.393,4.446-0.823,8.887-1.267,13.328
		c-0.244,0.112-0.495,0.206-0.736,0.321c-2.936,1.396-5.772,3.058-8.892,3.97c-3.12,0.912-6.666,0.988-9.447-0.693
		c1.234,4.971,4.729,9.334,9.312,11.622c11.989-9.661,27.562-14.765,42.942-14.077c-1.083,2.781,2.604,5.679,5.387,4.605
		c2.785-1.071,3.954-4.616,3.259-7.519c-0.694-2.902-2.775-5.254-4.918-7.33c-3.573-3.461-7.603-6.576-12.262-8.323
		c1.938,3.82,2.708,8.223,2.184,12.475c-5.017-0.332-10.071,0.052-14.992,1.075c0.798-4.196,1.433-8.422,1.926-12.666
		c15.657-3.46,31.749-4.957,47.772-4.319c-2.615,13.23-6.328,26.244-11.098,38.859c-7.134-0.243-14.269-0.486-21.404-0.729
		c6.764,5.912,12.895,12.548,18.252,19.76c16.027-14.41,27.588-33.72,32.72-54.651C198.485,291.828,197.837,282.51,191.975,279.697z
		 M163.551,235.625c1.14,4.766-0.557,9.755-2.811,14.105c-2.256,4.351-5.109,8.445-6.553,13.128
		c-0.556,1.807-0.849,3.752-0.813,5.663c-3.68-3.19-8.165-5.414-12.918-6.482c0.109-0.441,0.221-0.884,0.358-1.321
		c1.438-4.55,4.886-8.807,9.572-9.698c-5.55-3.902-10.533-8.609-14.746-13.928c0.377-0.508,0.735-1.028,1.108-1.539
		C145.59,233.927,154.729,233.908,163.551,235.625z M101.812,298.638c-3.234,1.271-6.468,2.542-9.703,3.813
		c-0.752-1.704-1.117-3.464-0.275-5.054c0.79-1.493,2.428-2.296,3.961-3.006c5.541-2.561,11.082-5.122,16.624-7.683
		c1.564-0.724,3.181-1.484,4.301-2.794c0.532-0.623,0.913-1.408,1.072-2.214c0.035-0.019,0.072-0.034,0.106-0.053
		c3.129-1.618,6.341-3.073,9.61-4.385c-0.285,4.067-0.593,8.133-0.92,12.197C118.226,292.211,110.008,295.417,101.812,298.638z"/>
	<path fill="#004B9F" d="M67.091,106.834c1.028-0.775,2.083-1.48,3.15-2.152c0.031-0.006,0.058-0.006,0.088-0.013
		c29.88-7.164,60.827-8.229,91.097-3.247c17.39,2.862,50.771,17.972,58.344-7.824c1.075-3.664-1.88-7.307-5.598-7.347
		c-23.229-0.251-46.461-0.313-69.692-0.337c0.13-0.455,0.217-0.929,0.208-1.434c-0.105-5.874,1.271-14.336-1.811-19.6
		c-3.618-6.177-11.203-5.779-17.029-3.635c-2.397,0.883-4.163,2.783-4.163,5.468c0,6.185,0.506,13.249,2.957,19.175
		c-0.412,0-0.823-0.002-1.235-0.002c-13.737,0.001-27.863-0.325-40.903,3.044c-7.873-3.479-18.626,3.741-22.004,11.311
		C58.789,104.073,62.769,110.094,67.091,106.834z M193.795,97.62c1.852,0.021,3.704,0.045,5.557,0.065
		C197.616,97.875,195.741,97.833,193.795,97.62z"/>
	<path fill="#004B9F" d="M118.768,114.386c-4.95,8.831-10.945,16.466-19.374,22.229c-6.459,4.416-17.577,4.124-22.35,10.027
		c-0.685,0.848-1.021,2.335,0,3.136c7.438,5.828,19.91-1.181,27.303-4.688c10.819-5.133,20.05-13.556,25.907-23.989
		C134.46,113.611,122.962,106.903,118.768,114.386z"/>
	<path fill="#004B9F" d="M171.283,123.421c-2.817-4.023-4.286-7.492-8.393-10.382c-4.349-3.061-10.939,1.004-10.677,6.126
		c0.518,10.014,10.711,19.583,18.595,24.992c7.738,5.306,19.189,11.101,28.844,9.813c1.4-0.187,2.517-1.853,1.255-3.028
		c-6.235-5.8-13.828-9.836-19.957-16.001C177.386,131.357,174.179,127.562,171.283,123.421z"/>
</g>
</svg>
