<?xml version="1.0" encoding="utf-8"?>
<!-- Generator: Adobe Illustrator 16.0.0, SVG Export Plug-In . SVG Version: 6.00 Build 0)  -->
<!DOCTYPE svg PUBLIC "-//W3C//DTD SVG 1.1//EN" "http://www.w3.org/Graphics/SVG/1.1/DTD/svg11.dtd">
<svg version="1.1" id="图层_1" xmlns="http://www.w3.org/2000/svg" xmlns:xlink="http://www.w3.org/1999/xlink" x="0px" y="0px"
	 width="266.59px" height="372.646px" viewBox="0 0 266.59 372.646" enable-background="new 0 0 266.59 372.646"
	 xml:space="preserve">
<path fill="#5CB64A" stroke="#050000" stroke-width="0.5" stroke-miterlimit="10" d="M239.78,0.25H26.813
	C12.143,0.25,0.25,12.142,0.25,26.812v292.941c0,14.67,11.893,26.563,26.563,26.563H239.78c14.67,0,26.561-11.893,26.561-26.563
	V26.812C266.34,12.142,254.45,0.25,239.78,0.25z"/>
<path fill="#FFFFFF" stroke="#000000" stroke-width="0.5" stroke-miterlimit="10" d="M239.78,16.25H26.813
	c-14.67,0-26.563,11.892-26.563,26.562v292.941c0,14.67,11.893,26.562,26.563,26.562H239.78c14.672,0,26.561-11.892,26.561-26.562
	V42.812C266.34,28.142,254.452,16.25,239.78,16.25z"/>
<g>
	<g>
		<path fill="#FFFFFF" stroke="#231815" stroke-width="0.5" stroke-miterlimit="10" d="M238.742,27.722H26.475
			C11.854,27.722,0,39.575,0,54.197v291.976c0,14.622,11.854,26.475,26.475,26.475h212.267c14.621,0,26.475-11.853,26.475-26.475
			V54.197C265.216,39.575,253.363,27.722,238.742,27.722z"/>
	</g>
	<path fill="#004B9F" d="M204.633,128.152c-39.096-0.768-78.035,1.582-116.727,6.789c-0.489-0.053-2.493-1.034-2.645-1.971
		c-0.585-3.639-4.017-4.813-7.247-3.634c-2.688,0.981-5.212,2.577-7.583,4.34c-6.231,2.725-10.38,8.654-5.581,16.013
		c2.792,4.283,8.603,2.77,12.458,1.393c11.938-4.265,23.313-7.696,36.007-9.008c11.099-1.148,22.327-0.313,33.271,1.672
		c9.866,1.791,19.253,6.106,29.257,7.145c13.858,1.438,28.396-2.948,32.797-17.478C209.439,130.776,207.274,128.204,204.633,128.152
		z"/>
	<path fill="#004B9F" d="M180.089,60.094c-28.091-0.552-56.068,1.136-83.867,4.877c-0.351-0.038-1.791-0.743-1.898-1.416
		c-0.421-2.615-2.886-3.459-5.208-2.611c-1.932,0.705-3.744,1.851-5.447,3.118c-4.478,1.958-7.458,6.217-4.011,11.505
		c2.007,3.077,6.182,1.99,8.952,1c8.577-3.064,16.75-5.529,25.869-6.472c7.976-0.825,16.042-0.224,23.905,1.202
		c7.088,1.285,13.835,4.386,21.02,5.132c9.957,1.034,20.401-2.117,23.563-12.558C183.541,61.978,181.986,60.131,180.089,60.094z"/>
	<path fill="#004B9F" d="M170.036,100.039c-22.998-0.552-45.904,1.136-68.665,4.877c-0.287-0.039-1.466-0.743-1.555-1.416
		c-0.345-2.615-2.363-3.459-4.263-2.612c-1.581,0.705-3.066,1.852-4.46,3.119c-3.665,1.958-6.105,6.217-3.282,11.505
		c1.642,3.077,5.061,1.99,7.328,1c7.022-3.064,13.713-5.53,21.18-6.472c6.529-0.825,13.133-0.225,19.572,1.202
		c5.802,1.285,11.326,4.386,17.209,5.132c8.153,1.034,16.704-2.118,19.292-12.558C172.861,101.924,171.586,100.076,170.036,100.039z
		"/>
	<path fill="#DF0414" d="M187.289,280.091c-2.357-1.131-5.106-0.95-7.712-0.73c-15.083,1.271-30.182,3.067-44.851,6.783
		c0.227-3.602,0.354-7.208,0.358-10.815c0-0.561-0.002-1.124-0.004-1.687c4.57-1.252,9.22-2.206,13.914-2.858
		c0.33,2.366,1.236,4.588,2.907,6.298c8.354-11.391,16.708-22.78,25.062-34.172c-2.863-8.09-10.8-13.636-19.176-15.499
		c-6.453-1.437-13.14-0.975-19.658,0.325c3.856-5.86,7.428-11.907,10.678-18.125c12.377-1.515,24.974-1.185,37.225,1.179
		c-3.53-5.273-7.531-10.906-13.604-12.75c-3.915-1.189-8.121-0.6-12.167,0.001c-2.1,0.311-4.204,0.627-6.302,0.969
		c1.092-2.412,2.156-4.836,3.155-7.287c0.856-2.101,1.677-4.51,0.714-6.563c-0.813-1.737-2.671-2.695-4.43-3.46
		c-7.022-3.058-14.511-5.048-22.125-5.88c3.042,6.282,10.916,10.089,11.617,17.034c0.289,2.87-0.778,5.689-1.903,8.346
		c-0.1,0.235-0.211,0.466-0.313,0.701c-1.127,0.333-2.249,0.686-3.36,1.08c-6.222,2.213-12.022,5.419-17.934,8.379
		c-0.106-1.36-0.285-2.715-0.602-4.046c-2.193-9.179-9.446-16.975-18.443-19.823c4.723,2.897,5.913,9.285,5.417,14.802
		c-0.454,5.06-1.896,10.107-1.51,15.137c-5.742,1.498-11.683,1.956-17.343,0.353c-1.263-0.357-2.574-0.817-3.854-0.53
		c-2.319,0.521-3.458,3.394-2.911,5.706c0.546,2.314,2.276,4.141,4,5.778s3.567,3.285,4.466,5.484
		c5.326-4.155,11.022-7.815,16.976-10.994c1.369,3.581,3.553,6.896,5.711,10.106c4.409-4.324,7.155-10.204,7.939-16.322
		c5.433-2.091,11.004-3.814,16.678-5.126c-3.698,7.04-7.976,13.77-12.783,20.103c-7.147,2.553-14.057,5.769-20.592,9.628
		c5.451,2.535,11.669,0.04,17.388-2.072c0.531,1.009,1.553,1.718,2.356,2.564c1.286,1.355,1.91,3.088,2.192,4.945
		c-6.807,1.166-13.327,4.04-18.667,8.424c5.812,2.432,12.138,2.923,18.49,2.836c-0.072,1.356-0.147,2.713-0.224,4.069
		c-6.472,1.323-12.504,4.829-16.72,9.924c-0.674-5.656-1.764-11.265-3.263-16.762c-1.029-3.773-2.352-7.665-5.2-10.347
		c-2.847-2.681-7.651-3.669-10.667-1.179c4.23,13.233,10.668,25.758,18.968,36.899c0.465,0.624,0.969,1.266,1.609,1.687
		c-4.246,2.523-9.111,4.121-13.63,6.223c-6.109,2.841-12.236,7.467-13.299,14.12c-0.118,0.737-0.149,1.476-0.145,2.213
		c-1.652,0.648-3.303,1.297-4.956,1.947c-2.064,0.811-4.393,1.908-4.943,4.058c-0.688,2.69,2.128,5.231,4.9,5.389
		c2.519,0.145,4.879-1.026,7.116-2.242c0.148,0.392,0.296,0.782,0.446,1.169c3.133,8.066,6.458,16.059,9.97,23.969
		c2.576-9.646,1.627-20.16-2.476-29.254c9.54-4.688,19.481-8.544,29.68-11.539c-0.391,4.427-0.819,8.85-1.261,13.271
		c-0.243,0.111-0.491,0.205-0.732,0.32c-2.924,1.39-5.749,3.045-8.856,3.953s-6.637,0.984-9.406-0.69
		c1.229,4.949,4.709,9.293,9.272,11.571c11.938-9.618,27.445-14.701,42.761-14.016c-1.078,2.769,2.59,5.652,5.363,4.586
		s3.938-4.598,3.246-7.488c-0.692-2.889-2.765-5.23-4.898-7.299c-3.558-3.446-7.572-6.548-12.21-8.288
		c1.928,3.805,2.696,8.188,2.174,12.423c-4.995-0.33-10.027,0.052-14.928,1.07c0.794-4.179,1.426-8.388,1.918-12.611
		c15.589-3.446,31.612-4.937,47.57-4.302c-2.604,13.174-6.305,26.132-11.051,38.695c-7.104-0.243-14.211-0.485-21.314-0.729
		c6.735,5.888,12.841,12.496,18.175,19.677c15.96-14.348,27.472-33.576,32.582-54.42
		C193.769,292.17,193.126,282.891,187.289,280.091z M158.985,236.205c1.135,4.746-0.554,9.715-2.798,14.045
		c-2.247,4.333-5.088,8.41-6.525,13.073c-0.554,1.8-0.846,3.736-0.81,5.64c-3.664-3.178-8.13-5.392-12.863-6.455
		c0.109-0.441,0.22-0.882,0.356-1.315c1.433-4.531,4.865-8.771,9.532-9.658c-5.526-3.886-10.489-8.573-14.683-13.869
		c0.375-0.504,0.731-1.024,1.103-1.532C141.099,234.514,150.2,234.496,158.985,236.205z M97.507,298.951
		c-3.221,1.266-6.442,2.531-9.662,3.796c-0.75-1.695-1.113-3.448-0.274-5.031c0.787-1.486,2.417-2.287,3.944-2.992
		c5.518-2.551,11.035-5.102,16.553-7.651c1.559-0.72,3.167-1.477,4.282-2.782c0.531-0.619,0.91-1.401,1.068-2.204
		c0.035-0.018,0.071-0.033,0.106-0.052c3.116-1.611,6.314-3.061,9.569-4.367c-0.284,4.051-0.59,8.099-0.917,12.146
		C113.852,292.551,105.668,295.744,97.507,298.951z"/>
</g>
</svg>
