<?xml version="1.0" encoding="utf-8"?>
<!-- Generator: Adobe Illustrator 16.0.0, SVG Export Plug-In . SVG Version: 6.00 Build 0)  -->
<!DOCTYPE svg PUBLIC "-//W3C//DTD SVG 1.1//EN" "http://www.w3.org/Graphics/SVG/1.1/DTD/svg11.dtd" [
	<!ENTITY ns_flows "http://ns.adobe.com/Flows/1.0/">
	<!ENTITY ns_extend "http://ns.adobe.com/Extensibility/1.0/">
	<!ENTITY ns_ai "http://ns.adobe.com/AdobeIllustrator/10.0/">
	<!ENTITY ns_graphs "http://ns.adobe.com/Graphs/1.0/">
]>
<svg version="1.1" id="图层_1" xmlns:x="&ns_extend;" xmlns:i="&ns_ai;" xmlns:graph="&ns_graphs;"
	 xmlns="http://www.w3.org/2000/svg" xmlns:xlink="http://www.w3.org/1999/xlink" xmlns:a="http://ns.adobe.com/AdobeSVGViewerExtensions/3.0/"
	 x="0px" y="0px" width="266.59px" height="372.646px" viewBox="0 0 266.59 372.646" enable-background="new 0 0 266.59 372.646"
	 xml:space="preserve">
<path fill="#5CB64A" stroke="#050000" stroke-width="0.5" stroke-miterlimit="10" d="M239.78,0.25H26.813
	C12.143,0.25,0.25,12.142,0.25,26.812v292.941c0,14.67,11.893,26.563,26.563,26.563H239.78c14.67,0,26.561-11.893,26.561-26.563
	V26.812C266.34,12.142,254.45,0.25,239.78,0.25z"/>
<path fill="#FFFFFF" stroke="#000000" stroke-width="0.5" stroke-miterlimit="10" d="M239.78,16.25H26.813
	c-14.67,0-26.563,11.892-26.563,26.562v292.941c0,14.67,11.893,26.562,26.563,26.562H239.78c14.672,0,26.561-11.892,26.561-26.562
	V42.812C266.34,28.142,254.452,16.25,239.78,16.25z"/>
<g>
	<g>
		<path fill="#FFFFFF" stroke="#231815" stroke-width="0.5" stroke-miterlimit="10" d="M239.756,26.257H26.587
			C11.903,26.257,0,38.16,0,52.844v293.217c0,14.683,11.903,26.586,26.587,26.586h213.169c14.684,0,26.587-11.903,26.587-26.586
			V52.844C266.343,38.16,254.44,26.257,239.756,26.257z"/>
	</g>
	<path fill="#DF0414" d="M182.005,279.698c-2.367-1.136-5.127-0.954-7.744-0.733c-15.147,1.276-30.311,3.08-45.04,6.812
		c0.226-3.615,0.355-7.238,0.358-10.861c0-0.563-0.002-1.128-0.003-1.693c4.59-1.257,9.259-2.214,13.973-2.87
		c0.331,2.377,1.244,4.606,2.919,6.324c8.39-11.438,16.781-22.877,25.171-34.316c-2.878-8.125-10.848-13.693-19.26-15.565
		c-6.48-1.442-13.194-0.979-19.742,0.326c3.873-5.886,7.46-11.957,10.724-18.2c12.43-1.521,25.08-1.191,37.385,1.183
		c-3.548-5.296-7.565-10.953-13.664-12.805c-3.932-1.194-8.156-0.602-12.219,0.001c-2.109,0.313-4.223,0.63-6.329,0.974
		c1.099-2.422,2.166-4.857,3.169-7.319c0.86-2.108,1.685-4.527,0.718-6.589c-0.817-1.744-2.684-2.707-4.449-3.476
		c-7.053-3.071-14.571-5.069-22.218-5.905c3.055,6.308,10.961,10.132,11.665,17.105c0.291,2.883-0.779,5.715-1.911,8.382
		c-0.1,0.236-0.211,0.468-0.312,0.704c-1.133,0.334-2.26,0.688-3.376,1.085c-6.249,2.222-12.073,5.441-18.01,8.415
		c-0.105-1.367-0.286-2.727-0.605-4.064c-2.202-9.218-9.486-17.046-18.52-19.906c4.742,2.91,5.937,9.323,5.44,14.865
		c-0.456,5.08-1.904,10.148-1.518,15.199c-5.767,1.505-11.733,1.965-17.417,0.355c-1.268-0.36-2.584-0.822-3.87-0.533
		c-2.329,0.522-3.472,3.408-2.924,5.731s2.286,4.158,4.017,5.802c1.731,1.645,3.582,3.299,4.485,5.509
		c5.35-4.175,11.069-7.85,17.048-11.042c1.375,3.597,3.568,6.926,5.736,10.148c4.428-4.342,7.185-10.247,7.972-16.391
		c5.456-2.1,11.051-3.832,16.748-5.148c-3.713,7.07-8.009,13.828-12.837,20.188c-7.177,2.563-14.116,5.794-20.678,9.669
		c5.473,2.546,11.717,0.04,17.461-2.082c0.533,1.014,1.56,1.726,2.366,2.575c1.293,1.362,1.918,3.103,2.202,4.967
		c-6.835,1.171-13.383,4.058-18.746,8.46c5.836,2.442,12.189,2.935,18.569,2.848c-0.072,1.363-0.146,2.725-0.225,4.087
		c-6.5,1.329-12.557,4.85-16.792,9.966c-0.675-5.681-1.772-11.312-3.277-16.832c-1.033-3.79-2.362-7.698-5.221-10.391
		c-2.86-2.693-7.685-3.684-10.712-1.184c4.248,13.289,10.713,25.866,19.047,37.056c0.468,0.627,0.974,1.272,1.616,1.694
		c-4.264,2.533-9.15,4.139-13.688,6.249c-6.135,2.853-12.288,7.498-13.356,14.179c-0.118,0.741-0.149,1.482-0.146,2.223
		c-1.658,0.652-3.317,1.304-4.977,1.955c-2.074,0.815-4.412,1.917-4.964,4.076c-0.691,2.701,2.137,5.253,4.921,5.412
		c2.53,0.145,4.899-1.031,7.146-2.253c0.148,0.393,0.297,0.785,0.448,1.174c3.147,8.102,6.485,16.129,10.013,24.072
		c2.586-9.689,1.634-20.248-2.486-29.379c9.58-4.707,19.563-8.581,29.805-11.588c-0.393,4.445-0.823,8.887-1.267,13.327
		c-0.243,0.112-0.494,0.207-0.735,0.321c-2.936,1.396-5.772,3.058-8.892,3.97c-3.12,0.913-6.666,0.989-9.447-0.693
		c1.233,4.972,4.729,9.334,9.311,11.622c11.989-9.661,27.562-14.765,42.942-14.077c-1.083,2.781,2.604,5.679,5.387,4.606
		c2.785-1.071,3.954-4.617,3.259-7.52c-0.694-2.902-2.775-5.254-4.919-7.329c-3.572-3.462-7.602-6.577-12.261-8.324
		c1.938,3.82,2.707,8.223,2.183,12.475c-5.017-0.332-10.071,0.052-14.992,1.076c0.798-4.197,1.433-8.423,1.926-12.666
		c15.659-3.461,31.75-4.958,47.773-4.32c-2.615,13.23-6.329,26.245-11.098,38.859c-7.135-0.242-14.271-0.486-21.405-0.729
		c6.765,5.912,12.896,12.548,18.252,19.76c16.028-14.409,27.589-33.72,32.721-54.651
		C188.516,291.828,187.869,282.511,182.005,279.698z M153.583,235.626c1.139,4.766-0.557,9.755-2.811,14.105
		c-2.256,4.35-5.109,8.444-6.553,13.128c-0.557,1.807-0.85,3.752-0.813,5.663c-3.681-3.19-8.165-5.415-12.918-6.483
		c0.109-0.441,0.22-0.884,0.359-1.32c1.437-4.551,4.884-8.808,9.572-9.698c-5.55-3.903-10.533-8.609-14.746-13.928
		c0.377-0.508,0.735-1.028,1.108-1.539C135.622,233.927,144.759,233.909,153.583,235.626z M91.843,298.638
		c-3.234,1.271-6.468,2.543-9.703,3.813c-0.752-1.703-1.118-3.464-0.275-5.054c0.79-1.492,2.427-2.296,3.961-3.005
		c5.541-2.561,11.083-5.122,16.624-7.683c1.565-0.725,3.181-1.484,4.301-2.795c0.532-0.623,0.913-1.408,1.071-2.214
		c0.035-0.019,0.073-0.034,0.107-0.052c3.129-1.619,6.341-3.074,9.61-4.386c-0.286,4.067-0.593,8.133-0.92,12.197
		C108.256,292.211,100.04,295.417,91.843,298.638z"/>
	<path fill="#004B9F" d="M201.152,132.242c-13.494,5.677-30.761,14.976-43.595,2.886c-12.928-12.178-3.555-34.917,1.559-48.355
		c1.519-3.986-2.306-7.84-6.071-7.971c-9.286-0.323-18.589-0.111-27.807,0.756c-0.086-2.532-0.2-5.063-0.339-7.585
		c-0.485-8.791-13.465-8.882-13.712,0c-0.09,3.213-0.22,6.378-0.379,9.527c-6.477,1.145-12.88,2.669-19.177,4.624
		c-0.033-0.66-0.517-1.312-1.352-1.401c-6.974-0.733-12.088,2.34-15.24,8.493c-1.667,3.257,1.035,6.681,4.575,5.951
		c10.119-2.086,20.183-3.932,30.278-5.337c-0.947,9.419-2.524,18.705-5.327,28.122c-5.485,18.42-25.503,30.555-43.797,23.295
		c-3.82-1.518-6.968,2.835-6.209,6.209c1.795,7.999,9.539,15.763,18.382,15.189c12.674-0.823,22.377-7.727,31.016-16.613
		c10.32-10.617,17.349-25.444,19.65-40.64c1.027-5.668,1.532-11.471,1.698-17.332c6.229-0.526,12.489-0.821,18.799-0.833
		c-5.225,15.185-8.945,33.258-0.658,47.184c2.866,6.24,7.845,11.719,15.537,15.969c17.253,9.531,46.966,11.747,50.899-13.41
		C210.595,136.385,206.736,129.891,201.152,132.242z"/>
</g>
</svg>
