<?xml version="1.0" encoding="utf-8"?>
<!-- Generator: Adobe Illustrator 16.0.0, SVG Export Plug-In . SVG Version: 6.00 Build 0)  -->
<!DOCTYPE svg PUBLIC "-//W3C//DTD SVG 1.1//EN" "http://www.w3.org/Graphics/SVG/1.1/DTD/svg11.dtd">
<svg version="1.1" id="图层_1" xmlns="http://www.w3.org/2000/svg" xmlns:xlink="http://www.w3.org/1999/xlink" x="0px" y="0px"
	 width="266.59px" height="372.646px" viewBox="0 0 266.59 372.646" enable-background="new 0 0 266.59 372.646"
	 xml:space="preserve">
<path fill="#5CB64A" stroke="#050000" stroke-width="0.5" stroke-miterlimit="10" d="M239.78,0.25H26.813
	C12.143,0.25,0.25,12.142,0.25,26.812v292.941c0,14.67,11.893,26.563,26.563,26.563H239.78c14.67,0,26.561-11.893,26.561-26.563
	V26.812C266.34,12.142,254.45,0.25,239.78,0.25z"/>
<path fill="#FFFFFF" stroke="#000000" stroke-width="0.5" stroke-miterlimit="10" d="M239.78,16.25H26.813
	c-14.67,0-26.563,11.892-26.563,26.562v292.941c0,14.67,11.893,26.562,26.563,26.562H239.78c14.672,0,26.561-11.892,26.561-26.562
	V42.812C266.34,28.142,254.452,16.25,239.78,16.25z"/>
<g>
	<g>
		<path fill="#FFFFFF" stroke="#231815" stroke-miterlimit="10" d="M239.86,26.104H26.599C11.909,26.104,0,38.013,0,52.702v293.346
			c0,14.69,11.909,26.599,26.599,26.599H239.86c14.69,0,26.6-11.908,26.6-26.599V52.702C266.459,38.013,254.55,26.104,239.86,26.104
			z"/>
	</g>
	<path fill="#004B9F" d="M213.037,96.931c-39.28-0.771-78.402,1.589-117.276,6.82c-0.492-0.053-1-0.076-1.56-0.067
		c-0.623-0.149-1.03-0.008-1.264,0.37c0.207-0.746,0.319-1.34,0.167-2.282c-0.589-3.656-4.036-4.836-7.281-3.651
		c-2.701,0.985-5.236,2.589-7.618,4.36c-6.261,2.737-10.429,8.695-5.607,16.089c2.805,4.303,8.644,2.782,12.517,1.399
		c11.994-4.285,23.423-7.732,36.176-9.051c11.152-1.153,22.433-0.314,33.428,1.681c9.911,1.798,19.344,6.134,29.396,7.177
		c13.92,1.445,28.526-2.961,32.949-17.56C217.865,99.567,215.688,96.984,213.037,96.931z"/>
	<path fill="#DF0414" d="M191.275,279.656c-2.367-1.136-5.129-0.954-7.746-0.733c-15.156,1.277-30.325,3.081-45.062,6.814
		c0.227-3.618,0.355-7.241,0.359-10.866c0-0.563-0.002-1.129-0.003-1.694c4.592-1.258,9.263-2.216,13.978-2.871
		c0.334,2.377,1.245,4.608,2.923,6.327c8.394-11.444,16.786-22.888,25.18-34.333c-2.877-8.127-10.851-13.699-19.269-15.571
		c-6.482-1.443-13.198-0.979-19.75,0.327c3.874-5.889,7.463-11.963,10.728-18.21c12.438-1.521,25.094-1.19,37.401,1.184
		c-3.549-5.298-7.566-10.957-13.668-12.81c-3.934-1.194-8.159-0.602-12.226,0.001c-2.109,0.313-4.223,0.63-6.331,0.973
		c1.098-2.423,2.165-4.858,3.171-7.321c0.861-2.109,1.683-4.53,0.718-6.593c-0.817-1.745-2.687-2.708-4.453-3.477
		c-7.056-3.073-14.577-5.072-22.227-5.908c3.056,6.311,10.967,10.136,11.669,17.113c0.292,2.884-0.778,5.716-1.912,8.386
		c-0.1,0.235-0.211,0.468-0.311,0.703c-1.134,0.335-2.262,0.689-3.377,1.086c-6.252,2.224-12.08,5.444-18.019,8.418
		c-0.106-1.367-0.286-2.728-0.605-4.064c-2.202-9.223-9.49-17.055-18.528-19.917c4.745,2.911,5.94,9.329,5.442,14.872
		c-0.457,5.083-1.905,10.154-1.518,15.207c-5.77,1.506-11.738,1.965-17.425,0.354c-1.268-0.359-2.586-0.821-3.872-0.533
		c-2.33,0.523-3.474,3.41-2.925,5.733c0.548,2.325,2.287,4.16,4.018,5.806c1.731,1.645,3.583,3.301,4.487,5.51
		c5.352-4.175,11.074-7.853,17.056-11.046c1.375,3.598,3.569,6.929,5.738,10.153c4.429-4.344,7.188-10.252,7.976-16.397
		c5.458-2.101,11.055-3.834,16.755-5.15c-3.715,7.072-8.013,13.834-12.843,20.197c-7.181,2.563-14.123,5.795-20.688,9.673
		c5.475,2.547,11.723,0.039,17.469-2.083c0.534,1.015,1.561,1.727,2.368,2.576c1.292,1.363,1.919,3.104,2.203,4.969
		c-6.839,1.172-13.389,4.06-18.754,8.464c5.839,2.443,12.194,2.937,18.578,2.849c-0.073,1.364-0.148,2.727-0.225,4.089
		c-6.504,1.33-12.563,4.852-16.799,9.971c-0.676-5.684-1.773-11.317-3.278-16.84c-1.032-3.791-2.363-7.702-5.223-10.396
		c-2.861-2.693-7.688-3.686-10.718-1.185c4.25,13.297,10.719,25.88,19.057,37.074c0.467,0.626,0.975,1.271,1.617,1.693
		c-4.265,2.536-9.154,4.142-13.694,6.252c-6.139,2.854-12.294,7.502-13.362,14.187c-0.118,0.741-0.149,1.482-0.146,2.223
		c-1.659,0.652-3.319,1.304-4.978,1.957c-2.075,0.814-4.414,1.917-4.967,4.077c-0.691,2.702,2.138,5.256,4.923,5.414
		c2.53,0.145,4.902-1.031,7.149-2.253c0.149,0.393,0.298,0.785,0.448,1.174c3.148,8.104,6.488,16.135,10.017,24.082
		c2.588-9.692,1.635-20.256-2.487-29.392c9.584-4.71,19.572-8.584,29.819-11.594c-0.393,4.447-0.824,8.892-1.268,13.335
		c-0.244,0.111-0.495,0.205-0.736,0.321c-2.937,1.396-5.775,3.059-8.896,3.972c-3.122,0.913-6.668,0.989-9.452-0.694
		c1.235,4.973,4.731,9.337,9.316,11.626c11.995-9.663,27.573-14.77,42.962-14.082c-1.084,2.782,2.603,5.68,5.389,4.608
		c2.786-1.072,3.955-4.619,3.261-7.523c-0.694-2.902-2.777-5.255-4.922-7.333c-3.575-3.463-7.605-6.579-12.266-8.327
		c1.937,3.823,2.707,8.228,2.183,12.48c-5.018-0.331-10.074,0.053-14.998,1.075c0.799-4.197,1.434-8.426,1.927-12.67
		c15.664-3.462,31.763-4.96,47.793-4.321c-2.614,13.235-6.331,26.254-11.101,38.876c-7.139-0.244-14.276-0.487-21.415-0.731
		c6.767,5.915,12.899,12.555,18.26,19.77c16.033-14.416,27.6-33.734,32.736-54.676C197.788,291.793,197.143,282.47,191.275,279.656z
		 M162.841,235.565c1.14,4.769-0.558,9.761-2.813,14.111c-2.256,4.354-5.112,8.45-6.554,13.135
		c-0.557,1.808-0.851,3.754-0.815,5.666c-3.682-3.193-8.166-5.417-12.923-6.485c0.11-0.443,0.221-0.886,0.359-1.322
		c1.438-4.552,4.887-8.811,9.576-9.703c-5.553-3.903-10.538-8.613-14.753-13.935c0.377-0.506,0.735-1.028,1.108-1.539
		C144.872,233.866,154.012,233.848,162.841,235.565z M101.073,298.606c-3.236,1.271-6.471,2.543-9.707,3.813
		c-0.753-1.703-1.119-3.464-0.276-5.055c0.791-1.493,2.429-2.298,3.963-3.007c5.543-2.563,11.087-5.125,16.63-7.687
		c1.565-0.724,3.182-1.484,4.303-2.796c0.533-0.622,0.914-1.407,1.073-2.214c0.034-0.019,0.071-0.034,0.105-0.052
		c3.13-1.619,6.344-3.075,9.615-4.388c-0.286,4.069-0.593,8.137-0.921,12.202C117.494,292.176,109.273,295.383,101.073,298.606z"/>
</g>
</svg>
