<?xml version="1.0" encoding="utf-8"?>
<!-- Generator: Adobe Illustrator 16.0.0, SVG Export Plug-In . SVG Version: 6.00 Build 0)  -->
<!DOCTYPE svg PUBLIC "-//W3C//DTD SVG 1.1//EN" "http://www.w3.org/Graphics/SVG/1.1/DTD/svg11.dtd">
<svg version="1.1" id="图层_1" xmlns="http://www.w3.org/2000/svg" xmlns:xlink="http://www.w3.org/1999/xlink" x="0px" y="0px"
	 width="266.59px" height="372.646px" viewBox="0 0 266.59 372.646" enable-background="new 0 0 266.59 372.646"
	 xml:space="preserve">
<path fill="#5CB64A" stroke="#050000" stroke-width="0.5" stroke-miterlimit="10" d="M239.78,0.25H26.813
	C12.143,0.25,0.25,12.142,0.25,26.812v292.941c0,14.67,11.893,26.563,26.563,26.563H239.78c14.67,0,26.561-11.893,26.561-26.563
	V26.812C266.34,12.142,254.45,0.25,239.78,0.25z"/>
<path fill="#FFFFFF" stroke="#000000" stroke-width="0.5" stroke-miterlimit="10" d="M239.78,16.25H26.813
	c-14.67,0-26.563,11.892-26.563,26.562v292.941c0,14.67,11.893,26.562,26.563,26.562H239.78c14.672,0,26.561-11.892,26.561-26.562
	V42.812C266.34,28.142,254.452,16.25,239.78,16.25z"/>
<g>
	<g>
		<path fill="#FFFFFF" stroke="#231815" stroke-width="0.5" stroke-miterlimit="10" d="M239.756,26.255H26.587
			C11.903,26.255,0,38.158,0,52.842v293.219c0,14.683,11.903,26.586,26.587,26.586h213.169c14.684,0,26.587-11.903,26.587-26.586
			V52.842C266.343,38.158,254.44,26.255,239.756,26.255z"/>
	</g>
	<path fill="#DF0414" d="M188.774,279.697c-2.367-1.135-5.128-0.953-7.745-0.733c-15.146,1.277-30.31,3.081-45.04,6.813
		c0.227-3.616,0.355-7.239,0.359-10.861c0-0.563-0.002-1.128-0.004-1.693c4.59-1.258,9.259-2.215,13.974-2.87
		c0.331,2.376,1.243,4.606,2.919,6.323c8.39-11.438,16.781-22.877,25.171-34.316c-2.878-8.125-10.848-13.692-19.26-15.565
		c-6.481-1.442-13.195-0.979-19.742,0.327c3.873-5.886,7.459-11.958,10.724-18.201c12.43-1.521,25.08-1.19,37.385,1.183
		c-3.548-5.296-7.565-10.952-13.665-12.805c-3.931-1.194-8.153-0.602-12.219,0.001c-2.108,0.313-4.22,0.63-6.328,0.974
		c1.099-2.422,2.165-4.857,3.169-7.319c0.86-2.108,1.685-4.527,0.717-6.589c-0.816-1.745-2.683-2.707-4.448-3.477
		c-7.053-3.071-14.572-5.069-22.218-5.905c3.055,6.308,10.961,10.132,11.666,17.106c0.29,2.883-0.781,5.714-1.912,8.381
		c-0.1,0.236-0.211,0.468-0.313,0.704c-1.133,0.335-2.26,0.688-3.374,1.085c-6.25,2.223-12.075,5.442-18.011,8.416
		c-0.107-1.368-0.286-2.728-0.605-4.064c-2.202-9.219-9.486-17.047-18.521-19.907c4.743,2.91,5.938,9.323,5.44,14.865
		c-0.456,5.08-1.904,10.149-1.517,15.199c-5.767,1.505-11.733,1.965-17.417,0.355c-1.268-0.359-2.584-0.821-3.87-0.533
		c-2.329,0.523-3.473,3.408-2.924,5.731s2.286,4.158,4.017,5.802c1.731,1.645,3.582,3.299,4.485,5.509
		c5.35-4.174,11.069-7.849,17.048-11.042c1.375,3.597,3.568,6.926,5.735,10.149c4.428-4.343,7.185-10.248,7.973-16.392
		c5.456-2.1,11.051-3.831,16.748-5.147c-3.712,7.069-8.009,13.828-12.837,20.188c-7.178,2.563-14.117,5.794-20.68,9.668
		c5.474,2.546,11.718,0.04,17.461-2.081c0.535,1.014,1.561,1.725,2.367,2.575c1.292,1.361,1.918,3.102,2.202,4.967
		c-6.836,1.171-13.383,4.057-18.746,8.46c5.836,2.442,12.189,2.935,18.569,2.847c-0.072,1.363-0.147,2.726-0.225,4.087
		c-6.5,1.329-12.557,4.85-16.792,9.967c-0.676-5.681-1.772-11.313-3.276-16.833c-1.033-3.789-2.363-7.698-5.222-10.391
		s-7.684-3.684-10.713-1.184c4.248,13.289,10.714,25.867,19.049,37.057c0.467,0.626,0.974,1.271,1.615,1.694
		c-4.263,2.533-9.149,4.138-13.688,6.249c-6.135,2.852-12.288,7.497-13.355,14.179c-0.119,0.741-0.149,1.482-0.145,2.223
		c-1.66,0.652-3.318,1.304-4.977,1.955c-2.074,0.814-4.412,1.917-4.964,4.075c-0.691,2.701,2.137,5.254,4.921,5.413
		c2.53,0.144,4.899-1.032,7.146-2.253c0.148,0.393,0.297,0.785,0.448,1.174c3.146,8.101,6.485,16.128,10.012,24.072
		c2.587-9.689,1.634-20.248-2.486-29.38c9.58-4.706,19.563-8.58,29.806-11.588c-0.393,4.446-0.824,8.887-1.267,13.328
		c-0.244,0.112-0.494,0.206-0.736,0.321c-2.936,1.396-5.772,3.058-8.893,3.97c-3.12,0.912-6.666,0.988-9.447-0.693
		c1.233,4.971,4.729,9.334,9.312,11.622c11.989-9.661,27.562-14.765,42.942-14.077c-1.083,2.781,2.604,5.679,5.386,4.605
		c2.785-1.071,3.954-4.616,3.26-7.519s-2.776-5.254-4.919-7.33c-3.572-3.461-7.602-6.576-12.262-8.323
		c1.938,3.82,2.708,8.223,2.184,12.475c-5.017-0.332-10.07,0.052-14.992,1.075c0.799-4.196,1.434-8.422,1.926-12.666
		c15.658-3.46,31.75-4.957,47.773-4.319c-2.615,13.23-6.329,26.244-11.096,38.859c-7.137-0.243-14.271-0.486-21.407-0.729
		c6.765,5.912,12.896,12.548,18.252,19.76c16.028-14.41,27.589-33.72,32.723-54.651C195.285,291.828,194.639,282.51,188.774,279.697
		z M160.35,235.625c1.14,4.766-0.556,9.755-2.81,14.105c-2.257,4.351-5.109,8.445-6.554,13.128
		c-0.556,1.807-0.849,3.752-0.813,5.663c-3.68-3.19-8.164-5.414-12.918-6.482c0.11-0.441,0.221-0.884,0.359-1.321
		c1.437-4.55,4.885-8.807,9.571-9.698c-5.55-3.902-10.533-8.609-14.746-13.928c0.377-0.508,0.735-1.028,1.108-1.539
		C142.389,233.927,151.528,233.908,160.35,235.625z M98.611,298.638c-3.234,1.271-6.468,2.542-9.703,3.813
		c-0.753-1.704-1.118-3.464-0.275-5.054c0.791-1.493,2.427-2.296,3.961-3.006c5.541-2.561,11.082-5.122,16.624-7.683
		c1.565-0.724,3.181-1.484,4.301-2.794c0.533-0.623,0.914-1.408,1.072-2.214c0.035-0.019,0.072-0.034,0.106-0.053
		c3.128-1.618,6.341-3.073,9.61-4.385c-0.285,4.067-0.592,8.133-0.92,12.197C115.025,292.211,106.808,295.417,98.611,298.638z"/>
	<path fill="#004B9F" d="M209.795,82.528c-24.04-1.732-48.655-0.16-72.654,1.626c-3.331,0.249-6.726,0.474-10.152,0.709
		c7.738-11.548,21.694-34.464,4.539-33.809c-15.186,0.581-22.091,20.815-22.132,35.247c-10.401,1.078-20.754,2.746-30.433,5.857
		c-0.271-0.573-0.72-1.051-1.373-1.212c-4.988-1.236-8.957-0.623-13.477,1.969c-3.697,2.12-8.76,7.072-8.692,11.704
		c0.075,5.142,4.652,8.602,9.729,7.369c2.292-0.557,4.159-1.939,5.578-3.775c6.733-2.255,13.495-4.241,20.302-5.917
		c6.856-0.488,13.749-1.36,20.626-2.29c-2.418,21.139,2.465,42.178,25.45,51.22c13.234,5.206,31.214,8.036,44.384,0.955
		c12.676-6.815,20.15-19.76,16.085-34.114c-1.196-4.229-6.556-4.559-8.859-1.158c-9.742,14.396-29.18,20.247-45.212,13.397
		c-11.708-5.003-18.78-15.963-20.709-27.93c0.169-1.318,0.373-2.635,0.611-3.949c4.605-0.593,9.19-1.127,13.736-1.49
		c3.682-0.295,7.358-0.518,11.036-0.712c0.524,0.021,1.046,0.028,1.57,0.054c20.763,1.009,50.681,18.009,65.409-4.41
		C217.924,87.658,214.19,82.844,209.795,82.528z"/>
</g>
</svg>
