<?xml version="1.0" encoding="utf-8"?>
<!-- Generator: Adobe Illustrator 24.2.3, SVG Export Plug-In . SVG Version: 6.00 Build 0)  -->
<svg version="1.1" id="图层_1" xmlns="http://www.w3.org/2000/svg" xmlns:xlink="http://www.w3.org/1999/xlink" x="0px" y="0px"
	 viewBox="0 0 270 350" style="enable-background:new 0 0 270 350;" xml:space="preserve">
<style type="text/css">
	.st0{fill:#009C3B;}
	.st1{fill:#DF0514;}
</style>
<g>
	<g>
		<path class="st0" d="M73.6,170.6c-10.8,0-19.3-11.8-19.3-26.8c0-6.4,1.6-12.5,4.5-17.3c1.1-1.9,1.1-4.2,0-6.1
			c-2.9-4.8-4.5-11-4.5-17.3c0-6.4,1.6-12.5,4.5-17.3c1.1-1.9,1.1-4.2,0-6.1c-2.9-4.8-4.5-11-4.5-17.3c0-15,8.5-26.8,19.3-26.8
			s19.3,11.8,19.3,26.8c0,6.4-1.6,12.5-4.5,17.3c-1.1,1.9-1.1,4.2,0,6.1c2.9,4.8,4.5,11,4.5,17.3c0,6.4-1.6,12.5-4.5,17.3
			c-1.1,1.9-1.1,4.2,0,6.1c2.9,4.8,4.5,11,4.5,17.3C92.9,158.8,84.4,170.6,73.6,170.6z M73.6,44.2c-5.6,0-10.5,8.5-10.5,18.1
			c0,4.8,1.2,9.4,3.3,12.8c2.8,4.7,2.8,10.4,0,15.1c-2.1,3.5-3.3,8-3.3,12.8c0,4.8,1.2,9.4,3.3,12.8c2.8,4.7,2.8,10.4,0,15.1
			c-2.1,3.5-3.3,8-3.3,12.8c0,9.6,4.9,18.1,10.5,18.1c5.6,0,10.5-8.5,10.5-18.1c0-4.8-1.2-9.4-3.3-12.8c-2.8-4.7-2.8-10.4,0-15.1
			c2.1-3.5,3.3-8,3.3-12.8c0-4.8-1.2-9.4-3.3-12.8c-2.8-4.7-2.8-10.4,0-15.1c2.1-3.5,3.3-8,3.3-12.8C84.2,52.7,79.2,44.2,73.6,44.2z
			"/>
	</g>
	<g>
		<path class="st1" d="M134.3,248c-10.8,0-19.3-11.8-19.3-26.8c0-6.4,1.6-12.5,4.5-17.3c1.1-1.9,1.1-4.2,0-6.1
			c-2.9-4.8-4.5-11-4.5-17.3c0-6.4,1.6-12.5,4.5-17.3c1.1-1.9,1.1-4.2,0-6.1c-2.9-4.8-4.5-11-4.5-17.3c0-15,8.5-26.8,19.3-26.8
			s19.3,11.8,19.3,26.8c0,6.4-1.6,12.5-4.5,17.3c-1.1,1.9-1.1,4.2,0,6.1c2.9,4.8,4.5,11,4.5,17.3c0,6.4-1.6,12.5-4.5,17.3
			c-1.1,1.9-1.1,4.2,0,6.1c2.9,4.8,4.5,11,4.5,17.3C153.6,236.2,145.1,248,134.3,248z M134.3,121.6c-5.6,0-10.5,8.5-10.5,18.1
			c0,4.8,1.2,9.4,3.3,12.8c2.8,4.7,2.8,10.4,0,15.1c-2.1,3.5-3.3,8-3.3,12.8s1.2,9.4,3.3,12.8c2.8,4.7,2.8,10.4,0,15.1
			c-2.1,3.5-3.3,8-3.3,12.8c0,9.6,4.9,18.1,10.5,18.1s10.5-8.5,10.5-18.1c0-4.8-1.2-9.4-3.3-12.8c-2.8-4.7-2.8-10.4,0-15.1
			c2.1-3.5,3.3-8,3.3-12.8s-1.2-9.4-3.3-12.8c-2.8-4.7-2.8-10.4,0-15.1c2.1-3.5,3.3-8,3.3-12.8C144.9,130.1,139.9,121.6,134.3,121.6
			z"/>
	</g>
	<g>
		<path class="st0" d="M73.6,315.6c-10.8,0-19.3-11.8-19.3-26.8c0-6.4,1.6-12.5,4.5-17.3c1.1-1.9,1.1-4.2,0-6.1
			c-2.9-4.8-4.5-11-4.5-17.3c0-6.4,1.6-12.5,4.5-17.3c1.1-1.9,1.1-4.2,0-6.1c-2.9-4.8-4.5-11-4.5-17.3c0-15,8.5-26.8,19.3-26.8
			s19.3,11.8,19.3,26.8c0,6.4-1.6,12.5-4.5,17.3c-1.1,1.9-1.1,4.2,0,6.1c2.9,4.8,4.5,11,4.5,17.3c0,6.4-1.6,12.5-4.5,17.3
			c-1.1,1.9-1.1,4.2,0,6.1c2.9,4.8,4.5,11,4.5,17.3C92.9,303.8,84.4,315.6,73.6,315.6z M73.6,189.2c-5.6,0-10.5,8.5-10.5,18.1
			c0,4.8,1.2,9.4,3.3,12.8c2.8,4.7,2.8,10.4,0,15.1c-2.1,3.5-3.3,8-3.3,12.8c0,4.8,1.2,9.4,3.3,12.8c2.8,4.7,2.8,10.4,0,15.1
			c-2.1,3.5-3.3,8-3.3,12.8c0,9.6,4.9,18.1,10.5,18.1c5.6,0,10.5-8.5,10.5-18.1c0-4.8-1.2-9.4-3.3-12.8c-2.8-4.7-2.8-10.4,0-15.1
			c2.1-3.5,3.3-8,3.3-12.8c0-4.8-1.2-9.4-3.3-12.8c-2.8-4.7-2.8-10.4,0-15.1c2.1-3.5,3.3-8,3.3-12.8
			C84.2,197.6,79.2,189.2,73.6,189.2z"/>
	</g>
	<g>
		<path class="st0" d="M195.8,170.6c-10.8,0-19.3-11.8-19.3-26.8c0-6.4,1.6-12.5,4.5-17.3c1.1-1.9,1.1-4.2,0-6.1
			c-2.9-4.8-4.5-11-4.5-17.3c0-6.4,1.6-12.5,4.5-17.3c1.1-1.9,1.1-4.2,0-6.1c-2.9-4.8-4.5-11-4.5-17.3c0-15,8.5-26.8,19.3-26.8
			S215,47.3,215,62.3c0,6.4-1.6,12.5-4.5,17.3c-1.1,1.9-1.1,4.2,0,6.1c2.9,4.8,4.5,11,4.5,17.3c0,6.4-1.6,12.5-4.5,17.3
			c-1.1,1.9-1.1,4.2,0,6.1c2.9,4.8,4.5,11,4.5,17.3C215,158.8,206.6,170.6,195.8,170.6z M195.8,44.2c-5.6,0-10.5,8.5-10.5,18.1
			c0,4.8,1.2,9.4,3.3,12.8c2.8,4.7,2.8,10.4,0,15.1c-2.1,3.5-3.3,8-3.3,12.8c0,4.8,1.2,9.4,3.3,12.8c2.8,4.7,2.8,10.4,0,15.1
			c-2.1,3.5-3.3,8-3.3,12.8c0,9.6,4.9,18.1,10.5,18.1s10.5-8.5,10.5-18.1c0-4.8-1.2-9.4-3.3-12.8c-2.8-4.7-2.8-10.4,0-15.1
			c2.1-3.5,3.3-8,3.3-12.8c0-4.8-1.2-9.4-3.3-12.8c-2.8-4.7-2.8-10.4,0-15.1c2.1-3.5,3.3-8,3.3-12.8
			C206.3,52.7,201.4,44.2,195.8,44.2z"/>
	</g>
	<g>
		<path class="st0" d="M195.8,315.6c-10.8,0-19.3-11.8-19.3-26.8c0-6.4,1.6-12.5,4.5-17.3c1.1-1.9,1.1-4.2,0-6.1
			c-2.9-4.8-4.5-11-4.5-17.3c0-6.4,1.6-12.5,4.5-17.3c1.1-1.9,1.1-4.2,0-6.1c-2.9-4.8-4.5-11-4.5-17.3c0-15,8.5-26.8,19.3-26.8
			s19.3,11.8,19.3,26.8c0,6.4-1.6,12.5-4.5,17.3c-1.1,1.9-1.1,4.2,0,6.1c2.9,4.8,4.5,11,4.5,17.3c0,6.4-1.6,12.5-4.5,17.3
			c-1.1,1.9-1.1,4.2,0,6.1c2.9,4.8,4.5,11,4.5,17.3C215,303.8,206.6,315.6,195.8,315.6z M195.8,189.2c-5.6,0-10.5,8.5-10.5,18.1
			c0,4.8,1.2,9.4,3.3,12.8c2.8,4.7,2.8,10.4,0,15.1c-2.1,3.5-3.3,8-3.3,12.8c0,4.8,1.2,9.4,3.3,12.8c2.8,4.7,2.8,10.4,0,15.1
			c-2.1,3.5-3.3,8-3.3,12.8c0,9.6,4.9,18.1,10.5,18.1s10.5-8.5,10.5-18.1c0-4.8-1.2-9.4-3.3-12.8c-2.8-4.7-2.8-10.4,0-15.1
			c2.1-3.5,3.3-8,3.3-12.8c0-4.8-1.2-9.4-3.3-12.8c-2.8-4.7-2.8-10.4,0-15.1c2.1-3.5,3.3-8,3.3-12.8
			C206.3,197.6,201.4,189.2,195.8,189.2z"/>
	</g>
</g>
</svg>
