<?xml version="1.0" encoding="utf-8"?>
<!-- Generator: Adobe Illustrator 24.2.3, SVG Export Plug-In . SVG Version: 6.00 Build 0)  -->
<svg version="1.1" id="图层_1" xmlns="http://www.w3.org/2000/svg" xmlns:xlink="http://www.w3.org/1999/xlink" x="0px" y="0px"
	 viewBox="0 0 270 350" style="enable-background:new 0 0 270 350;" xml:space="preserve">
<style type="text/css">
	.st0{fill:#009C3B;}
</style>
<g>
	<path class="st0" d="M215.7,98.9c0-6-1.5-11.8-4.2-16.3c-1.1-1.8-1.1-3.9,0-5.7c2.7-4.5,4.2-10.3,4.2-16.3
		c0-14.1-7.9-25.2-18.1-25.2c-10.1,0-18.1,11-18.1,25.2c0,6,1.5,11.8,4.2,16.3c1.1,1.8,1.1,3.9,0,5.7c-2.5,4.2-4,9.5-4.2,15.1
		c0,0-0.1-0.1-0.1-0.1c-4.2-4.2-9.4-7.3-14.5-8.5c-2-0.5-3.5-2-4-4c-1.3-5.1-4.3-10.3-8.5-14.5c-1.4-1.4-2.9-2.7-4.4-3.7
		c-4.4-3.2-9.2-5-13.6-5.4c-4.4,0.4-9.2,2.2-13.6,5.4c-1.5,1.1-3,2.3-4.4,3.7c-4.2,4.2-7.3,9.4-8.5,14.5c-0.5,2-2,3.5-4,4
		c-5.1,1.3-10.3,4.3-14.5,8.5c0,0-0.1,0.1-0.1,0.1C89,92.1,87.5,86.8,85,82.6c-1.1-1.8-1.1-3.9,0-5.7c2.7-4.5,4.2-10.3,4.2-16.3
		c0-14.1-7.9-25.2-18.1-25.2C61,35.5,53,46.5,53,60.6c0,6,1.5,11.8,4.2,16.3c1.1,1.8,1.1,3.9,0,5.7C54.5,87.1,53,92.9,53,98.9
		c0,6,1.5,11.8,4.2,16.3c1.1,1.8,1.1,3.9,0,5.7c-2.7,4.5-4.2,10.3-4.2,16.3c0,14.1,7.9,25.2,18.1,25.2c6.1,0,11.4-4,14.6-10.2
		c0.7-0.6,1.4-1.2,2.1-1.9c4.2-4.2,7.3-9.4,8.5-14.5c0.5-2,2-3.5,4-4c5.1-1.3,10.3-4.3,14.5-8.5c4.2-4.2,7.3-9.4,8.5-14.5
		c0.5-2,2-3.5,4-4c2.4-0.6,4.7-1.5,7-2.8c2.3,1.3,4.6,2.2,7,2.8c2,0.5,3.5,2,4,4c1.3,5.1,4.3,10.3,8.5,14.5
		c4.2,4.2,9.4,7.3,14.5,8.5c2,0.5,3.5,2,4,4c1.3,5.1,4.3,10.3,8.5,14.5c0.7,0.7,1.4,1.2,2,1.8c3.3,6.3,8.6,10.3,14.7,10.3
		c10.1,0,18.1-11,18.1-25.2c0-6-1.5-11.8-4.2-16.3c-1.1-1.8-1.1-3.9,0-5.7C214.2,110.6,215.7,104.9,215.7,98.9z M71.1,154.1
		c-5.3,0-9.9-7.9-9.9-17c0-4.5,1.1-8.8,3.1-12c2.6-4.4,2.6-9.8,0-14.2c-2-3.2-3.1-7.5-3.1-12s1.1-8.8,3.1-12c2.6-4.4,2.6-9.8,0-14.2
		c-2-3.2-3.1-7.5-3.1-12c0-9,4.6-17,9.9-17c5.3,0,9.9,7.9,9.9,17c0,4.5-1.1,8.8-3.1,12c-2.6,4.4-2.6,9.8,0,14.2
		c2,3.2,3.1,7.5,3.1,12s-1.1,8.8-3.1,12c-2.6,4.4-2.6,9.8,0,14.2c2,3.2,3.1,7.5,3.1,12C81,146.2,76.4,154.1,71.1,154.1z
		 M170.3,123.7c-3.7-0.9-7.5-3.2-10.7-6.4c-3.2-3.2-5.4-7-6.4-10.7c-1.2-5-5.1-8.8-10-10c-0.5-0.1-1-0.3-1.5-0.5
		c-2.5-0.9-5.1-2.4-7.4-4.3c-2.3,2-4.9,3.4-7.4,4.3c-0.5,0.2-1,0.3-1.5,0.5c-5,1.2-8.8,5.1-10,10c-0.9,3.7-3.2,7.5-6.4,10.7
		c-3.2,3.2-7,5.4-10.7,6.4c-4.5,1.1-8,4.3-9.6,8.6c-0.6-4.2-1.9-8.1-3.9-11.4c0-0.1-0.1-0.2-0.1-0.2c1.9-1.8,3.2-4,3.9-6.6
		c0.9-3.7,3.2-7.5,6.4-10.7c3.2-3.2,7-5.4,10.7-6.4c5-1.2,8.8-5.1,10-10c0.5-1.9,1.3-3.9,2.5-5.8c1.1-1.7,2.4-3.4,3.9-4.9
		c1.4-1.4,3-2.6,4.5-3.6c2.6-1.6,5.3-2.7,7.7-3c2.4,0.3,5.1,1.4,7.7,3c1.6,1,3.1,2.2,4.5,3.6c1.5,1.5,2.8,3.2,3.9,4.9
		c1.1,1.9,2,3.8,2.5,5.8c1.2,5,5.1,8.8,10,10c3.7,0.9,7.5,3.2,10.7,6.4c3.2,3.2,5.4,7,6.4,10.7c0.6,2.6,2,4.9,3.9,6.6
		c0,0.1-0.1,0.2-0.1,0.2c-2,3.3-3.3,7.2-3.9,11.4C178.3,128,174.8,124.8,170.3,123.7z M204.5,86.8c2,3.2,3.1,7.5,3.1,12
		s-1.1,8.8-3.1,12c-2.6,4.4-2.6,9.8,0,14.2c2,3.2,3.1,7.5,3.1,12c0,9-4.6,17-9.9,17c-5.3,0-9.9-7.9-9.9-17c0-4.5,1.1-8.8,3.1-12
		c2.6-4.4,2.6-9.8,0-14.2c-2-3.2-3.1-7.5-3.1-12s1.1-8.8,3.1-12c2.6-4.4,2.6-9.8,0-14.2c-2-3.2-3.1-7.5-3.1-12c0-9,4.6-17,9.9-17
		c5.3,0,9.9,7.9,9.9,17c0,4.5-1.1,8.8-3.1,12C201.8,77,201.8,82.5,204.5,86.8z"/>
	<path class="st0" d="M53,240.9c0,6,1.5,11.8,4.2,16.3c1.1,1.8,1.1,3.9,0,5.7c-2.7,4.5-4.2,10.3-4.2,16.3c0,14.1,7.9,25.2,18.1,25.2
		c10.1,0,18.1-11,18.1-25.2c0-6-1.5-11.8-4.2-16.3c-1.1-1.8-1.1-3.9,0-5.7c2.5-4.2,4-9.5,4.2-15.1c0,0,0.1,0.1,0.1,0.1
		c4.2,4.2,9.4,7.3,14.5,8.5c2,0.5,3.5,2,4,4c1.3,5.1,4.3,10.3,8.5,14.5c1.4,1.4,2.9,2.7,4.4,3.7c4.4,3.2,9.2,5,13.6,5.4
		c4.4-0.4,9.2-2.2,13.6-5.4c1.5-1.1,3-2.3,4.4-3.7c4.2-4.2,7.3-9.4,8.5-14.5c0.5-2,2-3.5,4-4c5.1-1.3,10.3-4.3,14.5-8.5
		c0,0,0.1-0.1,0.1-0.1c0.2,5.6,1.6,10.9,4.2,15.1c1.1,1.8,1.1,3.9,0,5.7c-2.7,4.5-4.2,10.3-4.2,16.3c0,14.1,7.9,25.2,18.1,25.2
		c10.1,0,18.1-11,18.1-25.2c0-6-1.5-11.8-4.2-16.3c-1.1-1.8-1.1-3.9,0-5.7c2.7-4.5,4.2-10.3,4.2-16.3c0-6-1.5-11.8-4.2-16.3
		c-1.1-1.8-1.1-3.9,0-5.7c2.7-4.5,4.2-10.3,4.2-16.3c0-14.1-7.9-25.2-18.1-25.2c-6.1,0-11.4,4-14.6,10.2c-0.7,0.6-1.4,1.2-2.1,1.9
		c-4.2,4.2-7.3,9.4-8.5,14.5c-0.5,2-2,3.5-4,4c-5.1,1.3-10.3,4.3-14.5,8.5c-4.2,4.2-7.3,9.4-8.5,14.5c-0.5,2-2,3.5-4,4
		c-2.4,0.6-4.7,1.5-7,2.8c-2.3-1.3-4.6-2.2-7-2.8c-2-0.5-3.5-2-4-4c-1.3-5.1-4.3-10.3-8.5-14.5c-4.2-4.2-9.4-7.3-14.5-8.5
		c-2-0.5-3.5-2-4-4c-1.3-5.1-4.3-10.3-8.5-14.5c-0.7-0.7-1.4-1.2-2-1.8c-3.3-6.3-8.6-10.3-14.7-10.3c-10.1,0-18.1,11-18.1,25.2
		c0,6,1.5,11.8,4.2,16.3c1.1,1.8,1.1,3.9,0,5.7C54.5,229.2,53,234.9,53,240.9z M197.6,185.7c5.3,0,9.9,7.9,9.9,17
		c0,4.5-1.1,8.8-3.1,12c-2.6,4.4-2.6,9.8,0,14.2c2,3.2,3.1,7.5,3.1,12c0,4.5-1.1,8.8-3.1,12c-2.6,4.4-2.6,9.8,0,14.2
		c2,3.2,3.1,7.5,3.1,12c0,9-4.6,17-9.9,17c-5.3,0-9.9-7.9-9.9-17c0-4.5,1.1-8.8,3.1-12c2.6-4.4,2.6-9.8,0-14.2
		c-2-3.2-3.1-7.5-3.1-12c0-4.5,1.1-8.8,3.1-12c2.6-4.4,2.6-9.8,0-14.2c-2-3.2-3.1-7.5-3.1-12C187.7,193.6,192.3,185.7,197.6,185.7z
		 M98.4,216.1c3.7,0.9,7.5,3.2,10.7,6.4c3.2,3.2,5.4,7,6.4,10.7c1.2,5,5.1,8.8,10,10c0.5,0.1,1,0.3,1.5,0.5c2.5,0.9,5.1,2.4,7.4,4.3
		c2.3-2,4.9-3.4,7.4-4.3c0.5-0.2,1-0.3,1.5-0.5c5-1.2,8.8-5.1,10-10c0.9-3.7,3.2-7.5,6.4-10.7c3.2-3.2,7-5.4,10.7-6.4
		c4.5-1.1,8-4.3,9.6-8.6c0.6,4.2,1.9,8.1,3.9,11.4c0,0.1,0.1,0.2,0.1,0.2c-1.9,1.8-3.2,4-3.9,6.6c-0.9,3.7-3.2,7.5-6.4,10.7
		c-3.2,3.2-7,5.4-10.7,6.4c-5,1.2-8.8,5.1-10,10c-0.5,1.9-1.3,3.9-2.5,5.8c-1.1,1.7-2.4,3.4-3.9,4.9c-1.4,1.4-3,2.6-4.5,3.6
		c-2.6,1.6-5.3,2.7-7.7,3c-2.4-0.3-5.1-1.4-7.7-3c-1.6-1-3.1-2.2-4.5-3.6c-1.5-1.5-2.8-3.2-3.9-4.9c-1.1-1.9-2-3.8-2.5-5.8
		c-1.2-5-5.1-8.8-10-10c-3.7-0.9-7.5-3.2-10.7-6.4c-3.2-3.2-5.4-7-6.4-10.7c-0.6-2.6-2-4.9-3.9-6.6c0-0.1,0.1-0.2,0.1-0.2
		c2-3.3,3.3-7.2,3.9-11.4C90.4,211.8,93.9,215,98.4,216.1z M64.3,253c-2-3.2-3.1-7.5-3.1-12c0-4.5,1.1-8.8,3.1-12
		c2.6-4.4,2.6-9.8,0-14.2c-2-3.2-3.1-7.5-3.1-12c0-9,4.6-17,9.9-17c5.3,0,9.9,7.9,9.9,17c0,4.5-1.1,8.8-3.1,12
		c-2.6,4.4-2.6,9.8,0,14.2c2,3.2,3.1,7.5,3.1,12c0,4.5-1.1,8.8-3.1,12c-2.6,4.4-2.6,9.8,0,14.2c2,3.2,3.1,7.5,3.1,12
		c0,9-4.6,17-9.9,17c-5.3,0-9.9-7.9-9.9-17c0-4.5,1.1-8.8,3.1-12C66.9,262.8,66.9,257.3,64.3,253z"/>
</g>
</svg>
