<?xml version="1.0" encoding="utf-8"?>
<!-- Generator: Adobe Illustrator 24.2.3, SVG Export Plug-In . SVG Version: 6.00 Build 0)  -->
<svg version="1.1" id="图层_1" xmlns="http://www.w3.org/2000/svg" xmlns:xlink="http://www.w3.org/1999/xlink" x="0px" y="0px"
	 viewBox="0 0 270 350" style="enable-background:new 0 0 270 350;" xml:space="preserve">
<style type="text/css">
	.st0{fill:#DF0514;}
	.st1{fill:#004B9F;}
	.st2{fill:#009C3B;}
</style>
<g>
	<g>
		<path class="st0" d="M138.9,124.4c-7.1,0-12.7-7.7-12.7-17.6c0-4.2,1.1-8.3,3-11.4c0.8-1.2,0.8-2.7,0-4c-1.9-3.2-3-7.2-3-11.4
			c0-4.2,1.1-8.3,3-11.4c0.8-1.2,0.8-2.7,0-4c-1.9-3.2-3-7.2-3-11.4c0-9.9,5.6-17.6,12.7-17.6s12.7,7.7,12.7,17.6
			c0,4.2-1.1,8.3-3,11.4c-0.8,1.2-0.8,2.7,0,4c1.9,3.2,3,7.2,3,11.4c0,4.2-1.1,8.3-3,11.4c-0.8,1.2-0.8,2.7,0,4
			c1.9,3.2,3,7.2,3,11.4C151.6,116.6,146,124.4,138.9,124.4z M138.9,41.2c-3.7,0-6.9,5.6-6.9,11.9c0,3.2,0.8,6.2,2.1,8.4
			c1.9,3.1,1.9,6.9,0,9.9c-1.4,2.3-2.1,5.3-2.1,8.4s0.8,6.2,2.1,8.4c1.9,3.1,1.9,6.9,0,9.9c-1.4,2.3-2.1,5.3-2.1,8.4
			c0,6.3,3.2,11.9,6.9,11.9c3.7,0,6.9-5.6,6.9-11.9c0-3.2-0.8-6.2-2.1-8.4c-1.9-3.1-1.9-6.9,0-9.9c1.4-2.3,2.1-5.3,2.1-8.4
			s-0.8-6.2-2.1-8.4c-1.9-3.1-1.9-6.9,0-9.9c1.4-2.3,2.1-5.3,2.1-8.4C145.8,46.8,142.6,41.2,138.9,41.2z"/>
	</g>
	<g>
		<path class="st1" d="M138.9,222c-7.1,0-12.7-7.7-12.7-17.6c0-4.2,1.1-8.3,3-11.4c0.8-1.2,0.8-2.7,0-4c-1.9-3.2-3-7.2-3-11.4
			c0-4.2,1.1-8.3,3-11.4c0.8-1.2,0.8-2.7,0-4c-1.9-3.2-3-7.2-3-11.4c0-9.9,5.6-17.6,12.7-17.6s12.7,7.7,12.7,17.6
			c0,4.2-1.1,8.3-3,11.4c-0.8,1.2-0.8,2.7,0,4c1.9,3.2,3,7.2,3,11.4c0,4.2-1.1,8.3-3,11.4c-0.8,1.2-0.8,2.7,0,4
			c1.9,3.2,3,7.2,3,11.4C151.6,214.2,146,222,138.9,222z M138.9,138.8c-3.7,0-6.9,5.6-6.9,11.9c0,3.2,0.8,6.2,2.1,8.4
			c1.9,3.1,1.9,6.9,0,9.9c-1.4,2.3-2.1,5.3-2.1,8.4s0.8,6.2,2.1,8.4c1.9,3.1,1.9,6.9,0,9.9c-1.4,2.3-2.1,5.3-2.1,8.4
			c0,6.3,3.2,11.9,6.9,11.9c3.7,0,6.9-5.6,6.9-11.9c0-3.2-0.8-6.2-2.1-8.4c-1.9-3.1-1.9-6.9,0-9.9c1.4-2.3,2.1-5.3,2.1-8.4
			s-0.8-6.2-2.1-8.4c-1.9-3.1-1.9-6.9,0-9.9c1.4-2.3,2.1-5.3,2.1-8.4C145.8,144.4,142.6,138.8,138.9,138.8z"/>
	</g>
	<g>
		<path class="st1" d="M138.9,319.6c-7.1,0-12.7-7.7-12.7-17.6c0-4.2,1.1-8.3,3-11.4c0.8-1.2,0.8-2.7,0-4c-1.9-3.2-3-7.2-3-11.4
			c0-4.2,1.1-8.3,3-11.4c0.8-1.2,0.8-2.7,0-4c-1.9-3.2-3-7.2-3-11.4c0-9.9,5.6-17.6,12.7-17.6s12.7,7.7,12.7,17.6
			c0,4.2-1.1,8.3-3,11.4c-0.8,1.2-0.8,2.7,0,4c1.9,3.2,3,7.2,3,11.4c0,4.2-1.1,8.3-3,11.4c-0.8,1.2-0.8,2.7,0,4
			c1.9,3.2,3,7.2,3,11.4C151.6,311.8,146,319.6,138.9,319.6z M138.9,236.4c-3.7,0-6.9,5.6-6.9,11.9c0,3.2,0.8,6.2,2.1,8.4
			c1.9,3.1,1.9,6.9,0,9.9c-1.4,2.3-2.1,5.3-2.1,8.4s0.8,6.2,2.1,8.4c1.9,3.1,1.9,6.9,0,9.9c-1.4,2.3-2.1,5.3-2.1,8.4
			c0,6.3,3.2,11.9,6.9,11.9c3.7,0,6.9-5.6,6.9-11.9c0-3.2-0.8-6.2-2.1-8.4c-1.9-3.1-1.9-6.9,0-9.9c1.4-2.3,2.1-5.3,2.1-8.4
			s-0.8-6.2-2.1-8.4c-1.9-3.1-1.9-6.9,0-9.9c1.4-2.3,2.1-5.3,2.1-8.4C145.8,242,142.6,236.4,138.9,236.4z"/>
	</g>
	<g>
		<path class="st2" d="M198.7,222c-7.1,0-12.7-7.7-12.7-17.6c0-4.2,1.1-8.3,3-11.4c0.8-1.2,0.8-2.7,0-4c-1.9-3.2-3-7.2-3-11.4
			c0-4.2,1.1-8.3,3-11.4c0.8-1.2,0.8-2.7,0-4c-1.9-3.2-3-7.2-3-11.4c0-9.9,5.6-17.6,12.7-17.6s12.7,7.7,12.7,17.6
			c0,4.2-1.1,8.3-3,11.4c-0.8,1.2-0.8,2.7,0,4c1.9,3.2,3,7.2,3,11.4c0,4.2-1.1,8.3-3,11.4c-0.8,1.2-0.8,2.7,0,4
			c1.9,3.2,3,7.2,3,11.4C211.4,214.2,205.8,222,198.7,222z M198.7,138.8c-3.7,0-6.9,5.6-6.9,11.9c0,3.2,0.8,6.2,2.1,8.4
			c1.9,3.1,1.9,6.9,0,9.9c-1.4,2.3-2.1,5.3-2.1,8.4s0.8,6.2,2.1,8.4c1.9,3.1,1.9,6.9,0,9.9c-1.4,2.3-2.1,5.3-2.1,8.4
			c0,6.3,3.2,11.9,6.9,11.9c3.7,0,6.9-5.6,6.9-11.9c0-3.2-0.8-6.2-2.1-8.4c-1.9-3.1-1.9-6.9,0-9.9c1.4-2.3,2.1-5.3,2.1-8.4
			s-0.8-6.2-2.1-8.4c-1.9-3.1-1.9-6.9,0-9.9c1.4-2.3,2.1-5.3,2.1-8.4C205.6,144.4,202.4,138.8,198.7,138.8z"/>
	</g>
	<g>
		<path class="st2" d="M198.7,319.6c-7.1,0-12.7-7.7-12.7-17.6c0-4.2,1.1-8.3,3-11.4c0.8-1.2,0.8-2.7,0-4c-1.9-3.2-3-7.2-3-11.4
			c0-4.2,1.1-8.3,3-11.4c0.8-1.2,0.8-2.7,0-4c-1.9-3.2-3-7.2-3-11.4c0-9.9,5.6-17.6,12.7-17.6s12.7,7.7,12.7,17.6
			c0,4.2-1.1,8.3-3,11.4c-0.8,1.2-0.8,2.7,0,4c1.9,3.2,3,7.2,3,11.4c0,4.2-1.1,8.3-3,11.4c-0.8,1.2-0.8,2.7,0,4
			c1.9,3.2,3,7.2,3,11.4C211.4,311.8,205.8,319.6,198.7,319.6z M198.7,236.4c-3.7,0-6.9,5.6-6.9,11.9c0,3.2,0.8,6.2,2.1,8.4
			c1.9,3.1,1.9,6.9,0,9.9c-1.4,2.3-2.1,5.3-2.1,8.4s0.8,6.2,2.1,8.4c1.9,3.1,1.9,6.9,0,9.9c-1.4,2.3-2.1,5.3-2.1,8.4
			c0,6.3,3.2,11.9,6.9,11.9c3.7,0,6.9-5.6,6.9-11.9c0-3.2-0.8-6.2-2.1-8.4c-1.9-3.1-1.9-6.9,0-9.9c1.4-2.3,2.1-5.3,2.1-8.4
			s-0.8-6.2-2.1-8.4c-1.9-3.1-1.9-6.9,0-9.9c1.4-2.3,2.1-5.3,2.1-8.4C205.6,242,202.4,236.4,198.7,236.4z"/>
	</g>
	<g>
		<path class="st2" d="M66.4,204.3c0-4.2,1.1-8.3,3-11.4c0.8-1.2,0.8-2.7,0-4c-1.9-3.2-3-7.2-3-11.4c0-4.2,1.1-8.3,3-11.4
			c0.8-1.2,0.8-2.7,0-4c-1.9-3.2-3-7.2-3-11.4c0-9.9,5.6-17.6,12.7-17.6c7.1,0,12.7,7.7,12.7,17.6c0,4.2-1.1,8.3-3,11.4
			c-0.8,1.2-0.8,2.7,0,4c1.9,3.2,3,7.2,3,11.4c0,4.2-1.1,8.3-3,11.4c-0.8,1.2-0.8,2.7,0,4c1.9,3.2,3,7.2,3,11.4
			c0,9.9-5.6,17.6-12.7,17.6C72,222,66.4,214.2,66.4,204.3z M72.1,150.7c0,3.2,0.8,6.2,2.1,8.4c1.9,3.1,1.9,6.9,0,9.9
			c-1.4,2.3-2.1,5.3-2.1,8.4s0.8,6.2,2.1,8.4c1.9,3.1,1.9,6.9,0,9.9c-1.4,2.3-2.1,5.3-2.1,8.4c0,6.3,3.2,11.9,6.9,11.9
			s6.9-5.6,6.9-11.9c0-3.2-0.8-6.2-2.1-8.4c-1.9-3.1-1.9-6.9,0-9.9c1.4-2.3,2.1-5.3,2.1-8.4s-0.8-6.2-2.1-8.4
			c-1.9-3.1-1.9-6.9,0-9.9c1.4-2.3,2.1-5.3,2.1-8.4c0-6.3-3.2-11.9-6.9-11.9S72.1,144.4,72.1,150.7z"/>
	</g>
	<g>
		<path class="st2" d="M66.4,301.9c0-4.2,1.1-8.3,3-11.4c0.8-1.2,0.8-2.7,0-4c-1.9-3.2-3-7.2-3-11.4c0-4.2,1.1-8.3,3-11.4
			c0.8-1.2,0.8-2.7,0-4c-1.9-3.2-3-7.2-3-11.4c0-9.9,5.6-17.6,12.7-17.6c7.1,0,12.7,7.7,12.7,17.6c0,4.2-1.1,8.3-3,11.4
			c-0.8,1.2-0.8,2.7,0,4c1.9,3.2,3,7.2,3,11.4c0,4.2-1.1,8.3-3,11.4c-0.8,1.2-0.8,2.7,0,4c1.9,3.2,3,7.2,3,11.4
			c0,9.9-5.6,17.6-12.7,17.6C72,319.6,66.4,311.8,66.4,301.9z M72.1,248.3c0,3.2,0.8,6.2,2.1,8.4c1.9,3.1,1.9,6.9,0,9.9
			c-1.4,2.3-2.1,5.3-2.1,8.4s0.8,6.2,2.1,8.4c1.9,3.1,1.9,6.9,0,9.9c-1.4,2.3-2.1,5.3-2.1,8.4c0,6.3,3.2,11.9,6.9,11.9
			s6.9-5.6,6.9-11.9c0-3.2-0.8-6.2-2.1-8.4c-1.9-3.1-1.9-6.9,0-9.9c1.4-2.3,2.1-5.3,2.1-8.4s-0.8-6.2-2.1-8.4
			c-1.9-3.1-1.9-6.9,0-9.9c1.4-2.3,2.1-5.3,2.1-8.4c0-6.3-3.2-11.9-6.9-11.9S72.1,242,72.1,248.3z"/>
	</g>
</g>
</svg>
