<?xml version="1.0" encoding="utf-8"?>
<!-- Generator: Adobe Illustrator 24.2.3, SVG Export Plug-In . SVG Version: 6.00 Build 0)  -->
<svg version="1.1" id="图层_1" xmlns="http://www.w3.org/2000/svg" xmlns:xlink="http://www.w3.org/1999/xlink" x="0px" y="0px"
	 viewBox="0 0 270 350" style="enable-background:new 0 0 270 350;" xml:space="preserve">
<style type="text/css">
	.st0{fill:#009C3B;}
	.st1{fill:#DF0514;}
</style>
<g>
	<g>
		<path class="st0" d="M80.8,124.4c-7.1,0-12.7-7.7-12.7-17.6c0-4.2,1.1-8.3,3-11.4c0.8-1.2,0.8-2.7,0-4c-1.9-3.2-3-7.2-3-11.4
			c0-4.2,1.1-8.3,3-11.4c0.8-1.2,0.8-2.7,0-4c-1.9-3.2-3-7.2-3-11.4c0-9.9,5.6-17.6,12.7-17.6c7.1,0,12.7,7.7,12.7,17.6
			c0,4.2-1.1,8.3-3,11.4c-0.8,1.2-0.8,2.7,0,4c1.9,3.2,3,7.2,3,11.4c0,4.2-1.1,8.3-3,11.4c-0.8,1.2-0.8,2.7,0,4
			c1.9,3.2,3,7.2,3,11.4C93.5,116.6,87.9,124.4,80.8,124.4z M80.8,41.2c-3.7,0-6.9,5.6-6.9,11.9c0,3.2,0.8,6.2,2.1,8.4
			c1.9,3.1,1.9,6.9,0,9.9c-1.4,2.3-2.1,5.3-2.1,8.4s0.8,6.2,2.1,8.4c1.9,3.1,1.9,6.9,0,9.9c-1.4,2.3-2.1,5.3-2.1,8.4
			c0,6.3,3.2,11.9,6.9,11.9c3.7,0,6.9-5.6,6.9-11.9c0-3.2-0.8-6.2-2.1-8.4c-1.9-3.1-1.9-6.9,0-9.9c1.4-2.3,2.1-5.3,2.1-8.4
			s-0.8-6.2-2.1-8.4c-1.9-3.1-1.9-6.9,0-9.9c1.4-2.3,2.1-5.3,2.1-8.4C87.7,46.8,84.5,41.2,80.8,41.2z"/>
	</g>
	<g>
		<path class="st0" d="M80.8,222c-7.1,0-12.7-7.7-12.7-17.6c0-4.2,1.1-8.3,3-11.4c0.8-1.2,0.8-2.7,0-4c-1.9-3.2-3-7.2-3-11.4
			c0-4.2,1.1-8.3,3-11.4c0.8-1.2,0.8-2.7,0-4c-1.9-3.2-3-7.2-3-11.4c0-9.9,5.6-17.6,12.7-17.6c7.1,0,12.7,7.7,12.7,17.6
			c0,4.2-1.1,8.3-3,11.4c-0.8,1.2-0.8,2.7,0,4c1.9,3.2,3,7.2,3,11.4c0,4.2-1.1,8.3-3,11.4c-0.8,1.2-0.8,2.7,0,4
			c1.9,3.2,3,7.2,3,11.4C93.5,214.2,87.9,222,80.8,222z M80.8,138.8c-3.7,0-6.9,5.6-6.9,11.9c0,3.2,0.8,6.2,2.1,8.4
			c1.9,3.1,1.9,6.9,0,9.9c-1.4,2.3-2.1,5.3-2.1,8.4s0.8,6.2,2.1,8.4c1.9,3.1,1.9,6.9,0,9.9c-1.4,2.3-2.1,5.3-2.1,8.4
			c0,6.3,3.2,11.9,6.9,11.9c3.7,0,6.9-5.6,6.9-11.9c0-3.2-0.8-6.2-2.1-8.4c-1.9-3.1-1.9-6.9,0-9.9c1.4-2.3,2.1-5.3,2.1-8.4
			s-0.8-6.2-2.1-8.4c-1.9-3.1-1.9-6.9,0-9.9c1.4-2.3,2.1-5.3,2.1-8.4C87.7,144.4,84.5,138.8,80.8,138.8z"/>
	</g>
	<g>
		<path class="st0" d="M80.8,319.6c-7.1,0-12.7-7.7-12.7-17.6c0-4.2,1.1-8.3,3-11.4c0.8-1.2,0.8-2.7,0-4c-1.9-3.2-3-7.2-3-11.4
			c0-4.2,1.1-8.3,3-11.4c0.8-1.2,0.8-2.7,0-4c-1.9-3.2-3-7.2-3-11.4c0-9.9,5.6-17.6,12.7-17.6c7.1,0,12.7,7.7,12.7,17.6
			c0,4.2-1.1,8.3-3,11.4c-0.8,1.2-0.8,2.7,0,4c1.9,3.2,3,7.2,3,11.4c0,4.2-1.1,8.3-3,11.4c-0.8,1.2-0.8,2.7,0,4
			c1.9,3.2,3,7.2,3,11.4C93.5,311.8,87.9,319.6,80.8,319.6z M80.8,236.4c-3.7,0-6.9,5.6-6.9,11.9c0,3.2,0.8,6.2,2.1,8.4
			c1.9,3.1,1.9,6.9,0,9.9c-1.4,2.3-2.1,5.3-2.1,8.4s0.8,6.2,2.1,8.4c1.9,3.1,1.9,6.9,0,9.9c-1.4,2.3-2.1,5.3-2.1,8.4
			c0,6.3,3.2,11.9,6.9,11.9c3.7,0,6.9-5.6,6.9-11.9c0-3.2-0.8-6.2-2.1-8.4c-1.9-3.1-1.9-6.9,0-9.9c1.4-2.3,2.1-5.3,2.1-8.4
			s-0.8-6.2-2.1-8.4c-1.9-3.1-1.9-6.9,0-9.9c1.4-2.3,2.1-5.3,2.1-8.4C87.7,242,84.5,236.4,80.8,236.4z"/>
	</g>
	<g>
		<path class="st1" d="M138.8,124.4c-7.1,0-12.7-7.7-12.7-17.6c0-4.2,1.1-8.3,3-11.4c0.8-1.2,0.8-2.7,0-4c-1.9-3.2-3-7.2-3-11.4
			c0-4.2,1.1-8.3,3-11.4c0.8-1.2,0.8-2.7,0-4c-1.9-3.2-3-7.2-3-11.4c0-9.9,5.6-17.6,12.7-17.6s12.7,7.7,12.7,17.6
			c0,4.2-1.1,8.3-3,11.4c-0.8,1.2-0.8,2.7,0,4c1.9,3.2,3,7.2,3,11.4c0,4.2-1.1,8.3-3,11.4c-0.8,1.2-0.8,2.7,0,4
			c1.9,3.2,3,7.2,3,11.4C151.4,116.6,145.9,124.4,138.8,124.4z M138.8,41.2c-3.7,0-6.9,5.6-6.9,11.9c0,3.2,0.8,6.2,2.1,8.4
			c1.9,3.1,1.9,6.9,0,9.9c-1.4,2.3-2.1,5.3-2.1,8.4s0.8,6.2,2.1,8.4c1.9,3.1,1.9,6.9,0,9.9c-1.4,2.3-2.1,5.3-2.1,8.4
			c0,6.3,3.2,11.9,6.9,11.9c3.7,0,6.9-5.6,6.9-11.9c0-3.2-0.8-6.2-2.1-8.4c-1.9-3.1-1.9-6.9,0-9.9c1.4-2.3,2.1-5.3,2.1-8.4
			s-0.8-6.2-2.1-8.4c-1.9-3.1-1.9-6.9,0-9.9c1.4-2.3,2.1-5.3,2.1-8.4C145.7,46.8,142.5,41.2,138.8,41.2z"/>
	</g>
	<g>
		<path class="st1" d="M138.8,222c-7.1,0-12.7-7.7-12.7-17.6c0-4.2,1.1-8.3,3-11.4c0.8-1.2,0.8-2.7,0-4c-1.9-3.2-3-7.2-3-11.4
			c0-4.2,1.1-8.3,3-11.4c0.8-1.2,0.8-2.7,0-4c-1.9-3.2-3-7.2-3-11.4c0-9.9,5.6-17.6,12.7-17.6s12.7,7.7,12.7,17.6
			c0,4.2-1.1,8.3-3,11.4c-0.8,1.2-0.8,2.7,0,4c1.9,3.2,3,7.2,3,11.4c0,4.2-1.1,8.3-3,11.4c-0.8,1.2-0.8,2.7,0,4
			c1.9,3.2,3,7.2,3,11.4C151.4,214.2,145.9,222,138.8,222z M138.8,138.8c-3.7,0-6.9,5.6-6.9,11.9c0,3.2,0.8,6.2,2.1,8.4
			c1.9,3.1,1.9,6.9,0,9.9c-1.4,2.3-2.1,5.3-2.1,8.4s0.8,6.2,2.1,8.4c1.9,3.1,1.9,6.9,0,9.9c-1.4,2.3-2.1,5.3-2.1,8.4
			c0,6.3,3.2,11.9,6.9,11.9c3.7,0,6.9-5.6,6.9-11.9c0-3.2-0.8-6.2-2.1-8.4c-1.9-3.1-1.9-6.9,0-9.9c1.4-2.3,2.1-5.3,2.1-8.4
			s-0.8-6.2-2.1-8.4c-1.9-3.1-1.9-6.9,0-9.9c1.4-2.3,2.1-5.3,2.1-8.4C145.7,144.4,142.5,138.8,138.8,138.8z"/>
	</g>
	<g>
		<path class="st1" d="M138.8,319.6c-7.1,0-12.7-7.7-12.7-17.6c0-4.2,1.1-8.3,3-11.4c0.8-1.2,0.8-2.7,0-4c-1.9-3.2-3-7.2-3-11.4
			c0-4.2,1.1-8.3,3-11.4c0.8-1.2,0.8-2.7,0-4c-1.9-3.2-3-7.2-3-11.4c0-9.9,5.6-17.6,12.7-17.6s12.7,7.7,12.7,17.6
			c0,4.2-1.1,8.3-3,11.4c-0.8,1.2-0.8,2.7,0,4c1.9,3.2,3,7.2,3,11.4c0,4.2-1.1,8.3-3,11.4c-0.8,1.2-0.8,2.7,0,4
			c1.9,3.2,3,7.2,3,11.4C151.4,311.8,145.9,319.6,138.8,319.6z M138.8,236.4c-3.7,0-6.9,5.6-6.9,11.9c0,3.2,0.8,6.2,2.1,8.4
			c1.9,3.1,1.9,6.9,0,9.9c-1.4,2.3-2.1,5.3-2.1,8.4s0.8,6.2,2.1,8.4c1.9,3.1,1.9,6.9,0,9.9c-1.4,2.3-2.1,5.3-2.1,8.4
			c0,6.3,3.2,11.9,6.9,11.9c3.7,0,6.9-5.6,6.9-11.9c0-3.2-0.8-6.2-2.1-8.4c-1.9-3.1-1.9-6.9,0-9.9c1.4-2.3,2.1-5.3,2.1-8.4
			s-0.8-6.2-2.1-8.4c-1.9-3.1-1.9-6.9,0-9.9c1.4-2.3,2.1-5.3,2.1-8.4C145.7,242,142.5,236.4,138.8,236.4z"/>
	</g>
	<g>
		<path class="st0" d="M196.7,124.4c-7.1,0-12.7-7.7-12.7-17.6c0-4.2,1.1-8.3,3-11.4c0.8-1.2,0.8-2.7,0-4c-1.9-3.2-3-7.2-3-11.4
			c0-4.2,1.1-8.3,3-11.4c0.8-1.2,0.8-2.7,0-4c-1.9-3.2-3-7.2-3-11.4c0-9.9,5.6-17.6,12.7-17.6s12.7,7.7,12.7,17.6
			c0,4.2-1.1,8.3-3,11.4c-0.8,1.2-0.8,2.7,0,4c1.9,3.2,3,7.2,3,11.4c0,4.2-1.1,8.3-3,11.4c-0.8,1.2-0.8,2.7,0,4
			c1.9,3.2,3,7.2,3,11.4C209.4,116.6,203.9,124.4,196.7,124.4z M196.7,41.2c-3.7,0-6.9,5.6-6.9,11.9c0,3.2,0.8,6.2,2.1,8.4
			c1.9,3.1,1.9,6.9,0,9.9c-1.4,2.3-2.1,5.3-2.1,8.4s0.8,6.2,2.1,8.4c1.9,3.1,1.9,6.9,0,9.9c-1.4,2.3-2.1,5.3-2.1,8.4
			c0,6.3,3.2,11.9,6.9,11.9c3.7,0,6.9-5.6,6.9-11.9c0-3.2-0.8-6.2-2.1-8.4c-1.9-3.1-1.9-6.9,0-9.9c1.4-2.3,2.1-5.3,2.1-8.4
			s-0.8-6.2-2.1-8.4c-1.9-3.1-1.9-6.9,0-9.9c1.4-2.3,2.1-5.3,2.1-8.4C203.7,46.8,200.4,41.2,196.7,41.2z"/>
	</g>
	<g>
		<path class="st0" d="M196.7,222c-7.1,0-12.7-7.7-12.7-17.6c0-4.2,1.1-8.3,3-11.4c0.8-1.2,0.8-2.7,0-4c-1.9-3.2-3-7.2-3-11.4
			c0-4.2,1.1-8.3,3-11.4c0.8-1.2,0.8-2.7,0-4c-1.9-3.2-3-7.2-3-11.4c0-9.9,5.6-17.6,12.7-17.6s12.7,7.7,12.7,17.6
			c0,4.2-1.1,8.3-3,11.4c-0.8,1.2-0.8,2.7,0,4c1.9,3.2,3,7.2,3,11.4c0,4.2-1.1,8.3-3,11.4c-0.8,1.2-0.8,2.7,0,4
			c1.9,3.2,3,7.2,3,11.4C209.4,214.2,203.9,222,196.7,222z M196.7,138.8c-3.7,0-6.9,5.6-6.9,11.9c0,3.2,0.8,6.2,2.1,8.4
			c1.9,3.1,1.9,6.9,0,9.9c-1.4,2.3-2.1,5.3-2.1,8.4s0.8,6.2,2.1,8.4c1.9,3.1,1.9,6.9,0,9.9c-1.4,2.3-2.1,5.3-2.1,8.4
			c0,6.3,3.2,11.9,6.9,11.9c3.7,0,6.9-5.6,6.9-11.9c0-3.2-0.8-6.2-2.1-8.4c-1.9-3.1-1.9-6.9,0-9.9c1.4-2.3,2.1-5.3,2.1-8.4
			s-0.8-6.2-2.1-8.4c-1.9-3.1-1.9-6.9,0-9.9c1.4-2.3,2.1-5.3,2.1-8.4C203.7,144.4,200.4,138.8,196.7,138.8z"/>
	</g>
	<g>
		<path class="st0" d="M196.7,319.6c-7.1,0-12.7-7.7-12.7-17.6c0-4.2,1.1-8.3,3-11.4c0.8-1.2,0.8-2.7,0-4c-1.9-3.2-3-7.2-3-11.4
			c0-4.2,1.1-8.3,3-11.4c0.8-1.2,0.8-2.7,0-4c-1.9-3.2-3-7.2-3-11.4c0-9.9,5.6-17.6,12.7-17.6s12.7,7.7,12.7,17.6
			c0,4.2-1.1,8.3-3,11.4c-0.8,1.2-0.8,2.7,0,4c1.9,3.2,3,7.2,3,11.4c0,4.2-1.1,8.3-3,11.4c-0.8,1.2-0.8,2.7,0,4
			c1.9,3.2,3,7.2,3,11.4C209.4,311.8,203.9,319.6,196.7,319.6z M196.7,236.4c-3.7,0-6.9,5.6-6.9,11.9c0,3.2,0.8,6.2,2.1,8.4
			c1.9,3.1,1.9,6.9,0,9.9c-1.4,2.3-2.1,5.3-2.1,8.4s0.8,6.2,2.1,8.4c1.9,3.1,1.9,6.9,0,9.9c-1.4,2.3-2.1,5.3-2.1,8.4
			c0,6.3,3.2,11.9,6.9,11.9c3.7,0,6.9-5.6,6.9-11.9c0-3.2-0.8-6.2-2.1-8.4c-1.9-3.1-1.9-6.9,0-9.9c1.4-2.3,2.1-5.3,2.1-8.4
			s-0.8-6.2-2.1-8.4c-1.9-3.1-1.9-6.9,0-9.9c1.4-2.3,2.1-5.3,2.1-8.4C203.7,242,200.4,236.4,196.7,236.4z"/>
	</g>
</g>
</svg>
