<?xml version="1.0" encoding="utf-8"?>
<!-- Generator: Adobe Illustrator 24.2.3, SVG Export Plug-In . SVG Version: 6.00 Build 0)  -->
<svg version="1.1" id="图层_1" xmlns="http://www.w3.org/2000/svg" xmlns:xlink="http://www.w3.org/1999/xlink" x="0px" y="0px"
	 viewBox="0 0 270 350" style="enable-background:new 0 0 270 350;" xml:space="preserve">
<style type="text/css">
	.st0{fill:#009C3B;}
</style>
<g>
	<g>
		<path class="st0" d="M135.4,170.6c-10.8,0-19.3-11.8-19.3-26.8c0-6.4,1.6-12.5,4.5-17.3c1.1-1.9,1.1-4.2,0-6.1
			c-2.9-4.8-4.5-11-4.5-17.3c0-6.4,1.6-12.5,4.5-17.3c1.1-1.9,1.1-4.2,0-6.1c-2.9-4.8-4.5-11-4.5-17.3c0-15,8.5-26.8,19.3-26.8
			s19.3,11.8,19.3,26.8c0,6.4-1.6,12.5-4.5,17.3c-1.1,1.9-1.1,4.2,0,6.1c2.9,4.8,4.5,11,4.5,17.3c0,6.4-1.6,12.5-4.5,17.3
			c-1.1,1.9-1.1,4.2,0,6.1c2.9,4.8,4.5,11,4.5,17.3C154.6,158.8,146.2,170.6,135.4,170.6z M135.4,44.2c-5.6,0-10.5,8.5-10.5,18.1
			c0,4.8,1.2,9.4,3.3,12.8c2.8,4.7,2.8,10.4,0,15.1c-2.1,3.5-3.3,8-3.3,12.8c0,4.8,1.2,9.4,3.3,12.8c2.8,4.7,2.8,10.4,0,15.1
			c-2.1,3.5-3.3,8-3.3,12.8c0,9.6,4.9,18.1,10.5,18.1c5.6,0,10.5-8.5,10.5-18.1c0-4.8-1.2-9.4-3.3-12.8c-2.8-4.7-2.8-10.4,0-15.1
			c2.1-3.5,3.3-8,3.3-12.8c0-4.8-1.2-9.4-3.3-12.8c-2.8-4.7-2.8-10.4,0-15.1c2.1-3.5,3.3-8,3.3-12.8C145.9,52.7,141,44.2,135.4,44.2
			z"/>
	</g>
	<g>
		<path class="st0" d="M135.4,315.6c-10.8,0-19.3-11.8-19.3-26.8c0-6.4,1.6-12.5,4.5-17.3c1.1-1.9,1.1-4.2,0-6.1
			c-2.9-4.8-4.5-11-4.5-17.3c0-6.4,1.6-12.5,4.5-17.3c1.1-1.9,1.1-4.2,0-6.1c-2.9-4.8-4.5-11-4.5-17.3c0-15,8.5-26.8,19.3-26.8
			s19.3,11.8,19.3,26.8c0,6.4-1.6,12.5-4.5,17.3c-1.1,1.9-1.1,4.2,0,6.1c2.9,4.8,4.5,11,4.5,17.3c0,6.4-1.6,12.5-4.5,17.3
			c-1.1,1.9-1.1,4.2,0,6.1c2.9,4.8,4.5,11,4.5,17.3C154.6,303.8,146.2,315.6,135.4,315.6z M135.4,189.2c-5.6,0-10.5,8.5-10.5,18.1
			c0,4.8,1.2,9.4,3.3,12.8c2.8,4.7,2.8,10.4,0,15.1c-2.1,3.5-3.3,8-3.3,12.8c0,4.8,1.2,9.4,3.3,12.8c2.8,4.7,2.8,10.4,0,15.1
			c-2.1,3.5-3.3,8-3.3,12.8c0,9.6,4.9,18.1,10.5,18.1c5.6,0,10.5-8.5,10.5-18.1c0-4.8-1.2-9.4-3.3-12.8c-2.8-4.7-2.8-10.4,0-15.1
			c2.1-3.5,3.3-8,3.3-12.8c0-4.8-1.2-9.4-3.3-12.8c-2.8-4.7-2.8-10.4,0-15.1c2.1-3.5,3.3-8,3.3-12.8
			C145.9,197.6,141,189.2,135.4,189.2z"/>
	</g>
</g>
</svg>
