<?xml version="1.0" encoding="utf-8"?>
<!-- Generator: Adobe Illustrator 24.2.3, SVG Export Plug-In . SVG Version: 6.00 Build 0)  -->
<svg version="1.1" id="图层_1" xmlns="http://www.w3.org/2000/svg" xmlns:xlink="http://www.w3.org/1999/xlink" x="0px" y="0px"
	 viewBox="0 0 270 350" style="enable-background:new 0 0 270 350;" xml:space="preserve">
<style type="text/css">
	.st0{fill:#004B9F;}
	.st1{fill:#DF0514;}
	.st2{fill:#009C3B;}
</style>
<g>
	<g>
		<path class="st0" d="M94.1,95.2c-1.2,2-1.7,4.4-1.1,7c2,9.3,12.6,12.6,19.5,6.2c7.2-6.7,2.2-18.1-6.7-19.7
			C100.7,87.8,96.1,90.9,94.1,95.2z M102.9,94.5c5.2-1.4,8.6,4.9,6.3,9c-2.9,5.1-9.5,3.1-11.3-1.6c-0.1-0.2-0.1-0.4-0.2-0.6
			C98,98.2,99.6,95.4,102.9,94.5z"/>
		<path class="st0" d="M131.5,156.6c0.4,1,2.2,1,2.1-0.3c-1.4-11.1-3.2-22.1-5.5-33c-0.9-4.4-8.1-2.5-6.8,1.9
			C124.3,135.8,127.7,146.3,131.5,156.6z"/>
		<path class="st0" d="M115.4,130.5c1.4,9.1,5.1,17.7,7.5,26.6c0.3,1,1.9,0.8,1.8-0.2c-1.2-9.3-1-18.9-3.2-28
			C120.5,124.8,114.8,126.6,115.4,130.5z"/>
		<path class="st0" d="M109.4,134.6c0.3,9.3,2,18.5,3.1,27.7c0.2,1.5,2.4,1.6,2.4,0c0-9.2,0.5-18.5-0.2-27.7
			C114.3,131.3,109.3,131.2,109.4,134.6z"/>
		<path class="st0" d="M102.6,129.1c-0.1,11.1,0.3,22.8,1.8,33.7c0.2,1.5,2.2,1.5,2.4,0c1.2-11,1.3-22.7,0.9-33.7
			C107.5,125.9,102.6,125.9,102.6,129.1z"/>
		<path class="st0" d="M95.7,130.8c-0.4,9.4-0.8,19.1,0.7,28.4c0.1,0.4,0.7,0.4,0.8,0c2.5-9.1,3.1-19,3.7-28.4
			C101.1,127.5,95.9,127.4,95.7,130.8z"/>
		<path class="st0" d="M91,122.6c-2.6,8.5-4.8,17.6-4.2,26.6c0,0.6,0.9,0.7,1.1,0.1c2.6-8.5,4.3-17.2,7.1-25.7
			C95.8,121.2,91.8,120.1,91,122.6z"/>
		<path class="st0" d="M228.5,125.3c-10.1,4.4-20.2,7.5-30.4,9.3c-9.9-2.5-18.3-10.9-25.8-19.1c0.3-0.1,0.5-0.2,0.8-0.3
			c-1.1-1-2.2-2.1-3.3-3.2c-0.1,0.1-0.2,0.2-0.4,0.3c-2.3-2.6-4.5-5-6.6-7.2c-2-2-3.7-3.8-5.7-5.2c0,0,0.1-0.1,0.1-0.1
			c-1.4-1-3-1.9-4.5-2.7c-0.1,0.1-0.2,0.2-0.2,0.3c-0.3-0.1-0.6-0.2-1-0.3c-4.9-1.5-9.4,3.6-14.2,4.5c-0.8-3.4-1.8-6.5-3.1-9.2
			C129,81,118.4,77.1,107.2,75.9c-0.3,2.6-1.5,5.1-3.4,6.9c8.7,0.6,16.7,2.7,22.3,10.6c5.6,7.9,6.2,19.1,8.1,28.3
			c2.4,11.9,8.3,22.6,19.4,27.1c-8.6,9.5-17.9,18.2-30.2,23c-8,3.1-16.2,3.1-23.3,0.6c-0.7-0.9-1.9-1.4-3-1.3
			c-8.2-4.1-14.1-12.1-14.5-23.2c-0.8-19.5,17.8-48.6,0.3-64.4c-0.3,0.1-0.6,0.2-0.9,0.5c-1,0.8-1.3,2.1-1.8,3.2
			c0,0,0.1-0.1,0.1-0.1c13.6,23.5-15,57.1,0.2,79.1c-5.3,2.4-7.1,8.3-7.3,14.6c0,1.3,0,2.6,0,3.9c2.2-0.2,4.5-0.3,6.8-0.3
			c0.1-5.3,0.9-10.3,4.6-13.6c1.1,1,2.3,2,3.7,3c1.7,1.2,3.5,2.2,5.2,3.1c-0.5,2.9-0.6,5.8-0.3,8.7c1.8,0.3,3.7,0.7,5.5,1.2
			c0.2-2.5,0.6-4.9,1.1-7.4c1.1,0.3,2.2,0.6,3.3,0.8c-0.1,0.1-0.1,0.3-0.1,0.4c-0.6,2.3-1.2,4.6-1.7,6.9c1.9,0.6,3.8,1.2,5.7,1.9
			c0.5-2.5,1-5,1.5-7.3c0.1-0.5,0.1-0.9,0-1.3c6.3,0.3,12.6-1.2,18.5-3.7c14.7,11.5,28.1,24.3,40,38.3c1.5-1.5,3.1-3,4.7-4.5
			c-7.4-8.5-15.5-16.4-24.2-23.6c5.2,1.9,10.6,2.8,15.9,2.2c0.9-0.1,1.2-1.1,0.4-1.6c-7.4-5-16.1-8.7-24.3-12.7
			c7.2,0.6,13.2,2.9,19.8,6.5c0.7,0.4,1.8-0.5,1.2-1.2c-4.6-6.2-12-10.1-19.6-11.5c0.3-0.2,0.7-0.5,1-0.7c2.2,1.3,4.7,2,7.1,2.8
			c2.5,0.8,4.9,1.4,7.5,1.5c0.8,0,1-0.9,0.6-1.5c-2.3-2.8-5.8-5.7-9.3-7.6c2.7-2.4,5.3-4.9,7.7-7.4c10.1,14.7,19.2,30,27.3,45.8
			c-0.3,0.2-0.6,0.5-0.9,0.7c2.4-1.8,4.9-3.6,7.4-5.2c-7.4-16.5-16-32.4-25.9-47.6c-0.4-0.6-0.9-1.1-1.4-1.5
			c0.4-1.6-0.2-3.4-2.1-3.9c-2.3-0.5-4.4-1.4-6.2-2.5c25.8,5.3,54.2-0.1,76.1-14C231.5,126.7,230.1,124.6,228.5,125.3z M138.7,107.6
			c6-0.7,11.2-3.9,17,0.1c-3.7,1.1-7.4,3.3-10.8,5c-1.5,0.7-3.1,1.5-4.7,2.4C139.7,112.5,139.2,110,138.7,107.6z M143.6,127.4
			c-1-2.7-1.8-5.6-2.5-8.5c1.9-0.7,3.7-1.5,5.5-2.2c4.4-1.6,9.4-2.6,13.3-5c0,0,0,0,0.1,0c1.2,1.2,2.5,2.5,3.7,3.7
			c-2.9,1.2-5.6,3-8.4,4.5C151.5,122,147,124.3,143.6,127.4z M146.2,133.4c-0.6-1-1.1-2-1.5-3.1c2.4-0.9,4.7-2.2,6.9-3.4
			c1.3,2,2.5,4,4.2,5.8c0.8,0.9,1.7,1.9,2.6,2.8C154.4,134.9,150.3,134.2,146.2,133.4z M166.7,136.2c-1.7-2.5-4.4-4.3-6.7-6.2
			c-2.1-1.7-4.3-2.9-6.6-4.2c0.8-0.5,1.7-0.9,2.5-1.3c1.3-0.7,2.8-1.2,4.2-1.7c5,4.2,9.6,8.8,13.8,13.7
			C171.5,136.4,169.1,136.3,166.7,136.2z M179.7,136.4c-5-5.7-10.6-10.5-16.8-14.7c1.7-0.7,3.4-1.4,5-2.3c3.2,3.1,6.4,6.2,9.7,9.3
			c3.1,2.9,6.4,5.4,10,7.2C184.9,136.2,182.3,136.4,179.7,136.4z"/>
		<path class="st1" d="M172.2,211.3c-0.1-0.2-0.3-0.3-0.4-0.5c-1.6,1.5-3.2,2.9-4.7,4.5c10.2,12,19.4,24.8,27.2,38.5
			c0.2,0.5,0.3,1.1,0.5,1.6c0.4,1.1,1,1.9,1.8,2.5c1.2,2.3,2.4,4.6,3.6,6.9c0.2,0.8,0.5,1.6,0.7,2.4c0.3,1,0.9,1.8,1.6,2.3
			c5.6,11.8,10.4,24.1,14.1,36.9c0.6,1.9,3.6,1.6,3.6-0.5c-0.6-27.6-10.4-55.4-19.6-81.1c-3.4-9.4-7.1-18.5-11.1-27.6
			c-2.5,1.7-5,3.4-7.4,5.2C178.5,205.1,175.2,208.1,172.2,211.3z"/>
		<path class="st2" d="M100.5,189.9c-0.6-0.3-1.3-0.5-2-0.7c0-0.9,0.1-1.7,0.1-2.6c-1.8-0.5-3.6-0.9-5.5-1.2
			c0.1,0.9,0.2,1.7,0.3,2.6c-2.8-0.5-5.8-0.6-8.8-0.3c-1.6,0.1-3.2,0.4-4.7,0.7c0-1.4-0.1-2.7,0-4.1c-2.3,0-4.5,0.1-6.8,0.3
			c0,1.8,0.1,3.5,0.1,5.2c-6.7,1.5-12.6,2.1-19.7-4.5c-8.9-8.3-9.9-22.2-11.9-33.4c-0.2-1-1.7-0.7-1.7,0.2
			c-1.5,17.6,0.2,35.2,15.8,45.8c4.9,3.3,10.9,3.9,16.7,3.4c-0.2,0.9-0.4,1.9-0.7,2.9c-2.4,8.2-5.9,15.8-7.6,24.1
			c-4.8,23.7,3.9,50.7,23.1,65.6c1.1,0.8,2.3-0.4,1.5-1.5c-3.7-4.8-7-9.7-9.7-14.9c-1.2-8.4-2.6-16.8-3-25.3
			c-0.4-7.4-0.5-14.9,7-19.4c2.7-1.6,5.8-2.4,8.2-4.5c6.7-5.8,10.1-14.5,12.3-23.6c0.8,0.5,1.5,1,2.2,1.5
			c4.9,5.4,9.5,11.4,15.6,14.1c11.7,5.2,25.8,2.2,37.1-2.6c0.8-0.3,0.3-1.4-0.4-1.5c-8.9-0.9-17.5-0.6-26.2-2.9
			c-8.1-2.1-13.3-8.1-18.4-14.2c-2-2.5-4.6-4.8-7.4-6.5c0.2-1.2,0.5-2.4,0.7-3.7c-1.9-0.7-3.8-1.4-5.7-1.9
			C101,188.1,100.7,189,100.5,189.9z M94.6,212.1c-2,6.9-5.7,11.1-12.1,14.2c-2.9,1.4-6.4,2.9-8.3,5.6c-2.2,3.1-3.6,6.7-4.3,10.6
			c0-2.3,0-4.6,0.2-6.9c0.8-11.5,6.3-22.2,9.4-33.1c0.2-0.7,0.3-1.4,0.5-2.1c6.5-1.2,12.3-0.6,17.6,1.4
			C96.5,205.2,95.6,208.6,94.6,212.1z"/>
		<path class="st2" d="M178.2,88c-0.5,2.7-0.6,5.5-0.4,8.6c0.4,7.7-3.4,11.1-8,15.3c1.1,1.1,2.2,2.2,3.3,3.2
			c6.2-2.7,11.5-7.4,11.7-14.8c0.1-6.8,0.4-12.2,2.8-17.8c0.8-0.7,1.6-1.3,2.4-2.1c7.8-7.8,11.7-19.1,14.9-29.5
			c2.3-0.4,4.4-1,6.7-2.1c0.1-0.1,0.2-0.3,0-0.4c-2.7-2.2-5.3-3.5-8.6-4.6c-2-0.7-4.1,0.7-4.6,2.6c-1.4,4.9-2.9,9.8-4.7,14.5
			c-0.2,0.2-0.4,0.4-0.5,0.8c-2.2,6.8-7.7,11.5-11.4,17.3c-0.8,0.7-1.7,1.5-2.6,2.1c-8.8,6.4-19.5,7.6-26.5,15.9
			c1.6,0.7,3.1,1.6,4.5,2.7C162.7,93.9,170.7,91.4,178.2,88z"/>
		<path class="st1" d="M82.8,83.4c-0.2-0.2-0.4-0.4-0.6-0.6c4-0.3,13.3,2.6,14,2.5c3.1-0.3,5.2-0.9,7.4-2.6c0,0,0.1,0,0.1,0
			c1.9-1.8,3.1-4.3,3.4-6.9c-0.2,0-0.5-0.1-0.7-0.1c-0.9-2.9-2.7-6-4.8-9c-1.6-4.2-3.7-8.3-5.8-12.4c3.2,6.1,12.8,8.9,19.2,9.4
			c13.6,1.2,25.8-2.2,35.8-11.7c0.8-0.7-0.2-1.9-1.1-1.4c-10.4,5.8-22,7.3-33.5,3.9c-8.3-2.4-14.4-10-23.1-10.4
			c-6-0.3-8.8,5.6-8.7,10.5c0.2,5.6,4.8,12.3,9.4,17.6c-10.4-2.1-20.5-5.6-30.1-9.9c-3.4-1.5-6.8,2.3-4,5.2
			c5.6,5.9,10.4,12.2,14.2,19.4c1.4,2.6,5,2,6.3,0c0.5-1.1,0.8-2.4,1.8-3.2C82.2,83.7,82.5,83.5,82.8,83.4z"/>
	</g>
</g>
</svg>
