<?xml version="1.0" encoding="utf-8"?>
<!-- Generator: Adobe Illustrator 24.2.3, SVG Export Plug-In . SVG Version: 6.00 Build 0)  -->
<svg version="1.1" id="图层_1" xmlns="http://www.w3.org/2000/svg" xmlns:xlink="http://www.w3.org/1999/xlink" x="0px" y="0px"
	 viewBox="0 0 270 350" style="enable-background:new 0 0 270 350;" xml:space="preserve">
<style type="text/css">
	.st0{fill:#DF0514;}
	.st1{fill:#009C3B;}
</style>
<g>
	<g>
		<g>
			<path class="st0" d="M96.3,239.9c-18.4-4.5-29.6-23.2-25.1-41.5c4.5-18.4,23.2-29.6,41.5-25.1s29.6,23.2,25.1,41.5
				C133.3,233.2,114.7,244.5,96.3,239.9z M111.4,179c-15.2-3.8-30.7,5.6-34.4,20.8c-3.8,15.2,5.6,30.7,20.8,34.4
				c15.2,3.8,30.7-5.6,34.4-20.8C136,198.2,126.6,182.8,111.4,179z"/>
		</g>
		<g>
			<path class="st0" d="M98.6,230.9c-13.3-3.3-21.5-16.8-18.2-30.2s16.8-21.5,30.2-18.2c13.3,3.3,21.5,16.8,18.2,30.2
				S111.9,234.2,98.6,230.9z M109.2,188.1c-10.2-2.5-20.6,3.7-23.1,13.9c-2.5,10.2,3.7,20.6,13.9,23.1c10.2,2.5,20.6-3.7,23.1-13.9
				C125.6,201,119.4,190.6,109.2,188.1z"/>
		</g>
		<g>
			<circle class="st0" cx="104.6" cy="206.6" r="11.4"/>
		</g>
	</g>
	<g>
		<g>
			<path class="st1" d="M67.9,114.4C50.1,110,39.2,91.9,43.6,74.1C48,56.3,66.1,45.4,83.9,49.8s28.7,22.5,24.3,40.3
				C103.8,107.9,85.7,118.8,67.9,114.4z M82.5,55.3c-14.8-3.7-29.8,5.4-33.4,20.2s5.4,29.8,20.2,33.4s29.8-5.4,33.4-20.2
				S97.3,59,82.5,55.3z"/>
		</g>
		<g>
			<path class="st1" d="M70.1,105.6c-12.9-3.2-20.9-16.3-17.7-29.3c3.2-12.9,16.3-20.9,29.3-17.7c12.9,3.2,20.9,16.3,17.7,29.3
				S83,108.8,70.1,105.6z M80.3,64.1c-9.9-2.4-20,3.6-22.4,13.5c-2.4,9.9,3.6,20,13.5,22.4c9.9,2.4,20-3.6,22.4-13.5
				C96.3,76.6,90.3,66.6,80.3,64.1z"/>
		</g>
		<g>
			<circle class="st1" cx="75.9" cy="82.1" r="11.1"/>
		</g>
	</g>
	<g>
		<g>
			<path class="st1" d="M128,141.9c-17.8-4.4-28.7-22.5-24.3-40.3c4.4-17.8,22.5-28.7,40.3-24.3c17.8,4.4,28.7,22.5,24.3,40.3
				C163.9,135.4,145.8,146.3,128,141.9z M142.6,82.8c-14.8-3.7-29.8,5.4-33.4,20.2s5.4,29.8,20.2,33.4c14.8,3.7,29.8-5.4,33.4-20.2
				C166.4,101.5,157.4,86.5,142.6,82.8z"/>
		</g>
		<g>
			<path class="st1" d="M130.2,133.1c-12.9-3.2-20.9-16.3-17.7-29.3s16.3-20.9,29.3-17.7s20.9,16.3,17.7,29.3
				C156.3,128.4,143.1,136.3,130.2,133.1z M140.4,91.6c-9.9-2.4-20,3.6-22.4,13.5c-2.4,9.9,3.6,20,13.5,22.4
				c9.9,2.4,20-3.6,22.4-13.5C156.4,104.2,150.4,94.1,140.4,91.6z"/>
		</g>
		<g>
			<circle class="st1" cx="136" cy="109.6" r="11.1"/>
		</g>
	</g>
	<g>
		<g>
			<path class="st1" d="M188.1,169.4c-17.8-4.4-28.7-22.5-24.3-40.3c4.4-17.8,22.5-28.7,40.3-24.3c17.8,4.4,28.7,22.5,24.3,40.3
				C224,162.9,205.9,173.8,188.1,169.4z M202.7,110.3c-14.8-3.7-29.8,5.4-33.4,20.2c-3.7,14.8,5.4,29.8,20.2,33.4
				c14.8,3.7,29.8-5.4,33.4-20.2C226.5,129,217.5,114,202.7,110.3z"/>
		</g>
		<g>
			<path class="st1" d="M190.3,160.6c-12.9-3.2-20.9-16.3-17.7-29.3c3.2-12.9,16.3-20.9,29.3-17.7c12.9,3.2,20.9,16.3,17.7,29.3
				C216.4,155.9,203.2,163.8,190.3,160.6z M200.5,119.2c-9.9-2.4-20,3.6-22.4,13.5s3.6,20,13.5,22.4s20-3.6,22.4-13.5
				C216.5,131.7,210.4,121.6,200.5,119.2z"/>
		</g>
		<g>
			<circle class="st1" cx="196.1" cy="137.1" r="11.1"/>
		</g>
	</g>
	<g>
		<g>
			<path class="st0" d="M165,239.9c-18.4-4.5-29.6-23.2-25.1-41.5c4.5-18.4,23.2-29.6,41.5-25.1s29.6,23.2,25.1,41.5
				C201.9,233.2,183.3,244.5,165,239.9z M180,179c-15.2-3.8-30.7,5.6-34.4,20.8c-3.8,15.2,5.6,30.7,20.8,34.4
				c15.2,3.8,30.7-5.6,34.4-20.8C204.6,198.2,195.2,182.8,180,179z"/>
		</g>
		<g>
			<path class="st0" d="M167.2,230.9c-13.3-3.3-21.5-16.8-18.2-30.2c3.3-13.3,16.8-21.5,30.2-18.2c13.3,3.3,21.5,16.8,18.2,30.2
				S180.5,234.2,167.2,230.9z M177.8,188.1c-10.2-2.5-20.6,3.7-23.1,13.9s3.7,20.6,13.9,23.1c10.2,2.5,20.6-3.7,23.1-13.9
				C194.2,201,188,190.6,177.8,188.1z"/>
		</g>
		<g>
			<circle class="st0" cx="173.2" cy="206.6" r="11.4"/>
		</g>
	</g>
	<g>
		<g>
			<path class="st0" d="M96.3,308.6C78,304,66.7,285.4,71.3,267c4.5-18.4,23.2-29.6,41.5-25.1c18.4,4.5,29.6,23.2,25.1,41.5
				C133.3,301.9,114.7,313.1,96.3,308.6z M111.4,247.6c-15.2-3.8-30.7,5.6-34.4,20.8c-3.8,15.2,5.6,30.7,20.8,34.4
				c15.2,3.8,30.7-5.6,34.4-20.8C136,266.9,126.6,251.4,111.4,247.6z"/>
		</g>
		<g>
			<path class="st0" d="M98.6,299.5c-13.3-3.3-21.5-16.8-18.2-30.2s16.8-21.5,30.2-18.2s21.5,16.8,18.2,30.2S111.9,302.8,98.6,299.5
				z M109.2,256.7c-10.2-2.5-20.6,3.7-23.1,13.9c-2.5,10.2,3.7,20.6,13.9,23.1c10.2,2.5,20.6-3.7,23.1-13.9
				C125.6,269.6,119.4,259.3,109.2,256.7z"/>
		</g>
		<g>
			<circle class="st0" cx="104.6" cy="275.3" r="11.4"/>
		</g>
	</g>
	<g>
		<g>
			<path class="st0" d="M165,308.6c-18.4-4.5-29.6-23.2-25.1-41.5c4.5-18.4,23.2-29.6,41.5-25.1c18.4,4.5,29.6,23.2,25.1,41.5
				C201.9,301.9,183.3,313.1,165,308.6z M180,247.6c-15.2-3.8-30.7,5.6-34.4,20.8s5.6,30.7,20.8,34.4c15.2,3.8,30.7-5.6,34.4-20.8
				C204.6,266.9,195.2,251.4,180,247.6z"/>
		</g>
		<g>
			<path class="st0" d="M167.2,299.5c-13.3-3.3-21.5-16.8-18.2-30.2c3.3-13.3,16.8-21.5,30.2-18.2s21.5,16.8,18.2,30.2
				S180.5,302.8,167.2,299.5z M177.8,256.7c-10.2-2.5-20.6,3.7-23.1,13.9c-2.5,10.2,3.7,20.6,13.9,23.1c10.2,2.5,20.6-3.7,23.1-13.9
				S188,259.3,177.8,256.7z"/>
		</g>
		<g>
			<circle class="st0" cx="173.2" cy="275.3" r="11.4"/>
		</g>
	</g>
</g>
</svg>
