<?xml version="1.0" encoding="utf-8"?>
<!-- Generator: Adobe Illustrator 24.2.3, SVG Export Plug-In . SVG Version: 6.00 Build 0)  -->
<svg version="1.1" id="图层_1" xmlns="http://www.w3.org/2000/svg" xmlns:xlink="http://www.w3.org/1999/xlink" x="0px" y="0px"
	 viewBox="0 0 270 350" style="enable-background:new 0 0 270 350;" xml:space="preserve">
<style type="text/css">
	.st0{fill:#009C3B;}
	.st1{fill:#004B9F;}
</style>
<g>
	<g>
		<g>
			<path class="st0" d="M79.9,130.1c-18.4-4.5-29.6-23.2-25.1-41.5C59.4,70.2,78,58.9,96.4,63.5C114.7,68,126,86.6,121.5,105
				C116.9,123.4,98.3,134.6,79.9,130.1z M95,69.1c-15.2-3.8-30.7,5.6-34.4,20.8c-3.8,15.2,5.6,30.7,20.8,34.4
				c15.2,3.8,30.7-5.6,34.4-20.8S110.2,72.9,95,69.1z"/>
		</g>
		<g>
			<path class="st0" d="M82.2,121c-13.3-3.3-21.5-16.8-18.2-30.2c3.3-13.3,16.8-21.5,30.2-18.2s21.5,16.8,18.2,30.2
				S95.5,124.3,82.2,121z M92.7,78.2C82.5,75.7,72.2,82,69.6,92.2c-2.5,10.2,3.7,20.6,13.9,23.1c10.2,2.5,20.6-3.7,23.1-13.9
				S102.9,80.8,92.7,78.2z"/>
		</g>
		<g>
			<circle class="st0" cx="88.2" cy="96.8" r="11.4"/>
		</g>
	</g>
	<g>
		<g>
			<path class="st1" d="M169,130.1c-18.4-4.5-29.6-23.2-25.1-41.5c4.5-18.4,23.2-29.6,41.5-25.1c18.4,4.5,29.6,23.2,25.1,41.5
				C206,123.4,187.4,134.6,169,130.1z M184.1,69.1c-15.2-3.8-30.7,5.6-34.4,20.8s5.6,30.7,20.8,34.4c15.2,3.8,30.7-5.6,34.4-20.8
				C208.6,88.4,199.3,72.9,184.1,69.1z"/>
		</g>
		<g>
			<path class="st1" d="M171.3,121c-13.3-3.3-21.5-16.8-18.2-30.2s16.8-21.5,30.2-18.2s21.5,16.8,18.2,30.2S184.6,124.3,171.3,121z
				 M181.8,78.2c-10.2-2.5-20.6,3.7-23.1,13.9s3.7,20.6,13.9,23.1c10.2,2.5,20.6-3.7,23.1-13.9C198.3,91.1,192.1,80.8,181.8,78.2z"
				/>
		</g>
		<g>
			<circle class="st1" cx="177.3" cy="96.8" r="11.4"/>
		</g>
	</g>
	<g>
		<g>
			<path class="st1" d="M79.9,274.3c-18.4-4.5-29.6-23.2-25.1-41.5c4.5-18.4,23.2-29.6,41.5-25.1c18.4,4.5,29.6,23.2,25.1,41.5
				C116.9,267.5,98.3,278.8,79.9,274.3z M95,213.3c-15.2-3.8-30.7,5.6-34.4,20.8c-3.8,15.2,5.6,30.7,20.8,34.4
				c15.2,3.8,30.7-5.6,34.4-20.8C119.5,232.6,110.2,217.1,95,213.3z"/>
		</g>
		<g>
			<path class="st1" d="M82.2,265.2c-13.3-3.3-21.5-16.8-18.2-30.2c3.3-13.3,16.8-21.5,30.2-18.2s21.5,16.8,18.2,30.2
				S95.5,268.5,82.2,265.2z M92.7,222.4c-10.2-2.5-20.6,3.7-23.1,13.9c-2.5,10.2,3.7,20.6,13.9,23.1s20.6-3.7,23.1-13.9
				C109.2,235.3,102.9,225,92.7,222.4z"/>
		</g>
		<g>
			<circle class="st1" cx="88.2" cy="241" r="11.4"/>
		</g>
	</g>
	<g>
		<g>
			<path class="st0" d="M169,274.3c-18.4-4.5-29.6-23.2-25.1-41.5c4.5-18.4,23.2-29.6,41.5-25.1c18.4,4.5,29.6,23.2,25.1,41.5
				C206,267.5,187.4,278.8,169,274.3z M184.1,213.3c-15.2-3.8-30.7,5.6-34.4,20.8c-3.8,15.2,5.6,30.7,20.8,34.4
				c15.2,3.8,30.7-5.6,34.4-20.8C208.6,232.6,199.3,217.1,184.1,213.3z"/>
		</g>
		<g>
			<path class="st0" d="M171.3,265.2c-13.3-3.3-21.5-16.8-18.2-30.2s16.8-21.5,30.2-18.2s21.5,16.8,18.2,30.2
				S184.6,268.5,171.3,265.2z M181.8,222.4c-10.2-2.5-20.6,3.7-23.1,13.9c-2.5,10.2,3.7,20.6,13.9,23.1s20.6-3.7,23.1-13.9
				C198.3,235.3,192.1,225,181.8,222.4z"/>
		</g>
		<g>
			<circle class="st0" cx="177.3" cy="241" r="11.4"/>
		</g>
	</g>
</g>
</svg>
