<?xml version="1.0" encoding="utf-8"?>
<!-- Generator: Adobe Illustrator 24.2.3, SVG Export Plug-In . SVG Version: 6.00 Build 0)  -->
<svg version="1.1" id="图层_1" xmlns="http://www.w3.org/2000/svg" xmlns:xlink="http://www.w3.org/1999/xlink" x="0px" y="0px"
	 viewBox="0 0 270 350" style="enable-background:new 0 0 270 350;" xml:space="preserve">
<style type="text/css">
	.st0{fill:#004B9F;}
	.st1{fill:#DF0514;}
	.st2{fill:#009C3B;}
</style>
<g>
	<g>
		<g>
			<path class="st0" d="M66.7,115.4C50.2,111.3,40.1,94.5,44.2,78C48.3,61.5,65,51.4,81.5,55.5s26.6,20.8,22.6,37.4
				C100,109.4,83.3,119.5,66.7,115.4z M80.3,60.6c-13.7-3.4-27.6,5-31,18.7s5,27.6,18.7,31s27.6-5,31-18.7S94,64,80.3,60.6z"/>
		</g>
		<g>
			<path class="st0" d="M68.8,107.2c-12-3-19.4-15.2-16.4-27.2s15.2-19.4,27.2-16.4s19.4,15.2,16.4,27.2
				C93,102.8,80.8,110.2,68.8,107.2z M78.3,68.8c-9.2-2.3-18.5,3.4-20.8,12.6c-2.3,9.2,3.4,18.5,12.6,20.8s18.5-3.4,20.8-12.6
				S87.5,71,78.3,68.8z"/>
		</g>
		<g>
			<circle class="st0" cx="74.1" cy="85.4" r="10.3"/>
		</g>
	</g>
	<g>
		<g>
			<path class="st0" d="M128.5,115.4c-16.5-4.1-26.6-20.8-22.6-37.4c4.1-16.5,20.8-26.6,37.4-22.6s26.6,20.8,22.6,37.4
				C161.8,109.4,145,119.5,128.5,115.4z M142,60.6c-13.7-3.4-27.6,5-31,18.7s5,27.6,18.7,31s27.6-5,31-18.7
				C164.1,77.9,155.7,64,142,60.6z"/>
		</g>
		<g>
			<path class="st0" d="M130.5,107.2c-12-3-19.4-15.2-16.4-27.2s15.2-19.4,27.2-16.4s19.4,15.2,16.4,27.2S142.5,110.2,130.5,107.2z
				 M140,68.8c-9.2-2.3-18.5,3.4-20.8,12.6c-2.3,9.2,3.4,18.5,12.6,20.8s18.5-3.4,20.8-12.6C154.8,80.4,149.2,71,140,68.8z"/>
		</g>
		<g>
			<circle class="st0" cx="135.9" cy="85.4" r="10.3"/>
		</g>
	</g>
	<g>
		<g>
			<path class="st0" d="M190.2,115.4c-16.5-4.1-26.6-20.8-22.6-37.4c4.1-16.5,20.8-26.6,37.4-22.6s26.6,20.8,22.6,37.4
				C223.5,109.4,206.7,119.5,190.2,115.4z M203.8,60.6c-13.7-3.4-27.6,5-31,18.7c-3.4,13.7,5,27.6,18.7,31s27.6-5,31-18.7
				C225.9,77.9,217.5,64,203.8,60.6z"/>
		</g>
		<g>
			<path class="st0" d="M192.2,107.2c-12-3-19.4-15.2-16.4-27.2S191,60.7,203,63.6s19.4,15.2,16.4,27.2S204.3,110.2,192.2,107.2z
				 M201.7,68.8c-9.2-2.3-18.5,3.4-20.8,12.6c-2.3,9.2,3.4,18.5,12.6,20.8s18.5-3.4,20.8-12.6S210.9,71,201.7,68.8z"/>
		</g>
		<g>
			<circle class="st0" cx="197.6" cy="85.4" r="10.3"/>
		</g>
	</g>
	<g>
		<g>
			<path class="st1" d="M66.7,204.2c-16.5-4.1-26.6-20.8-22.6-37.4c4.1-16.5,20.8-26.6,37.4-22.6s26.6,20.8,22.6,37.4
				C100,198.2,83.3,208.3,66.7,204.2z M80.3,149.4c-13.7-3.4-27.6,5-31,18.7s5,27.6,18.7,31c13.7,3.4,27.6-5,31-18.7
				S94,152.8,80.3,149.4z"/>
		</g>
		<g>
			<path class="st1" d="M68.8,196.1c-12-3-19.4-15.2-16.4-27.2s15.2-19.4,27.2-16.4c12,3,19.4,15.2,16.4,27.2
				C93,191.7,80.8,199,68.8,196.1z M78.3,157.6c-9.2-2.3-18.5,3.4-20.8,12.6c-2.3,9.2,3.4,18.5,12.6,20.8s18.5-3.4,20.8-12.6
				S87.5,159.9,78.3,157.6z"/>
		</g>
		<g>
			<circle class="st1" cx="74.1" cy="174.3" r="10.3"/>
		</g>
	</g>
	<g>
		<g>
			<path class="st1" d="M128.5,204.2c-16.5-4.1-26.6-20.8-22.6-37.4c4.1-16.5,20.8-26.6,37.4-22.6s26.6,20.8,22.6,37.4
				C161.8,198.2,145,208.3,128.5,204.2z M142,149.4c-13.7-3.4-27.6,5-31,18.7s5,27.6,18.7,31c13.7,3.4,27.6-5,31-18.7
				C164.1,166.7,155.7,152.8,142,149.4z"/>
		</g>
		<g>
			<path class="st1" d="M130.5,196.1c-12-3-19.4-15.2-16.4-27.2s15.2-19.4,27.2-16.4c12,3,19.4,15.2,16.4,27.2
				S142.5,199,130.5,196.1z M140,157.6c-9.2-2.3-18.5,3.4-20.8,12.6c-2.3,9.2,3.4,18.5,12.6,20.8s18.5-3.4,20.8-12.6
				C154.8,169.2,149.2,159.9,140,157.6z"/>
		</g>
		<g>
			<circle class="st1" cx="135.9" cy="174.3" r="10.3"/>
		</g>
	</g>
	<g>
		<g>
			<path class="st1" d="M190.2,204.2c-16.5-4.1-26.6-20.8-22.6-37.4c4.1-16.5,20.8-26.6,37.4-22.6s26.6,20.8,22.6,37.4
				C223.5,198.2,206.7,208.3,190.2,204.2z M203.8,149.4c-13.7-3.4-27.6,5-31,18.7c-3.4,13.7,5,27.6,18.7,31c13.7,3.4,27.6-5,31-18.7
				C225.9,166.7,217.5,152.8,203.8,149.4z"/>
		</g>
		<g>
			<path class="st1" d="M192.2,196.1c-12-3-19.4-15.2-16.4-27.2s15.2-19.4,27.2-16.4c12,3,19.4,15.2,16.4,27.2
				S204.3,199,192.2,196.1z M201.7,157.6c-9.2-2.3-18.5,3.4-20.8,12.6c-2.3,9.2,3.4,18.5,12.6,20.8s18.5-3.4,20.8-12.6
				S210.9,159.9,201.7,157.6z"/>
		</g>
		<g>
			<circle class="st1" cx="197.6" cy="174.3" r="10.3"/>
		</g>
	</g>
	<g>
		<g>
			<path class="st2" d="M66.7,293.1c-16.5-4.1-26.6-20.8-22.6-37.4c4.1-16.5,20.8-26.6,37.4-22.6s26.6,20.8,22.6,37.4
				C100,287,83.3,297.2,66.7,293.1z M80.3,238.3c-13.7-3.4-27.6,5-31,18.7c-3.4,13.7,5,27.6,18.7,31s27.6-5,31-18.7
				C102.4,255.6,94,241.7,80.3,238.3z"/>
		</g>
		<g>
			<path class="st2" d="M68.8,284.9c-12-3-19.4-15.2-16.4-27.2c3-12,15.2-19.4,27.2-16.4c12,3,19.4,15.2,16.4,27.2
				C93,280.5,80.8,287.9,68.8,284.9z M78.3,246.4c-9.2-2.3-18.5,3.4-20.8,12.6c-2.3,9.2,3.4,18.5,12.6,20.8s18.5-3.4,20.8-12.6
				C93.1,258,87.5,248.7,78.3,246.4z"/>
		</g>
		<g>
			<circle class="st2" cx="74.1" cy="263.1" r="10.3"/>
		</g>
	</g>
	<g>
		<g>
			<path class="st2" d="M128.5,293.1c-16.5-4.1-26.6-20.8-22.6-37.4c4.1-16.5,20.8-26.6,37.4-22.6s26.6,20.8,22.6,37.4
				C161.8,287,145,297.2,128.5,293.1z M142,238.3c-13.7-3.4-27.6,5-31,18.7c-3.4,13.7,5,27.6,18.7,31s27.6-5,31-18.7
				C164.1,255.6,155.7,241.7,142,238.3z"/>
		</g>
		<g>
			<path class="st2" d="M130.5,284.9c-12-3-19.4-15.2-16.4-27.2c3-12,15.2-19.4,27.2-16.4c12,3,19.4,15.2,16.4,27.2
				C154.7,280.5,142.5,287.9,130.5,284.9z M140,246.4c-9.2-2.3-18.5,3.4-20.8,12.6c-2.3,9.2,3.4,18.5,12.6,20.8s18.5-3.4,20.8-12.6
				C154.8,258,149.2,248.7,140,246.4z"/>
		</g>
		<g>
			<circle class="st2" cx="135.9" cy="263.1" r="10.3"/>
		</g>
	</g>
	<g>
		<g>
			<path class="st2" d="M190.2,293.1c-16.5-4.1-26.6-20.8-22.6-37.4c4.1-16.5,20.8-26.6,37.4-22.6s26.6,20.8,22.6,37.4
				C223.5,287,206.7,297.2,190.2,293.1z M203.8,238.3c-13.7-3.4-27.6,5-31,18.7c-3.4,13.7,5,27.6,18.7,31s27.6-5,31-18.7
				C225.9,255.6,217.5,241.7,203.8,238.3z"/>
		</g>
		<g>
			<path class="st2" d="M192.2,284.9c-12-3-19.4-15.2-16.4-27.2c3-12,15.2-19.4,27.2-16.4c12,3,19.4,15.2,16.4,27.2
				C216.4,280.5,204.3,287.9,192.2,284.9z M201.7,246.4c-9.2-2.3-18.5,3.4-20.8,12.6c-2.3,9.2,3.4,18.5,12.6,20.8
				s18.5-3.4,20.8-12.6C216.6,258,210.9,248.7,201.7,246.4z"/>
		</g>
		<g>
			<circle class="st2" cx="197.6" cy="263.1" r="10.3"/>
		</g>
	</g>
</g>
</svg>
