<?xml version="1.0" encoding="utf-8"?>
<!-- Generator: Adobe Illustrator 16.0.0, SVG Export Plug-In . SVG Version: 6.00 Build 0)  -->
<!DOCTYPE svg PUBLIC "-//W3C//DTD SVG 1.1//EN" "http://www.w3.org/Graphics/SVG/1.1/DTD/svg11.dtd">
<svg version="1.1" id="图层_1" xmlns="http://www.w3.org/2000/svg" xmlns:xlink="http://www.w3.org/1999/xlink" x="0px" y="0px"
	 width="266.59px" height="372.646px" viewBox="0 0 266.59 372.646" enable-background="new 0 0 266.59 372.646"
	 xml:space="preserve">
<path fill="#5CB64A" stroke="#050000" stroke-width="0.5" stroke-miterlimit="10" d="M239.78,0.25H26.813
	C12.143,0.25,0.25,12.142,0.25,26.812v292.941c0,14.67,11.893,26.563,26.563,26.563H239.78c14.67,0,26.561-11.893,26.561-26.563
	V26.812C266.34,12.142,254.45,0.25,239.78,0.25z"/>
<path fill="#FFFFFF" stroke="#000000" stroke-width="0.5" stroke-miterlimit="10" d="M239.78,16.25H26.813
	c-14.67,0-26.563,11.892-26.563,26.562v292.941c0,14.67,11.893,26.562,26.563,26.562H239.78c14.672,0,26.561-11.892,26.561-26.562
	V42.812C266.34,28.142,254.452,16.25,239.78,16.25z"/>
<g>
	<g>
		<path fill="#FFFFFF" stroke="#231815" stroke-width="0.5" stroke-miterlimit="10" d="M239.531,26.581H26.563
			C11.893,26.581,0,38.474,0,53.144v292.94c0,14.67,11.893,26.563,26.563,26.563h212.968c14.67,0,26.561-11.893,26.561-26.563
			V53.144C266.091,38.474,254.201,26.581,239.531,26.581z"/>
	</g>
	<g>
		<path fill="#009C3B" d="M78.834,149.003c-7.107,0-12.675-7.748-12.675-17.638c0-4.198,1.054-8.252,2.969-11.414
			c0.756-1.247,0.756-2.737,0.001-3.985c-1.916-3.161-2.97-7.215-2.97-11.411c0-4.199,1.054-8.253,2.97-11.414
			c0.755-1.247,0.755-2.738,0-3.985c-1.916-3.161-2.97-7.215-2.97-11.412c0-9.89,5.567-17.638,12.675-17.638
			s12.675,7.748,12.675,17.638c0,4.197-1.054,8.251-2.969,11.412c-0.756,1.247-0.756,2.738-0.001,3.985
			c1.916,3.161,2.97,7.215,2.97,11.414c0,4.196-1.054,8.25-2.97,11.411c-0.755,1.248-0.755,2.738,0,3.985
			c1.916,3.162,2.97,7.216,2.97,11.414C91.509,141.255,85.941,149.003,78.834,149.003z M78.834,65.845
			c-3.694,0-6.936,5.561-6.936,11.898c0,3.164,0.76,6.16,2.14,8.438c1.855,3.063,1.855,6.869-0.001,9.933
			c-1.379,2.278-2.139,5.275-2.139,8.44c0,3.164,0.76,6.159,2.139,8.438c1.856,3.063,1.856,6.869,0,9.932
			c-1.379,2.278-2.139,5.276-2.139,8.44c0,6.338,3.241,11.898,6.936,11.898s6.936-5.561,6.936-11.898c0-3.164-0.76-6.162-2.14-8.44
			c-1.855-3.063-1.855-6.869,0.001-9.932c1.379-2.279,2.139-5.274,2.139-8.438c0-3.165-0.76-6.162-2.139-8.44
			c-1.856-3.063-1.856-6.869,0-9.933c1.379-2.278,2.139-5.274,2.139-8.438C85.77,71.406,82.528,65.845,78.834,65.845z"/>
	</g>
	<g>
		<path fill="#009C3B" d="M78.834,246.597c-7.107,0-12.675-7.747-12.675-17.638c0-4.198,1.054-8.252,2.969-11.413
			c0.756-1.247,0.756-2.738,0.001-3.985c-1.916-3.161-2.97-7.216-2.97-11.412c0-4.198,1.054-8.252,2.97-11.413
			c0.755-1.247,0.755-2.738,0-3.985c-1.916-3.161-2.97-7.216-2.97-11.412c0-9.891,5.567-17.638,12.675-17.638
			s12.675,7.747,12.675,17.638c0,4.196-1.054,8.251-2.969,11.412c-0.756,1.247-0.756,2.738-0.001,3.985
			c1.916,3.161,2.97,7.215,2.97,11.413c0,4.196-1.054,8.251-2.97,11.412c-0.755,1.247-0.755,2.738,0,3.985
			c1.916,3.161,2.97,7.215,2.97,11.413C91.509,238.85,85.941,246.597,78.834,246.597z M78.834,163.44
			c-3.694,0-6.936,5.561-6.936,11.898c0,3.164,0.76,6.16,2.14,8.438c1.855,3.063,1.855,6.869-0.001,9.933
			c-1.379,2.278-2.139,5.275-2.139,8.439s0.76,6.16,2.139,8.438c1.856,3.063,1.856,6.869,0,9.933
			c-1.379,2.278-2.139,5.275-2.139,8.439c0,6.338,3.241,11.898,6.936,11.898s6.936-5.561,6.936-11.898
			c0-3.164-0.76-6.161-2.14-8.439c-1.855-3.063-1.855-6.869,0.001-9.933c1.379-2.278,2.139-5.274,2.139-8.438
			s-0.76-6.161-2.139-8.439c-1.856-3.063-1.856-6.869,0-9.933c1.379-2.278,2.139-5.274,2.139-8.438
			C85.77,169,82.528,163.44,78.834,163.44z"/>
	</g>
	<g>
		<path fill="#009C3B" d="M78.834,344.192c-7.107,0-12.675-7.748-12.675-17.638c0-4.198,1.054-8.253,2.969-11.414
			c0.756-1.247,0.756-2.738,0.001-3.985c-1.916-3.161-2.97-7.215-2.97-11.412c0-4.198,1.054-8.252,2.97-11.413
			c0.755-1.247,0.755-2.738,0-3.985c-1.916-3.161-2.97-7.215-2.97-11.412c0-9.89,5.567-17.638,12.675-17.638
			s12.675,7.748,12.675,17.638c0,4.197-1.054,8.251-2.969,11.412c-0.756,1.247-0.756,2.738-0.001,3.985
			c1.916,3.161,2.97,7.215,2.97,11.413c0,4.197-1.054,8.251-2.97,11.412c-0.755,1.247-0.755,2.738,0,3.985
			c1.916,3.161,2.97,7.216,2.97,11.414C91.509,336.444,85.941,344.192,78.834,344.192z M78.834,261.033
			c-3.694,0-6.936,5.561-6.936,11.898c0,3.164,0.76,6.16,2.14,8.438c1.855,3.063,1.855,6.869-0.001,9.933
			c-1.379,2.278-2.139,5.275-2.139,8.439s0.76,6.16,2.139,8.438c1.856,3.063,1.856,6.869,0,9.933
			c-1.379,2.278-2.139,5.276-2.139,8.44c0,6.338,3.241,11.897,6.936,11.897s6.936-5.56,6.936-11.897c0-3.164-0.76-6.162-2.14-8.44
			c-1.855-3.063-1.855-6.869,0.001-9.933c1.379-2.278,2.139-5.274,2.139-8.438s-0.76-6.161-2.139-8.439
			c-1.856-3.063-1.856-6.869,0-9.933c1.379-2.278,2.139-5.274,2.139-8.438C85.77,266.594,82.528,261.033,78.834,261.033z"/>
	</g>
	<g>
		<path fill="#DF0414" d="M136.813,149.003c-7.106,0-12.674-7.748-12.674-17.638c0-4.198,1.055-8.252,2.97-11.414
			c0.756-1.247,0.756-2.737,0-3.985c-1.915-3.161-2.97-7.215-2.97-11.411c0-4.199,1.055-8.253,2.97-11.414
			c0.756-1.247,0.756-2.738,0-3.985c-1.915-3.161-2.97-7.215-2.97-11.412c0-9.89,5.568-17.638,12.674-17.638
			c7.108,0,12.677,7.748,12.677,17.638c0,4.197-1.055,8.251-2.969,11.412c-0.758,1.247-0.758,2.738-0.002,3.985
			c1.916,3.161,2.971,7.215,2.971,11.414c0,4.196-1.055,8.25-2.971,11.411c-0.756,1.248-0.756,2.738,0,3.985
			c1.916,3.162,2.971,7.216,2.971,11.414C149.49,141.255,143.921,149.003,136.813,149.003z M136.813,65.845
			c-3.694,0-6.935,5.561-6.935,11.898c0,3.164,0.76,6.16,2.141,8.438c1.855,3.063,1.855,6.869-0.001,9.933
			c-1.38,2.278-2.14,5.275-2.14,8.44c0,3.164,0.76,6.159,2.14,8.438c1.856,3.063,1.856,6.869,0,9.932
			c-1.38,2.278-2.14,5.276-2.14,8.44c0,6.338,3.241,11.898,6.935,11.898c3.695,0,6.937-5.561,6.937-11.898
			c0-3.164-0.76-6.162-2.139-8.44c-1.856-3.063-1.856-6.869,0-9.932c1.379-2.279,2.139-5.274,2.139-8.438
			c0-3.165-0.76-6.162-2.139-8.44c-1.856-3.063-1.856-6.869,0-9.933c1.379-2.278,2.139-5.274,2.139-8.438
			C143.75,71.406,140.508,65.845,136.813,65.845z"/>
	</g>
	<g>
		<path fill="#DF0414" d="M136.813,246.597c-7.106,0-12.674-7.747-12.674-17.638c0-4.198,1.055-8.252,2.97-11.413
			c0.756-1.247,0.756-2.738,0-3.985c-1.915-3.161-2.97-7.216-2.97-11.412c0-4.198,1.055-8.252,2.97-11.413
			c0.756-1.247,0.756-2.738,0-3.985c-1.915-3.161-2.97-7.216-2.97-11.412c0-9.891,5.568-17.638,12.674-17.638
			c7.108,0,12.677,7.747,12.677,17.638c0,4.196-1.055,8.251-2.969,11.412c-0.758,1.247-0.758,2.738-0.002,3.985
			c1.916,3.161,2.971,7.215,2.971,11.413c0,4.196-1.055,8.251-2.971,11.412c-0.756,1.247-0.756,2.738,0,3.985
			c1.916,3.161,2.971,7.215,2.971,11.413C149.49,238.85,143.921,246.597,136.813,246.597z M136.813,163.44
			c-3.694,0-6.935,5.561-6.935,11.898c0,3.164,0.76,6.16,2.141,8.438c1.855,3.063,1.855,6.869-0.001,9.933
			c-1.38,2.278-2.14,5.275-2.14,8.439s0.76,6.16,2.14,8.438c1.856,3.063,1.856,6.869,0,9.933c-1.38,2.278-2.14,5.275-2.14,8.439
			c0,6.338,3.241,11.898,6.935,11.898c3.695,0,6.937-5.561,6.937-11.898c0-3.164-0.76-6.161-2.139-8.439
			c-1.856-3.063-1.856-6.869,0-9.933c1.379-2.278,2.139-5.274,2.139-8.438s-0.76-6.161-2.139-8.439
			c-1.856-3.063-1.856-6.869,0-9.933c1.379-2.278,2.139-5.274,2.139-8.438C143.75,169,140.508,163.44,136.813,163.44z"/>
	</g>
	<g>
		<path fill="#DF0414" d="M136.813,344.192c-7.106,0-12.674-7.748-12.674-17.638c0-4.198,1.055-8.253,2.97-11.414
			c0.756-1.247,0.756-2.738,0-3.985c-1.915-3.161-2.97-7.215-2.97-11.412c0-4.198,1.055-8.252,2.97-11.413
			c0.756-1.247,0.756-2.738,0-3.985c-1.915-3.161-2.97-7.215-2.97-11.412c0-9.89,5.568-17.638,12.674-17.638
			c7.108,0,12.677,7.748,12.677,17.638c0,4.197-1.055,8.251-2.969,11.412c-0.758,1.247-0.758,2.738-0.002,3.985
			c1.916,3.161,2.971,7.215,2.971,11.413c0,4.197-1.055,8.251-2.971,11.412c-0.756,1.247-0.756,2.738,0,3.985
			c1.916,3.161,2.971,7.216,2.971,11.414C149.49,336.444,143.921,344.192,136.813,344.192z M136.813,261.033
			c-3.694,0-6.935,5.561-6.935,11.898c0,3.164,0.76,6.16,2.141,8.438c1.855,3.063,1.855,6.869-0.001,9.933
			c-1.38,2.278-2.14,5.275-2.14,8.439s0.76,6.16,2.14,8.438c1.856,3.063,1.856,6.869,0,9.933c-1.38,2.278-2.14,5.276-2.14,8.44
			c0,6.338,3.241,11.897,6.935,11.897c3.695,0,6.937-5.56,6.937-11.897c0-3.164-0.76-6.162-2.139-8.44
			c-1.856-3.063-1.856-6.869,0-9.933c1.379-2.278,2.139-5.274,2.139-8.438s-0.76-6.161-2.139-8.439
			c-1.856-3.063-1.856-6.869,0-9.933c1.379-2.278,2.139-5.274,2.139-8.438C143.75,266.594,140.508,261.033,136.813,261.033z"/>
	</g>
	<g>
		<path fill="#009C3B" d="M194.794,149.003c-7.107,0-12.676-7.748-12.676-17.638c0-4.198,1.055-8.252,2.969-11.414
			c0.756-1.247,0.756-2.737,0.002-3.985c-1.916-3.161-2.971-7.215-2.971-11.411c0-4.199,1.055-8.253,2.971-11.414
			c0.754-1.247,0.754-2.738,0-3.985c-1.916-3.161-2.971-7.215-2.971-11.412c0-9.89,5.568-17.638,12.676-17.638
			s12.676,7.748,12.676,17.638c0,4.197-1.055,8.251-2.971,11.412c-0.756,1.247-0.756,2.738,0,3.985
			c1.916,3.161,2.971,7.215,2.971,11.414c0,4.196-1.055,8.25-2.971,11.411c-0.756,1.248-0.756,2.738,0,3.985
			c1.916,3.162,2.971,7.216,2.971,11.414C207.47,141.255,201.902,149.003,194.794,149.003z M194.794,65.845
			c-3.695,0-6.936,5.561-6.936,11.898c0,3.164,0.76,6.16,2.139,8.438c1.855,3.063,1.855,6.869,0,9.933
			c-1.379,2.278-2.139,5.275-2.139,8.44c0,3.164,0.76,6.159,2.139,8.438c1.855,3.063,1.855,6.869,0,9.932
			c-1.379,2.278-2.139,5.276-2.139,8.44c0,6.338,3.24,11.898,6.936,11.898c3.693,0,6.936-5.561,6.936-11.898
			c0-3.164-0.76-6.162-2.141-8.44c-1.855-3.063-1.855-6.869,0.002-9.932c1.379-2.279,2.139-5.274,2.139-8.438
			c0-3.165-0.76-6.162-2.139-8.44c-1.857-3.063-1.857-6.869,0-9.933c1.379-2.278,2.139-5.274,2.139-8.438
			C201.73,71.406,198.488,65.845,194.794,65.845z"/>
	</g>
	<g>
		<path fill="#009C3B" d="M194.794,246.597c-7.107,0-12.676-7.747-12.676-17.638c0-4.198,1.055-8.252,2.969-11.413
			c0.756-1.247,0.756-2.738,0.002-3.985c-1.916-3.161-2.971-7.216-2.971-11.412c0-4.198,1.055-8.252,2.971-11.413
			c0.754-1.247,0.754-2.738,0-3.985c-1.916-3.161-2.971-7.216-2.971-11.412c0-9.891,5.568-17.638,12.676-17.638
			s12.676,7.747,12.676,17.638c0,4.196-1.055,8.251-2.971,11.412c-0.756,1.247-0.756,2.738,0,3.985
			c1.916,3.161,2.971,7.215,2.971,11.413c0,4.196-1.055,8.251-2.971,11.412c-0.756,1.247-0.756,2.738,0,3.985
			c1.916,3.161,2.971,7.215,2.971,11.413C207.47,238.85,201.902,246.597,194.794,246.597z M194.794,163.44
			c-3.695,0-6.936,5.561-6.936,11.898c0,3.164,0.76,6.16,2.139,8.438c1.855,3.063,1.855,6.869,0,9.933
			c-1.379,2.278-2.139,5.275-2.139,8.439s0.76,6.16,2.139,8.438c1.855,3.063,1.855,6.869,0,9.933
			c-1.379,2.278-2.139,5.275-2.139,8.439c0,6.338,3.24,11.898,6.936,11.898c3.693,0,6.936-5.561,6.936-11.898
			c0-3.164-0.76-6.161-2.141-8.439c-1.855-3.063-1.855-6.869,0.002-9.933c1.379-2.278,2.139-5.274,2.139-8.438
			s-0.76-6.161-2.139-8.439c-1.857-3.063-1.857-6.869,0-9.933c1.379-2.278,2.139-5.274,2.139-8.438
			C201.73,169,198.488,163.44,194.794,163.44z"/>
	</g>
	<g>
		<path fill="#009C3B" d="M194.794,344.192c-7.107,0-12.676-7.748-12.676-17.638c0-4.198,1.055-8.253,2.969-11.414
			c0.756-1.247,0.756-2.738,0.002-3.985c-1.916-3.161-2.971-7.215-2.971-11.412c0-4.198,1.055-8.252,2.971-11.413
			c0.754-1.247,0.754-2.738,0-3.985c-1.916-3.161-2.971-7.215-2.971-11.412c0-9.89,5.568-17.638,12.676-17.638
			s12.676,7.748,12.676,17.638c0,4.197-1.055,8.251-2.971,11.412c-0.756,1.247-0.756,2.738,0,3.985
			c1.916,3.161,2.971,7.215,2.971,11.413c0,4.197-1.055,8.251-2.971,11.412c-0.756,1.247-0.756,2.738,0,3.985
			c1.916,3.161,2.971,7.216,2.971,11.414C207.47,336.444,201.902,344.192,194.794,344.192z M194.794,261.033
			c-3.695,0-6.936,5.561-6.936,11.898c0,3.164,0.76,6.16,2.139,8.438c1.855,3.063,1.855,6.869,0,9.933
			c-1.379,2.278-2.139,5.275-2.139,8.439s0.76,6.16,2.139,8.438c1.855,3.063,1.855,6.869,0,9.933
			c-1.379,2.278-2.139,5.276-2.139,8.44c0,6.338,3.24,11.897,6.936,11.897c3.693,0,6.936-5.56,6.936-11.897
			c0-3.164-0.76-6.162-2.141-8.44c-1.855-3.063-1.855-6.869,0.002-9.933c1.379-2.278,2.139-5.274,2.139-8.438
			s-0.76-6.161-2.139-8.439c-1.857-3.063-1.857-6.869,0-9.933c1.379-2.278,2.139-5.274,2.139-8.438
			C201.73,266.594,198.488,261.033,194.794,261.033z"/>
	</g>
</g>
</svg>
