<?xml version="1.0" encoding="utf-8"?>
<!-- Generator: Adobe Illustrator 16.0.0, SVG Export Plug-In . SVG Version: 6.00 Build 0)  -->
<!DOCTYPE svg PUBLIC "-//W3C//DTD SVG 1.1//EN" "http://www.w3.org/Graphics/SVG/1.1/DTD/svg11.dtd">
<svg version="1.1" id="图层_1" xmlns="http://www.w3.org/2000/svg" xmlns:xlink="http://www.w3.org/1999/xlink" x="0px" y="0px"
	 width="266.59px" height="372.646px" viewBox="0 0 266.59 372.646" enable-background="new 0 0 266.59 372.646"
	 xml:space="preserve">
<path fill="#5CB64A" stroke="#050000" stroke-width="0.5" stroke-miterlimit="10" d="M239.78,0.25H26.813
	C12.143,0.25,0.25,12.142,0.25,26.812v292.941c0,14.67,11.893,26.563,26.563,26.563H239.78c14.67,0,26.561-11.893,26.561-26.563
	V26.812C266.34,12.142,254.45,0.25,239.78,0.25z"/>
<path fill="#FFFFFF" stroke="#000000" stroke-width="0.5" stroke-miterlimit="10" d="M239.78,16.25H26.813
	c-14.67,0-26.563,11.892-26.563,26.562v292.941c0,14.67,11.893,26.562,26.563,26.562H239.78c14.672,0,26.561-11.892,26.561-26.562
	V42.812C266.34,28.142,254.452,16.25,239.78,16.25z"/>
<g>
	<g>
		<path fill="#FFFFFF" stroke="#231815" stroke-width="0.5" stroke-miterlimit="10" d="M239.531,26.581H26.563
			C11.893,26.581,0,38.474,0,53.144v292.94c0,14.67,11.893,26.563,26.563,26.563h212.968c14.67,0,26.561-11.893,26.561-26.563
			V53.144C266.091,38.474,254.201,26.581,239.531,26.581z"/>
	</g>
	<path fill="#009C3B" d="M213.738,123.493c0-5.987-1.504-11.769-4.236-16.276c-1.076-1.778-1.076-3.905,0.002-5.684
		c2.73-4.508,4.234-10.289,4.234-16.274c0-14.104-7.939-25.153-18.076-25.153c-10.135,0-18.076,11.049-18.076,25.153
		c0,5.985,1.504,11.767,4.236,16.274c1.076,1.778,1.076,3.905,0,5.684c-2.549,4.204-4.01,9.52-4.199,15.073
		c-0.045-0.047-0.086-0.096-0.133-0.142c-4.232-4.233-9.385-7.258-14.504-8.515c-2.02-0.496-3.521-1.999-4.018-4.02
		c-1.258-5.118-4.281-10.27-8.514-14.502c-1.414-1.413-2.9-2.652-4.426-3.748c-4.416-3.177-9.175-5.01-13.619-5.38
		c-4.444,0.37-9.203,2.203-13.619,5.38c-1.524,1.096-3.012,2.335-4.425,3.748c-4.232,4.232-7.257,9.384-8.514,14.502
		c-0.495,2.021-1.999,3.523-4.018,4.02c-5.119,1.257-10.271,4.281-14.504,8.515c-0.047,0.046-0.088,0.095-0.134,0.142
		c-0.188-5.554-1.649-10.869-4.198-15.073c-1.076-1.778-1.076-3.905,0.002-5.684c2.73-4.508,4.234-10.289,4.234-16.274
		c0-14.104-7.94-25.153-18.076-25.153S51.083,71.155,51.083,85.259c0,5.985,1.504,11.767,4.235,16.274
		c1.077,1.778,1.077,3.905,0,5.684c-2.731,4.508-4.235,10.289-4.235,16.276c0,5.985,1.504,11.767,4.235,16.274
		c1.077,1.778,1.077,3.905-0.001,5.684c-2.73,4.508-4.234,10.289-4.234,16.276c0,14.104,7.94,25.153,18.076,25.153
		c6.085,0,11.362-4,14.622-10.234c0.703-0.603,1.401-1.224,2.077-1.899c4.233-4.233,7.258-9.384,8.515-14.503
		c0.495-2.021,1.999-3.523,4.019-4.02c5.119-1.256,10.271-4.281,14.502-8.513c4.233-4.233,7.259-9.385,8.515-14.505
		c0.496-2.019,1.999-3.522,4.019-4.019c2.354-0.577,4.709-1.544,6.983-2.814c2.274,1.271,4.631,2.237,6.983,2.814
		c2.021,0.496,3.524,2,4.021,4.019c1.256,5.12,4.279,10.271,8.514,14.505c4.232,4.231,9.383,7.257,14.502,8.513
		c2.02,0.496,3.523,1.999,4.02,4.02c1.256,5.119,4.281,10.27,8.514,14.503c0.66,0.66,1.352,1.238,2.039,1.829
		c3.258,6.275,8.553,10.305,14.66,10.305c10.137,0,18.076-11.049,18.076-25.153c0-5.987-1.504-11.769-4.236-16.276
		c-1.076-1.778-1.076-3.905,0-5.684C212.234,135.26,213.738,129.479,213.738,123.493z M69.159,178.696
		c-5.269,0-9.891-7.929-9.891-16.968c0-4.513,1.083-8.787,3.05-12.036c2.647-4.368,2.647-9.796,0-14.164
		c-1.967-3.249-3.05-7.521-3.05-12.034s1.083-8.787,3.05-12.036c2.647-4.368,2.647-9.796,0.001-14.164
		c-1.968-3.25-3.051-7.521-3.051-12.034c0-9.038,4.622-16.968,9.891-16.968s9.891,7.93,9.891,16.968
		c0,4.513-1.083,8.784-3.051,12.034c-2.646,4.368-2.646,9.796,0,14.164c1.968,3.249,3.051,7.523,3.051,12.036
		s-1.083,8.785-3.051,12.034c-2.646,4.368-2.646,9.796-0.001,14.164c1.969,3.249,3.052,7.523,3.052,12.036
		C79.05,170.767,74.428,178.696,69.159,178.696z M168.38,148.277c-3.688-0.907-7.475-3.162-10.666-6.353
		c-3.189-3.19-5.447-6.979-6.354-10.668c-1.217-4.96-5.055-8.798-10.016-10.017c-0.509-0.125-1.019-0.28-1.53-0.456
		c-2.543-0.873-5.084-2.361-7.405-4.319c-2.32,1.958-4.86,3.446-7.405,4.319c-0.511,0.176-1.021,0.331-1.53,0.456
		c-4.96,1.219-8.798,5.057-10.015,10.017c-0.906,3.689-3.163,7.478-6.354,10.668c-3.191,3.19-6.978,5.445-10.667,6.353
		c-4.463,1.096-7.999,4.32-9.554,8.568c-0.585-4.194-1.908-8.13-3.887-11.394c-0.045-0.075-0.06-0.157-0.101-0.232
		c1.857-1.76,3.23-4.022,3.867-6.616c0.907-3.689,3.162-7.476,6.353-10.667c3.191-3.189,6.979-5.446,10.668-6.354
		c4.961-1.217,8.799-5.055,10.016-10.016c0.473-1.925,1.321-3.874,2.47-5.754c1.053-1.723,2.357-3.387,3.883-4.912
		c1.417-1.418,2.96-2.623,4.538-3.619c2.594-1.639,5.284-2.677,7.718-3.022c2.434,0.346,5.125,1.384,7.717,3.022
		c1.579,0.996,3.122,2.201,4.54,3.619c1.525,1.525,2.828,3.189,3.881,4.911c1.15,1.88,1.998,3.83,2.471,5.755
		c1.217,4.961,5.055,8.799,10.016,10.016c3.689,0.907,7.477,3.164,10.668,6.354c3.189,3.191,5.445,6.978,6.352,10.667
		c0.637,2.594,2.012,4.852,3.871,6.608c-0.043,0.078-0.059,0.163-0.105,0.24c-1.977,3.264-3.299,7.199-3.885,11.394
		C176.38,152.597,172.845,149.372,168.38,148.277z M202.501,111.457c1.969,3.249,3.051,7.523,3.051,12.036
		s-1.082,8.785-3.051,12.034c-2.646,4.368-2.646,9.796,0,14.164c1.969,3.249,3.051,7.523,3.051,12.036
		c0,9.039-4.621,16.968-9.891,16.968c-5.268,0-9.891-7.929-9.891-16.968c0-4.513,1.084-8.787,3.051-12.036
		c2.646-4.368,2.646-9.796,0-14.164c-1.967-3.249-3.051-7.521-3.051-12.034s1.084-8.787,3.051-12.036
		c2.646-4.368,2.646-9.796,0-14.164c-1.967-3.25-3.051-7.521-3.051-12.034c0-9.038,4.623-16.968,9.891-16.968
		c5.27,0,9.891,7.93,9.891,16.968c0,4.513-1.082,8.784-3.051,12.034C199.855,101.661,199.855,107.089,202.501,111.457z"/>
	<path fill="#009C3B" d="M51.083,265.536c0,5.987,1.504,11.769,4.235,16.276c1.077,1.778,1.077,3.905-0.001,5.684
		c-2.73,4.508-4.234,10.289-4.234,16.274c0,14.104,7.94,25.153,18.076,25.153s18.076-11.049,18.076-25.153
		c0-5.985-1.504-11.767-4.236-16.274c-1.076-1.778-1.076-3.905,0-5.684c2.549-4.204,4.011-9.52,4.198-15.073
		c0.046,0.047,0.087,0.096,0.133,0.142c4.233,4.233,9.385,7.258,14.505,8.515c2.019,0.496,3.522,1.999,4.018,4.02
		c1.257,5.118,4.281,10.27,8.514,14.502c1.413,1.413,2.9,2.652,4.425,3.748c4.416,3.177,9.175,5.01,13.619,5.38
		c4.444-0.37,9.203-2.203,13.619-5.38c1.525-1.096,3.012-2.335,4.426-3.748c4.232-4.232,7.256-9.384,8.514-14.502
		c0.494-2.021,1.998-3.523,4.018-4.02c5.119-1.257,10.271-4.281,14.504-8.515c0.047-0.046,0.088-0.095,0.133-0.142
		c0.189,5.554,1.65,10.869,4.199,15.073c1.076,1.778,1.076,3.905-0.002,5.684c-2.73,4.508-4.234,10.289-4.234,16.274
		c0,14.104,7.941,25.153,18.076,25.153s18.076-11.049,18.076-25.153c0-5.985-1.504-11.767-4.236-16.274
		c-1.076-1.778-1.076-3.905,0-5.684c2.732-4.508,4.236-10.289,4.236-16.276c0-5.985-1.504-11.767-4.236-16.274
		c-1.076-1.778-1.076-3.905,0.002-5.684c2.73-4.508,4.234-10.289,4.234-16.276c0-14.104-7.941-25.153-18.076-25.153
		c-6.084,0-11.363,3.999-14.621,10.233c-0.705,0.604-1.402,1.225-2.078,1.899c-4.234,4.234-7.258,9.385-8.514,14.504
		c-0.496,2.02-2,3.523-4.02,4.02c-5.119,1.256-10.27,4.281-14.502,8.513c-4.234,4.233-7.258,9.385-8.514,14.505
		c-0.496,2.019-2,3.522-4.021,4.019c-2.352,0.577-4.709,1.544-6.983,2.813c-2.274-1.27-4.63-2.236-6.983-2.813
		c-2.02-0.496-3.522-2-4.019-4.019c-1.256-5.12-4.281-10.271-8.515-14.505c-4.231-4.231-9.383-7.257-14.502-8.513
		c-2.02-0.496-3.523-2-4.019-4.02c-1.257-5.119-4.281-10.27-8.515-14.504c-0.66-0.659-1.353-1.237-2.04-1.828
		c-3.256-6.275-8.552-10.305-14.659-10.305c-10.136,0-18.076,11.049-18.076,25.153c0,5.987,1.504,11.769,4.235,16.276
		c1.077,1.778,1.077,3.905,0,5.684C52.587,253.77,51.083,259.551,51.083,265.536z M195.662,210.334c5.27,0,9.891,7.929,9.891,16.968
		c0,4.512-1.082,8.786-3.051,12.036c-2.646,4.368-2.646,9.796,0,14.164c1.969,3.249,3.051,7.521,3.051,12.034
		c0,4.512-1.082,8.786-3.051,12.036c-2.646,4.368-2.646,9.796,0,14.164c1.969,3.25,3.051,7.521,3.051,12.034
		c0,9.038-4.621,16.968-9.891,16.968s-9.891-7.93-9.891-16.968c0-4.513,1.082-8.784,3.051-12.034c2.646-4.368,2.646-9.796,0-14.164
		c-1.969-3.25-3.051-7.524-3.051-12.036c0-4.513,1.082-8.785,3.051-12.034c2.646-4.368,2.646-9.796,0-14.164
		c-1.969-3.25-3.051-7.524-3.051-12.036C185.771,218.263,190.392,210.334,195.662,210.334z M96.439,240.753
		c3.689,0.907,7.476,3.162,10.667,6.353c3.19,3.19,5.447,6.979,6.354,10.668c1.217,4.96,5.055,8.798,10.015,10.016
		c0.509,0.126,1.02,0.281,1.53,0.457c2.544,0.872,5.084,2.36,7.405,4.319c2.321-1.959,4.862-3.447,7.405-4.319
		c0.512-0.176,1.021-0.331,1.53-0.457c4.961-1.218,8.799-5.056,10.016-10.016c0.906-3.689,3.164-7.478,6.354-10.668
		c3.191-3.19,6.979-5.445,10.666-6.353c4.465-1.096,8-4.32,9.555-8.568c0.586,4.193,1.908,8.13,3.887,11.394
		c0.045,0.074,0.061,0.157,0.102,0.232c-1.859,1.76-3.232,4.022-3.869,6.616c-0.906,3.689-3.162,7.476-6.352,10.666
		c-3.191,3.19-6.979,5.447-10.668,6.354c-4.961,1.217-8.799,5.055-10.016,10.016c-0.473,1.925-1.32,3.874-2.471,5.754
		c-1.053,1.723-2.355,3.387-3.881,4.912c-1.418,1.418-2.961,2.623-4.54,3.619c-2.594,1.639-5.283,2.677-7.717,3.022
		c-2.434-0.346-5.124-1.384-7.718-3.022c-1.579-0.996-3.121-2.201-4.538-3.619c-1.525-1.525-2.83-3.189-3.883-4.911
		c-1.149-1.881-1.997-3.83-2.47-5.755c-1.217-4.961-5.055-8.799-10.016-10.016c-3.688-0.907-7.478-3.164-10.668-6.354
		s-5.445-6.977-6.353-10.666c-0.636-2.594-2.012-4.852-3.87-6.608c0.043-0.078,0.059-0.163,0.105-0.24
		c1.977-3.264,3.3-7.2,3.885-11.394C88.44,236.433,91.977,239.657,96.439,240.753z M62.318,277.573
		c-1.968-3.25-3.05-7.524-3.05-12.036c0-4.513,1.082-8.785,3.05-12.034c2.647-4.368,2.647-9.796,0.001-14.164
		c-1.969-3.25-3.051-7.524-3.051-12.036c0-9.039,4.622-16.968,9.891-16.968s9.891,7.929,9.891,16.968
		c0,4.512-1.083,8.786-3.051,12.036c-2.646,4.368-2.646,9.796,0,14.164c1.968,3.249,3.051,7.521,3.051,12.034
		c0,4.512-1.083,8.786-3.051,12.036c-2.646,4.368-2.646,9.796-0.001,14.164c1.969,3.25,3.052,7.521,3.052,12.034
		c0,9.038-4.622,16.968-9.891,16.968s-9.891-7.93-9.891-16.968c0-4.513,1.082-8.784,3.05-12.034
		C64.966,287.368,64.966,281.941,62.318,277.573z"/>
</g>
</svg>
