<?xml version="1.0" encoding="utf-8"?>
<!-- Generator: Adobe Illustrator 16.0.0, SVG Export Plug-In . SVG Version: 6.00 Build 0)  -->
<!DOCTYPE svg PUBLIC "-//W3C//DTD SVG 1.1//EN" "http://www.w3.org/Graphics/SVG/1.1/DTD/svg11.dtd">
<svg version="1.1" id="图层_1" xmlns="http://www.w3.org/2000/svg" xmlns:xlink="http://www.w3.org/1999/xlink" x="0px" y="0px"
	 width="266.59px" height="372.646px" viewBox="0 0 266.59 372.646" enable-background="new 0 0 266.59 372.646"
	 xml:space="preserve">
<path fill="#5CB64A" stroke="#050000" stroke-width="0.5" stroke-miterlimit="10" d="M239.78,0.25H26.813
	C12.143,0.25,0.25,12.142,0.25,26.812v292.941c0,14.67,11.893,26.563,26.563,26.563H239.78c14.67,0,26.561-11.893,26.561-26.563
	V26.812C266.34,12.142,254.45,0.25,239.78,0.25z"/>
<path fill="#FFFFFF" stroke="#000000" stroke-width="0.5" stroke-miterlimit="10" d="M239.78,16.25H26.813
	c-14.67,0-26.563,11.892-26.563,26.562v292.941c0,14.67,11.893,26.562,26.563,26.562H239.78c14.672,0,26.561-11.892,26.561-26.562
	V42.812C266.34,28.142,254.452,16.25,239.78,16.25z"/>
<g>
	<g>
		<path fill="#FFFFFF" stroke="#231815" stroke-width="0.5" stroke-miterlimit="10" d="M239.784,26.213H26.59
			C11.905,26.213,0,38.118,0,52.803v293.252c0,14.687,11.905,26.591,26.59,26.591h213.193c14.686,0,26.592-11.904,26.592-26.591
			V52.803C266.375,38.118,254.469,26.213,239.784,26.213z"/>
	</g>
	<g>
		<path fill="#004B9F" d="M92.139,119.337c-1.182,1.997-1.689,4.412-1.129,7.047c1.995,9.375,12.607,12.672,19.551,6.203
			c7.269-6.774,2.229-18.162-6.747-19.799C98.787,111.871,94.151,115.039,92.139,119.337z M100.998,118.647
			c5.223-1.367,8.588,4.918,6.277,9.006c-2.895,5.118-9.542,3.157-11.35-1.648c-0.073-0.194-0.114-0.386-0.163-0.577
			C96.026,122.312,97.613,119.533,100.998,118.647z"/>
		<path fill="#004B9F" d="M129.681,180.989c0.384,1.036,2.234,0.982,2.077-0.281c-1.388-11.096-3.255-22.139-5.495-33.095
			c-0.91-4.452-8.108-2.551-6.843,1.885C122.448,160.116,125.838,170.641,129.681,180.989z"/>
		<path fill="#004B9F" d="M113.542,154.781c1.4,9.183,5.162,17.783,7.539,26.712c0.26,0.978,1.945,0.804,1.808-0.246
			c-1.209-9.355-1-18.935-3.229-28.154C118.678,149.03,112.941,150.843,113.542,154.781z"/>
		<path fill="#004B9F" d="M107.475,158.843c0.348,9.336,2.029,18.569,3.107,27.836c0.173,1.489,2.395,1.578,2.388,0
			c-0.036-9.271,0.526-18.584-0.241-27.836C112.452,155.514,107.346,155.422,107.475,158.843z"/>
		<path fill="#004B9F" d="M100.646,153.384c-0.136,11.095,0.336,22.843,1.799,33.844c0.2,1.515,2.224,1.554,2.388,0
			c1.161-11.023,1.304-22.77,0.862-33.844C105.566,150.14,100.687,150.118,100.646,153.384z"/>
		<path fill="#004B9F" d="M93.756,155.019c-0.395,9.395-0.805,19.186,0.662,28.499c0.066,0.417,0.689,0.366,0.79,0
			c2.491-9.158,3.11-19.06,3.734-28.499C99.162,151.693,93.897,151.677,93.756,155.019z"/>
		<path fill="#004B9F" d="M89.042,146.851c-2.631,8.571-4.78,17.69-4.21,26.717c0.039,0.609,0.889,0.749,1.073,0.145
			c2.589-8.533,4.278-17.289,7.085-25.773C93.819,145.433,89.817,144.329,89.042,146.851z"/>
		<path fill="#004B9F" d="M227.065,149.508c-10.18,4.451-20.307,7.511-30.496,9.315c-9.922-2.462-18.402-10.944-25.914-19.192
			c0.266-0.108,0.529-0.225,0.791-0.34c-1.137-1.031-2.24-2.107-3.316-3.215c-0.125,0.117-0.246,0.227-0.375,0.344
			c-2.313-2.567-4.533-5.03-6.676-7.179c-1.982-1.989-3.719-3.767-5.688-5.218c0.027-0.03,0.059-0.054,0.088-0.084
			c-1.449-1.036-2.967-1.941-4.561-2.68c-0.074,0.087-0.154,0.164-0.227,0.252c-0.318-0.112-0.621-0.236-0.959-0.335
			c-4.963-1.463-9.396,3.568-14.209,4.483c-0.842-3.402-1.807-6.564-3.072-9.267c-5.32-11.366-15.969-15.22-27.203-16.485
			c-0.273,2.59-1.509,5.114-3.414,6.94c8.742,0.643,16.764,2.684,22.415,10.655c5.605,7.905,6.226,19.186,8.086,28.393
			c2.421,11.983,8.325,22.717,19.472,27.193c-8.666,9.582-17.955,18.226-30.286,23.078c-8,3.147-16.313,3.155-23.36,0.572
			c-0.706-0.923-1.895-1.416-3.037-1.318c-8.211-4.148-14.108-12.181-14.58-23.262c-0.831-19.549,17.865-48.757,0.269-64.685
			c-0.299,0.105-0.59,0.246-0.86,0.463c-0.969,0.778-1.285,2.082-1.773,3.227c0.032-0.05,0.079-0.089,0.108-0.141
			c13.671,23.603-15.067,57.373,0.205,79.458c-5.306,2.403-7.124,8.362-7.296,14.613c-0.037,1.346-0.024,2.64-0.009,3.927
			c2.255-0.212,4.517-0.29,6.78-0.295c0.069-5.362,0.892-10.343,4.602-13.62c1.131,1.034,2.345,2.047,3.749,3.01
			c1.741,1.192,3.487,2.214,5.235,3.084c-0.525,2.911-0.585,5.802-0.31,8.689c1.842,0.326,3.67,0.723,5.483,1.188
			c0.201-2.491,0.594-4.967,1.079-7.432c1.104,0.325,2.209,0.602,3.312,0.816c-0.05,0.128-0.106,0.251-0.144,0.396
			c-0.586,2.287-1.167,4.582-1.749,6.877c1.942,0.569,3.853,1.229,5.74,1.956c0.485-2.52,0.978-4.993,1.535-7.31
			c0.112-0.466,0.115-0.894,0.038-1.283c6.348,0.254,12.6-1.167,18.603-3.709c14.742,11.585,28.221,24.441,40.191,38.46
			c1.553-1.529,3.131-3.029,4.75-4.487c-7.414-8.531-15.514-16.45-24.248-23.646c5.209,1.87,10.66,2.81,15.938,2.213
			c0.867-0.099,1.223-1.136,0.447-1.653c-7.479-4.997-16.152-8.765-24.404-12.789c7.256,0.594,13.297,2.89,19.838,6.535
			c0.721,0.401,1.771-0.459,1.215-1.214c-4.623-6.268-12.07-10.185-19.709-11.533c0.342-0.249,0.686-0.494,1.023-0.749
			c2.189,1.268,4.758,1.999,7.137,2.782c2.486,0.817,4.93,1.401,7.539,1.468c0.811,0.021,1.039-0.915,0.602-1.454
			c-2.307-2.86-5.787-5.677-9.346-7.646c2.705-2.383,5.285-4.89,7.721-7.449c10.096,14.737,19.275,30.073,27.375,45.971
			c-0.303,0.235-0.584,0.498-0.887,0.737c2.438-1.828,4.934-3.572,7.477-5.247c-7.449-16.553-16.086-32.527-26.02-47.831
			c-0.418-0.641-0.91-1.123-1.443-1.488c0.439-1.608-0.189-3.459-2.09-3.886c-2.357-0.528-4.404-1.404-6.213-2.539
			c25.879,5.311,54.367-0.073,76.441-14.018C230.038,150.937,228.684,148.801,227.065,149.508z M136.883,131.734
			c6.059-0.75,11.23-3.897,17.059,0.062c-3.756,1.108-7.406,3.293-10.813,4.987c-1.516,0.753-3.15,1.5-4.715,2.359
			C137.883,136.658,137.389,134.17,136.883,131.734z M141.776,151.599c-0.979-2.713-1.779-5.592-2.48-8.537
			c1.9-0.679,3.762-1.54,5.551-2.206c4.396-1.638,9.4-2.587,13.398-5.067c0.021-0.014,0.031-0.032,0.051-0.046
			c1.229,1.243,2.467,2.475,3.705,3.709c-2.928,1.2-5.652,3.006-8.414,4.554C149.717,146.175,145.194,148.49,141.776,151.599z
			 M144.469,157.638c-0.557-1.001-1.068-2.051-1.543-3.136c2.375-0.928,4.684-2.184,6.961-3.439
			c1.268,2.026,2.553,4.002,4.225,5.782c0.834,0.888,1.701,1.862,2.611,2.819C152.672,159.16,148.588,158.477,144.469,157.638z
			 M165.057,160.462c-1.713-2.487-4.375-4.361-6.711-6.216c-2.135-1.696-4.334-2.96-6.654-4.169
			c0.838-0.453,1.674-0.895,2.508-1.299c1.354-0.658,2.775-1.209,4.209-1.746c4.973,4.171,9.592,8.789,13.828,13.721
			C169.852,160.718,167.459,160.623,165.057,160.462z M178.104,160.713c-4.99-5.694-10.627-10.522-16.916-14.721
			c1.744-0.665,3.447-1.397,5.031-2.319c3.201,3.144,6.434,6.251,9.715,9.309c3.074,2.866,6.445,5.408,9.99,7.266
			C183.327,160.483,180.717,160.636,178.104,160.713z"/>
		<path fill="#DF0414" d="M170.516,235.839c-0.141-0.163-0.289-0.315-0.432-0.478c-1.619,1.458-3.197,2.958-4.75,4.487
			c10.285,12.045,19.463,24.947,27.328,38.674c0.168,0.527,0.338,1.056,0.506,1.583c0.365,1.144,1.014,1.946,1.795,2.476
			c1.244,2.271,2.432,4.575,3.605,6.891c0.242,0.792,0.498,1.581,0.74,2.374c0.303,0.993,0.881,1.769,1.609,2.337
			c5.67,11.822,10.43,24.173,14.137,37.049c0.564,1.958,3.633,1.605,3.584-0.485c-0.639-27.666-10.43-55.612-19.666-81.396
			c-3.365-9.393-7.096-18.613-11.172-27.665c-2.543,1.675-5.039,3.419-7.477,5.247C176.858,229.675,173.542,232.616,170.516,235.839
			z"/>
		<path fill="#009C3B" d="M98.556,214.371c-0.642-0.255-1.301-0.479-1.963-0.694c0.019-0.869,0.067-1.736,0.137-2.601
			c-1.813-0.465-3.641-0.861-5.483-1.188c0.082,0.863,0.187,1.726,0.327,2.588c-2.86-0.455-5.826-0.582-8.825-0.33
			c-1.651,0.139-3.218,0.381-4.73,0.665c-0.046-1.374-0.064-2.74-0.047-4.086c-2.263,0.005-4.525,0.083-6.78,0.295
			c0.022,1.784,0.063,3.54,0.09,5.265c-6.729,1.487-12.637,2.095-19.754-4.551c-8.89-8.302-9.954-22.286-11.949-33.486
			c-0.186-1.048-1.664-0.696-1.743,0.236c-1.48,17.644,0.182,35.316,15.883,46.012c4.916,3.35,10.916,3.94,16.739,3.457
			c-0.191,0.944-0.415,1.899-0.697,2.876c-2.366,8.195-5.922,15.823-7.609,24.237c-4.769,23.776,3.918,50.868,23.198,65.863
			c1.083,0.842,2.339-0.413,1.496-1.496c-3.733-4.789-6.987-9.783-9.718-14.966c-1.182-8.438-2.601-16.829-3.041-25.365
			c-0.385-7.447-0.52-14.953,7.022-19.431c2.694-1.6,5.855-2.443,8.259-4.543c6.716-5.866,10.097-14.555,12.365-23.687
			c0.76,0.483,1.512,0.999,2.256,1.544c4.883,5.393,9.537,11.444,15.631,14.177c11.736,5.261,25.948,2.216,37.239-2.599
			c0.799-0.342,0.281-1.396-0.395-1.463c-8.906-0.886-17.598-0.635-26.35-2.897c-8.11-2.098-13.401-8.092-18.438-14.295
			c-2.037-2.507-4.589-4.803-7.409-6.551c0.233-1.243,0.467-2.452,0.7-3.668c-1.888-0.727-3.798-1.387-5.74-1.956
			C99.004,212.615,98.78,213.492,98.556,214.371z M92.609,236.639c-2.018,6.928-5.735,11.188-12.113,14.291
			c-2.92,1.422-6.377,2.917-8.366,5.646c-2.237,3.069-3.598,6.725-4.337,10.672c-0.043-2.293-0.001-4.609,0.166-6.958
			c0.829-11.568,6.327-22.247,9.428-33.269c0.193-0.686,0.336-1.405,0.453-2.144c6.501-1.158,12.305-0.616,17.633,1.4
			C94.551,229.745,93.61,233.205,92.609,236.639z"/>
		<path fill="#009C3B" d="M176.575,112.038c-0.533,2.756-0.572,5.503-0.396,8.674c0.43,7.708-3.41,11.128-8.049,15.363
			c1.076,1.108,2.18,2.184,3.316,3.215c6.176-2.708,11.584-7.45,11.717-14.818c0.123-6.846,0.385-12.216,2.85-17.89
			c0.834-0.653,1.645-1.338,2.406-2.096c7.836-7.783,11.715-19.161,14.971-29.582c2.303-0.381,4.391-0.992,6.701-2.098
			c0.131-0.063,0.164-0.283,0.049-0.375c-2.75-2.221-5.281-3.473-8.641-4.596c-1.982-0.662-4.102,0.746-4.658,2.645
			c-1.428,4.872-2.887,9.808-4.754,14.515c-0.193,0.194-0.365,0.432-0.477,0.763c-2.232,6.787-7.711,11.528-11.408,17.365
			c-0.838,0.746-1.707,1.472-2.641,2.152c-8.824,6.432-19.551,7.647-26.643,15.983c1.594,0.738,3.111,1.644,4.561,2.68
			C160.965,117.987,169.03,115.45,176.575,112.038z"/>
		<path fill="#DF0414" d="M80.815,107.473c-0.204-0.185-0.387-0.375-0.599-0.556c4.039-0.253,13.401,2.562,14.056,2.506
			c3.111-0.262,5.247-0.879,7.467-2.585c0.032,0.002,0.064,0.006,0.097,0.008c1.904-1.826,3.14-4.35,3.414-6.94
			c-0.246-0.028-0.489-0.062-0.735-0.086c-0.904-2.882-2.755-5.976-4.86-9.008c-1.638-4.238-3.701-8.289-5.87-12.43
			c3.19,6.09,12.853,8.915,19.23,9.464c13.665,1.176,25.949-2.235,35.984-11.777c0.773-0.736-0.215-1.948-1.117-1.447
			c-10.463,5.814-22.093,7.302-33.611,3.942c-8.309-2.422-14.474-10.041-23.157-10.463c-5.986-0.292-8.873,5.623-8.707,10.578
			c0.191,5.611,4.8,12.336,9.465,17.699c-10.406-2.128-20.556-5.653-30.248-9.912c-3.379-1.485-6.813,2.327-4.064,5.266
			c5.579,5.966,10.446,12.26,14.289,19.478c1.392,2.616,5.015,1.988,6.333-0.046c0.488-1.145,0.804-2.449,1.773-3.227
			C80.225,107.719,80.516,107.579,80.815,107.473z"/>
	</g>
</g>
</svg>
