<?xml version="1.0" encoding="utf-8"?>
<!-- Generator: Adobe Illustrator 16.0.0, SVG Export Plug-In . SVG Version: 6.00 Build 0)  -->
<!DOCTYPE svg PUBLIC "-//W3C//DTD SVG 1.1//EN" "http://www.w3.org/Graphics/SVG/1.1/DTD/svg11.dtd">
<svg version="1.1" id="图层_1" xmlns="http://www.w3.org/2000/svg" xmlns:xlink="http://www.w3.org/1999/xlink" x="0px" y="0px"
	 width="266.59px" height="372.646px" viewBox="0 0 266.59 372.646" enable-background="new 0 0 266.59 372.646"
	 xml:space="preserve">
<path fill="#5CB64A" stroke="#050000" stroke-width="0.5" stroke-miterlimit="10" d="M239.78,0.25H26.813
	C12.143,0.25,0.25,12.142,0.25,26.812v292.941c0,14.67,11.893,26.563,26.563,26.563H239.78c14.67,0,26.561-11.893,26.561-26.563
	V26.812C266.34,12.142,254.45,0.25,239.78,0.25z"/>
<path fill="#FFFFFF" stroke="#000000" stroke-width="0.5" stroke-miterlimit="10" d="M239.78,16.25H26.813
	c-14.67,0-26.563,11.892-26.563,26.562v292.941c0,14.67,11.893,26.562,26.563,26.562H239.78c14.672,0,26.561-11.892,26.561-26.562
	V42.812C266.34,28.142,254.452,16.25,239.78,16.25z"/>
<g>
	<g>
		<path fill="#FFFFFF" stroke="#231815" stroke-width="0.5" stroke-miterlimit="10" d="M239.529,26.582H26.562
			C11.892,26.582,0,38.475,0,53.144v292.941c0,14.67,11.892,26.562,26.562,26.562h212.967c14.67,0,26.563-11.892,26.563-26.562
			V53.144C266.091,38.475,254.199,26.582,239.529,26.582z"/>
	</g>
	<g>
		<path fill="#009C3B" d="M133.424,195.232c-10.803,0-19.267-11.777-19.267-26.811c0-6.381,1.603-12.543,4.513-17.348
			c1.149-1.896,1.149-4.162,0.001-6.058c-2.912-4.805-4.515-10.967-4.515-17.347c0-6.381,1.603-12.543,4.515-17.349
			c1.148-1.896,1.148-4.162,0-6.058c-2.912-4.805-4.515-10.967-4.515-17.346c0-15.033,8.463-26.81,19.267-26.81
			c10.804,0,19.267,11.777,19.267,26.81c0,6.379-1.604,12.541-4.514,17.346c-1.148,1.896-1.148,4.162-0.001,6.058
			c2.911,4.805,4.515,10.967,4.515,17.349c0,6.379-1.604,12.542-4.515,17.347c-1.147,1.896-1.147,4.162,0,6.058
			c2.911,4.805,4.515,10.967,4.515,17.348C152.691,183.454,144.228,195.232,133.424,195.232z M133.424,68.831
			c-5.616,0-10.542,8.452-10.542,18.085c0,4.81,1.155,9.363,3.252,12.827c2.82,4.656,2.82,10.441-0.001,15.097
			c-2.097,3.463-3.251,8.019-3.251,12.829s1.155,9.363,3.251,12.827c2.821,4.656,2.821,10.441,0,15.097
			c-2.097,3.463-3.251,8.02-3.251,12.829c0,9.634,4.927,18.085,10.542,18.085c5.615,0,10.542-8.452,10.542-18.085
			c0-4.809-1.154-9.365-3.253-12.829c-2.819-4.656-2.819-10.441,0.002-15.097c2.097-3.463,3.251-8.017,3.251-12.827
			s-1.154-9.365-3.251-12.829c-2.821-4.656-2.821-10.441,0-15.097c2.097-3.463,3.251-8.017,3.251-12.827
			C143.966,77.282,139.04,68.831,133.424,68.831z"/>
	</g>
	<g>
		<path fill="#009C3B" d="M133.424,340.192c-10.803,0-19.267-11.775-19.267-26.81c0-6.382,1.603-12.543,4.513-17.349
			c1.149-1.896,1.149-4.162,0.001-6.057c-2.912-4.806-4.515-10.968-4.515-17.348c0-6.381,1.603-12.543,4.515-17.348
			c1.148-1.896,1.148-4.162,0-6.059c-2.912-4.805-4.515-10.967-4.515-17.346c0-15.033,8.463-26.81,19.267-26.81
			c10.804,0,19.267,11.776,19.267,26.81c0,6.379-1.604,12.541-4.514,17.346c-1.148,1.896-1.148,4.162-0.001,6.059
			c2.911,4.805,4.515,10.967,4.515,17.348c0,6.38-1.604,12.542-4.515,17.348c-1.147,1.895-1.147,4.161,0,6.057
			c2.911,4.806,4.515,10.967,4.515,17.349C152.691,328.416,144.228,340.192,133.424,340.192z M133.424,213.791
			c-5.616,0-10.542,8.452-10.542,18.086c0,4.81,1.155,9.363,3.252,12.826c2.82,4.656,2.82,10.441-0.001,15.098
			c-2.097,3.463-3.251,8.02-3.251,12.828c0,4.811,1.155,9.363,3.251,12.827c2.821,4.656,2.821,10.44,0,15.097
			c-2.097,3.464-3.251,8.02-3.251,12.829c0,9.634,4.927,18.086,10.542,18.086c5.615,0,10.542-8.452,10.542-18.086
			c0-4.81-1.154-9.365-3.253-12.829c-2.819-4.656-2.819-10.44,0.002-15.097c2.097-3.464,3.251-8.017,3.251-12.827
			c0-4.809-1.154-9.365-3.251-12.828c-2.821-4.656-2.821-10.441,0-15.098c2.097-3.463,3.251-8.017,3.251-12.826
			C143.966,222.243,139.04,213.791,133.424,213.791z"/>
	</g>
</g>
</svg>
