<?xml version="1.0" encoding="utf-8"?>
<!-- Generator: Adobe Illustrator 16.0.0, SVG Export Plug-In . SVG Version: 6.00 Build 0)  -->
<!DOCTYPE svg PUBLIC "-//W3C//DTD SVG 1.1//EN" "http://www.w3.org/Graphics/SVG/1.1/DTD/svg11.dtd">
<svg version="1.1" id="图层_1" xmlns="http://www.w3.org/2000/svg" xmlns:xlink="http://www.w3.org/1999/xlink" x="0px" y="0px"
	 width="266.59px" height="372.646px" viewBox="0 0 266.59 372.646" enable-background="new 0 0 266.59 372.646"
	 xml:space="preserve">
<path fill="#5CB64A" stroke="#050000" stroke-width="0.5" stroke-miterlimit="10" d="M239.78,0.25H26.813
	C12.143,0.25,0.25,12.142,0.25,26.812v292.941c0,14.67,11.893,26.563,26.563,26.563H239.78c14.67,0,26.561-11.893,26.561-26.563
	V26.812C266.34,12.142,254.45,0.25,239.78,0.25z"/>
<path fill="#FFFFFF" stroke="#000000" stroke-width="0.5" stroke-miterlimit="10" d="M239.78,16.25H26.813
	c-14.67,0-26.563,11.892-26.563,26.562v292.941c0,14.67,11.893,26.562,26.563,26.562H239.78c14.672,0,26.561-11.892,26.561-26.562
	V42.812C266.34,28.142,254.452,16.25,239.78,16.25z"/>
<g>
	<g>
		<path fill="#FFFFFF" stroke="#231815" stroke-width="0.5" stroke-miterlimit="10" d="M239.53,26.581H26.562
			C11.892,26.581,0,38.474,0,53.144v292.94c0,14.67,11.892,26.563,26.562,26.563H239.53c14.669,0,26.562-11.893,26.562-26.563
			V53.144C266.091,38.474,254.199,26.581,239.53,26.581z"/>
	</g>
	<g>
		<path fill="#DF0414" d="M136.922,149.003c-7.107,0-12.674-7.748-12.674-17.638c0-4.198,1.054-8.252,2.969-11.414
			c0.756-1.247,0.756-2.737,0.001-3.985c-1.916-3.161-2.97-7.215-2.97-11.411c0-4.199,1.054-8.253,2.97-11.414
			c0.755-1.247,0.755-2.738,0-3.985c-1.916-3.161-2.97-7.215-2.97-11.412c0-9.89,5.567-17.638,12.674-17.638
			c7.108,0,12.676,7.748,12.676,17.638c0,4.197-1.054,8.251-2.97,11.412c-0.756,1.247-0.756,2.738,0,3.985
			c1.916,3.161,2.97,7.215,2.97,11.414c0,4.196-1.054,8.25-2.97,11.411c-0.756,1.248-0.756,2.738,0,3.985
			c1.916,3.162,2.97,7.216,2.97,11.414C149.598,141.255,144.031,149.003,136.922,149.003z M136.922,65.845
			c-3.694,0-6.935,5.561-6.935,11.898c0,3.164,0.76,6.16,2.14,8.438c1.856,3.063,1.856,6.869,0,9.933
			c-1.379,2.278-2.139,5.275-2.139,8.44c0,3.164,0.76,6.159,2.139,8.438c1.856,3.063,1.856,6.869,0,9.932
			c-1.379,2.278-2.139,5.276-2.139,8.44c0,6.338,3.241,11.898,6.935,11.898c3.694,0,6.937-5.561,6.937-11.898
			c0-3.164-0.76-6.162-2.141-8.44c-1.854-3.063-1.854-6.869,0.002-9.932c1.379-2.279,2.139-5.274,2.139-8.438
			c0-3.165-0.76-6.162-2.139-8.44c-1.856-3.063-1.856-6.869,0-9.933c1.379-2.278,2.139-5.274,2.139-8.438
			C143.859,71.406,140.617,65.845,136.922,65.845z"/>
	</g>
	<g>
		<path fill="#004B9F" d="M136.922,246.597c-7.107,0-12.674-7.747-12.674-17.638c0-4.198,1.054-8.252,2.969-11.413
			c0.756-1.247,0.756-2.738,0.001-3.985c-1.916-3.161-2.97-7.216-2.97-11.412c0-4.198,1.054-8.252,2.97-11.413
			c0.755-1.247,0.755-2.738,0-3.985c-1.916-3.161-2.97-7.216-2.97-11.412c0-9.891,5.567-17.638,12.674-17.638
			c7.108,0,12.676,7.747,12.676,17.638c0,4.196-1.054,8.251-2.97,11.412c-0.756,1.247-0.756,2.738,0,3.985
			c1.916,3.161,2.97,7.215,2.97,11.413c0,4.196-1.054,8.251-2.97,11.412c-0.756,1.247-0.756,2.738,0,3.985
			c1.916,3.161,2.97,7.215,2.97,11.413C149.598,238.85,144.031,246.597,136.922,246.597z M136.922,163.44
			c-3.694,0-6.935,5.561-6.935,11.898c0,3.164,0.76,6.16,2.14,8.438c1.856,3.063,1.856,6.869,0,9.933
			c-1.379,2.278-2.139,5.275-2.139,8.439s0.76,6.16,2.139,8.438c1.856,3.063,1.856,6.869,0,9.933
			c-1.379,2.278-2.139,5.275-2.139,8.439c0,6.338,3.241,11.898,6.935,11.898c3.694,0,6.937-5.561,6.937-11.898
			c0-3.164-0.76-6.161-2.141-8.439c-1.854-3.063-1.854-6.869,0.002-9.933c1.379-2.278,2.139-5.274,2.139-8.438
			s-0.76-6.161-2.139-8.439c-1.856-3.063-1.856-6.869,0-9.933c1.379-2.278,2.139-5.274,2.139-8.438
			C143.859,169,140.617,163.44,136.922,163.44z"/>
	</g>
	<g>
		<path fill="#004B9F" d="M136.922,344.192c-7.107,0-12.674-7.748-12.674-17.638c0-4.198,1.054-8.253,2.969-11.414
			c0.756-1.247,0.756-2.738,0.001-3.985c-1.916-3.161-2.97-7.215-2.97-11.412c0-4.198,1.054-8.252,2.97-11.413
			c0.755-1.247,0.755-2.738,0-3.985c-1.916-3.161-2.97-7.215-2.97-11.412c0-9.89,5.567-17.638,12.674-17.638
			c7.108,0,12.676,7.748,12.676,17.638c0,4.197-1.054,8.251-2.97,11.412c-0.756,1.247-0.756,2.738,0,3.985
			c1.916,3.161,2.97,7.215,2.97,11.413c0,4.197-1.054,8.251-2.97,11.412c-0.756,1.247-0.756,2.738,0,3.985
			c1.916,3.161,2.97,7.216,2.97,11.414C149.598,336.444,144.031,344.192,136.922,344.192z M136.922,261.033
			c-3.694,0-6.935,5.561-6.935,11.898c0,3.164,0.76,6.16,2.14,8.438c1.856,3.063,1.856,6.869,0,9.933
			c-1.379,2.278-2.139,5.275-2.139,8.439s0.76,6.16,2.139,8.438c1.856,3.063,1.856,6.869,0,9.933
			c-1.379,2.278-2.139,5.276-2.139,8.44c0,6.338,3.241,11.897,6.935,11.897c3.694,0,6.937-5.56,6.937-11.897
			c0-3.164-0.76-6.162-2.141-8.44c-1.854-3.063-1.854-6.869,0.002-9.933c1.379-2.278,2.139-5.274,2.139-8.438
			s-0.76-6.161-2.139-8.439c-1.856-3.063-1.856-6.869,0-9.933c1.379-2.278,2.139-5.274,2.139-8.438
			C143.859,266.594,140.617,261.033,136.922,261.033z"/>
	</g>
	<g>
		<path fill="#009C3B" d="M196.722,246.597c-7.107,0-12.676-7.747-12.676-17.638c0-4.198,1.055-8.252,2.969-11.413
			c0.757-1.247,0.757-2.738,0.002-3.985c-1.916-3.161-2.971-7.216-2.971-11.412c0-4.198,1.055-8.252,2.971-11.413
			c0.755-1.247,0.755-2.738,0-3.985c-1.916-3.161-2.971-7.216-2.971-11.412c0-9.891,5.568-17.638,12.676-17.638
			s12.675,7.747,12.675,17.638c0,4.196-1.054,8.251-2.97,11.412c-0.756,1.247-0.756,2.738,0,3.985
			c1.916,3.161,2.97,7.215,2.97,11.413c0,4.196-1.054,8.251-2.97,11.412c-0.756,1.247-0.756,2.738,0,3.985
			c1.916,3.161,2.97,7.215,2.97,11.413C209.397,238.85,203.83,246.597,196.722,246.597z M196.722,163.44
			c-3.695,0-6.936,5.561-6.936,11.898c0,3.164,0.76,6.16,2.139,8.438c1.855,3.063,1.855,6.869,0,9.933
			c-1.379,2.278-2.139,5.275-2.139,8.439s0.76,6.16,2.139,8.438c1.855,3.063,1.855,6.869,0,9.933
			c-1.379,2.278-2.139,5.275-2.139,8.439c0,6.338,3.24,11.898,6.936,11.898c3.694,0,6.936-5.561,6.936-11.898
			c0-3.164-0.76-6.161-2.141-8.439c-1.854-3.063-1.854-6.869,0.002-9.933c1.379-2.278,2.139-5.274,2.139-8.438
			s-0.76-6.161-2.139-8.439c-1.856-3.063-1.856-6.869,0-9.933c1.379-2.278,2.139-5.274,2.139-8.438
			C203.658,169,200.417,163.44,196.722,163.44z"/>
	</g>
	<g>
		<path fill="#009C3B" d="M196.722,344.192c-7.107,0-12.676-7.748-12.676-17.638c0-4.198,1.055-8.253,2.969-11.414
			c0.757-1.247,0.757-2.738,0.002-3.985c-1.916-3.161-2.971-7.215-2.971-11.412c0-4.198,1.055-8.252,2.971-11.413
			c0.755-1.247,0.755-2.738,0-3.985c-1.916-3.161-2.971-7.215-2.971-11.412c0-9.89,5.568-17.638,12.676-17.638
			s12.675,7.748,12.675,17.638c0,4.197-1.054,8.251-2.97,11.412c-0.756,1.247-0.756,2.738,0,3.985
			c1.916,3.161,2.97,7.215,2.97,11.413c0,4.197-1.054,8.251-2.97,11.412c-0.756,1.247-0.756,2.738,0,3.985
			c1.916,3.161,2.97,7.216,2.97,11.414C209.397,336.444,203.83,344.192,196.722,344.192z M196.722,261.033
			c-3.695,0-6.936,5.561-6.936,11.898c0,3.164,0.76,6.16,2.139,8.438c1.855,3.063,1.855,6.869,0,9.933
			c-1.379,2.278-2.139,5.275-2.139,8.439s0.76,6.16,2.139,8.438c1.855,3.063,1.855,6.869,0,9.933
			c-1.379,2.278-2.139,5.276-2.139,8.44c0,6.338,3.24,11.897,6.936,11.897c3.694,0,6.936-5.56,6.936-11.897
			c0-3.164-0.76-6.162-2.141-8.44c-1.854-3.063-1.854-6.869,0.002-9.933c1.379-2.278,2.139-5.274,2.139-8.438
			s-0.76-6.161-2.139-8.439c-1.856-3.063-1.856-6.869,0-9.933c1.379-2.278,2.139-5.274,2.139-8.438
			C203.658,266.594,200.417,261.033,196.722,261.033z"/>
	</g>
	<g>
		<path fill="#009C3B" d="M64.449,228.959c0-4.198,1.054-8.252,2.97-11.413c0.755-1.247,0.755-2.738,0-3.985
			c-1.916-3.161-2.97-7.216-2.97-11.412c0-4.198,1.054-8.252,2.97-11.413c0.755-1.247,0.755-2.738-0.001-3.985
			c-1.915-3.161-2.969-7.216-2.969-11.412c0-9.891,5.568-17.638,12.675-17.638s12.675,7.747,12.675,17.638
			c0,4.196-1.054,8.251-2.97,11.412c-0.755,1.247-0.755,2.738,0,3.985c1.916,3.161,2.97,7.215,2.97,11.413
			c0,4.196-1.054,8.251-2.97,11.412c-0.755,1.247-0.755,2.738,0,3.985c1.915,3.161,2.969,7.215,2.969,11.413
			c0,9.891-5.568,17.638-12.675,17.638S64.449,238.85,64.449,228.959z M70.188,175.338c0,3.164,0.759,6.16,2.139,8.438
			c1.856,3.063,1.856,6.869,0,9.933c-1.38,2.278-2.139,5.275-2.139,8.439s0.759,6.16,2.139,8.438c1.856,3.063,1.856,6.869,0,9.933
			c-1.38,2.278-2.14,5.275-2.14,8.439c0,6.338,3.241,11.898,6.936,11.898s6.936-5.561,6.936-11.898c0-3.164-0.759-6.161-2.139-8.439
			c-1.856-3.063-1.856-6.869,0-9.933c1.379-2.278,2.139-5.274,2.139-8.438s-0.759-6.161-2.139-8.439
			c-1.856-3.063-1.856-6.869-0.001-9.933c1.38-2.278,2.14-5.274,2.14-8.438c0-6.338-3.241-11.898-6.936-11.898
			S70.188,169,70.188,175.338z"/>
	</g>
	<g>
		<path fill="#009C3B" d="M64.449,326.554c0-4.198,1.054-8.253,2.97-11.414c0.755-1.247,0.755-2.738,0-3.985
			c-1.916-3.161-2.97-7.215-2.97-11.412c0-4.198,1.054-8.252,2.97-11.413c0.755-1.247,0.755-2.738-0.001-3.985
			c-1.915-3.161-2.969-7.215-2.969-11.412c0-9.89,5.568-17.638,12.675-17.638s12.675,7.748,12.675,17.638
			c0,4.197-1.054,8.251-2.97,11.412c-0.755,1.247-0.755,2.738,0,3.985c1.916,3.161,2.97,7.215,2.97,11.413
			c0,4.197-1.054,8.251-2.97,11.412c-0.755,1.247-0.755,2.738,0,3.985c1.915,3.161,2.969,7.216,2.969,11.414
			c0,9.89-5.568,17.638-12.675,17.638S64.449,336.444,64.449,326.554z M70.188,272.932c0,3.164,0.759,6.16,2.139,8.438
			c1.856,3.063,1.856,6.869,0,9.933c-1.38,2.278-2.139,5.275-2.139,8.439s0.759,6.16,2.139,8.438c1.856,3.063,1.856,6.869,0,9.933
			c-1.38,2.278-2.14,5.276-2.14,8.44c0,6.338,3.241,11.897,6.936,11.897s6.936-5.56,6.936-11.897c0-3.164-0.759-6.162-2.139-8.44
			c-1.856-3.063-1.856-6.869,0-9.933c1.379-2.278,2.139-5.274,2.139-8.438s-0.759-6.161-2.139-8.439
			c-1.856-3.063-1.856-6.869-0.001-9.933c1.38-2.278,2.14-5.274,2.14-8.438c0-6.338-3.241-11.898-6.936-11.898
			S70.188,266.594,70.188,272.932z"/>
	</g>
</g>
</svg>
