<?xml version="1.0" encoding="utf-8"?>
<!-- Generator: Adobe Illustrator 16.0.0, SVG Export Plug-In . SVG Version: 6.00 Build 0)  -->
<!DOCTYPE svg PUBLIC "-//W3C//DTD SVG 1.1//EN" "http://www.w3.org/Graphics/SVG/1.1/DTD/svg11.dtd">
<svg version="1.1" id="图层_1" xmlns="http://www.w3.org/2000/svg" xmlns:xlink="http://www.w3.org/1999/xlink" x="0px" y="0px"
	 width="266.59px" height="372.646px" viewBox="0 0 266.59 372.646" enable-background="new 0 0 266.59 372.646"
	 xml:space="preserve">
<path fill="#5CB64A" stroke="#050000" stroke-width="0.5" stroke-miterlimit="10" d="M239.78,0.25H26.813
	C12.143,0.25,0.25,12.142,0.25,26.812v292.941c0,14.67,11.893,26.563,26.563,26.563H239.78c14.67,0,26.561-11.893,26.561-26.563
	V26.812C266.34,12.142,254.45,0.25,239.78,0.25z"/>
<path fill="#FFFFFF" stroke="#000000" stroke-width="0.5" stroke-miterlimit="10" d="M239.78,16.25H26.813
	c-14.67,0-26.563,11.892-26.563,26.562v292.941c0,14.67,11.893,26.562,26.563,26.562H239.78c14.672,0,26.561-11.892,26.561-26.562
	V42.812C266.34,28.142,254.452,16.25,239.78,16.25z"/>
<g>
	<g>
		<path fill="#FFFFFF" stroke="#231815" stroke-width="0.5" stroke-miterlimit="10" d="M239.53,26.581H26.562
			C11.893,26.581,0,38.474,0,53.144v292.94c0,14.67,11.893,26.563,26.562,26.563H239.53c14.67,0,26.563-11.893,26.563-26.563V53.144
			C266.092,38.474,254.2,26.581,239.53,26.581z"/>
	</g>
	<g>
		<path fill="#009C3B" d="M75.981,195.231c-10.803,0-19.267-11.776-19.267-26.81c0-6.382,1.603-12.544,4.514-17.349
			c1.149-1.896,1.149-4.162,0.001-6.058c-2.912-4.806-4.515-10.968-4.515-17.347c0-6.382,1.603-12.544,4.515-17.349
			c1.148-1.896,1.148-4.162,0-6.058c-2.912-4.805-4.515-10.967-4.515-17.347c0-15.033,8.464-26.81,19.267-26.81
			c10.803,0,19.267,11.776,19.267,26.81c0,6.38-1.603,12.542-4.513,17.347c-1.149,1.896-1.149,4.162-0.001,6.058
			c2.912,4.805,4.515,10.967,4.515,17.349c0,6.379-1.603,12.541-4.515,17.347c-1.148,1.896-1.148,4.161,0,6.058
			c2.912,4.805,4.515,10.967,4.515,17.349C95.248,183.454,86.784,195.231,75.981,195.231z M75.981,68.83
			c-5.615,0-10.542,8.451-10.542,18.085c0,4.81,1.154,9.363,3.252,12.827c2.82,4.656,2.82,10.44-0.001,15.097
			c-2.097,3.464-3.251,8.02-3.251,12.829s1.154,9.363,3.251,12.826c2.821,4.656,2.821,10.441,0,15.098
			c-2.097,3.463-3.251,8.02-3.251,12.829c0,9.634,4.927,18.085,10.542,18.085c5.616,0,10.542-8.451,10.542-18.085
			c0-4.81-1.155-9.366-3.252-12.829c-2.82-4.656-2.82-10.441,0.001-15.098c2.097-3.463,3.251-8.017,3.251-12.826
			s-1.155-9.365-3.251-12.829c-2.821-4.656-2.821-10.44,0-15.097c2.097-3.464,3.251-8.018,3.251-12.827
			C86.523,77.281,81.597,68.83,75.981,68.83z"/>
	</g>
	<g>
		<path fill="#009C3B" d="M75.981,340.192c-10.803,0-19.267-11.776-19.267-26.81c0-6.382,1.603-12.544,4.514-17.349
			c1.149-1.896,1.149-4.162,0.001-6.058c-2.912-4.806-4.515-10.968-4.515-17.347c0-6.382,1.603-12.543,4.515-17.349
			c1.148-1.896,1.148-4.162,0-6.058c-2.912-4.805-4.515-10.967-4.515-17.347c0-15.033,8.464-26.81,19.267-26.81
			c10.803,0,19.267,11.776,19.267,26.81c0,6.38-1.603,12.542-4.513,17.347c-1.149,1.896-1.149,4.162-0.001,6.058
			c2.912,4.806,4.515,10.967,4.515,17.349c0,6.379-1.603,12.541-4.515,17.347c-1.148,1.896-1.148,4.162,0,6.058
			c2.912,4.805,4.515,10.967,4.515,17.349C95.248,328.415,86.784,340.192,75.981,340.192z M75.981,213.791
			c-5.615,0-10.542,8.451-10.542,18.085c0,4.81,1.154,9.363,3.252,12.827c2.82,4.656,2.82,10.44-0.001,15.097
			c-2.097,3.464-3.251,8.02-3.251,12.829s1.154,9.363,3.251,12.826c2.821,4.656,2.821,10.441,0,15.098
			c-2.097,3.463-3.251,8.02-3.251,12.829c0,9.634,4.927,18.085,10.542,18.085c5.616,0,10.542-8.451,10.542-18.085
			c0-4.81-1.155-9.366-3.252-12.829c-2.82-4.656-2.82-10.441,0.001-15.098c2.097-3.463,3.251-8.017,3.251-12.826
			s-1.155-9.365-3.251-12.829c-2.821-4.656-2.821-10.44,0-15.097c2.097-3.464,3.251-8.018,3.251-12.827
			C86.523,222.242,81.597,213.791,75.981,213.791z"/>
	</g>
	<g>
		<path fill="#009C3B" d="M139.358,195.231c-10.803,0-19.266-11.776-19.266-26.81c0-6.382,1.603-12.544,4.514-17.349
			c1.149-1.896,1.149-4.162,0.001-6.058c-2.912-4.806-4.515-10.968-4.515-17.347c0-6.382,1.603-12.544,4.515-17.349
			c1.148-1.896,1.148-4.162,0-6.058c-2.912-4.805-4.515-10.967-4.515-17.347c0-15.033,8.463-26.81,19.266-26.81
			c10.805,0,19.268,11.776,19.268,26.81c0,6.38-1.604,12.542-4.514,17.347c-1.148,1.896-1.148,4.162-0.002,6.058
			c2.912,4.805,4.516,10.967,4.516,17.349c0,6.379-1.604,12.541-4.516,17.347c-1.146,1.896-1.146,4.161,0,6.058
			c2.912,4.805,4.516,10.967,4.516,17.349C158.625,183.454,150.163,195.231,139.358,195.231z M139.358,68.83
			c-5.615,0-10.542,8.451-10.542,18.085c0,4.81,1.154,9.363,3.252,12.827c2.82,4.656,2.82,10.44-0.001,15.097
			c-2.097,3.464-3.251,8.02-3.251,12.829s1.154,9.363,3.251,12.826c2.821,4.656,2.821,10.441,0,15.098
			c-2.097,3.463-3.251,8.02-3.251,12.829c0,9.634,4.926,18.085,10.542,18.085c5.617,0,10.543-8.451,10.543-18.085
			c0-4.81-1.154-9.366-3.252-12.829c-2.82-4.656-2.82-10.441,0-15.098c2.098-3.463,3.252-8.017,3.252-12.826
			s-1.154-9.365-3.252-12.829c-2.82-4.656-2.82-10.44,0-15.097c2.098-3.464,3.252-8.018,3.252-12.827
			C149.901,77.281,144.975,68.83,139.358,68.83z"/>
	</g>
	<g>
		<path fill="#009C3B" d="M139.358,340.192c-10.803,0-19.266-11.776-19.266-26.81c0-6.382,1.603-12.544,4.514-17.349
			c1.149-1.896,1.149-4.162,0.001-6.058c-2.912-4.806-4.515-10.968-4.515-17.347c0-6.382,1.603-12.543,4.515-17.349
			c1.148-1.896,1.148-4.162,0-6.058c-2.912-4.805-4.515-10.967-4.515-17.347c0-15.033,8.463-26.81,19.266-26.81
			c10.805,0,19.268,11.776,19.268,26.81c0,6.38-1.604,12.542-4.514,17.347c-1.148,1.896-1.148,4.162-0.002,6.058
			c2.912,4.806,4.516,10.967,4.516,17.349c0,6.379-1.604,12.541-4.516,17.347c-1.146,1.896-1.146,4.162,0,6.058
			c2.912,4.805,4.516,10.967,4.516,17.349C158.625,328.415,150.163,340.192,139.358,340.192z M139.358,213.791
			c-5.615,0-10.542,8.451-10.542,18.085c0,4.81,1.154,9.363,3.252,12.827c2.82,4.656,2.82,10.44-0.001,15.097
			c-2.097,3.464-3.251,8.02-3.251,12.829s1.154,9.363,3.251,12.826c2.821,4.656,2.821,10.441,0,15.098
			c-2.097,3.463-3.251,8.02-3.251,12.829c0,9.634,4.926,18.085,10.542,18.085c5.617,0,10.543-8.451,10.543-18.085
			c0-4.81-1.154-9.366-3.252-12.829c-2.82-4.656-2.82-10.441,0-15.098c2.098-3.463,3.252-8.017,3.252-12.826
			s-1.154-9.365-3.252-12.829c-2.82-4.656-2.82-10.44,0-15.097c2.098-3.464,3.252-8.018,3.252-12.827
			C149.901,222.242,144.975,213.791,139.358,213.791z"/>
	</g>
	<g>
		<path fill="#009C3B" d="M199.643,195.231c-10.803,0-19.266-11.776-19.266-26.81c0-6.382,1.604-12.544,4.514-17.349
			c1.148-1.896,1.148-4.162,0-6.058c-2.91-4.806-4.514-10.968-4.514-17.347c0-6.382,1.604-12.544,4.514-17.349
			c1.148-1.896,1.148-4.162,0-6.058c-2.91-4.805-4.514-10.967-4.514-17.347c0-15.033,8.463-26.81,19.266-26.81
			c10.805,0,19.268,11.776,19.268,26.81c0,6.38-1.604,12.542-4.514,17.347c-1.148,1.896-1.148,4.162,0,6.058
			c2.91,4.805,4.514,10.967,4.514,17.349c0,6.379-1.604,12.541-4.514,17.347c-1.148,1.896-1.148,4.161,0,6.058
			c2.91,4.805,4.514,10.967,4.514,17.349C218.911,183.454,210.448,195.231,199.643,195.231z M199.643,68.83
			c-5.615,0-10.541,8.451-10.541,18.085c0,4.81,1.154,9.363,3.252,12.827c2.82,4.656,2.82,10.44,0,15.097
			c-2.098,3.464-3.252,8.02-3.252,12.829s1.154,9.363,3.252,12.826c2.82,4.656,2.82,10.441,0,15.098
			c-2.098,3.463-3.252,8.02-3.252,12.829c0,9.634,4.926,18.085,10.541,18.085c5.617,0,10.543-8.451,10.543-18.085
			c0-4.81-1.154-9.366-3.252-12.829c-2.82-4.656-2.82-10.441,0-15.098c2.098-3.463,3.252-8.017,3.252-12.826
			s-1.154-9.365-3.252-12.829c-2.82-4.656-2.82-10.44,0-15.097c2.098-3.464,3.252-8.018,3.252-12.827
			C210.186,77.281,205.26,68.83,199.643,68.83z"/>
	</g>
	<g>
		<path fill="#009C3B" d="M199.643,340.192c-10.803,0-19.266-11.776-19.266-26.81c0-6.382,1.604-12.544,4.514-17.349
			c1.148-1.896,1.148-4.162,0-6.058c-2.91-4.806-4.514-10.968-4.514-17.347c0-6.382,1.604-12.543,4.514-17.349
			c1.148-1.896,1.148-4.162,0-6.058c-2.91-4.805-4.514-10.967-4.514-17.347c0-15.033,8.463-26.81,19.266-26.81
			c10.805,0,19.268,11.776,19.268,26.81c0,6.38-1.604,12.542-4.514,17.347c-1.148,1.896-1.148,4.162,0,6.058
			c2.91,4.806,4.514,10.967,4.514,17.349c0,6.379-1.604,12.541-4.514,17.347c-1.148,1.896-1.148,4.162,0,6.058
			c2.91,4.805,4.514,10.967,4.514,17.349C218.911,328.415,210.448,340.192,199.643,340.192z M199.643,213.791
			c-5.615,0-10.541,8.451-10.541,18.085c0,4.81,1.154,9.363,3.252,12.827c2.82,4.656,2.82,10.44,0,15.097
			c-2.098,3.464-3.252,8.02-3.252,12.829s1.154,9.363,3.252,12.826c2.82,4.656,2.82,10.441,0,15.098
			c-2.098,3.463-3.252,8.02-3.252,12.829c0,9.634,4.926,18.085,10.541,18.085c5.617,0,10.543-8.451,10.543-18.085
			c0-4.81-1.154-9.366-3.252-12.829c-2.82-4.656-2.82-10.441,0-15.098c2.098-3.463,3.252-8.017,3.252-12.826
			s-1.154-9.365-3.252-12.829c-2.82-4.656-2.82-10.44,0-15.097c2.098-3.464,3.252-8.018,3.252-12.827
			C210.186,222.242,205.26,213.791,199.643,213.791z"/>
	</g>
</g>
</svg>
